<svg xmlns="http://www.w3.org/2000/svg" width="108" height="108" viewBox="0 0 108 108"><defs><style>.a{fill:#00796b;}.b{fill:none;}.c{fill:#fff;}</style></defs><g transform="translate(-893 -2116)"><circle class="a" cx="54" cy="54" r="54" transform="translate(893 2116)"/><g transform="translate(910 2133)"><path class="b" d="M317.9,552.9h74v74h-74Z" transform="translate(-317.9 -552.9)"/><path class="c" d="M350.932,554.9a30.832,30.832,0,1,0,30.832,30.832A30.923,30.923,0,0,0,350.932,554.9Zm0,55.5A24.665,24.665,0,1,1,375.6,585.732,24.738,24.738,0,0,1,350.932,610.4Z" transform="translate(-313.317 -548.734)"/><path class="c" d="M25.022,4a9.511,9.511,0,1,1-9.511,9.511A9.5,9.5,0,0,1,25.022,4Zm0,45.336A22.828,22.828,0,0,1,6,39.128c.1-6.309,12.681-9.765,19.022-9.765,6.309,0,18.927,3.456,19.022,9.765A22.828,22.828,0,0,1,25.022,49.336Z" transform="translate(12.499 14.5)"/></g></g></svg>