<svg xmlns="http://www.w3.org/2000/svg" xmlns:xlink="http://www.w3.org/1999/xlink" width="936" height="419" viewBox="0 0 936 419"><defs><style>.a,.c,.k{fill:none;}.a,.c{stroke:#707070;}.b{fill:#f5f6f7;}.c{stroke-width:2px;stroke-dasharray:9 5;opacity:0.3;}.d{stroke:#1d7fea;fill:url(#a);}.e{fill:#fba615;}.f{fill:#586b76;}.g{fill:#0a81f9;}.h{fill:#0571f9;}.i{fill:#fcb143;}.j{stroke:none;}</style><linearGradient id="a" x1="0.5" y1="0.086" x2="0.5" y2="0.909" gradientUnits="objectBoundingBox"><stop offset="0" stop-color="#f4f9ff"/><stop offset="1" stop-color="#c8e1fe"/></linearGradient></defs><g transform="translate(-79 -3392)"><g transform="translate(7 1486)"><path class="a" d="M0,1110" transform="translate(887.5 1003.5)"/><rect class="b" width="936" height="419" rx="33" transform="translate(72 1906)"/><g class="c" transform="translate(134 1971)"><rect class="j" width="812" height="290" rx="21"/><rect class="k" x="1" y="1" width="810" height="288" rx="20"/></g><path d="M.66-18.96v-2.97H17.58v2.97H10.95V-.6H7.26V-18.96ZM26.585-.6a5.256,5.256,0,0,1-.42-1.5,5.473,5.473,0,0,1-4.17,1.8A5.583,5.583,0,0,1,18.11-1.665,4.362,4.362,0,0,1,16.595-5.04a4.5,4.5,0,0,1,1.89-3.9,9.083,9.083,0,0,1,5.34-1.35h2.22v-1.02a2.8,2.8,0,0,0-.69-1.995,2.708,2.708,0,0,0-2.07-.735,3.072,3.072,0,0,0-2.04.63,1.93,1.93,0,0,0-.75,1.53h-3.54a4.371,4.371,0,0,1,1.755-3.36,7.077,7.077,0,0,1,4.755-1.5,6.928,6.928,0,0,1,4.41,1.365,4.885,4.885,0,0,1,1.74,4.1v7.02a8.194,8.194,0,0,0,.6,3.42V-.6Zm-.54-4.47v-3h-2.16q-3.72.09-3.72,2.67a2.179,2.179,0,0,0,.645,1.605,2.54,2.54,0,0,0,1.875.645,3.678,3.678,0,0,0,2.115-.6A3.585,3.585,0,0,0,26.045-5.07ZM41.529-.3a5.428,5.428,0,0,1-4.17-1.71v7.5h-3.54V-16.44h3.27l.15,1.59a5.283,5.283,0,0,1,4.26-1.89,5.328,5.328,0,0,1,4.62,2.22,9.833,9.833,0,0,1,1.59,5.85v.3A9.855,9.855,0,0,1,46.1-2.61,5.239,5.239,0,0,1,41.529-.3Zm-1.02-13.53A3.29,3.29,0,0,0,37.359-12v6.99a3.345,3.345,0,0,0,3.18,1.86A2.9,2.9,0,0,0,43.3-4.695a7.586,7.586,0,0,0,.84-3.675v-.3a7.305,7.305,0,0,0-.855-3.645A2.944,2.944,0,0,0,40.509-13.83ZM66.438-.66A7.014,7.014,0,0,1,64.1-.3a4.352,4.352,0,0,1-2.94-1,4.373,4.373,0,0,1-1.17-3.465v-9.06h-2.61v-2.61h2.61v-3.87h3.54v3.87h2.82v2.61h-2.82v8.85q0,1.08.465,1.4a2.127,2.127,0,0,0,1.215.315,5.3,5.3,0,0,0,1.23-.15Zm1.835-8.01a8.622,8.622,0,0,1,1.95-5.76,6.686,6.686,0,0,1,5.4-2.31,6.723,6.723,0,0,1,5.385,2.25,8.589,8.589,0,0,1,2,5.64v.48a8.665,8.665,0,0,1-1.935,5.76A6.676,6.676,0,0,1,75.653-.3a6.72,6.72,0,0,1-5.43-2.31,8.622,8.622,0,0,1-1.95-5.76Zm3.54.3a7.082,7.082,0,0,0,.915,3.675A3.145,3.145,0,0,0,75.653-3.15a3.118,3.118,0,0,0,2.895-1.545,7.082,7.082,0,0,0,.915-3.675v-.3a7.1,7.1,0,0,0-.915-3.66,3.138,3.138,0,0,0-2.925-1.56,3.111,3.111,0,0,0-2.895,1.56,7.1,7.1,0,0,0-.915,3.66ZM103.862-.6a5.256,5.256,0,0,1-.42-1.5,5.473,5.473,0,0,1-4.17,1.8,5.583,5.583,0,0,1-3.885-1.365A4.362,4.362,0,0,1,93.872-5.04a4.5,4.5,0,0,1,1.89-3.9,9.083,9.083,0,0,1,5.34-1.35h2.22v-1.02a2.8,2.8,0,0,0-.69-1.995,2.708,2.708,0,0,0-2.07-.735,3.072,3.072,0,0,0-2.04.63,1.93,1.93,0,0,0-.75,1.53h-3.54a4.371,4.371,0,0,1,1.755-3.36,7.077,7.077,0,0,1,4.755-1.5,6.928,6.928,0,0,1,4.41,1.365,4.885,4.885,0,0,1,1.74,4.1v7.02a8.194,8.194,0,0,0,.6,3.42V-.6Zm-.54-4.47v-3h-2.16q-3.72.09-3.72,2.67a2.179,2.179,0,0,0,.645,1.605,2.54,2.54,0,0,0,1.875.645,3.678,3.678,0,0,0,2.115-.6A3.584,3.584,0,0,0,103.322-5.07ZM121.086-.6l-.15-1.65a5.214,5.214,0,0,1-4.26,1.95,5.356,5.356,0,0,1-4.56-2.295,9.467,9.467,0,0,1-1.68-5.745v-.33a9.46,9.46,0,0,1,1.68-5.835,5.432,5.432,0,0,1,4.59-2.235,5.129,5.129,0,0,1,4.05,1.74v-8.1h3.57V-.6Zm-7.11-7.74a7.345,7.345,0,0,0,.84,3.615,2.911,2.911,0,0,0,2.76,1.515,3.32,3.32,0,0,0,3.18-1.98v-6.75a3.314,3.314,0,0,0-3.15-1.89,2.937,2.937,0,0,0-2.79,1.515,7.411,7.411,0,0,0-.84,3.645ZM138.491-.6l-.15-1.65a5.214,5.214,0,0,1-4.26,1.95,5.356,5.356,0,0,1-4.56-2.295,9.467,9.467,0,0,1-1.68-5.745v-.33a9.46,9.46,0,0,1,1.68-5.835,5.432,5.432,0,0,1,4.59-2.235,5.129,5.129,0,0,1,4.05,1.74v-8.1h3.57V-.6Zm-7.11-7.74a7.345,7.345,0,0,0,.84,3.615,2.911,2.911,0,0,0,2.76,1.515,3.32,3.32,0,0,0,3.18-1.98v-6.75a3.314,3.314,0,0,0-3.15-1.89,2.937,2.937,0,0,0-2.79,1.515,7.411,7.411,0,0,0-.84,3.645ZM165.32-6.12a2.607,2.607,0,0,0-.84-2.025,11.8,11.8,0,0,0-3.885-1.71,15.454,15.454,0,0,1-4.935-2.415,4.848,4.848,0,0,1-1.89-4.05,5.2,5.2,0,0,1,2.085-4.245,8.512,8.512,0,0,1,5.475-1.665,7.865,7.865,0,0,1,5.64,1.935,6.133,6.133,0,0,1,2.04,4.6h-3.69a3.541,3.541,0,0,0-.99-2.595,4.131,4.131,0,0,0-3.06-1.005,4.148,4.148,0,0,0-2.88.855,2.758,2.758,0,0,0-.93,2.115,2.339,2.339,0,0,0,1.11,1.98,11.794,11.794,0,0,0,3.36,1.44,13.536,13.536,0,0,1,5.355,2.625A5.323,5.323,0,0,1,169.01-6.15a5.1,5.1,0,0,1-2.055,4.275A8.876,8.876,0,0,1,161.42-.3a10.676,10.676,0,0,1-3.945-.75,7.661,7.661,0,0,1-3.15-2.25,5.674,5.674,0,0,1-1.245-3.75h3.72a3.247,3.247,0,0,0,1.335,2.925,5.816,5.816,0,0,0,3.285.885,4.557,4.557,0,0,0,2.925-.795A2.56,2.56,0,0,0,165.32-6.12ZM172.4-20.58a1.832,1.832,0,0,1,.54-1.35,2.007,2.007,0,0,1,1.485-.54,2.007,2.007,0,0,1,1.485.54,1.832,1.832,0,0,1,.54,1.35,1.832,1.832,0,0,1-.54,1.35,2.007,2.007,0,0,1-1.485.54,2.007,2.007,0,0,1-1.485-.54A1.832,1.832,0,0,1,172.4-20.58Zm3.78,4.14V-.6h-3.57V-16.44ZM186.719,5.64a9.966,9.966,0,0,1-3.1-.6,5.7,5.7,0,0,1-2.835-2.01L182.459.9a5.167,5.167,0,0,0,4.05,1.95,3.925,3.925,0,0,0,2.8-.975A3.709,3.709,0,0,0,190.349-.96V-2.04a5.255,5.255,0,0,1-4.11,1.74,5.447,5.447,0,0,1-4.6-2.265,9.318,9.318,0,0,1-1.725-5.655v-.45a9.342,9.342,0,0,1,1.71-5.835,5.542,5.542,0,0,1,4.65-2.235,5.212,5.212,0,0,1,4.26,1.86l.15-1.56h3.21V-1.05a6.216,6.216,0,0,1-1.995,4.95A7.588,7.588,0,0,1,186.719,5.64Zm-3.24-13.98a7.14,7.14,0,0,0,.87,3.615,2.977,2.977,0,0,0,2.79,1.515,3.4,3.4,0,0,0,3.21-1.89v-6.93a3.363,3.363,0,0,0-3.18-1.8,3.011,3.011,0,0,0-2.805,1.515,7.106,7.106,0,0,0-.885,3.645Zm21.245-5.49a3.472,3.472,0,0,0-3.21,1.92V-.6h-3.54V-16.44h3.33l.12,1.8a5.667,5.667,0,0,1,4.59-2.1,5.074,5.074,0,0,1,3.66,1.32q1.38,1.32,1.41,4.5V-.6h-3.57V-10.89a3.034,3.034,0,0,0-.705-2.28A2.948,2.948,0,0,0,204.724-13.83ZM224.618-.6a5.256,5.256,0,0,1-.42-1.5,5.473,5.473,0,0,1-4.17,1.8,5.583,5.583,0,0,1-3.885-1.365,4.362,4.362,0,0,1-1.515-3.375,4.5,4.5,0,0,1,1.89-3.9,9.083,9.083,0,0,1,5.34-1.35h2.22v-1.02a2.8,2.8,0,0,0-.69-1.995,2.708,2.708,0,0,0-2.07-.735,3.072,3.072,0,0,0-2.04.63,1.93,1.93,0,0,0-.75,1.53h-3.54a4.371,4.371,0,0,1,1.755-3.36,7.077,7.077,0,0,1,4.755-1.5,6.928,6.928,0,0,1,4.41,1.365,4.885,4.885,0,0,1,1.74,4.1v7.02a8.194,8.194,0,0,0,.6,3.42V-.6Zm-.54-4.47v-3h-2.16q-3.72.09-3.72,2.67a2.179,2.179,0,0,0,.645,1.605,2.54,2.54,0,0,0,1.875.645,3.678,3.678,0,0,0,2.115-.6A3.585,3.585,0,0,0,224.078-5.07ZM239.2-.66a7.014,7.014,0,0,1-2.34.36,4.353,4.353,0,0,1-2.94-1,4.373,4.373,0,0,1-1.17-3.465v-9.06h-2.61v-2.61h2.61v-3.87h3.54v3.87h2.82v2.61h-2.82v8.85q0,1.08.465,1.4a2.127,2.127,0,0,0,1.215.315,5.3,5.3,0,0,0,1.23-.15Zm12.785.06-.09-1.56a5.507,5.507,0,0,1-4.47,1.86,5.228,5.228,0,0,1-3.75-1.365q-1.44-1.365-1.47-4.485V-16.44h3.57V-6.18a2.953,2.953,0,0,0,.75,2.34,2.665,2.665,0,0,0,1.77.63,3.538,3.538,0,0,0,3.48-1.83v-11.4h3.57V-.6ZM266.3-13.32a3.279,3.279,0,0,0-3.33,1.89V-.6h-3.54V-16.44h3.39l.09,1.77a3.963,3.963,0,0,1,3.57-2.07,3.989,3.989,0,0,1,1.26.18l-.03,3.36A8.568,8.568,0,0,0,266.3-13.32ZM282.956-3.3a7.488,7.488,0,0,1-2.235,2.055,7.14,7.14,0,0,1-3.885.945A7.143,7.143,0,0,1,271.3-2.5a7.789,7.789,0,0,1-2.025-5.475v-.6a8.35,8.35,0,0,1,2.07-5.955,6.719,6.719,0,0,1,5.1-2.205,6.015,6.015,0,0,1,5.115,2.19,9.062,9.062,0,0,1,1.665,5.64v1.5h-10.35a5.067,5.067,0,0,0,1.23,3.045,3.77,3.77,0,0,0,2.97,1.215,4.781,4.781,0,0,0,3.96-1.98Zm-6.51-10.59a3.008,3.008,0,0,0-2.37,1.02,5.237,5.237,0,0,0-1.14,2.85h6.75v-.27a4.962,4.962,0,0,0-.765-2.49A2.7,2.7,0,0,0,276.446-13.89Z" transform="translate(398.34 2192)"/><g transform="translate(11.661 19)"><g transform="translate(489.324 2014)"><g class="d" transform="translate(-0.324)"><rect class="j" width="78" height="114" rx="16"/><rect class="k" x="0.5" y="0.5" width="77" height="113" rx="15.5"/></g></g><g transform="matrix(0.966, -0.259, 0.259, 0.966, 444.153, 2058.55)"><path class="e" d="M374.363,94.94a1.185,1.185,0,0,1-1.047-.628l-.631-1.185a1.147,1.147,0,0,1-.062-.137,4.681,4.681,0,0,1,1.065-4.96L383.98,77.737a3.276,3.276,0,0,0,0-4.628l-.331-.331a1.185,1.185,0,0,1,1.676-1.676l.331.331a5.643,5.643,0,0,1,0,7.98L375.365,89.7a2.308,2.308,0,0,0-.548,2.382l.592,1.111a1.185,1.185,0,0,1-1.045,1.742Z" transform="translate(-277.483 -59.74)"/><path class="f" d="M83.3,412.11a6.259,6.259,0,0,1-6.245-6.682c0-.011,0-.023,0-.034a2.914,2.914,0,0,0-2.9-3.2h-.02l-4.283.028h-.068a10.242,10.242,0,0,1-9.74-7.025,1.185,1.185,0,1,1,2.249-.749,7.878,7.878,0,0,0,7.491,5.4h.052l4.283-.028h.034a5.284,5.284,0,0,1,5.262,5.774,3.889,3.889,0,0,0,4.091,4.131,1.185,1.185,0,0,1,.128,2.367c-.113.006-.226.009-.338.009Z" transform="translate(-13.772 -332.361)"/><path class="e" d="M44.859,380.252a1.185,1.185,0,0,1-.838-2.023l5.269-5.269a1.185,1.185,0,0,1,1.676,1.676L45.7,379.9A1.182,1.182,0,0,1,44.859,380.252Z" transform="translate(0 -314.605)"/><path class="g" d="M72.41,77.987l-.112-.112a5.275,5.275,0,0,1,0-7.46L120.87,21.843a.571.571,0,0,1,.807,0l6.765,6.765a.571.571,0,0,1,0,.807L79.87,77.987A5.275,5.275,0,0,1,72.41,77.987Z" transform="translate(-22.864 -18.302)"/><path class="h" d="M128.62,53.121l-2.4-2.4L78.922,98.009a5.354,5.354,0,0,1-7.572,0c-.1-.1-.2-.208-.29-.317a5.354,5.354,0,0,0,9.051,4.757l48.51-48.51a.579.579,0,0,0,0-.819Z" transform="translate(-23.048 -42.821)"/><path class="g" d="M247.506,34.527l-7.565-7.565a1.47,1.47,0,0,1,0-2.079L262.857,1.967a6.719,6.719,0,0,1,9.5,0l.142.142a6.719,6.719,0,0,1,0,9.5L249.585,34.527A1.47,1.47,0,0,1,247.506,34.527Z" transform="translate(-165.349)"/><path class="h" d="M272.763,15.044a6.79,6.79,0,0,1-1.979,4.346L247.954,42.219a1.492,1.492,0,0,1-2.11,0L240.6,36.975l-.595.595a1.492,1.492,0,0,0,0,2.11l7.534,7.534a1.492,1.492,0,0,0,2.11,0l22.829-22.829a6.819,6.819,0,0,0,.284-9.341Z" transform="translate(-165.398 -12.702)"/><path class="i" d="M0,0H5.143V13.639H0Z" transform="translate(91.733 7.742) rotate(-45)"/><path class="e" d="M0,0H5.143V4.731H0Z" transform="translate(98.031 14.041) rotate(-45)"/><circle class="i" cx="2.085" cy="2.085" r="2.085" transform="translate(95.703 32.26)"/></g></g></g></g></svg>