<svg xmlns="http://www.w3.org/2000/svg" xmlns:xlink="http://www.w3.org/1999/xlink" width="150" height="150" viewBox="0 0 185 185"><defs><style>.a,.e,.g{fill:none;}.a,.c,.e{stroke:#2ad181;stroke-width:4px;}.b{fill:#2ad181;opacity:0.05;}.c{fill:rgba(42,209,129,0.1);}.d{clip-path:url(#a);}.e{stroke-miterlimit:10;}.f{stroke:none;}</style><clipPath id="a"><path class="a" d="M3.25,54A3.245,3.245,0,0,1,0,50.759V47c0-3.63,2.36-6,5.736-6.937q9.553-2.646,11.6-4.063c2.6-1.8,3.466-3.7.867-7.3S12.519,22.214,12.519,13A13,13,0,0,1,26,0c8.736,0,13.481,6.665,13.481,13,0,9.32-3.082,12.1-5.681,15.7s-2.6,5.5-.867,7.3q1.4,1.455,13,4.087C49.471,40.89,52,43.24,52,47v3.76A3.245,3.245,0,0,1,48.75,54Z" transform="translate(-0.061 -0.166)"/></clipPath></defs><g transform="translate(-91 -909)"><rect class="b" width="185" height="185" rx="42" transform="translate(91 909)"/><g transform="translate(158.061 975.166)"><path class="c" d="M3.25,54A3.245,3.245,0,0,1,0,50.759V47c0-3.63,2.36-6,5.736-6.937q9.553-2.646,11.6-4.063c2.6-1.8,3.466-3.7.867-7.3S12.519,22.214,12.519,13A13,13,0,0,1,26,0c8.736,0,13.481,6.665,13.481,13,0,9.32-3.082,12.1-5.681,15.7s-2.6,5.5-.867,7.3q1.4,1.455,13,4.087C49.471,40.89,52,43.24,52,47v3.76A3.245,3.245,0,0,1,48.75,54Z" transform="translate(-0.061 -0.166)"/><g class="d"><g transform="translate(-12.522 -11.628)"><g class="e" transform="translate(0.462 0.462)"><rect class="f" width="76" height="76"/><rect class="g" x="2" y="2" width="72" height="72"/></g></g></g></g></g></svg>