<svg xmlns="http://www.w3.org/2000/svg" xmlns:xlink="http://www.w3.org/1999/xlink" width="150" height="150" viewBox="0 0 185 185"><defs><style>.a,.d{fill:rgba(42,209,129,0.1);}.a,.d,.e{stroke:#2ad181;stroke-width:4px;}.b{fill:#2ad181;opacity:0.05;}.c{clip-path:url(#a);}.d{stroke-miterlimit:10;}.e,.g{fill:none;}.f{stroke:none;}</style><clipPath id="a"><path class="a" d="M22.55,59C14.083,52.575,0,43.205,0,25.535a25.5,25.5,0,1,1,51,0C51,43.148,36.918,52.561,28.45,59a4.864,4.864,0,0,1-5.9,0Z"/></clipPath></defs><g transform="translate(-91 -909)"><rect class="b" width="185" height="185" rx="42" transform="translate(91 909)"/><g transform="translate(4871 -5244)"><g transform="translate(-4713 6216)"><path class="a" d="M22.55,59C14.083,52.575,0,43.205,0,25.535a25.5,25.5,0,1,1,51,0C51,43.148,36.918,52.561,28.45,59a4.864,4.864,0,0,1-5.9,0Z"/><g class="c"><g transform="translate(-14.414 -11.088)"><g class="d" transform="translate(0.414 0.088)"><rect class="f" width="79" height="80"/><rect class="g" x="2" y="2" width="75" height="76"/></g></g></g></g><g class="e" transform="translate(-4701 6229)"><circle class="f" cx="13" cy="13" r="13"/><circle class="g" cx="13" cy="13" r="11"/></g></g></g></svg>