<svg xmlns="http://www.w3.org/2000/svg" width="922" height="888.17" viewBox="0 0 922 888.17"><defs><style>.a,.ab{fill:#e1f3f5;}.b{fill:#765a42;}.c{fill:#5d4030;}.d{fill:#f9a17b;}.e{fill:#e4765b;}.f{fill:#f8f9fb;}.g{fill:#f99f7a;}.h{fill:#f5a278;}.i{fill:#a4b63c;}.j{fill:#8b9e28;}.k{fill:#314754;}.l{fill:#727f87;}.m{fill:#f9a076;}.n{fill:#b8d1ce;}.o{fill:#b7d1ce;}.p{fill:#060a47;}.q,.v,.w{fill:none;}.q{stroke:#e07a6c;stroke-linejoin:round;stroke-width:0.75px;}.r{fill:#fff;}.aa,.s{fill:#9dd2f2;}.t{fill:#a6d378;}.u{fill:#56bc7b;}.v{stroke:#56bc7b;stroke-width:3px;}.v,.w{stroke-miterlimit:10;}.w{stroke:#a6d378;stroke-width:2px;}.x{fill:#fec63b;}.y{fill:#e7b834;}.z{fill:#ffc73c;}.aa,.ab{fill-rule:evenodd;}.ac{fill:#7cbfe0;}.ad{opacity:0.08;}.ae{fill:#021016;}</style></defs><g transform="translate(0.001)"><g transform="translate(-0.001)"><path class="a" d="M730.007,849.472c-145.643,60.3-193.949-6.765-329.316,4.972-77.106,6.7-158.469,58.091-235.3,14.736-57.771-32.6-86.763-101.531-84.6-163.036,1.067-28.747,23.347-62.274,22.227-89.857-2.3-56.917-42.821-89.633-70.949-138.718-32.4-56.682-49.618-117.857-5.6-184.142,42.917-64.664,126.98-85.141,183.62-137.533C269.347,101.026,277.563,39.98,374.42,27.709,451.366,17.9,500.9,68.534,566.459,82.523,733.987,118.3,860.445,79.61,887.793,270.966c11.45,80.029-11.738,163.57,6.4,239.768C926.4,646.208,923.241,769.485,730.007,849.472Z" transform="translate(0.001 1.774)"/><path class="b" d="M412.742,429s-61.889,5.335-58.688,46.951,13.872,25.609,11.738,51.219-20.274,32.012-20.274,51.219,9.123,18.14,9.6,30.945c1.067,28.811-32.012,34.146-7.469,71.493s99.237-7.469,101.371-61.889S494.905,427.933,412.742,429Z" transform="translate(22.705 28.768)"/><path class="c" d="M408.494,632.844s-25.609-28.811-25.609-44.816,11.738-44.817,7.469-53.353-20.274-44.816-20.274-56.554,5.335-20.274,19.207-24.542,90.7-27.744,103.5,22.408-3.2,70.426,7.469,81.1,50.152,24.542,34.146,65.091S426.634,657.387,408.494,632.844Z" transform="translate(24.818 29.799)"/><path class="d" d="M434.167,558.71s-3.2,34.146-10.671,36.28-38.414,11.738-38.414,11.738-3.2,73.627,54.42,72.56,84.3-75.761,84.3-75.761-26.143-10.137-45.35-13.338l-6.4-58.688Z" transform="translate(25.822 35.642)"/><path class="e" d="M462.221,589a39.14,39.14,0,0,0,12.89-3.564l-4.823-44.144c-10.2,13.936-23.689,26.143-40.74,29.654-.395,2.358-.864,4.834-1.4,7.267A47.633,47.633,0,0,0,462.221,589Z" transform="translate(28.712 36.298)"/><path class="e" d="M413.639,442.6A64.237,64.237,0,0,0,389.1,499.156c3.2,37.347,17.073,89.633,54.42,89.633s62.956-46.951,68.292-88.566S453.12,412.724,413.639,442.6Z" transform="translate(26.075 29.038)"/><ellipse class="f" cx="21.341" cy="26.676" rx="21.341" ry="26.676" transform="translate(401.301 523.926)"/><path class="g" d="M502.205,532.859c0-29.878-36.28-33.079-62.956-37.347-24.244-3.873-44.08-20.968-47.495-24.062a64.513,64.513,0,0,0-2.657,25.129c3.2,37.347,17.073,89.633,54.42,89.633,26.975,0,47.826-24.542,59.339-53.79Z" transform="translate(26.075 31.615)"/><path class="h" d="M260.86,766s38.414,1.067,50.152,3.2,44.816,11.738,38.414,39.481h-84.3Z" transform="translate(17.494 51.367)"/><path class="i" d="M308.08,780.823,359.3,816.036l19.207-61.889s7.469,18.14,5.335,61.889H537.5s-1.067-74.694,7.469-93.9l38.414,64.023,56.554,17.073s10.671-20.274-35.213-120.578-97.1-89.633-97.1-89.633-12.271,61.356-56.021,61.356-50.152-53.353-50.152-53.353S357.7,605.292,351.3,634.1,308.08,780.823,308.08,780.823Z" transform="translate(20.66 39.745)"/><path class="j" d="M365.214,778.225l9.6-33.079S375.885,733.408,363.08,711Z" transform="translate(24.349 47.679)"/><path class="j" d="M530.08,719.225,538.617,652l24.542,122.712Z" transform="translate(35.548 43.722)"/><rect class="k" width="320.118" height="23.475" transform="translate(109.993 846.178)"/><path class="k" d="M319.365,815.528H104.9L60.08,658.671,72.885,648H287.353Z" transform="translate(4.03 43.454)"/><path class="l" d="M306.56,825.528H92.092L60.08,658H274.548Z" transform="translate(4.03 44.125)"/><path class="m" d="M370.08,816.109s26.677-32.012,45.884-30.945,44.816,10.671,44.816,10.671,112.041-33.079,149.388-28.811,38.414,45.884-9.6,49.085S370.08,816.109,370.08,816.109Z" transform="translate(24.818 51.41)"/><path class="b" d="M411.2,409.052s-27.744,28.811-13.872,50.152,36.28,28.811,58.688,38.414,37.347,13.872,38.414,36.28,3.2,30.945,19.207,38.414,25.609,22.408,22.408,43.749,11.738,108.84,77.9,96.035,46.951-77.9,24.542-99.236-20.274-34.146-11.738-54.42-24.542-41.615-44.816-43.749-28.811-23.475-28.811-43.75C553.115,427.192,481.622,361.035,411.2,409.052Z" transform="translate(26.385 26.308)"/><path class="n" d="M396.08,429.677s14.043-23.475,43.141-18.14,42.138,13.872,49.159,40.548S493.4,506.5,493.4,506.5h11.033s3.009-40.548-6.018-65.091S471.318,403,444.236,403,403.1,410.469,396.08,429.677Z" transform="translate(26.562 27.025)"/><ellipse class="f" cx="21.341" cy="26.676" rx="21.341" ry="26.676" transform="translate(503.738 523.926)"/><ellipse class="o" cx="13.658" cy="17.073" rx="13.658" ry="17.073" transform="translate(513.555 532.463)"/><path class="k" d="M195.494,738.207c0,10.607-7.533,19.207-18.14,19.207s-20.274-8.6-20.274-19.207S164.549,719,175.22,719,195.494,727.6,195.494,738.207Z" transform="translate(10.535 48.215)"/><path class="p" d="M405.665,511.826a4.322,4.322,0,1,0-.125-3.314A4.332,4.332,0,0,0,405.665,511.826Z" transform="translate(27.178 33.911)"/><path class="p" d="M453.942,507.943a4.149,4.149,0,1,1,0-.053Z" transform="translate(29.885 33.782)"/><path class="p" d="M438.445,497.6a18.546,18.546,0,0,1,13.765-5.1,19.826,19.826,0,0,1,12.346,5.847c.181.245.608-.128.47-.331a17.4,17.4,0,0,0-12.986-6.552,18.2,18.2,0,0,0-14.032,5.741c-.352.245.213.747.534.437Z" transform="translate(29.366 32.956)"/><path class="p" d="M399.112,499.807a13.723,13.723,0,0,1,11.45-6.573,15,15,0,0,1,11.1,6.168.246.246,0,0,0,.405-.277,12.442,12.442,0,0,0-11.492-7.064,13.178,13.178,0,0,0-12.09,7.469c-.181.363.363.523.512.245Z" transform="translate(26.72 32.997)"/><path class="q" d="M425.337,508.44s-7.854,23.294-4.556,26.25c5.421,4.887,14.64.758,14.64.758" transform="translate(28.164 34.095)"/><path class="r" d="M455.986,540.21l-34.146,5.911s4.151,19.687,15.334,17.916C459.006,560.505,455.986,540.21,455.986,540.21Z" transform="translate(28.289 36.226)"/><rect class="s" width="799.227" height="16.006" rx="7.5" transform="translate(40.208 867.519)"/><path class="t" d="M745.451,761.23s14.939-18.364,21.213-33.847,2.294-16.07-1.729-26.2,10.671-27.157,4.194-39.012-14.533-13-13.776-27.914,6.1-33.271,1.515-39.4-17.414-12.026-18.183-25.8-1.537-27.541-16.454-28.3-19.314,1.345-25.812-10.51-20.466-9.742-22.76-3.2-1.526,20.274-7.832,26.2-19.5,12.25-9.6,28.683S672.486,602,665.6,611.949s-8.782,18.556,2.134,28.309,13.776,18.343,9.6,28.672,4.268,18.364,17.073,24.286,2.454,11.268,3.425,23.678S748.13,756.834,745.451,761.23Z" transform="translate(43.768 34.988)"/><path class="u" d="M742.7,750.334s-8.259-13.765-11.012-24.788,0-11.012,3.671-17.446-4.588-19.282.918-26.677,11.023-7.341,11.94-17.446-.918-22.952,2.753-26.676,12.8-6.4,14.683-15.611,3.681-18.364,13.776-17.446,12.8,2.753,18.364-4.588,14.693-4.588,15.611,0-.918,13.776,2.753,18.364,11.93,10.094,3.671,20.2-12.858,11.94-9.177,19.282,4.13,13.317-4.14,18.823-11.012,11.012-9.177,18.364-4.588,11.93-13.776,14.683-2.753,7.352-4.588,15.611S741.326,747.122,742.7,750.334Z" transform="translate(48.992 39.908)"/><path class="v" d="M735.227,751.594S720.074,599.645,677.84,521.6" transform="translate(45.456 34.978)"/><path class="v" d="M652.89,570.6s40.4,9.689,56.01,27.541c0,0,11.012-32.14,23.87-54.175" transform="translate(43.783 36.478)"/><path class="v" d="M660.63,614.31s42.074,9.347,57.3,22.579c0,0,23.475-38.19,38.19-46.449" transform="translate(44.302 39.594)"/><path class="v" d="M677.84,656.465s41.445,10.575,50.568,35.586c0,0-2.828-27.327,23.806-45.692" transform="translate(45.456 43.344)"/><path class="w" d="M742.8,752.911s11.94-86.3,66.158-155.161" transform="translate(49.812 40.085)"/><path class="w" d="M771.2,604.63s6.925,11.46,4.844,41.541c0,0,19.943-11.236,41.978-10.318" transform="translate(51.717 40.546)"/><path class="w" d="M745.39,637.33s16.262,14.256,18.684,36.995c0,0,18.033-8.536,47.42-8.536" transform="translate(49.986 42.739)"/><path class="w" d="M735.06,671.75s16.87,15.355,17.158,37.059c0,0,20.488-16.86,45.275-15.942" transform="translate(49.293 45.047)"/><path class="x" d="M766.629,817.539H723.477L702.36,729.4h85.386Z" transform="translate(47.1 48.913)"/><path class="y" d="M709.4,758.776h71.312l7.032-29.376H702.36Z" transform="translate(47.1 48.913)"/><rect class="z" width="85.386" height="17.446" transform="translate(749.461 778.313)"/><path class="x" d="M60.1,96.11H349.468c8.462,0,15.323,5.922,15.323,13.242v72.219c0,7.32-6.861,13.253-15.323,13.253H60.1c-8.462,0-15.323-5.933-15.323-13.253V109.352C44.78,102.032,51.641,96.11,60.1,96.11Z" transform="translate(3.004 6.445)"/><rect class="a" width="140.926" height="16.678" transform="translate(142.165 119.02)"/><rect class="a" width="118.166" height="16.678" transform="translate(142.165 143.85)"/><rect class="a" width="37.368" height="19.943" transform="translate(310.643 119.02)"/><rect class="a" width="51.059" height="11.161" transform="translate(142.176 175.222)"/><rect class="a" width="37.368" height="9.625" transform="translate(310.643 143.85)"/><rect class="a" width="67.214" height="67.214" transform="translate(61.325 119.02)"/><path class="x" d="M60.1,205.11H349.468c8.462,0,15.323,5.922,15.323,13.242v72.219c0,7.32-6.861,13.253-15.323,13.253H60.1c-8.462,0-15.323-5.933-15.323-13.253V218.352C44.78,211.032,51.641,205.11,60.1,205.11Z" transform="translate(3.004 13.754)"/><rect class="a" width="140.926" height="16.678" transform="translate(142.165 235.329)"/><rect class="a" width="118.166" height="16.678" transform="translate(142.165 260.16)"/><rect class="a" width="37.368" height="19.943" transform="translate(310.643 235.329)"/><rect class="a" width="51.059" height="11.161" transform="translate(142.176 291.531)"/><rect class="a" width="37.368" height="9.625" transform="translate(310.643 260.16)"/><rect class="a" width="67.214" height="67.214" transform="translate(61.325 235.329)"/><path class="x" d="M60.1,314.11H349.468c8.462,0,15.323,5.922,15.323,13.242v72.219c0,7.32-6.861,13.253-15.323,13.253H60.1c-8.462,0-15.323-5.933-15.323-13.253V327.352C44.78,320.032,51.641,314.11,60.1,314.11Z" transform="translate(3.004 21.064)"/><rect class="a" width="140.926" height="16.678" transform="translate(142.165 351.639)"/><rect class="a" width="118.166" height="16.678" transform="translate(142.165 376.469)"/><rect class="a" width="37.368" height="19.943" transform="translate(310.643 351.639)"/><rect class="a" width="51.059" height="11.161" transform="translate(142.176 407.841)"/><rect class="a" width="37.368" height="9.625" transform="translate(310.643 376.469)"/><rect class="a" width="67.214" height="67.214" transform="translate(61.325 351.639)"/><rect class="s" width="95.246" height="52.19" rx="20" transform="translate(63.587 566.608)"/><rect class="r" width="13.701" height="13.701" rx="5.25" transform="translate(99.141 599.559) rotate(180)"/><rect class="r" width="13.701" height="13.701" rx="5.25" transform="translate(118.06 599.559) rotate(180)"/><rect class="r" width="13.701" height="13.701" rx="5.25" transform="translate(136.979 599.559) rotate(180)"/><path class="s" d="M71.93,567.88v30.006L101.936,574.4Z" transform="translate(4.824 38.082)"/><path class="aa" d="M640.513,425.763h0a14.352,14.352,0,0,1,20.274,0l1.377,1.377,1.377-1.377a14.352,14.352,0,0,1,20.274,0h0a14.352,14.352,0,0,1,0,20.274l-1.377,1.377-20.274,20.274L641.89,447.414l-1.377-1.377a14.352,14.352,0,0,1,0-20.274Z" transform="translate(42.672 28.27)"/><rect class="s" width="87.499" height="52.286" rx="8.2" transform="translate(679.376 305.179)"/><rect class="s" width="22.408" height="22.408" transform="translate(706.753 358.003) rotate(-45)"/><path class="ab" d="M657.273,299.713h0a8.9,8.9,0,0,1,12.559,0l.843.854.854-.854a8.9,8.9,0,0,1,12.559,0h0a8.889,8.889,0,0,1,0,12.549l-.854.854-12.559,12.559-12.549-12.559-.854-.854A8.889,8.889,0,0,1,657.273,299.713Z" transform="translate(43.903 19.925)"/><path class="a" d="M701.191,322.068h-3.543V306.382a11.951,11.951,0,0,1-4.588,3.2v-3.767a9.89,9.89,0,0,0,3.02-2.017,7.577,7.577,0,0,0,2.251-3.5h2.881Z" transform="translate(46.477 20.138)"/><path class="aa" d="M778.442,66.06a97.988,97.988,0,1,1-69.359,28.7,97.988,97.988,0,0,1,69.359-28.7Z" transform="translate(45.627 4.43)"/><circle class="r" cx="74.918" cy="74.918" r="74.918" transform="translate(749.151 93.56)"/><path class="s" d="M772.383,92.19h0a1.633,1.633,0,0,1,1.633,1.633v3.959a1.633,1.633,0,0,1-1.633,1.675h0a1.643,1.643,0,0,1-1.633-1.633v-4a1.643,1.643,0,0,1,1.633-1.633Z" transform="translate(51.687 6.182)"/><path class="s" d="M772.383,216.82h0a1.622,1.622,0,0,1,1.633,1.633v3.959a1.633,1.633,0,0,1-1.633,1.633h0a1.643,1.643,0,0,1-1.633-1.633v-3.959a1.633,1.633,0,0,1,1.633-1.633Z" transform="translate(51.687 14.54)"/><path class="aa" d="M805.376,101.013h0a1.622,1.622,0,0,1,.6,2.219l-1.953,3.468a1.633,1.633,0,0,1-2.22.608h0a1.622,1.622,0,0,1-.6-2.219l1.985-3.5a1.611,1.611,0,0,1,2.187-.576Z" transform="translate(53.714 6.76)"/><path class="aa" d="M743.068,208.914h0a1.633,1.633,0,0,1,.587,2.23l-1.985,3.425a1.622,1.622,0,0,1-2.22.608h0a1.643,1.643,0,0,1-.587-2.23l1.985-3.436a1.622,1.622,0,0,1,2.219-.6Z" transform="translate(49.534 13.995)"/><path class="aa" d="M829.586,125.047h0a1.643,1.643,0,0,1-.6,2.23l-3.436,2.038a1.643,1.643,0,0,1-2.22-.6h0a1.643,1.643,0,0,1,.6-2.219l3.447-1.985a1.611,1.611,0,0,1,2.209.587Z" transform="translate(55.199 8.335)"/><path class="aa" d="M721.656,187.4h0a1.622,1.622,0,0,1-.6,2.219l-3.436,1.985a1.622,1.622,0,0,1-2.22-.6h0a1.643,1.643,0,0,1,.608-2.219l3.436-1.985A1.633,1.633,0,0,1,721.656,187.4Z" transform="translate(47.961 12.513)"/><rect class="s" width="7.224" height="3.255" rx="1.52" transform="translate(886.951 166.845)"/><rect class="s" width="7.224" height="3.255" rx="1.52" transform="translate(753.964 166.845)"/><path class="aa" d="M829.587,191.008h0a1.643,1.643,0,0,1-2.22.6l-3.446-1.985a1.643,1.643,0,0,1-.6-2.219h0a1.622,1.622,0,0,1,2.219-.6l3.436,1.985A1.633,1.633,0,0,1,829.587,191.008Z" transform="translate(55.198 12.512)"/><path class="aa" d="M721.654,128.7h0a1.633,1.633,0,0,1-2.22.587l-3.382-1.974a1.643,1.643,0,0,1-.608-2.23h0a1.633,1.633,0,0,1,2.209-.6h0l3.5,1.985a1.633,1.633,0,0,1,.544,2.219Z" transform="translate(47.964 8.334)"/><path class="aa" d="M805.378,215.2h0a1.643,1.643,0,0,1-2.23-.608l-1.985-3.436a1.654,1.654,0,0,1,.608-2.23h0a1.633,1.633,0,0,1,2.219.6l1.985,3.436a1.643,1.643,0,0,1-.6,2.23Z" transform="translate(53.712 13.996)"/><path class="aa" d="M743.068,107.258h0a1.643,1.643,0,0,1-2.23-.608l-1.985-3.436a1.643,1.643,0,0,1,.6-2.219h0a1.622,1.622,0,0,1,2.219.587h0l1.985,3.436a1.622,1.622,0,0,1-.576,2.219Z" transform="translate(49.534 6.758)"/><path class="aa" d="M774.72,161.424a2.316,2.316,0,0,1-4.62,0V107.356a2.315,2.315,0,0,1,4.62,0Z" transform="translate(51.643 7.054)"/><path class="aa" d="M775.788,158.255a2.321,2.321,0,1,1-3.361,3.2L745.75,132.806a2.309,2.309,0,0,1,3.329-3.2h0Z" transform="translate(49.967 8.644)"/><path class="aa" d="M826.68,468.276a12.261,12.261,0,0,1,4.9-5.1,7.586,7.586,0,0,0,3.7-4.972,32.006,32.006,0,0,0,.747-8.323,1.91,1.91,0,0,1,1.91-1.91h3.276a3.1,3.1,0,0,1,.982.16,7.1,7.1,0,0,1,3.543,3.3,12.518,12.518,0,0,1,1.547,6.061,13.876,13.876,0,0,1-.64,4.13c-.3.928-1.067,3.639-.726,4.567a1.623,1.623,0,0,0,.555.075h8.195a11.065,11.065,0,0,1,2.785.341,6.6,6.6,0,0,1,3.3,1.963,6.4,6.4,0,0,1,1.494,4.268,11.2,11.2,0,0,1-.3,2.454c1.184,3.052,1.419,6.829-.982,9.326.149,2.518-.469,5.261-2.6,6.8a8.056,8.056,0,0,1-7.886,5.847H835.408c-2.561,0-5.122-1.366-7.213-2.934a4.267,4.267,0,0,1-1.067,1.91l-.064.064a4.268,4.268,0,0,1-2.913,1.163h-6.883A4.268,4.268,0,0,1,813,493.192v-21.48a4.268,4.268,0,0,1,1.28-3.03l.064-.053a4.268,4.268,0,0,1,2.913-1.163h6.829a4.268,4.268,0,0,1,2.54.843Zm1.707,21.192c1.718,1.739,4.61,4.012,7.064,4.012h15.024a4.418,4.418,0,0,0,4.386-3.649,1.889,1.889,0,0,1,1.014-1.313c1.387-.694,1.43-2.977,1.227-4.268a1.889,1.889,0,0,1,.736-1.931c1.814-1.334,1.2-4.268.427-5.954a1.868,1.868,0,0,1-.16-1.4,8.3,8.3,0,0,0,.32-2.134,2.72,2.72,0,0,0-.544-1.8,2.838,2.838,0,0,0-1.409-.779,6.893,6.893,0,0,0-1.8-.213h-8.195a3.927,3.927,0,0,1-4.055-2.4c-.854-2.059-.053-5.175.576-7.192a9.945,9.945,0,0,0,.47-3,8.538,8.538,0,0,0-1.067-4.183,4.365,4.365,0,0,0-1.312-1.515h-1.27a30.589,30.589,0,0,1-.886,7.469,11.257,11.257,0,0,1-5.57,7.3c-2.828,1.515-4.514,5.218-4.994,8.291v14.64Zm-4.268-18.215h-6.851a.469.469,0,0,0-.267.075v.053a.448.448,0,0,0-.128.3v21.565a.437.437,0,0,0,.437.438h6.829a.384.384,0,0,0,.256-.085h0a.427.427,0,0,0,.128-.309V471.712a.427.427,0,0,0-.128-.3.417.417,0,0,0-.256-.128Z" transform="translate(54.52 30.04)"/><g transform="translate(543.134)"><path class="ac" d="M509,58.688l4.492-36L611.1,0Z" transform="translate(-509)"/></g><g class="ad" transform="translate(543.134)"><path class="ae" d="M509,58.688l15.9-26.271L611.1,0Z" transform="translate(-509)"/></g><path class="s" d="M514.451,22.654,612.034,0,495.02,1.206Z" transform="translate(33.196)"/><path class="s" d="M523.9,32.417l35.725,31.35L610.1,0Z" transform="translate(35.133)"/><path class="s" d="M508.038,60.835a1.989,1.989,0,0,0-3.287-2.241,2.135,2.135,0,0,0-.309,1.494,1.974,1.974,0,0,0,.832,1.259,2,2,0,0,0,1.483.32A2.134,2.134,0,0,0,508.038,60.835Z" transform="translate(33.826 3.871)"/><path class="s" d="M452.248,131.942h0a1.974,1.974,0,1,0-3.084,1.825,1.9,1.9,0,0,0,1.3.331,2,2,0,0,0,1.782-2.155Z" transform="translate(30.064 8.729)"/><path class="s" d="M456.054,145.444a1.985,1.985,0,0,0-3.575,1.707,1.91,1.91,0,0,0,.672.779,1.985,1.985,0,0,0,2.9-2.486Z" transform="translate(30.334 9.685)"/><path class="s" d="M451.253,159.446l.085.064a2.279,2.279,0,1,0-.075-.064Z" transform="translate(30.205 10.451)"/><path class="s" d="M450.525,141.029a1.942,1.942,0,0,0,1.654.267,2,2,0,1,0-1.654-.267Z" transform="translate(30.154 9.212)"/><path class="s" d="M460.232,99.227h.053a.918.918,0,1,0-.053,0Z" transform="translate(30.808 6.412)"/><path class="s" d="M450.663,200.378a1.974,1.974,0,1,0-.15,1.507,1.978,1.978,0,0,0,.15-1.507Z" transform="translate(29.962 13.343)"/><path class="s" d="M449.136,126.36a1.846,1.846,0,0,0,.928.341,1.974,1.974,0,0,0,2.134-1.793h0a1.985,1.985,0,0,0-3.948-.352,1.953,1.953,0,0,0,.886,1.8Z" transform="translate(30.06 8.238)"/><path class="s" d="M448.252,186.288h0a2,2,0,0,0-2.134-1.878,2,2,0,0,0,.2,4,1.985,1.985,0,0,0,1.931-2.123Z" transform="translate(29.791 12.366)"/><path class="s" d="M445.186,180.628a2.038,2.038,0,0,0,.971.341,2.022,2.022,0,1,0-.971-.341Z" transform="translate(29.795 11.87)"/><path class="s" d="M447.4,195.7a1.985,1.985,0,1,0-1.441-.309,1.931,1.931,0,0,0,1.44.309Z" transform="translate(29.847 12.859)"/><path class="s" d="M446.164,173.279a1.921,1.921,0,0,0,.726.309,2,2,0,1,0-.726-.309Z" transform="translate(29.862 11.376)"/><path class="s" d="M448.054,166.128a1.856,1.856,0,0,0,.48.245,2,2,0,1,0-.48-.245Z" transform="translate(29.99 10.897)"/><path class="s" d="M450.434,119.086a1.793,1.793,0,0,0,.6.277,1.974,1.974,0,1,0-1.387-2.422,1.953,1.953,0,0,0,.79,2.145Z" transform="translate(30.149 7.744)"/><path class="s" d="M460.621,145.1a1.985,1.985,0,0,0-.149,2.8,2.521,2.521,0,0,0,.363.32,2.006,2.006,0,0,0,2.433-.16,1.985,1.985,0,1,0-2.646-2.956Z" transform="translate(30.846 9.694)"/><path class="s" d="M452.885,112.1l.32.192a2.086,2.086,0,1,0-.32-.192Z" transform="translate(30.312 7.28)"/><path class="s" d="M456.228,105.5l.128.085a2.022,2.022,0,1,0-.139-.085Z" transform="translate(30.533 6.83)"/><path class="s" d="M493.679,127.086a1.974,1.974,0,1,0,2.454,1.323,1.953,1.953,0,0,0-2.454-1.323Z" transform="translate(33.012 8.516)"/><path class="s" d="M486.665,73.476a1.963,1.963,0,1,0-.47-.437,2.261,2.261,0,0,0,.47.438Z" transform="translate(32.577 4.686)"/><path class="s" d="M501.04,125.222a1.985,1.985,0,0,0-1.547,2.337,1.976,1.976,0,1,0,1.547-2.337Z" transform="translate(33.494 8.395)"/><path class="s" d="M534.1,136.866a2,2,0,0,0,2.134.1,1.974,1.974,0,1,0-2.689-.768A1.857,1.857,0,0,0,534.1,136.866Z" transform="translate(35.763 8.937)"/><path class="s" d="M506.791,126.236a1.932,1.932,0,1,0,1.75-2.155A1.985,1.985,0,0,0,506.791,126.236Z" transform="translate(33.985 8.32)"/><path class="s" d="M486.134,133.038a1.953,1.953,0,0,0,1.835.213,1.985,1.985,0,1,0-2.561-1.131,1.9,1.9,0,0,0,.726.918Z" transform="translate(32.543 8.678)"/><path class="s" d="M515.055,127.489a1.889,1.889,0,0,0,1,.341,2,2,0,1,0-1-.341Z" transform="translate(34.481 8.305)"/><path class="s" d="M472.227,138.9a2.134,2.134,0,0,0,.587.63,1.985,1.985,0,1,0-.587-.63Z" transform="translate(31.65 9.114)"/><path class="s" d="M464.875,93.487a1.968,1.968,0,1,0-.171-.128,1.779,1.779,0,0,0,.171.128Z" transform="translate(31.117 6.027)"/><path class="s" d="M469.886,88.027a1.823,1.823,0,1,0-.3-.224,2.474,2.474,0,0,0,.3.224Z" transform="translate(31.452 5.661)"/><path class="s" d="M466.572,140.341a1.963,1.963,0,0,0-.448,2.753,1.9,1.9,0,0,0,.491.48,1.974,1.974,0,1,0,0-3.2Z" transform="translate(31.234 9.388)"/><path class="s" d="M480.834,78.046a1.942,1.942,0,0,0,2.369-.107,1.974,1.974,0,1,0-2.785-.267,1.943,1.943,0,0,0,.416.373Z" transform="translate(32.187 4.992)"/><path class="s" d="M479.333,136.018a2,2,0,1,0-.651-.779,1.974,1.974,0,0,0,.651.779Z" transform="translate(32.088 8.878)"/><path class="s" d="M475.225,82.884a1.942,1.942,0,1,0-.352-.3,2.276,2.276,0,0,0,.352.3Z" transform="translate(31.811 5.319)"/><path class="s" d="M517.235,169.577a1.974,1.974,0,0,0-2.668-.832,1.942,1.942,0,0,0-.843,2.657,1.978,1.978,0,0,0,3.511-1.825Z" transform="translate(34.435 11.301)"/><path class="s" d="M510.5,172.744a1.974,1.974,0,1,0-.677,2.21,1.974,1.974,0,0,0,.677-2.21Z" transform="translate(33.977 11.494)"/><path class="s" d="M504.144,242.352a1.974,1.974,0,0,0-2.273,1.633,2,2,0,0,0,.843,1.963,2.038,2.038,0,0,0,.79.309,1.979,1.979,0,1,0,.64-3.905Z" transform="translate(33.654 16.25)"/><path class="s" d="M511.346,243.271a1.985,1.985,0,0,0-1.3,3.617,1.9,1.9,0,0,0,.918.331,1.985,1.985,0,0,0,.384-3.948Z" transform="translate(34.146 16.313)"/><path class="s" d="M501.06,65.151h0a1.985,1.985,0,1,0-2.721-.64,1.867,1.867,0,0,0,.565.587,2,2,0,0,0,2.155.053Z" transform="translate(33.399 4.122)"/><path class="s" d="M497.014,240.914a1.974,1.974,0,0,0-1.579,3.553,1.91,1.91,0,0,0,.651.3,1.985,1.985,0,1,0,.928-3.852Z" transform="translate(33.166 16.152)"/><path class="s" d="M453.168,207.073a1.985,1.985,0,1,0-2.934,2.454,2.017,2.017,0,0,0,1.942.171A2,2,0,0,0,453.168,207.073Z" transform="translate(30.136 13.808)"/><path class="s" d="M503.389,174.815a1.98,1.98,0,1,0-1.665,2.251,1.985,1.985,0,0,0,1.665-2.251Z" transform="translate(33.492 11.6)"/><path class="s" d="M523.985,125a1.985,1.985,0,0,0-1.633,3.543,1.9,1.9,0,0,0,.619.277,1.983,1.983,0,1,0,1.067-3.82Z" transform="translate(34.973 8.379)"/><path class="s" d="M533.188,154.457a1.985,1.985,0,0,0-2.241,3.265h0a1.985,1.985,0,1,0,2.23-3.276Z" transform="translate(35.555 10.339)"/><path class="s" d="M536.268,147.718a1.985,1.985,0,0,0-1.825,3.489,2.189,2.189,0,0,0,.416.213,1.985,1.985,0,0,0,1.409-3.7Z" transform="translate(35.783 9.897)"/><path class="s" d="M537,140.36a1.985,1.985,0,0,0-1.131,3.617,1.931,1.931,0,0,0,1.067.341,1.985,1.985,0,0,0,0-3.959Z" transform="translate(35.879 9.412)"/><path class="s" d="M496.019,175.6a1.985,1.985,0,0,0-3.959-.139,2.017,2.017,0,0,0,.864,1.707,2.07,2.07,0,0,0,1.067.341A1.974,1.974,0,0,0,496.019,175.6Z" transform="translate(32.998 11.646)"/><path class="s" d="M531.867,130.963a1.974,1.974,0,1,0-2.753.534h0a1.974,1.974,0,0,0,2.753-.534Z" transform="translate(35.425 8.576)"/><path class="s" d="M520.571,165.023a1.953,1.953,0,0,0-.427,2.753,1.674,1.674,0,0,0,.48.47,1.968,1.968,0,1,0-.053-3.2Z" transform="translate(34.855 11.042)"/><path class="s" d="M525.956,160.387h0a1.963,1.963,0,0,0,0,2.785l.277.235a1.974,1.974,0,1,0-.288-3.03Z" transform="translate(35.232 10.716)"/><path class="s" d="M518.618,243.75a1.985,1.985,0,0,0-1.184,3.617,1.9,1.9,0,0,0,1.067.341,1.985,1.985,0,1,0,.15-3.959Z" transform="translate(34.642 16.346)"/><path class="s" d="M463.635,160.22a1.985,1.985,0,1,0-2.806-.256,1.878,1.878,0,0,0,.416.363,2.017,2.017,0,0,0,2.39-.107Z" transform="translate(30.873 10.509)"/><path class="s" d="M470.919,229.114a1.988,1.988,0,0,0-2.358,3.2h.064a1.974,1.974,0,0,0,2.294-3.2Z" transform="translate(31.368 15.338)"/><path class="s" d="M492.694,69.169a2.006,2.006,0,1,0-.512-.523,1.835,1.835,0,0,0,.512.523Z" transform="translate(32.983 4.394)"/><path class="s" d="M462.655,224.568a1.963,1.963,0,0,0,.053,2.785,2.257,2.257,0,0,0,.256.213,1.974,1.974,0,1,0-.309-3Z" transform="translate(30.989 15.019)"/><path class="s" d="M453.769,212.748a1.985,1.985,0,0,0-.651,2.721,2.209,2.209,0,0,0,.566.608,1.985,1.985,0,1,0,.085-3.329Z" transform="translate(30.367 14.247)"/><path class="s" d="M459.113,154.437a1.985,1.985,0,0,0-.651-3.575,2.134,2.134,0,0,0-.427-.512,1.975,1.975,0,0,0-2.582,2.988,1.836,1.836,0,0,0,.843.438.652.652,0,0,0,.075.107,1.783,1.783,0,0,0,.523.534,1.985,1.985,0,0,0,2.22.021Z" transform="translate(30.497 10.05)"/><path class="s" d="M457.837,218.948a1.953,1.953,0,0,0-.3,2.774,1.867,1.867,0,0,0,.416.406,1.985,1.985,0,0,0,2.657-2.881,1.963,1.963,0,0,0-2.774-.3Z" transform="translate(30.653 14.653)"/><path class="s" d="M468.8,162.587a1.985,1.985,0,1,0-2.689,2.913,1.558,1.558,0,0,0,.224.171,1.963,1.963,0,0,0,2.572-.288A1.985,1.985,0,0,0,468.8,162.587Z" transform="translate(31.21 10.863)"/><path class="s" d="M483.329,236.313h0a1.974,1.974,0,0,0-1.931,3.436,1.529,1.529,0,0,0,.32.171,1.978,1.978,0,1,0,1.6-3.617Z" transform="translate(32.222 15.833)"/><path class="s" d="M488.646,175.023a1.985,1.985,0,1,0-3.052,1.184,1.91,1.91,0,0,0,.672.3,1.985,1.985,0,0,0,2.38-1.483Z" transform="translate(32.506 11.573)"/><path class="s" d="M490.053,238.926a1.974,1.974,0,0,0-1.739,3.5,2.037,2.037,0,0,0,.48.245h0a1.979,1.979,0,1,0,1.249-3.756Z" transform="translate(32.689 16.015)"/><path class="s" d="M474.888,169.744a1.985,1.985,0,1,0-2.764.534h0a2,2,0,0,0,2.764-.534Z" transform="translate(31.603 11.176)"/><path class="s" d="M476.922,233.02a1.982,1.982,0,0,0-2.134,3.34l.128.085a1.979,1.979,0,1,0,1.985-3.425Z" transform="translate(31.778 15.605)"/><path class="s" d="M481.518,173.035a1.985,1.985,0,0,0-3.628-1.611,2.006,2.006,0,0,0,.694,2.444,1.844,1.844,0,0,0,.32.171,1.974,1.974,0,0,0,2.614-1Z" transform="translate(32.037 11.416)"/><g transform="translate(559.18 260.183)"><path class="s" d="M524.9,247.437a1.971,1.971,0,1,1,2.742-.512,2.017,2.017,0,0,1-1.259.832,1.974,1.974,0,0,1-1.483-.32Z" transform="translate(-524.037 -243.832)"/></g><path class="aa" d="M462.781,311h79.709a10.553,10.553,0,0,1,10.521,10.532v74.246a1.152,1.152,0,0,1-.726,1.067,1.131,1.131,0,0,1-1.281-.256l-17.927-17.905h-70.3a10.543,10.543,0,0,1-10.521-10.521v-46.62A10.553,10.553,0,0,1,462.781,311Z" transform="translate(30.329 20.855)"/><path class="ab" d="M511.595,329.574h13.189a11.972,11.972,0,0,1,8.6,3.735,12.805,12.805,0,0,1,3.543,8.867h0a.815.815,0,0,1,0,.16,12.6,12.6,0,0,1-3.575,8.633,11.983,11.983,0,0,1-8.6,3.681H511.52l-23.23,11.674a3.084,3.084,0,0,1-1.6.341,3.2,3.2,0,0,1-1.569-.512,3.308,3.308,0,0,1-1.067-1.206,3.2,3.2,0,0,1-.384-1.569l.16-42.682a3.383,3.383,0,0,1,.384-1.579,3.329,3.329,0,0,1,1.12-1.2,3.094,3.094,0,0,1,1.569-.5,3.2,3.2,0,0,1,1.6.341l.117.075,23.048,11.738Zm13.189,3.4-13.584-.053a1.612,1.612,0,0,1-.758-.181L487.063,320.8l-.16,42.554,23.422-11.738a1.589,1.589,0,0,1,.8-.192l13.434.053h.181a8.718,8.718,0,0,0,6.232-2.668,9.337,9.337,0,0,0,2.636-6.4v-.171a9.5,9.5,0,0,0-2.636-6.594,8.675,8.675,0,0,0-6.189-2.668Z" transform="translate(32.435 21.286)"/><path class="ab" d="M525.611,350.42v14.886a5.335,5.335,0,0,1-5.335,5.335h0a5.335,5.335,0,0,1-5.335-5.335V350.836h7.6A10.02,10.02,0,0,0,525.611,350.42Z" transform="translate(34.532 23.499)"/><rect class="a" width="2.486" height="21.811" transform="translate(546.09 352.524)"/><rect class="a" width="2.486" height="21.811" transform="translate(554.071 352.524)"/><path class="ab" d="M480.032,334.777a1.657,1.657,0,0,1-.566,3.265l-12.73-2.219a1.656,1.656,0,0,1,.555-3.265Zm-1,20.562a1.654,1.654,0,1,1,1.441,2.977l-8.387,4.055a1.658,1.658,0,1,1-1.441-2.988ZM480.47,325.3a1.658,1.658,0,1,1-1.441,2.988l-9.6-4.631a1.658,1.658,0,0,1,1.441-2.988Zm-1,20.274a1.657,1.657,0,0,1,.566,3.265l-12.741,2.22a1.656,1.656,0,0,1-.555-3.265Z" transform="translate(31.207 21.493)"/></g></g></svg>