<svg xmlns="http://www.w3.org/2000/svg" width="109" height="109" viewBox="0 0 109 109"><defs><style>.a{fill:#e5e5e5;opacity:0.64;}.b{fill:#ff7816;}.c{fill:#ff9f00;}.d{fill:#ffd400;}.e{fill:#ec5569;}.f{fill:#cc2e43;}.g{fill:#697c86;}.h{fill:#465a61;}</style></defs><g transform="translate(0 -0.196)"><circle class="a" cx="54.5" cy="54.5" r="54.5" transform="translate(0 0.196)"/><g transform="translate(31.478 31.674)"><path class="b" d="M368.891,0H365l-2.76,2.7h6.649a1.35,1.35,0,0,1,1.349,1.349V6.1a12.021,12.021,0,0,1-8.219,11.4l-1.9.634a1.349,1.349,0,0,0,.427,2.629,1.385,1.385,0,0,0,.427-.069l1.9-.635A14.714,14.714,0,0,0,372.938,6.1V4.047A4.052,4.052,0,0,0,368.891,0Z" transform="translate(-326.894)"/><path class="c" d="M12.819,18.138l-1.9-.632A12.025,12.025,0,0,1,2.7,6.1V4.047A1.35,1.35,0,0,1,4.047,2.7h6.971L7.935,0H4.047A4.052,4.052,0,0,0,0,4.047V6.1A14.718,14.718,0,0,0,10.063,20.066l1.9.634a1.385,1.385,0,0,0,.427.069,1.349,1.349,0,0,0,.427-2.629Z"/><path class="d" d="M107.426,26.331v2a1.336,1.336,0,0,0,1.349,1.349,4.041,4.041,0,0,1,4.047,4.047v2.7a1.336,1.336,0,0,1-1.349,1.349H95.106a1.336,1.336,0,0,1-1.349-1.349v-2.7A4.041,4.041,0,0,1,97.8,29.677a1.336,1.336,0,0,0,1.349-1.349v-2a13.448,13.448,0,0,1-9.281-11.277L88.2,0h30.18l-1.673,15.054A13.448,13.448,0,0,1,107.426,26.331Z" transform="translate(-80.267)"/><path class="c" d="M264.184,37.77H256V0h15.09l-1.673,15.054a13.448,13.448,0,0,1-9.281,11.277v2a1.336,1.336,0,0,0,1.349,1.349,4.041,4.041,0,0,1,4.047,4.047v2.7A1.336,1.336,0,0,1,264.184,37.77Z" transform="translate(-232.978)"/><path class="c" d="M194.467,65.319a1.371,1.371,0,0,0-1.106-.944l-3.022-.432-1.349-2.671a1.43,1.43,0,0,0-2.428,0l-1.349,2.671-3.022.431a1.343,1.343,0,0,0-.728,2.32l2.158,2.078-.513,2.914a1.368,1.368,0,0,0,.54,1.322,1.324,1.324,0,0,0,1.4.108l2.725-1.4,2.725,1.4a1.32,1.32,0,0,0,1.4-.108,1.369,1.369,0,0,0,.539-1.322l-.513-2.914,2.158-2.078A1.379,1.379,0,0,0,194.467,65.319Z" transform="translate(-164.754 -55.148)"/><path class="e" d="M144.461,391.349v8.166H120v-8.166A1.336,1.336,0,0,1,121.349,390h21.763A1.336,1.336,0,0,1,144.461,391.349Z" transform="translate(-109.208 -354.928)"/><path class="b" d="M258.725,73.116,256,71.713V60.6a1.337,1.337,0,0,1,1.214.674l1.349,2.671,3.022.432a1.343,1.343,0,0,1,.728,2.32l-2.158,2.078.513,2.914a1.368,1.368,0,0,1-.54,1.322A1.319,1.319,0,0,1,258.725,73.116Z" transform="translate(-232.978 -55.148)"/><path class="f" d="M268.23,391.349v8.166H256V390h10.881A1.336,1.336,0,0,1,268.23,391.349Z" transform="translate(-232.978 -354.928)"/><path class="g" d="M119.857,483.349a1.336,1.336,0,0,1-1.349,1.349H91.349a1.349,1.349,0,0,1,0-2.7h27.159A1.336,1.336,0,0,1,119.857,483.349Z" transform="translate(-81.906 -438.654)"/><path class="h" d="M270.928,483.349a1.336,1.336,0,0,1-1.349,1.349H256V482h13.579A1.336,1.336,0,0,1,270.928,483.349Z" transform="translate(-232.978 -438.654)"/></g></g></svg>