<svg xmlns="http://www.w3.org/2000/svg" width="109" height="109" viewBox="0 0 109 109"><defs><style>.a{fill:#e5e5e5;opacity:0.64;}.b{fill:#ffcb1b;}.c{fill:#ea3447;}.d{fill:#2ad181;}</style></defs><g transform="translate(0 0.042)"><circle class="a" cx="54.5" cy="54.5" r="54.5" transform="translate(0 -0.042)"/><g transform="translate(24 -47.307)"><path class="b" d="M141.918,208.149l-14.012,24.269a1.279,1.279,0,0,0,1.108,1.918h28.023a1.279,1.279,0,0,0,1.108-1.918l-14.012-24.269a1.279,1.279,0,0,0-2.215,0Z" transform="translate(-112.505 -112.767)"/><path d="M34.9,113.73l-1.8-6.7a.583.583,0,0,0-.976-.262l-4.9,4.9a.583.583,0,0,0,.262.976l6.7,1.8A.583.583,0,0,0,34.9,113.73Z" transform="translate(-23.83 -23.886)"/><path d="M243.156,280.236a1.423,1.423,0,0,1-1.421-1.346l-.315-5.748a1.738,1.738,0,1,1,3.472,0l-.315,5.748A1.423,1.423,0,0,1,243.156,280.236Z" transform="translate(-212.636 -168.96)"/><circle cx="1.802" cy="1.802" r="1.802" transform="translate(28.718 114.471)"/><path class="b" d="M144.154,79.478a30.39,30.39,0,0,0-15.14,4.012l4.793,8.3a20.92,20.92,0,0,1,20.692,0l4.793-8.3A30.388,30.388,0,0,0,144.154,79.478Z" transform="translate(-113.633)"/><path class="c" d="M347.573,113.133l-4.793,8.3a20.971,20.971,0,0,1,10.595,17.552.681.681,0,0,0,.68.662h8.218a.683.683,0,0,0,.682-.7,30.519,30.519,0,0,0-15.381-25.817Z" transform="translate(-301.913 -29.643)"/><circle class="d" cx="3.56" cy="3.56" r="3.56" transform="translate(1.105 114.45)"/><circle class="c" cx="3.56" cy="3.56" r="3.56" transform="translate(52.817 114.45)"/><path class="d" d="M15.381,113.133a30.606,30.606,0,0,0-5.044,3.611l.735,2.742a.583.583,0,0,1-.715.715l-2.742-.735A30.407,30.407,0,0,0,0,138.952a.683.683,0,0,0,.682.7H8.9a.681.681,0,0,0,.68-.662,20.971,20.971,0,0,1,10.595-17.552Z" transform="translate(0 -29.643)"/></g></g></svg>