<svg xmlns="http://www.w3.org/2000/svg" width="977.902" height="944" viewBox="0 0 977.902 944"><defs><style>.a,.h{fill:#fff3c2;}.b,.r{fill:#fcd370;}.ag,.al,.ao,.aq,.au,.ay,.az,.ba,.be,.c,.m,.w{fill:none;}.c,.w{stroke:#fc9f21;}.ag,.al,.au,.c,.m,.w{stroke-miterlimit:10;}.c,.e{opacity:0.66;}.d{fill:#fffbe9;}.e,.t,.v{fill:#fc9f21;}.f{fill:#ffe888;}.g{fill:#fcf1c3;}.h,.j{opacity:0.1;}.i,.j{fill:#f4da6e;}.k{fill:#f0f1ff;}.ac,.l{fill:#fff;}.m{stroke:#fff;}.n{fill:#ffa658;}.n,.o,.r{fill-rule:evenodd;}.o,.p{fill:#fccb21;}.q{opacity:0.6;}.s{fill:#f9fbfc;opacity:0.5;}.u{fill:#a5681e;opacity:0.08;}.v{font-size:30.12px;font-family:Montserrat-Bold, Montserrat;font-weight:700;}.ag,.al,.ao,.aq,.au,.be,.w{stroke-linecap:round;}.w{stroke-width:4px;stroke-dasharray:0 8;}.x{fill:#f9b630;}.y{fill:#ffcb1b;}.z{opacity:0.64;}.aa{fill:#6fb9b2;}.ab{fill:#b1c1a7;}.ac{opacity:0.47;}.ad{fill:#d46363;}.ae{fill:#a43b3b;}.af{fill:#548772;}.ag{stroke:#fff3c2;stroke-width:1.25px;}.ah{fill:#362b59;}.ai{fill:#fca604;}.aj{fill:#fa8a02;}.ak{fill:#bba21e;}.al{stroke:#b7690b;stroke-width:3px;}.am{fill:#876d1e;}.an{fill:#42356e;}.ao{stroke:#a43b3b;}.ao,.aq,.ay,.az,.ba,.be{stroke-linejoin:round;}.ao,.aq,.ay,.ba{stroke-width:0.75px;}.ap{fill:#fdf1d4;}.aq{stroke:#362b59;}.ar{fill:#18277a;}.as{fill:#ffa18d;}.at{fill:#2e7efa;}.au{stroke:#18277a;stroke-width:2px;}.av{fill:#f05448;}.aw{fill:#010101;}.ax{fill:#060a47;}.ay{stroke:#e07a6c;}.az{stroke:#4376cf;}.ba{stroke:#91302c;}.bb{fill:#4376cf;}.bc{fill:#699fed;}.bd{fill:#1238a7;}.be{stroke:#d85039;stroke-width:0.5px;}</style></defs><g transform="translate(0 0)"><path class="a" d="M250.39,889.12c142.68,60.68,190-6.81,322.61,5,75.53,6.74,155.21,58.46,230.48,14.83,56.6-32.81,85-102.18,82.88-164.08-1-28.93-22.87-62.67-21.78-90.44,2.26-57.28,41.95-90.22,69.51-139.65,31.75-57,48.63-118.56,5.51-185.27-42.05-65.08-124.44-85.69-179.88-138.42-58.05-55.21-66.1-116.65-160.94-129-75.41-9.87-123.95,41.09-188.17,55.16-164.14,36-288-2.94-314.79,189.64-11.21,80.57,11.53,164.62-6.24,241.31C58,684.55,61.09,808.62,250.39,889.12Z"/><rect class="b" width="289.81" height="585.96" rx="9.83" transform="translate(312.88 331.24)"/><path class="c" d="M471,882.91a13.24,13.24,0,1,1-13.24-13.24A13.24,13.24,0,0,1,471,882.91Z"/><rect class="d" width="285.19" height="478.67" transform="translate(315.19 379.67)"/><path class="e" d="M441.48,352.81h40.16a1.61,1.61,0,0,1,1.61,1.61h0a1.61,1.61,0,0,1-1.61,1.61H441.48a1.61,1.61,0,0,1-1.61-1.61h0A1.61,1.61,0,0,1,441.48,352.81Z"/><circle class="e" cx="1.66" cy="1.66" r="1.66" transform="translate(430.83 352.76)"/><rect class="f" width="123.11" height="124.4" transform="translate(334.68 543.5)"/><path class="a" d="M369.07,651.7l-11.09,2.93-5.65-51.27h20.51l1.04,3.76H399l2.51,42.91Z"/><path class="a" d="M359.86,652.75l-1.25-43.74,56.5-.21-11.72,42.69Z"/><path class="g" d="M359.86,652.75l-1.25-43.74,56.5-.21-11.72,42.69Z"/><path class="a" d="M363.84,651.7l-1.26-41.44,56.51-.21-11.72,42.7Z"/><path class="f" d="M363.84,651.7l-1.26-41.44,56.51-.21-11.72,42.7Z"/><path class="a" d="M383.38,629.73l-1.25-41.44,56.51-.21-1.89,42.9Z"/><path class="h" d="M382.77,612.29l.61,17.44,53.37,1.25,1.21-27.52Z"/><path class="i" d="M363.61,599.59l-1.26-41.44,56.51-.21-1.88,42.91Z"/><path class="j" d="M363.37,591.88l.24,7.71,53.37,1.26,1.82-41.46Z"/><path class="i" d="M357.98,654.63h55.67l16.53-45H411.76l-1.67,3.14H372.21Z"/><rect class="d" width="123.11" height="124.4" transform="translate(457.66 543.5)"/><rect class="a" width="102.16" height="6.58" transform="translate(570.29 572.26) rotate(180)"/><rect class="a" width="102.16" height="6.58" transform="translate(570.29 584.5) rotate(180)"/><rect class="a" width="31.81" height="6.58" transform="translate(499.94 596.73) rotate(180)"/><rect class="a" width="61.7" height="6.58" transform="translate(570.15 596.73) rotate(180)"/><rect class="a" width="102.16" height="6.58" transform="translate(570.29 608.97) rotate(180)"/><rect class="a" width="102.16" height="6.58" transform="translate(570.29 621.2) rotate(180)"/><rect class="a" width="102.16" height="6.58" transform="translate(570.29 633.44) rotate(180)"/><rect class="a" width="29.5" height="6.58" transform="translate(570.3 645.67) rotate(180)"/><rect class="a" width="65.62" height="6.58" transform="translate(533.75 645.67) rotate(180)"/><rect class="a" width="102.16" height="6.58" transform="translate(570.29 657.91) rotate(180)"/><rect class="a" width="27.06" height="6.58" transform="translate(570.3 560.03) rotate(180)"/><rect class="a" width="68.17" height="6.58" transform="translate(468.13 553.44)"/><rect class="k" width="123.11" height="124.4" transform="translate(334.68 667.91)"/><rect class="a" width="102.16" height="6.58" transform="translate(345.15 763.53)"/><rect class="a" width="102.16" height="6.58" transform="translate(345.15 751.29)"/><rect class="a" width="26.27" height="6.58" transform="translate(421.04 739.06)"/><rect class="a" width="67.24" height="6.58" transform="translate(345.29 739.06)"/><rect class="a" width="102.16" height="6.58" transform="translate(345.15 726.82)"/><rect class="a" width="102.16" height="6.58" transform="translate(345.15 714.59)"/><rect class="a" width="102.16" height="6.58" transform="translate(345.15 702.35)"/><rect class="a" width="47.47" height="6.58" transform="translate(345.15 690.12)"/><rect class="a" width="47.65" height="6.58" transform="translate(399.66 690.12)"/><rect class="a" width="102.16" height="6.58" transform="translate(345.15 677.88)"/><rect class="a" width="47.61" height="6.58" transform="translate(345.15 775.76)"/><rect class="a" width="47.61" height="6.58" transform="translate(447.31 782.34) rotate(180)"/><rect class="a" width="123.11" height="124.4" transform="translate(457.66 667.91)"/><rect class="a" width="246.22" height="124.12" transform="translate(334.68 408.35)"/><rect class="f" width="115.98" height="8.59" transform="translate(570.29 434.78) rotate(180)"/><rect class="f" width="115.98" height="8.59" transform="translate(570.29 450.76) rotate(180)"/><rect class="f" width="115.98" height="8.59" transform="translate(570.29 466.72) rotate(180)"/><rect class="f" width="115.98" height="8.59" transform="translate(570.29 482.69) rotate(180)"/><rect class="f" width="115.98" height="8.59" transform="translate(570.29 514.62) rotate(180)"/><rect class="f" width="69.31" height="8.59" transform="translate(570.3 498.65) rotate(180)"/><rect class="f" width="38.79" height="8.59" transform="translate(454.32 490.07)"/><rect class="f" width="87.73" height="87.73" transform="translate(348.79 426.55)"/><path class="l" d="M400.79,453.97l26.69,45.66H374.09Z"/><path class="l" d="M373.74,468.98l5.7,10.98-10.22,19.67h-11.4Z"/><path class="l" d="M360.07,451.33a4.95,4.95,0,1,0,4.94-4.94A4.95,4.95,0,0,0,360.07,451.33Z"/><path class="f" d="M388.35,398.2H527.22a4,4,0,0,0,3.95-3.95h0a4,4,0,0,0-3.95-4H388.35a4,4,0,0,0-4,4h0A4,4,0,0,0,388.35,398.2Z"/><line class="m" y2="248.81" transform="translate(457.78 543.5)"/><line class="m" x2="246.21" transform="translate(334.68 667.91)"/><path class="n" d="M410.36,6.27a98.208,98.208,0,1,0,.02,0Zm36,10.84a33.074,33.074,0,1,1-.03,0Z"/><path class="o" d="M404.76,0A95.79,95.79,0,1,1,337,28.06,95.784,95.784,0,0,1,404.76,0Z"/><circle class="l" cx="73.23" cy="73.23" r="73.23" transform="translate(331.53 22.56)"/><rect class="p" width="3.19" height="7.06" rx="1.59" transform="translate(403.17 27.26)"/><rect class="p" width="3.19" height="7.06" rx="1.59" transform="translate(403.17 157.26)"/><path class="o" d="M439,36.44h0a1.59,1.59,0,0,1,.58,2.17L437.67,42a1.6,1.6,0,0,1-2.17.59h0a1.59,1.59,0,0,1-.58-2.17L436.86,37A1.58,1.58,0,0,1,439,36.44Z"/><path class="o" d="M374,149h0a1.6,1.6,0,0,1,.58,2.18l-1.94,3.35a1.59,1.59,0,0,1-2.17.59h0a1.6,1.6,0,0,1-.58-2.18l1.94-3.36A1.59,1.59,0,0,1,374,149Z"/><path class="o" d="M464.11,61.52h0a1.6,1.6,0,0,1-.58,2.18l-3.36,1.94a1.6,1.6,0,0,1-2.17-.58h0a1.6,1.6,0,0,1,.59-2.17l3.36-1.94a1.58,1.58,0,0,1,2.16.57Z"/><path class="o" d="M351.53,126.52h0a1.59,1.59,0,0,1-.58,2.17l-3.36,1.94a1.59,1.59,0,0,1-2.17-.58h0a1.6,1.6,0,0,1,.59-2.17l3.36-1.94a1.59,1.59,0,0,1,2.16.58Z"/><rect class="p" width="7.06" height="3.18" rx="1.59" transform="translate(466.23 94.2)"/><rect class="p" width="7.06" height="3.18" rx="1.59" transform="translate(336.23 94.2)"/><path class="o" d="M464.11,130.05h0a1.6,1.6,0,0,1-2.17.58l-3.36-1.94a1.6,1.6,0,0,1-.59-2.17h0a1.59,1.59,0,0,1,2.17-.58l3.36,1.94a1.59,1.59,0,0,1,.59,2.17Z"/><path class="o" d="M351.53,65.05h0a1.6,1.6,0,0,1-2.17.58L346,63.7a1.61,1.61,0,0,1-.59-2.18h0a1.58,1.58,0,0,1,2.17-.58L351,62.88a1.59,1.59,0,0,1,.53,2.17Z"/><path class="o" d="M439,155.14h0a1.6,1.6,0,0,1-2.18-.59l-1.94-3.35a1.61,1.61,0,0,1,.59-2.18h0a1.6,1.6,0,0,1,2.17.58l1.94,3.36a1.6,1.6,0,0,1-.58,2.18Z"/><path class="o" d="M374,42.55h0a1.61,1.61,0,0,1-2.18-.59l-1.94-3.36a1.6,1.6,0,0,1,.59-2.17h0a1.58,1.58,0,0,1,2.17.58l1.94,3.36a1.59,1.59,0,0,1-.58,2.18Z"/><path class="o" d="M407,95.79a2.26,2.26,0,0,1-4.51,0V42.94a2.26,2.26,0,0,1,4.51,0Z"/><path class="n" d="M406.41,94.25a2.253,2.253,0,1,1-3.29,3.08l-26.1-28a2.25,2.25,0,1,1,3.29-3.07Z"/><g class="q"><path class="b" d="M518.68,321.12a6.19,6.19,0,1,1,6.19-6.19,6.19,6.19,0,0,1-6.19,6.19Zm0-10.38a4.19,4.19,0,1,0,4.19,4.19A4.19,4.19,0,0,0,518.68,310.74Z"/><path class="b" d="M100.86,472.53a6.19,6.19,0,1,1,6.19-6.19,6.19,6.19,0,0,1-6.19,6.19Zm0-10.38a4.19,4.19,0,1,0,4.19,4.19A4.19,4.19,0,0,0,100.86,462.15Z"/><path class="b" d="M185.43,261.22a7.32,7.32,0,1,1,7.33-7.32A7.32,7.32,0,0,1,185.43,261.22Zm0-12.27a4.975,4.975,0,1,1,0,.05Z"/><path class="b" d="M258.65,184.9H238.78a1,1,0,0,1,0-2h19.87a1,1,0,0,1,0,2Z"/><path class="b" d="M441.59,269.46H421.72a1,1,0,0,1,0-2h19.87a1,1,0,0,1,0,2Z"/><path class="b" d="M474.75,774.77H453.14a1,1,0,0,1,0-2h21.61a1,1,0,0,1,0,2Z"/><path class="b" d="M277.41,718.84H254.28a1,1,0,1,1,0-2h23.13a1,1,0,0,1,0,2Z"/><path class="r" d="M649.84,63.5v2.15H652a1.64,1.64,0,0,1,1.64,1.63h0A1.64,1.64,0,0,1,652,68.91h-2.15v2.16a1.63,1.63,0,0,1-1.63,1.63h0a1.63,1.63,0,0,1-1.63-1.63V68.91h-2.16a1.63,1.63,0,0,1-1.63-1.63h0a1.63,1.63,0,0,1,1.63-1.63h2.16V63.5a1.64,1.64,0,0,1,1.63-1.64h0A1.64,1.64,0,0,1,649.84,63.5Z"/><path class="r" d="M750,126.05a1.33,1.33,0,1,1,2.65,0v6a1.33,1.33,0,0,1-2.65,0Zm-9,4.84a1.322,1.322,0,0,1,1.87-1.87l4.23,4.22a1.33,1.33,0,1,1-1.88,1.87Zm-3,9.82a1.33,1.33,0,1,1,0-2.65h6a1.33,1.33,0,0,1,0,2.65Zm4.84,9a1.322,1.322,0,1,1-1.87-1.87l4.22-4.22a1.33,1.33,0,1,1,1.88,1.87Zm9.82,3a1.33,1.33,0,1,1-2.65,0v-6a1.33,1.33,0,1,1,2.65,0Zm9.05-4.84a1.33,1.33,0,0,1-1.88,1.87l-4.22-4.22a1.33,1.33,0,1,1,1.88-1.87Zm3-9.82a1.33,1.33,0,1,1,0,2.65h-6a1.33,1.33,0,1,1,0-2.65Zm-4.84-9a1.33,1.33,0,0,1,1.88,1.87l-4.22,4.22a1.33,1.33,0,1,1-1.88-1.87Z"/><path class="r" d="M111,218.46v2.15h2.16a1.64,1.64,0,0,1,1.63,1.63h0a1.65,1.65,0,0,1-1.63,1.64H111V226a1.63,1.63,0,0,1-1.63,1.63h0a1.63,1.63,0,0,1-1.63-1.63v-2.15H105.6a1.65,1.65,0,0,1-1.64-1.64h0a1.65,1.65,0,0,1,1.64-1.63h2.15v-2.15a1.63,1.63,0,0,1,1.63-1.63h0a1.63,1.63,0,0,1,1.62,1.66Z"/><path class="r" d="M538.31,129.77v2.15h2.15a1.63,1.63,0,0,1,1.63,1.63h0a1.63,1.63,0,0,1-1.63,1.63h-2.15v2.16a1.64,1.64,0,0,1-1.64,1.63h0a1.63,1.63,0,0,1-1.63-1.63v-2.16h-2.15a1.64,1.64,0,0,1-1.64-1.63h0a1.64,1.64,0,0,1,1.64-1.63H535v-2.15a1.64,1.64,0,0,1,1.63-1.64h0a1.65,1.65,0,0,1,1.68,1.64Z"/><path class="r" d="M7.05,548.36v2.15H9.21a1.64,1.64,0,0,1,1.63,1.63h0a1.64,1.64,0,0,1-1.63,1.63H7.05v2.16a1.63,1.63,0,0,1-1.63,1.63h0a1.63,1.63,0,0,1-1.63-1.63v-2.16H1.63A1.64,1.64,0,0,1,0,552.14H0a1.64,1.64,0,0,1,1.63-1.63H3.79v-2.15a1.64,1.64,0,0,1,1.63-1.64h0a1.64,1.64,0,0,1,1.63,1.64Z"/><path class="r" d="M927.4,536.82V539h2.15a1.64,1.64,0,0,1,1.63,1.63h0a1.64,1.64,0,0,1-1.63,1.64H927.4v2.15a1.64,1.64,0,0,1-1.64,1.63h0a1.63,1.63,0,0,1-1.63-1.63v-2.15H922a1.65,1.65,0,0,1-1.64-1.64h0A1.65,1.65,0,0,1,922,539h2.15v-2.15a1.63,1.63,0,0,1,1.63-1.63h0a1.64,1.64,0,0,1,1.62,1.6Z"/><path class="r" d="M863.74,295v2.15h2.15a1.65,1.65,0,0,1,1.64,1.64h0a1.64,1.64,0,0,1-1.64,1.63h-2.15v2.15a1.64,1.64,0,0,1-1.63,1.64h0a1.65,1.65,0,0,1-1.64-1.64v-2.15h-2.15a1.63,1.63,0,0,1-1.63-1.63h0a1.64,1.64,0,0,1,1.63-1.64h2.15V295a1.64,1.64,0,0,1,1.64-1.63h0a1.63,1.63,0,0,1,1.63,1.63Z"/><path class="r" d="M486.48,373.88V376h2.15a1.64,1.64,0,0,1,1.64,1.63h0a1.65,1.65,0,0,1-1.64,1.64h-2.15v2.15a1.63,1.63,0,0,1-1.63,1.63h0a1.63,1.63,0,0,1-1.63-1.63V379.3h-2.16a1.64,1.64,0,0,1-1.63-1.64h0a1.63,1.63,0,0,1,1.63-1.63h2.16v-2.15a1.64,1.64,0,0,1,1.63-1.64h0A1.64,1.64,0,0,1,486.48,373.88Z"/><path class="r" d="M184.11,240.57a1.33,1.33,0,1,1,2.65,0v6a1.33,1.33,0,1,1-2.65,0Zm-9,4.84a1.33,1.33,0,1,1,1.87-1.88l4.22,4.22a1.33,1.33,0,0,1-1.87,1.88Zm-3,9.82a1.33,1.33,0,1,1,0-2.65h6a1.33,1.33,0,1,1,0,2.65Zm4.84,9a1.322,1.322,0,0,1-1.87-1.87l4.22-4.22a1.322,1.322,0,0,1,1.87,1.87Zm9.82,3a1.33,1.33,0,1,1-2.65,0v-6a1.33,1.33,0,0,1,2.65,0Zm9-4.84a1.322,1.322,0,0,1-1.87,1.87l-4.22-4.22a1.322,1.322,0,0,1,1.87-1.87Zm3-9.82a1.33,1.33,0,1,1,0,2.65h-6a1.33,1.33,0,1,1,0-2.65Zm-4.84-9.05a1.33,1.33,0,0,1,1.87,1.88l-4.22,4.22a1.33,1.33,0,0,1-1.87-1.88Z"/><path class="b" d="M38.73,651.61a7.32,7.32,0,1,1,7.32-7.32A7.32,7.32,0,0,1,38.73,651.61Zm0-12.27a5,5,0,1,0,5,4.95A5,5,0,0,0,38.73,639.34Z"/><path class="r" d="M37.4,631a1.33,1.33,0,1,1,2.66,0v6a1.33,1.33,0,1,1-2.66,0Zm-9,4.85a1.33,1.33,0,0,1,0-1.88,1.35,1.35,0,0,1,1.88,0l4.22,4.22a1.35,1.35,0,0,1,0,1.88,1.33,1.33,0,0,1-1.88,0l-4.22-4.22Zm-3,9.82a1.33,1.33,0,1,1,0-2.65h6a1.33,1.33,0,1,1,0,2.65Zm4.85,9a1.33,1.33,0,1,1-1.88-1.88l4.22-4.21a1.33,1.33,0,0,1,1.88,1.87l-4.22,4.22Zm9.82,3a1.33,1.33,0,1,1-2.66,0v-6a1.33,1.33,0,1,1,2.66,0Zm9-4.85a1.33,1.33,0,1,1-1.88,1.88L43,650.44a1.33,1.33,0,0,1,1.88-1.87l4.22,4.21Zm3-9.81a1.33,1.33,0,0,1,0,2.65h-6a1.33,1.33,0,1,1,0-2.65Zm-4.85-9.05a1.35,1.35,0,0,1,1.88,0,1.33,1.33,0,0,1,0,1.88L44.88,640A1.33,1.33,0,0,1,43,640a1.35,1.35,0,0,1,0-1.88Z"/><path class="r" d="M292.32,642.82a.74.74,0,0,1,.75-.75.75.75,0,0,1,.76.75v3.4a.76.76,0,0,1-.76.76.75.75,0,0,1-.75-.76Zm-5.16,2.76a.76.76,0,0,1,1.07-1.07l2.41,2.41a.76.76,0,0,1-1.07,1.07Zm-1.69,5.6a.76.76,0,1,1,0-1.51h3.4a.76.76,0,1,1,0,1.51Zm2.76,5.16a.76.76,0,1,1-1.07-1.07l2.41-2.41a.76.76,0,1,1,1.07,1.07Zm5.6,1.69a.75.75,0,0,1-.76.75.74.74,0,0,1-.75-.75v-3.4a.75.75,0,0,1,.75-.76.76.76,0,0,1,.76.76V658Zm5.15-2.76a.75.75,0,0,1,0,1.07.77.77,0,0,1-1.07,0l-2.4-2.41a.75.75,0,0,1,0-1.07.77.77,0,0,1,1.07,0Zm1.7-5.6a.76.76,0,0,1,0,1.51h-3.41a.76.76,0,0,1,0-1.51Zm-2.77-5.16a.77.77,0,0,1,1.07,0,.75.75,0,0,1,0,1.07l-2.4,2.41a.77.77,0,0,1-1.07,0,.75.75,0,0,1,0-1.07Z"/><path class="b" d="M887.66,613.56a7.32,7.32,0,1,1,7.32-7.32,7.32,7.32,0,0,1-7.32,7.32Zm0-12.28a5,5,0,1,0,5,5A5,5,0,0,0,887.66,601.28Z"/><path class="r" d="M886.34,592.9a1.33,1.33,0,0,1,2.65,0v6a1.33,1.33,0,1,1-2.65,0Zm-9.05,4.85a1.35,1.35,0,0,1,0-1.88,1.33,1.33,0,0,1,1.88,0l4.22,4.22a1.33,1.33,0,0,1,0,1.88,1.35,1.35,0,0,1-1.88,0Zm-3,9.82a1.33,1.33,0,1,1,0-2.66h6a1.33,1.33,0,0,1,0,2.66Zm4.85,9a1.33,1.33,0,0,1-1.88,0,1.35,1.35,0,0,1,0-1.88l4.22-4.22a1.35,1.35,0,0,1,1.88,0,1.33,1.33,0,0,1,0,1.88Zm9.82,3a1.33,1.33,0,0,1-2.65,0v-6a1.33,1.33,0,1,1,2.65,0Zm9-4.85a1.33,1.33,0,0,1-1.88,1.88l-4.22-4.22a1.33,1.33,0,0,1,1.88-1.88Zm3-9.82a1.33,1.33,0,1,1,0,2.66h-6a1.33,1.33,0,0,1,0-2.66Zm-4.85-9a1.33,1.33,0,0,1,1.88,1.88L893.81,602a1.33,1.33,0,0,1-1.88-1.88Z"/></g><rect class="p" width="107.63" height="20.1" rx="5.77" transform="translate(237.63 878.89)"/><rect class="s" width="15.84" height="103.37" rx="3.77" transform="translate(343.13 881.01) rotate(90)"/><path class="e" d="M253.3,881h-9.53a4,4,0,0,0-4,4v7.81a4,4,0,0,0,4,4h9.53Z"/><rect class="e" width="36.04" height="15.84" transform="translate(260.02 881.02)"/><path class="e" d="M339.11,881h-1.59v15.83h1.59a4,4,0,0,0,4-4V885A4,4,0,0,0,339.11,881Z"/><rect class="e" width="34.46" height="15.84" transform="translate(300.23 881.02)"/><rect class="p" width="107.63" height="20.1" rx="5.77" transform="translate(248.28 858.93)"/><rect class="s" width="15.84" height="103.37" rx="3.77" transform="translate(353.78 861.07) rotate(90)"/><path class="e" d="M264,861.07h-9.53a4,4,0,0,0-4,4v7.81a4,4,0,0,0,4,4H264Z"/><rect class="e" width="36.04" height="15.84" transform="translate(270.67 861.07)"/><path class="e" d="M349.77,861.07h-1.59V876.9h1.59a4,4,0,0,0,4-4v-7.81a4,4,0,0,0-4-4.02Z"/><rect class="e" width="34.46" height="15.84" transform="translate(310.88 861.07)"/><rect class="p" width="107.63" height="20.1" rx="5.77" transform="translate(369.52 878.89)"/><rect class="s" width="15.84" height="103.37" rx="3.77" transform="translate(475.02 881.02) rotate(90)"/><path class="e" d="M385.2,881h-9.53a4,4,0,0,0-4,4v7.81a4,4,0,0,0,4,4h9.53Z"/><rect class="e" width="36.04" height="15.84" transform="translate(391.91 881.02)"/><path class="e" d="M471,881h-1.59v15.83H471a4,4,0,0,0,4-4V885A4,4,0,0,0,471,881Z"/><rect class="e" width="34.46" height="15.84" transform="translate(432.12 881.02)"/><rect class="p" width="107.63" height="20.1" rx="5.77" transform="translate(376.98 858.93)"/><rect class="s" width="15.84" height="103.37" rx="3.77" transform="translate(482.48 861.07) rotate(90)"/><path class="e" d="M392.66,861.07h-9.53a4,4,0,0,0-4,4v7.81a4,4,0,0,0,4,4h9.53Z"/><rect class="e" width="36.04" height="15.84" transform="translate(399.37 861.07)"/><path class="e" d="M478.46,861.07h-1.59V876.9h1.59a4,4,0,0,0,4-4v-7.81a4,4,0,0,0-4-4.02Z"/><rect class="e" width="34.46" height="15.84" transform="translate(439.58 861.07)"/><rect class="p" width="107.63" height="20.1" rx="5.77" transform="translate(372.72 838.98)"/><rect class="s" width="15.84" height="103.37" rx="3.77" transform="translate(478.22 841.11) rotate(90)"/><path class="e" d="M388.4,841.11h-9.54a4,4,0,0,0-4,4v7.8a4,4,0,0,0,4,4h9.54Z"/><rect class="e" width="36.04" height="15.84" transform="translate(395.11 841.11)"/><path class="e" d="M474.2,841.11h-1.59V857h1.59a4,4,0,0,0,4-4v-7.8a4,4,0,0,0-4-4.09Z"/><rect class="e" width="34.46" height="15.84" transform="translate(435.32 841.11)"/><rect class="p" width="107.63" height="20.1" rx="5.77" transform="translate(366.798 823.69) rotate(-3.78)"/><rect class="s" width="15.84" height="103.37" rx="3.77" transform="translate(472.235 818.793) rotate(86.22)"/><path class="e" d="M382.63,824.76l-9.51.63a4,4,0,0,0-3.75,4.27l.52,7.79a4,4,0,0,0,4.27,3.74l9.51-.63Z"/><rect class="e" width="36.04" height="15.84" transform="translate(389.278 824.335) rotate(-3.78)"/><path class="e" d="M468.25,819.1l-1.59.11,1,15.8,1.58-.11a4,4,0,0,0,3.74-4.27l-.51-7.79A4,4,0,0,0,468.25,819.1Z"/><rect class="e" width="34.46" height="15.84" transform="translate(429.399 821.686) rotate(-3.78)"/><rect class="p" width="107.63" height="20.1" rx="5.77" transform="translate(490.99 878.89)"/><rect class="s" width="15.84" height="103.37" rx="3.77" transform="translate(596.5 881.02) rotate(90)"/><path class="e" d="M506.67,881h-9.53a4,4,0,0,0-4,4v7.81a4,4,0,0,0,4,4h9.53Z"/><rect class="e" width="36.04" height="15.84" transform="translate(513.38 881.02)"/><path class="e" d="M592.48,881h-1.59v15.83h1.59a4,4,0,0,0,4-4V885A4,4,0,0,0,592.48,881Z"/><rect class="e" width="34.46" height="15.84" transform="translate(553.59 881.02)"/><rect class="p" width="107.63" height="20.1" rx="5.77" transform="translate(501.65 858.93)"/><rect class="s" width="15.84" height="103.37" rx="3.77" transform="translate(607.15 861.07) rotate(90)"/><path class="e" d="M517.33,861.07H507.8a4,4,0,0,0-4,4v7.81a4,4,0,0,0,4,4h9.53Z"/><rect class="e" width="36.04" height="15.84" transform="translate(524.04 861.07)"/><path class="e" d="M603.14,861.07h-1.59V876.9h1.59a4,4,0,0,0,4-4v-7.81a4,4,0,0,0-4-4.02Z"/><rect class="e" width="34.46" height="15.84" transform="translate(564.25 861.07)"/><rect class="p" width="107.63" height="20.1" rx="5.77" transform="translate(506.98 838.98)"/><rect class="s" width="15.84" height="103.37" rx="3.77" transform="translate(612.48 841.12) rotate(90)"/><path class="e" d="M522.66,841.11h-9.53a4,4,0,0,0-4,4v7.8a4,4,0,0,0,4,4h9.53Z"/><rect class="e" width="36.04" height="15.84" transform="translate(529.37 841.11)"/><path class="e" d="M608.46,841.11h-1.59V857h1.59a4,4,0,0,0,4-4v-7.8a4,4,0,0,0-4-4.09Z"/><rect class="e" width="34.46" height="15.84" transform="translate(569.58 841.11)"/><rect class="p" width="107.63" height="20.1" rx="5.77" transform="translate(494.19 819.03)"/><rect class="s" width="15.84" height="103.37" rx="3.77" transform="translate(599.69 821.16) rotate(90)"/><path class="e" d="M509.87,821.16h-9.53a4,4,0,0,0-4,4V833a4,4,0,0,0,4,4h9.53Z"/><rect class="e" width="36.04" height="15.84" transform="translate(516.58 821.16)"/><path class="e" d="M595.68,821.16h-1.59V837h1.59a4,4,0,0,0,4-4v-7.8a4,4,0,0,0-4-4.04Z"/><rect class="e" width="34.46" height="15.84" transform="translate(556.79 821.16)"/><rect class="p" width="107.63" height="20.1" rx="5.77" transform="translate(505.91 799.08)"/><rect class="s" width="15.84" height="103.37" rx="3.77" transform="translate(611.42 801.21) rotate(90)"/><path class="e" d="M521.59,801.21h-9.53a4,4,0,0,0-4,4V813a4,4,0,0,0,4,4h9.53Z"/><rect class="e" width="36.04" height="15.84" transform="translate(528.3 801.21)"/><path class="e" d="M607.4,801.21h-1.59v15.84h1.59a4,4,0,0,0,4-4v-7.8a4,4,0,0,0-4-4.04Z"/><rect class="e" width="34.46" height="15.84" transform="translate(568.51 801.21)"/><rect class="p" width="107.63" height="20.1" rx="5.77" transform="translate(514.44 779.13)"/><rect class="s" width="15.84" height="103.37" rx="3.77" transform="translate(619.94 781.26) rotate(90)"/><path class="e" d="M530.12,781.26h-9.53a4,4,0,0,0-4,4v7.8a4,4,0,0,0,4,4h9.53Z"/><rect class="e" width="36.04" height="15.84" transform="translate(536.83 781.26)"/><path class="e" d="M615.92,781.26h-1.59V797.1h1.59a4,4,0,0,0,4-4v-7.8a4,4,0,0,0-4-4.04Z"/><rect class="e" width="34.46" height="15.84" transform="translate(577.04 781.26)"/><rect class="p" width="107.63" height="20.1" rx="5.77" transform="translate(504.85 759.18)"/><rect class="s" width="15.84" height="103.37" rx="3.77" transform="translate(610.35 761.31) rotate(90)"/><path class="e" d="M520.53,761.31H511a4,4,0,0,0-4,4v7.81a4,4,0,0,0,4,4h9.53Z"/><rect class="e" width="36.04" height="15.84" transform="translate(527.24 761.31)"/><path class="e" d="M606.33,761.31h-1.59v15.84h1.59a4,4,0,0,0,4-4v-7.81a4,4,0,0,0-4-4.03Z"/><rect class="e" width="34.46" height="15.84" transform="translate(567.45 761.31)"/><rect class="p" width="107.63" height="20.1" rx="5.77" transform="matrix(0.997, -0.08, 0.08, 0.997, 515.168, 743.536)"/><rect class="s" width="15.891" height="103.7" rx="3.782" transform="translate(618.243 739.067) rotate(85.426)"/><path class="e" d="M530.93,744.43l-9.5.77a4,4,0,0,0-3.68,4.32l.62,7.78a4,4,0,0,0,4.33,3.7l9.5-.76Z"/><rect class="e" width="36.04" height="15.84" transform="matrix(0.997, -0.08, 0.08, 0.997, 537.662, 743.86)"/><path class="e" d="M616.46,737.57l-1.58.13,1.26,15.78,1.59-.12a4,4,0,0,0,3.68-4.33l-.62-7.78a4,4,0,0,0-4.33-3.68Z"/><rect class="e" width="34.46" height="15.84" transform="matrix(0.997, -0.08, 0.08, 0.997, 577.731, 740.653)"/><circle class="p" cx="51.35" cy="51.35" r="51.35" transform="translate(549.474 885.351) rotate(-76.48)"/><circle class="t" cx="40.69" cy="40.69" r="40.69" transform="translate(569.51 806.8)"/><path class="u" d="M610.2,806.8c-.78,0-1.56,0-2.32.07a40.68,40.68,0,0,1,0,81.23c.76,0,1.54.07,2.32.07a40.687,40.687,0,1,0,0-81.375Z"/><circle class="p" cx="26.76" cy="26.76" r="26.76" transform="translate(572.363 847.49) rotate(-45)"/><text class="v" transform="translate(601.82 856.28)"><tspan x="0" y="0">$</tspan></text><path class="t" d="M285.82,853.89s-4.62-14.75-8.53-12.44S285.82,853.89,285.82,853.89Z"/><path class="t" d="M299.84,853.89s4.62-14.75,8.53-12.44S299.84,853.89,299.84,853.89Z"/><path class="t" d="M399.85,819.18s-10.79-11.07-13.24-7.24S399.85,819.18,399.85,819.18Z"/><path class="t" d="M546.73,734.15s-8-13.22-11.25-10S546.73,734.15,546.73,734.15Z"/><path class="t" d="M408,815.81s4.62-14.74,8.53-12.44S408,815.81,408,815.81Z"/><path class="t" d="M555.62,734.82s6-14.22,9.71-11.54S555.62,734.82,555.62,734.82Z"/><path class="w" d="M293.16,849a61.25,61.25,0,0,1,106.16-39.21"/><path class="w" d="M551.74,730.53c1.67-9.56,8-22.56,19.08-34.32"/><path class="w" d="M399.53,809.71a87,87,0,0,1,152.68-79.52"/><path class="x" d="M578.15,688.2l-6.76-28,66.12-44.22Z"/><path class="y" d="M637.51,615.98,571.39,660.2l-20.46-10.49Z"/><path class="u" d="M578.15,688.2l4.43-23.95,54.93-48.27Z"/><path class="y" d="M582.58,664.25l35.34,13.27,19.59-61.54Z"/><g class="z"><path class="aa" d="M206.83,915.81c2.47-8.93,16.61-48.6,36.27-64.45a24,24,0,0,1,8.27-4.81c3.09-.87,6.7-.51,9.06,1.67,2.16,2,2.93,5.08,2.94,8,.15,23.17-23.84,36.44-33.28,55.32"/><path class="ab" d="M206.8,915.68s13.12-44.33,28.76-72.16c7.4-13.18,10-35.56-1.1-40.09-16.14-6.53-26.59,16.53-31.23,27.88-7,17.16-11.15,35.49-13.56,53.83-.35,2.66-2.21,34.08-2.36,34.1Z"/><path class="ac" d="M202.15,916.89l-2.32-.3c3-23.34,10.71-67.47,28.37-100.74l2.07,1.09C212.77,849.89,205.13,893.71,202.15,916.89Z"/><path class="aa" d="M163.71,923.57s-13.81-62-46.71-85.77c-8.89-6.43-22.6-12.29-33-12.67-13.53-.49-10.38,14.74-6.21,24.22,5.41,12.29,17.37,18.37,26.69,26.56,17.16,15.05,27.6,25.15,42.79,50.68"/><path class="ab" d="M172,922.05c4.95-15-8.35-72.85-15.43-90.44a94.861,94.861,0,0,0-21.67-32.44c-8.29-8-31.75-24.61-41.87-14.26-5.85,6,7.48,21.28,11.11,25.93a298.851,298.851,0,0,1,30.69,49C145,880,153.79,901.43,159.57,923.45l.21.84"/><path class="aa" d="M173.38,921.8c-8.44-32.21-16-82.62-6.51-113.63,10.82-35.16,29.87-54,35.31-42,15.81,34.61-3.08,138.94-11.3,152.45"/><path class="ac" d="M153.25,925.6C142.11,886.67,114,852,81.72,837.28l1-2.13c32.9,15,61.49,50.25,72.81,89.81Z"/><path class="ac" d="M166.24,923.15c-6.65-30.34-14.92-56.84-25.28-81-10.12-23.64-21.83-39.27-35.78-47.78l1.21-2c14.39,8.78,26.4,24.76,36.72,48.87,10.41,24.31,18.72,50.95,25.41,81.43Z"/><path class="l" d="M184.94,919.75l-2.31.29c-5-39.48-1.32-83.56,11.56-138.72l2.27.53C183.64,836.73,180,880.55,184.94,919.75Z"/><path class="ac" d="M218.37,914.12l-2.22-.72c12.11-36.92,35.3-59.58,35.53-59.8l1.62,1.67C253.07,855.5,230.29,877.78,218.37,914.12Z"/></g><g class="z"><path class="aa" d="M732.21,912.61c-3.69-11.93-24.23-64.72-50.63-84.77-3.35-2.56-6.93-5-11-5.93s-8.73-.19-11.68,2.93c-2.69,2.85-3.52,7.12-3.38,11.09,1.08,31.45,33,47.7,46.25,72.62"/><path class="ab" d="M732.24,912.43s-19.47-59.18-41.29-95.8c-10.34-17.34-15-47.52-.77-54.48,20.59-10.07,35.42,20.46,42.07,35.52,10.06,22.77,16.42,47.34,20.56,72.05.59,3.59,4.74,46.09,4.93,46.11Z"/><path class="ac" d="M738.35,913.73l3-.57c-5.2-31.46-17.6-90.78-42.36-134.63l-2.62,1.64C720.88,823.59,733.2,882.49,738.35,913.73Z"/><path class="aa" d="M788.61,920s14.54-85.12,55.95-119.85c11.19-9.38,28.67-18.35,42.21-19.63,17.55-1.67,14.29,19.23,9.39,32.41-6.34,17.07-21.54,26.22-33.2,38-21.44,21.7-34.45,36.18-52.77,72"/><path class="ab" d="M777.75,918.5c-7.26-20,6.84-99.48,15.07-123.87A132.279,132.279,0,0,1,819.18,749c10.33-11.44,39.87-35.75,53.57-22.44,7.92,7.7-8.54,29.42-13,36a417.222,417.222,0,0,0-37.17,68.83c-12.05,28-22.31,57.77-28.6,88.09l-.24,1.15"/><path class="aa" d="M776,918.27c9.19-44.33,16.3-113.31,2.22-154.68-16-46.92-41.74-71-48.16-54.44-18.62,48.14,11.62,188.34,23,206.06"/><path class="ac" d="M802.31,921.94c12.33-53.65,46.88-102.78,88-125.15L889,794c-41.9,22.79-77.07,72.74-89.6,127.25Z"/><path class="ac" d="M785.31,919.57c7-41.66,16.26-78.24,28.38-111.81,11.84-32.83,26.18-54.91,43.84-67.5l-1.69-2.61c-18.19,13-32.91,35.55-45,69-12.18,33.77-21.52,70.53-28.53,112.39Z"/><path class="l" d="M760.84,916.34l3,.22c4.32-53.94-2.86-113.49-22.61-187.39l-2.92.89C758,803.59,765.13,862.77,760.84,916.34Z"/><path class="ac" d="M717.14,911.18,720,910c-17.75-49.21-49.1-78.24-49.41-78.53l-2,2.39C668.87,834.18,699.67,862.74,717.14,911.18Z"/></g><path class="y" d="M18.68,944S424,834.52,974.3,944C974.3,944,490.8,883.78,18.68,944Z"/><path class="ad" d="M106.67,839.57s-22.45,25.62-24.09,31,0,16.87,0,16.87L65.31,890.2,43.65,870.6l6-7.27s22.72-27.18,25.44-39.8Z"/><path class="ae" d="M99.57,847.85c4-4.73,7.1-8.28,7.1-8.28l-31.56-16c-1,4.63-4.69,11.22-9,17.71C79.51,841.73,93.05,845.68,99.57,847.85Z"/><path class="ad" d="M271.19,837.12s-6.8,36.85-2.68,42,14.28,11.22,27.17,16.41,12.08,9.58-7.11,9.61l-61.76.1a3.16,3.16,0,0,1-3-4.25c2.22-6,6.48-17.18,10.12-24.28,5.19-10.16,4-41.41,4-41.41Z"/><path class="ae" d="M270.09,843.61c.62-3.89,1.1-6.49,1.1-6.49L238,835.35s.27,7.64-.07,16.59C248,847.49,261.93,844.87,270.09,843.61Z"/><path class="af" d="M229.31,466.1l7.72,27s38.14,75.26,47,166.28-8.87,179.89-8.87,179.89l-58.49.09s2.16-21.57,5.44-28.53-.43-42,2.84-51.18,3.22-50.46,3.22-50.46l-25.72-80s-2.1,62.15-9.73,92.88-83.53,125.16-83.53,125.16-15.36-5.46-46.47-27c0,0,8-15.74,15.69-19.4s9.45-32.19,21.14-40.62,14.55-48.28,27-56.71c0,0-9.39-164.14-1.77-202.91Z"/><path class="af" d="M246.24,656.55c-7.76-53.73-43.69-79.45-43.69-79.45l-.05,52.1,25.72,80s.06,41.31-3.22,50.46.44,44.23-2.84,51.18-5.44,28.53-5.44,28.53l58.49-.09s7.19-35.91,10.13-85.46C262.45,731.41,250.17,683.79,246.24,656.55Z"/><path class="af" d="M229.31,466.1,124.8,500.62a174.574,174.574,0,0,0-2.28,23c42.06-.89,93.37-29.72,111.5-41.09Z"/><path class="ag" d="M140.7,499.32s2.3,25.45-18.7,39.05"/><path class="ag" d="M147.55,496s4.8,35.92-25.65,49.67"/><path class="ag" d="M202.5,629.2c.34-19.38-.12-83.63-.12-83.63l-9.24-61.69"/><path class="ag" d="M201.37,482.77s4.24,22.66,5.53,31.44-6.64,17.2-6.64,17.2"/><path class="ah" d="M128.05,291.35s15.08-1.53,14.65-13.18c5.76-4.67,7.54-16.19-5.43-17-.5-7.82-6.54-12.2-13-6.15-10.15-3.83-18.65,1.94-19.46,10.44-5.49-7.25-18.75,6.15-15,17.71-11.09,4.13-10.6,18.51,2.16,21.37-2.46,12.15,15.24,11.65,15.24,11.65Z"/><path class="ad" d="M317.37,311.13s5.8-34.74,9.08-42.61,9.29-17.93,7.46-19.75-3.46,4.75-6.21,3.85,3.45-14.09,7.65-19.76,1.09-7.13-3.3-4.2c0,0-2-4.2-6.58.93,0,0,.55-3.07-1.83-2.54s-4.38,5.29-4.38,5.29.73-4.76-.37-4.57-6,3.3-7.26,32.36l-23.16,38.43Z"/><path class="ae" d="M296.3,285.57l-7.83,13,28.9,12.57s1.9-11.38,4.14-22.59C311.35,289.93,302,287.59,296.3,285.57Z"/><path class="ai" d="M128.9,328.51s36.75-17.06,57.59-16.27,83.11,17.7,83.11,17.7l17.76-38.5,37.32,17.3s-18.79,88.6-35.24,88.62-70.76-13.88-70.76-13.88,7.21,58.4,13.26,67.17,8.26,20.55,2,23.85S134.68,505.09,121.52,504s-7.41-1.91-9.63-15.62-20.11-66.87-20.11-66.87l-22-59.2S104.72,338,128.9,328.51Z"/><path class="y" d="M101.23,450.53l16.86-39.74,20.07,17a3.78,3.78,0,0,0,6.05-1.74l10.36-32.44,24.25,21.66a3.77,3.77,0,0,0,6.16-1.82L195,377l26.18,24.45c-.68-4.66-1.25-8.78-1.67-11.91L195.59,367.2a3.78,3.78,0,0,0-6.22,1.77l-10,36.54-24-21.48a3.78,3.78,0,0,0-6.12,1.66L138.84,418.3l-19.78-16.6a3.78,3.78,0,0,0-5.92,1.41L97.7,439.5C98.82,443,100,446.69,101.23,450.53Z"/><path class="aj" d="M147,473c-29.91-11.74-34-31.2-33.8-48.2S94.92,387,94.92,387l-9.37,17.82,6.23,16.74s17.9,53.17,20.11,66.87-3.54,14.54,9.63,15.62c9.74.8,63.2-13.95,92.86-23C195.74,482,170.53,482.24,147,473Z"/><path class="ad" d="M113.23,465.17s7.86-1.1,9.31-7.14.89-20,6.37-23.16,12.78-7.09,12.79,0c0,0,4,3.68,2.76,7.29,0,0,2,1.78.26,7.08a4.67,4.67,0,0,1-1,5.67c-2.73,2.75-4.91,13.17-11.86,12.63l-17,15.38Z"/><path class="ae" d="M123.57,450.5a67.191,67.191,0,0,1-1,7.53c-1.45,6-9.31,7.14-9.31,7.14l1.67,17.73,11.53-10.44a165.858,165.858,0,0,1-2.89-21.96Z"/><path class="ak" d="M110,410.58,97.7,439.5l.18.56c.21.64.41,1.28.62,1.93l.2.6c.23.73.47,1.47.71,2.22l.07.23c.28.86.55,1.72.83,2.6v.12l.87,2.74h0l11.86-27.95A39.45,39.45,0,0,0,110,410.58Z"/><line class="al" x1="13.38" y2="33.72" transform="translate(99.74 394.89)"/><path class="am" d="M130.76,342.62c10.63-4.1,13-10.95,12.09-15.81a3.2,3.2,0,0,0-4.36-2.41c-5.81,2.35-9.59,4.11-9.59,4.11a175.383,175.383,0,0,0-17.34,8.17,3,3,0,0,0-1,4.49C113.31,344.74,119.84,346.84,130.76,342.62Z"/><path class="aj" d="M236.83,361.89c-8.24-13.34-23.78-9.84-23.78-9.84,2,7.17,3.5,15.9,5.63,31.43,0,0,41.35,10.59,62.82,13.27C280.5,385.93,244.24,373.86,236.83,361.89Z"/><path class="al" d="M225.1,340.88s.77,26.87-3.59,40.22"/><line class="al" x2="6.08" y2="27.2" transform="translate(209.92 338.53)"/><line class="al" x1="8.75" y2="19.48" transform="translate(260.85 329.94)"/><path class="ai" d="M69.75,362.32c21.22-15.78,35.52,27.92,30.71,55.62a316.57,316.57,0,0,1-14.73,53.22l31.33-10.47,7.72,25.76S80.69,523,63.43,535.63s-52.08,14.06-43.38-36.4S46.47,379.63,69.75,362.32Z"/><path class="aj" d="M95,442.22c-10.06,2.33-14.57,19-27,22.66-13.75,4-17.66,19.22-17.66,19.22L85.7,471.16S90.48,458.93,95,442.22Z"/><path class="al" d="M50.37,484.1a57.228,57.228,0,0,0-9,14.09"/><path class="al" d="M87.81,363.18s22.59,22.05,9.07,71.74"/><path class="al" d="M223.46,450.76s-23.34-6.62-31.56-5.39"/><line class="ag" x2="27.85" y2="22.32" transform="translate(234.31 673.22)"/><line class="ag" x2="29.29" y2="9.01" transform="translate(239.81 703.03)"/><path class="ag" d="M145.79,695.72a38,38,0,0,0,2.37,26.42"/><line class="ag" x2="8.41" y2="13.88" transform="translate(137.92 715.58)"/><line class="ag" y1="0.08" x2="49" transform="translate(222.18 829.08)"/><line class="ag" x2="38.42" y2="21.88" transform="translate(71.9 815.49)"/><path class="an" d="M295.68,895.58c-12.89-5.19-23.05-11.2-27.17-16.41a4.53,4.53,0,0,1-.72-1.59c-9.67,3.25-15,12.22-15,12.22l-23-4.07c-2.37,5.6-4.6,11.48-6,15.31a3.16,3.16,0,0,0,3,4.25l61.76-.1C307.76,905.16,308.58,900.77,295.68,895.58Z"/><path class="an" d="M48.54,864.69s11.7,10.41,15.55,17.12,9.84-.29,18,0l9.18,17.53s16.1,6.56,16.38,10-20.7,1.12-26.87,1.13S61.79,897,54.24,895.13s-21.13-10.25-18.67-16.56S48.54,864.69,48.54,864.69Z"/><line class="ag" y1="17.82" x2="55.91" transform="translate(177.35 537.2)"/><line class="ag" x1="52.63" y2="12.14" transform="translate(179 546.07)"/><path class="ao" d="M331.28,230.1a32.22,32.22,0,0,0-5.67,14"/><path class="ao" d="M324.49,231.14a28.61,28.61,0,0,0-3.47,13.3"/><path class="ao" d="M318.6,234a47.188,47.188,0,0,0-2,10.9"/><path class="ad" d="M125.64,279.38s-1.23,7.89-13.36,8.57c-1.23,4.25-7.53,7-7.53,7l3,8.77s-3-2.74-6-3-1.49,9.06,5.91,9.32l-.4,6.17,5.6,19.79a4.48,4.48,0,0,0,3.64,3.21,21.8,21.8,0,0,0,19.82-6.84,5.19,5.19,0,0,0,1.23-4.42l-2.05-11.07s2.6.14,4.52-3.3S137.8,297,137.8,297l2.7-1.92-7.1-7.26A38.429,38.429,0,0,0,125.64,279.38Z"/><path class="ap" d="M135.51,300.8l-15.11,4.13s7.28,5,12.67,2.58C136.78,305.85,135.51,300.8,135.51,300.8Z"/><line class="ao" x1="1.44" y2="0.82" transform="translate(133.68 295.32)"/><path class="ah" d="M131.53,289.32c.56,1.05.62,2.1.15,2.35s-1.31-.39-1.86-1.44-.62-2.09-.15-2.34S131,288.28,131.53,289.32Z"/><path class="ah" d="M122.58,293.21c.56,1.05.62,2.1.15,2.35s-1.31-.39-1.87-1.43-.62-2.1-.14-2.35S122,292.17,122.58,293.21Z"/><line class="aq" y1="1.24" x2="7.27" transform="translate(115.3 289.79)"/><path class="ae" d="M135.5,316.84C129.67,318,122.27,318,115.34,314c1.38,9.74,9,7.94,13,9.72s5,3.64,9,3.25Z"/><line class="aq" x1="2.44" y2="3.5" transform="translate(127.22 283.12)"/><path class="ao" d="M242.26,875.93s-2.12,5.32,5.68,6"/><path class="ao" d="M64.68,862.91S60,868.5,66.19,874.07"/><path class="ar" d="M977.15,736l-2.85-1.24-18.58,43.08a5.2,5.2,0,0,1-4.28,3.06l-.19.27,4.59,2a.7.7,0,0,0,.53,0l.16-.05A4,4,0,0,0,959,781l18.8-43.59a1,1,0,0,0-.65-1.41Z"/><path class="as" d="M924.6,710.45l32.45,20.77,15.21,5.55-18,41.74a2.27,2.27,0,0,1-3,1.1h0a2.36,2.36,0,0,1-1.45-2.17l-2-23.28L912,737.58"/><path class="as" d="M946.13,724.23l10.92,7,15.21,5.55-18,41.74a2.27,2.27,0,0,1-3,1.1h0a2.36,2.36,0,0,1-1.45-2.17l-2-23.28-15.09-7"/><path class="at" d="M945.5,753.86l3.71,24.75a3,3,0,0,0,1.9,2.52h0a3.11,3.11,0,0,0,3.85-1.51l19.34-44.84L956.59,731S955.2,746.87,945.5,753.86Z"/><path class="au" d="M945.15,757.37a29.1,29.1,0,0,1,6.53-.71"/><path class="au" d="M945.7,760.72a25.869,25.869,0,0,1,5.52-.52"/><path class="au" d="M946,763.48a35.372,35.372,0,0,1,5-.46"/><path class="ar" d="M706.7,912.81l.57-3-46.13-8.53a5.21,5.21,0,0,1-3.94-3.49l-.3-.12-.91,4.91a.72.72,0,0,0,.09.52l.09.15a3.91,3.91,0,0,0,2.65,1.87l46.67,8.63a1.06,1.06,0,0,0,1.21-.94Z"/><path class="as" d="M707.83,851.88l-.92,40.26-2,16.07L660.18,900a2.28,2.28,0,0,1-1.74-2.71h0a2.33,2.33,0,0,1,1.78-1.89l22.25-7.15-3.9-42.58"/><path class="as" d="M707.24,877.44l-.33,14.7-2,16.07L660.18,900a2.28,2.28,0,0,1-1.74-2.71h0a2.33,2.33,0,0,1,1.78-1.89l22.25-7.15-1.27-13.88"/><path class="at" d="M682.27,885.92,659,895.05a3,3,0,0,0-2,2.41h0a3.12,3.12,0,0,0,2.34,3.42l48,8.88-.22-18.12S691.24,893.82,682.27,885.92Z"/><path class="au" d="M678.76,886.36a28.7,28.7,0,0,1,2.15,6.21"/><path class="au" d="M675.62,887.65a26,26,0,0,1,1.73,5.27"/><path class="au" d="M673,888.53a35.855,35.855,0,0,1,1.57,4.83"/><path class="at" d="M703.08,438.1,699,460.7S655.46,595,656.1,672.83c.67,80.83,21.11,184.79,21.11,184.79l33.08,6s15.85-154.55,19.07-188.5C736.73,643.23,763,542.88,763,542.88s40.9-43.36,16.54-89.52"/><path class="au" d="M703.87,862.46s10.65-138.8,14.25-183.11a75.25,75.25,0,0,1,2.09-12.55c9.31-36.81,32.1-125.86,32.1-125.86"/><path class="at" d="M724.94,457.76s-9.46,50.49-8.92,73.69c.79,33.74,5.8,83.93,34.77,128.22,27,41.33,165.39,81.78,165.39,81.78L932.4,714s-73.46-70-127.57-83.52c-1.31-12-2.48-93-2.48-93s9.48-44.41-10.54-70.56a21.142,21.142,0,0,1-3.64-6.09L777.33,427"/><path class="au" d="M699,460.7s42.74,16.69,91,3.85"/><path class="au" d="M718.92,466.15l-4.26-.91a2.77,2.77,0,0,1-2.14-3.19l1.66-9.14a2.77,2.77,0,0,1,3.1-2.24l5.87.82"/><path class="l" d="M721.75,459.18a1.79,1.79,0,1,1-.286-1.344A1.79,1.79,0,0,1,721.75,459.18Z"/><path class="au" d="M723.27,466.9s-7.79,41.35-7.25,64.55c.6,25.64,4.9,67.36,22.51,106.36"/><path class="au" d="M714.66,465.24q-1.35,9.64-2.71,19.29c-1.51,10.8-5.74,20.64,5,27.82"/><line class="au" x1="1.01" y1="14.32" transform="translate(745.33 454.45)"/><line class="au" x1="2.17" y1="15.35" transform="translate(777.28 451.58)"/><path class="au" d="M929.43,719s-75-64-127.92-80.77a8.5,8.5,0,0,1-6-7.8c-.78-21.16-2.18-71.81-2.13-84.37a14.572,14.572,0,0,1,.62-4.25c2.51-8.29,7.18-55.45-14.57-74.87"/><path class="ar" d="M939.2,718.18l-7.76-6.92-18.48,31.19,9.88,3.35Z"/><path class="ar" d="M711.12,868.96l1.82-10.04-38.35-6.95.45,10.45Z"/><path class="au" d="M765.32,468.91s12.65,12.72,27.19,20.66"/><path class="au" d="M691,484.29s9.07-11.1,14-20.66"/><path class="as" d="M832.2,366.65s34.5,57.42,36.38,71.76-2.65,94.7-2.65,94.7l-23.12-1.33-10.46-88.19L786,379.23"/><path class="as" d="M842.77,523.73c-.41,5.49-1.74,15.57-2.15,21.06-.24,3.24-.32,9,1.06,9.42,3.56,1.2,2.07-8.39,3.88-7.78,1.09.36.35,7.33,0,10.9-.33,3.19-.33,7.55,1.56,8.3,2.44,1,4.14-16.94,4.14-16.94s-1,18.92,1.08,19.62c3,1,4.06-18,4.06-18s-.57,16.16,1.66,16.91,2.35-11.13,3.21-15.93c.2,3.57-.25,12.83,1.38,13.38s2.89-6.24,3-7.94c.74-10.32.13-30.9.13-30.9"/><path class="as" d="M691.81,336.32l-35.23,25.59-67-47.32-16.15,14.25s54.73,72.3,76.58,76.27c17.07,3.1,81.32-29.62,81.32-29.62"/><path class="av" d="M771.87,328.18s27.6-6.06,47.45,17.52C834.68,364,848.67,389,848.67,389l-40.56,25.5-32-42"/><path class="av" d="M761.93,328s-22.2-10.9-46.36-3.09-47.19,28.65-47.19,28.65l25.43,40.15,42.3-17.37"/><path class="av" d="M724.05,336.74c-38.6,26.74-15.85,57.15-15.85,57.15l-6.6,52.37s7.67,4.25,24.22,6.65c30,4.35,59.43-.9,59.43-.9s18.67-44.31,23.72-68.6c4.5-21.64-9.63-37.22-9.63-37.22l-31.85-19.08Z"/><path class="aw" d="M786.92,251a15,15,0,0,1,6.12,3.73,22.254,22.254,0,0,0,4.64,3.46,28.43,28.43,0,0,1,9.24,9.92,23.71,23.71,0,0,1,2,18.54,31.762,31.762,0,0,0-1.71,5.47c-.68,4.83,2.3,6,5.08,9.55,3.17,4.07,6,8.9,5.11,14.26-1,5.89-5.84,11.4-12,12.34-4.63.71-10.07-1.81-14.58-3l-32.6-8.42c-9-2.32-18.07-5.37-27.2-7-6.74-1.17-6.76-7.62-5.83-13.33.69-4.17,3.47-9.47,6.73-12.12,1.23-1,2.69-1.74,3.64-3a10.239,10.239,0,0,0,1.51-3.74,75.59,75.59,0,0,1,4.32-13.45c2-4.27,4.94-8.23,8.95-10.63a15.29,15.29,0,0,1,8.48-2.18,38.52,38.52,0,0,1,9,1.8"/><path class="as" d="M773.41,300.51l-.52,27.91s-1.88,9.38-15.61,6.89a11.69,11.69,0,0,1-9.95-11l8.94-26.89"/><path class="as" d="M757,257.73c-14.76,10.23-29.49,41.18-10.47,48.6A29.08,29.08,0,0,0,782.9,292.8C792.16,275.25,771.76,247.51,757,257.73Z"/><path class="ax" d="M747.9,273.41a1.83,1.83,0,1,0,2.13-1.47A1.83,1.83,0,0,0,747.9,273.41Z"/><path class="ax" d="M766.54,284.3a1.83,1.83,0,1,1-1.48-2.14,1.83,1.83,0,0,1,1.48,2.14Z"/><path class="ax" d="M763.68,276.57a7.83,7.83,0,0,1,6,1.55,8.39,8.39,0,0,1,2.87,5c0,.13.24.1.24,0a7.34,7.34,0,0,0-2.92-5.4,7.7,7.7,0,0,0-6.26-1.4c-.18,0-.1.31.08.28Z"/><path class="ax" d="M748.59,267.24a5.78,5.78,0,0,1,5.55.48,6.33,6.33,0,0,1,2.36,4.81c0,.12.18.16.21,0a5.26,5.26,0,0,0-2.28-5.22,5.57,5.57,0,0,0-6-.31c-.15.08,0,.27.12.21Z"/><path class="ay" d="M755.82,277.27s-8.33,6.18-7.9,8c.7,3,4.89,3.79,4.89,3.79"/><path class="l" d="M758.33,296.44l-13.25-6.17s-3.3,7.82,1,9.9C754.49,304.2,758.33,296.44,758.33,296.44Z"/><path class="aw" d="M805.28,271.34c-.64-9.24-5-18-13.43-21.9a34.06,34.06,0,0,0-12.27-2.9c-3.62-.22-7.13.76-10.71,1.07s-6.21-1.91-9.67-2.28c-6.66-.72-14.55,3.63-12.71,11.25.81,3.34,3.17,6.11,5.82,8.3,7.05,5.81,16.24,8.19,25.2,10-1.38-.27-3.8,7.72-3.93,8.78-.37,3,.36,6,.8,8.93a160.344,160.344,0,0,0,5.67,23.93c.18.6.52,1.32,1.15,1.34a1.57,1.57,0,0,0,.88-.39,49.647,49.647,0,0,0,10.2-10.22c2.14-2.85,5.32-5.69,6.92-8.89.88-1.79.78-3.55,1-5.46.37-2.53,1.6-4,2.72-6.29C805.28,281.9,805.64,276.46,805.28,271.34Z"/><path class="ay" d="M752.41,309s9.05,2.26,17.35-2.13"/><path class="as" d="M773.72,291.85a4,4,0,0,1,5.54,1.62c1.7,3.17,0,7.36-2.53,9.95-2.87,2.9-5.31,2.57-6.78,1.6s-1.61-3.86-.11-6.53"/><path class="aw" d="M793.15,258.83c-4.56-2-3.6-7.62-2.3-11.39a15.41,15.41,0,0,1,18.84-10c8.75,2.2,17.17,9.86,13.53,22.12-3.21,10.79-21,10-27.82,2.23-.25-.28-.48-.56-.71-.85"/><path class="az" d="M790.42,248.83s11.69,3.21,16.44,18.33"/><line class="ba" x1="25.06" y1="33.22" transform="translate(777.69 374.24)"/><path class="ba" d="M724.05,336.74c-38.6,26.74-15.85,57.15-15.85,57.15"/><path class="as" d="M576.46,331.4a31.2,31.2,0,0,1-11.93-19.7,14.612,14.612,0,0,1-.14-4.57,9.43,9.43,0,0,1,12.78-7.29c3.47,1.38,5.79,4.64,7.6,7.9,1.69,3,3.13,6.67,1.75,9.84"/><path class="bb" d="M591.91,282c-4.43,4.11-15.6,11.22-20.9,14.14-3.71,2-8.41,3.05-11.84,5.54-2.72,2-2,2.78.05,5.08a45.6,45.6,0,0,0,9.55,7.91,4.219,4.219,0,0,0,2.09.83,4.13,4.13,0,0,0,1.92-.55,41.388,41.388,0,0,0,8-5.54c6.33-5.25,18.5-14.51,24-20.62"/><path class="l" d="M613.94,297.34c-4.64,4-11.37,3.69-15.05-.61s-2.9-11,1.74-15,11.37-3.7,15,.6S618.57,293.38,613.94,297.34Z"/><path class="bc" d="M594.63,296.87l-10.08-11.21,23-20.34,10.37,13c1.05,1.31.59,3-.47,4.26-5.53,6.69-11.22,12.06-18.53,14.78C597.32,297.93,595.68,298.17,594.63,296.87Z"/><path class="bb" d="M599.87,280c-6.46,5.52-13.41,8-15.54,5.5s1.39-9,7.85-14.49,13.41-8,15.53-5.5S606.32,274.51,599.87,280Z"/><path class="l" d="M548.57,266.39s24.6,9.78,36.29,17c4.41,1.9,10.53-2.63,13.72-5.42,8.24-7.18,8-10.92,8-10.92C598.64,253.16,595,226.81,595,226.81"/><path class="bc" d="M579.33,255.45c-15.05,12.83-32.9,16.59-39.87,8.42s-.42-25.21,14.63-38S587,209.24,594,217.42,594.38,242.62,579.33,255.45Z"/><path class="bb" d="M576.23,251.92c-12.72,10.85-27.52,14.39-33.05,7.9s.32-20.53,13-31.38,27.53-14.38,33-7.9S589,241.07,576.23,251.92Z"/><path class="bd" d="M558.72,242.47a77,77,0,0,1,10,14.89,58.582,58.582,0,0,0,14.07-12,76.268,76.268,0,0,1-13.11-12.23Z"/><path class="l" d="M566.74,240.79c-3,2.6-6.67,3.38-8.08,1.73s-.07-5.1,3-7.71,6.67-3.38,8.08-1.73S569.8,238.18,566.74,240.79Z"/><path class="as" d="M593.89,323c.54-7.34-.71-14.88-4.35-21.09-3.2-5.47-6.48-10.35-12.79-10.88-.87-.07-2,.16-2.12,1a1.85,1.85,0,0,0,.67,1.38c2.52,2.7,4.84,6.16,5.05,10a39.2,39.2,0,0,1-.6,5.89,18.75,18.75,0,0,0,4.59,14.16"/><path class="as" d="M562.91,299.61c.16-1.25,0-2.28.59-3.39A4.071,4.071,0,0,1,565,295a2,2,0,0,1,1.66,0,4.579,4.579,0,0,1,1.41.94,8.76,8.76,0,0,1,3.28,6.48.91.91,0,0,1-.1.46.739.739,0,0,1-.31.24,3.93,3.93,0,0,1-2.3.28c-1.77-.33-4.22-3.82-4.35-4.33"/><path class="as" d="M566.15,297.25a10.192,10.192,0,0,1,1.18-3.59,2.73,2.73,0,0,1,1-1.14,2,2,0,0,1,1.66,0,4.75,4.75,0,0,1,1.42.94,8.76,8.76,0,0,1,3.28,6.48,1,1,0,0,1-.1.46.81.81,0,0,1-.31.24,2.58,2.58,0,0,1-2.23-.13,7.729,7.729,0,0,1-1.82-1.41l-1.83-1.76a2.83,2.83,0,0,1-.9-1.25"/><path class="as" d="M569.55,294.76a10,10,0,0,1,1.18-3.59,2.66,2.66,0,0,1,1-1.14,2,2,0,0,1,1.66,0,4.75,4.75,0,0,1,1.42.94,8.75,8.75,0,0,1,3.27,6.48.82.82,0,0,1-.1.46.74.74,0,0,1-.31.24,2.58,2.58,0,0,1-2.23-.13,7.48,7.48,0,0,1-1.81-1.41l-1.84-1.76a2.91,2.91,0,0,1-.9-1.25"/><path class="as" d="M572.94,292.27a10.4,10.4,0,0,1,1.18-3.59,2.73,2.73,0,0,1,1-1.14,2,2,0,0,1,1.66,0,4.619,4.619,0,0,1,1.42.94,8.76,8.76,0,0,1,3.28,6.49,1,1,0,0,1-.1.45.81.81,0,0,1-.31.24,2.58,2.58,0,0,1-2.23-.13,7.728,7.728,0,0,1-1.82-1.41l-1.83-1.76a2.78,2.78,0,0,1-.9-1.25"/><path class="be" d="M580.59,306.23s-2.19,12.27.87,16.7"/></g></svg>