<svg xmlns="http://www.w3.org/2000/svg" width="109" height="109" viewBox="0 0 109 109"><defs><style>.a{fill:#e5e5e5;opacity:0.64;}.b{fill:#732de2;}.c{fill:#4c1ea5;}.d{fill:#3c1991;}.e{fill:#f4b34a;}</style></defs><g transform="translate(0 -0.196)"><circle class="a" cx="54.5" cy="54.5" r="54.5" transform="translate(0 0.196)"/><g transform="translate(29.785 31.601)"><path class="b" d="M40,360H87.062v4.281H40Z" transform="translate(-38.287 -323.179)"/><path class="c" d="M40,384H87.062v1.713H40Z" transform="translate(-38.287 -344.61)"/><path class="b" d="M24,400H74.487v4.282H24Z" transform="translate(-24 -358.897)"/><path class="c" d="M352.563,160.453v2.057H344v-2.057l1.713-1.371V147.428L344,146.057V144h8.563v2.057l-1.713,1.371v11.654Z" transform="translate(-305.501 -125.688)"/><path class="d" d="M344,344h8.563v1.713H344Z" transform="translate(-305.501 -308.892)"/><path class="b" d="M87.061,28.589v5.722H40V28.589L63.53,16Z" transform="translate(-38.287 -16)"/><path class="c" d="M208.563,160.453v2.057H200v-2.057l1.713-1.371V147.428L200,146.057V144h8.563v2.057l-1.713,1.371v11.654Z" transform="translate(-179.038 -125.688)"/><path class="c" d="M64.563,160.453v2.057H56v-2.057l1.713-1.371V147.428L56,146.057V144h8.563v2.057l-1.713,1.371v11.654Z" transform="translate(-52.575 -125.688)"/><path class="d" d="M56,344h8.563v1.713H56Z" transform="translate(-52.575 -308.892)"/><path class="d" d="M200,344h8.563v1.713H200Z" transform="translate(-179.038 -308.892)"/><ellipse class="e" cx="2.5" cy="2" rx="2.5" ry="2" transform="translate(23.215 5.596)"/><g transform="translate(9.829 13.042)"><path class="c" d="M368,104h1.713v1.713H368Z" transform="translate(-338.886 -104)"/><path class="c" d="M336,104h1.713v1.713H336Z" transform="translate(-310.311 -104)"/><path class="c" d="M304,104h1.713v1.713H304Z" transform="translate(-281.736 -104)"/><path class="c" d="M160,104h1.713v1.713H160Z" transform="translate(-153.15 -104)"/><path class="c" d="M128,104h1.713v1.713H128Z" transform="translate(-124.575 -104)"/><path class="c" d="M96,104h1.713v1.713H96Z" transform="translate(-96 -104)"/></g></g></g></svg>