<svg xmlns="http://www.w3.org/2000/svg" width="98.525" height="128" viewBox="0 0 98.525 128"><defs><style>.a{fill:#fff;}.b{fill:#dff8ec;}.c{fill:#005e18;}</style></defs><g transform="translate(-58.95)"><path class="a" d="M66.532,13.929V125.444a6.347,6.347,0,0,0,6.347,6.347h82.041a6.347,6.347,0,0,0,6.347-6.347v-85.1L128.5,7.582H72.879A6.347,6.347,0,0,0,66.532,13.929Z" transform="translate(-5.687 -5.687)"/><path class="b" d="M314.4,7.582l32.766,32.766H318.381A3.978,3.978,0,0,1,314.4,36.37Z" transform="translate(-191.59 -5.687)"/><path class="c" d="M109.077,444.247a1.9,1.9,0,0,0,1.9,1.9h69.671a1.9,1.9,0,0,0,0-3.791H110.973A1.9,1.9,0,0,0,109.077,444.247Z" transform="translate(-37.595 -334.763)"/><path class="c" d="M109.077,444.247a1.9,1.9,0,0,0,1.9,1.9h69.671a1.9,1.9,0,0,0,0-3.791H110.973A1.9,1.9,0,0,0,109.077,444.247Z" transform="translate(-37.595 -348.763)"/><path class="c" d="M109.077,444.247a1.9,1.9,0,0,0,1.9,1.9h69.671a1.9,1.9,0,0,0,0-3.791H110.973A1.9,1.9,0,0,0,109.077,444.247Z" transform="translate(-37.595 -362.763)"/><path class="c" d="M271.771,178.59h33.072a3.69,3.69,0,0,0,0-7.293H271.771a3.69,3.69,0,0,0,0,7.293Z" transform="translate(-198.024 -109.473)"/><path class="c" d="M157.472,34.6c0-.021,0-.042,0-.063a1.888,1.888,0,0,0-.03-.241h0a1.88,1.88,0,0,0-.065-.236c-.006-.019-.013-.038-.02-.057a1.88,1.88,0,0,0-.1-.217l0-.009a1.865,1.865,0,0,0-.132-.21l-.036-.049a1.879,1.879,0,0,0-.165-.192L124.154.555a1.86,1.86,0,0,0-.191-.164l-.051-.038A1.892,1.892,0,0,0,123.7.222l-.015-.007a1.9,1.9,0,0,0-.211-.093L123.417.1a1.872,1.872,0,0,0-.232-.064l-.012,0a1.9,1.9,0,0,0-.23-.029l-.069,0c-.02,0-.04,0-.061,0H67.192A8.251,8.251,0,0,0,58.95,8.242V93.933a1.9,1.9,0,0,0,3.791,0V8.242a4.456,4.456,0,0,1,4.451-4.451h53.726V30.683a5.881,5.881,0,0,0,5.874,5.874h26.893V47.009a1.9,1.9,0,1,0,3.791,0V34.662C157.475,34.64,157.473,34.619,157.472,34.6Zm-30.68-1.831a2.085,2.085,0,0,1-2.083-2.083V6.472L151,32.766Z" transform="translate(0)"/><path class="c" d="M155.579,228.093a1.9,1.9,0,0,0-1.9,1.9v60.839a4.456,4.456,0,0,1-4.451,4.451H67.192a4.456,4.456,0,0,1-4.451-4.451V277.166a1.9,1.9,0,1,0-3.791,0v13.662a8.251,8.251,0,0,0,8.242,8.242h82.041a8.251,8.251,0,0,0,8.242-8.242V229.988A1.9,1.9,0,0,0,155.579,228.093Z" transform="translate(0 -171.07)"/><path class="b" d="M16.739,0A16.739,16.739,0,1,1,0,16.739,16.739,16.739,0,0,1,16.739,0Z" transform="translate(73.099 13.258)"/><path class="c" d="M220.857,230.283a18.374,18.374,0,1,0,18.375,18.374A18.4,18.4,0,0,0,220.857,230.283Zm0,33.479a15.1,15.1,0,1,1,15.1-15.1A15.121,15.121,0,0,1,220.857,263.762Z" transform="translate(-131.019 -218.661)"/><path class="c" d="M265.564,278.551h3.509l2.211-2.7H257.3l-2.211,2.7h5.337a5.164,5.164,0,0,1,3.791,3.19H257.3l-2.211,2.7h9.078a5.442,5.442,0,0,1-4.937,3.219l-3.735.035,6.762,6.9h4.013l-4.676-4.772a7.741,7.741,0,0,0,5.657-5.384h1.82l2.211-2.7h-4A6.676,6.676,0,0,0,265.564,278.551Z" transform="translate(-173.441 -255.094)"/></g></svg>