<svg xmlns="http://www.w3.org/2000/svg" width="72" height="72" viewBox="0 0 72 72"><defs><style>.a{opacity:0;}.b,.c{fill:#2ad181;}.b{opacity:0.1;}</style></defs><g class="a" transform="translate(14958 -8372)"><rect class="b" width="72" height="72" transform="translate(-14958 8372)"/><rect class="b" width="48" height="48" transform="translate(-14946 8384)"/></g><path class="c" d="M0,49V4A4,4,0,0,1,4,0H34a4,4,0,0,1,4,4V49L19,39,0,49ZM19,34h0l15,8V5a1,1,0,0,0-1-1H5A1,1,0,0,0,4,5V42l15-8Z" transform="translate(17.001 12)"/></svg>