<svg xmlns="http://www.w3.org/2000/svg" width="140" height="100.034" viewBox="0 0 140 100.034"><defs><style>.a{fill:#dff8ec;}.b{fill:#fff;}.c{fill:#0a6d34;}</style></defs><g transform="translate(0 -73.081)"><path class="a" d="M122.762,145.7H12.311a5.024,5.024,0,0,1-5.024-5.024V85.392a5.024,5.024,0,0,1,5.024-5.024H122.762a5.024,5.024,0,0,1,5.024,5.024v55.282A5.023,5.023,0,0,1,122.762,145.7Z" transform="translate(-5.294 -5.294)"/><path class="b" d="M126.515,101.107H38.693a1.712,1.712,0,0,0-1.576,1.029,15.692,15.692,0,0,1-8.079,8.161,1.71,1.71,0,0,0-1.012,1.569v32.471a1.71,1.71,0,0,0,1.012,1.569,15.691,15.691,0,0,1,8.079,8.161,1.712,1.712,0,0,0,1.576,1.029h87.823a1.712,1.712,0,0,0,1.576-1.029,15.692,15.692,0,0,1,8.079-8.161,1.71,1.71,0,0,0,1.012-1.569V111.865a1.71,1.71,0,0,0-1.012-1.569,15.692,15.692,0,0,1-8.079-8.16A1.712,1.712,0,0,0,126.515,101.107Z" transform="translate(-20.362 -20.363)"/><path class="b" d="M158.154,110.3a15.69,15.69,0,0,1-8.079-8.161,1.712,1.712,0,0,0-1.576-1.029h-9.931a15.692,15.692,0,0,0,7.261,6.533,1.71,1.71,0,0,1,1.012,1.569v32.471a1.71,1.71,0,0,1-1.012,1.569,15.692,15.692,0,0,0-8.079,8.16,1.712,1.712,0,0,1-1.576,1.029H58.282a15.582,15.582,0,0,1,.818,1.628,1.711,1.711,0,0,0,1.576,1.029H148.5a1.712,1.712,0,0,0,1.576-1.029,15.691,15.691,0,0,1,8.079-8.16,1.71,1.71,0,0,0,1.012-1.569V111.865A1.711,1.711,0,0,0,158.154,110.3Z" transform="translate(-42.345 -20.362)"/><circle class="a" cx="20.398" cy="20.398" r="20.398" transform="translate(41.844 87.341)"/><path class="c" d="M269.42,279.544h4.8l3.025-3.69H258.114l-3.025,3.69h7.3a7.066,7.066,0,0,1,5.187,4.365h-9.463l-3.025,3.69H267.51a7.446,7.446,0,0,1-6.754,4.4l-5.11.047,9.252,9.443h5.49l-6.4-6.529c3.919-1.1,6.914-3.9,7.74-7.366h2.49l3.025-3.69h-5.472A9.136,9.136,0,0,0,269.42,279.544Z" transform="translate(-203.853 -180.21)"/><path class="a" d="M179.507,258.043H69.056a5.024,5.024,0,0,1-5.024-5.024V197.737a5.024,5.024,0,0,1,5.024-5.024H179.507a5.024,5.024,0,0,1,5.024,5.024v55.282A5.023,5.023,0,0,1,179.507,258.043Z" transform="translate(-46.523 -86.92)"/><path class="b" d="M183.26,213.452H95.438a1.712,1.712,0,0,0-1.576,1.029,15.693,15.693,0,0,1-8.079,8.161,1.71,1.71,0,0,0-1.012,1.569v32.471a1.71,1.71,0,0,0,1.012,1.569,15.692,15.692,0,0,1,8.079,8.161,1.712,1.712,0,0,0,1.576,1.029H183.26a1.712,1.712,0,0,0,1.576-1.029,15.692,15.692,0,0,1,8.079-8.161,1.71,1.71,0,0,0,1.012-1.569V224.21a1.71,1.71,0,0,0-1.012-1.569,15.692,15.692,0,0,1-8.079-8.16A1.711,1.711,0,0,0,183.26,213.452Z" transform="translate(-61.591 -101.988)"/><path class="b" d="M214.491,222.641a15.69,15.69,0,0,1-8.079-8.161,1.712,1.712,0,0,0-1.576-1.029h-3.83a15.692,15.692,0,0,0,7.107,6.267,1.71,1.71,0,0,1,1.012,1.569v32.471a1.71,1.71,0,0,1-1.012,1.569,15.692,15.692,0,0,0-8.079,8.16,1.711,1.711,0,0,1-1.576,1.029H114.465a15.635,15.635,0,0,1,.972,1.893,1.712,1.712,0,0,0,1.576,1.029h87.823a1.712,1.712,0,0,0,1.576-1.029,15.69,15.69,0,0,1,8.079-8.16,1.71,1.71,0,0,0,1.012-1.569V224.209A1.711,1.711,0,0,0,214.491,222.641Z" transform="translate(-83.166 -101.987)"/><ellipse class="a" cx="14.97" cy="14.97" rx="14.97" ry="14.97" transform="translate(34.976 123.166)"/><path class="c" d="M11.249,138.411H7.016a3.035,3.035,0,0,1-3.031-3.031V80.1a3.035,3.035,0,0,1,3.031-3.031H117.468A3.034,3.034,0,0,1,120.5,80.1V99.462a1.993,1.993,0,0,0,3.985,0V80.1a7.024,7.024,0,0,0-7.016-7.016H7.016A7.024,7.024,0,0,0,0,80.1v55.282A7.024,7.024,0,0,0,7.016,142.4h4.233a1.992,1.992,0,1,0,0-3.985Z"/><path class="c" d="M121.044,97.806a17.593,17.593,0,0,0,8.853,8.942v7.8a1.993,1.993,0,1,0,3.985,0v-7.976a3.7,3.7,0,0,0-2.2-3.392,13.623,13.623,0,0,1-7.051-7.123,3.7,3.7,0,0,0-3.407-2.236H33.4a3.7,3.7,0,0,0-3.407,2.236,13.622,13.622,0,0,1-7.051,7.122,3.7,3.7,0,0,0-2.2,3.392v32.471a3.7,3.7,0,0,0,2.2,3.392,13.627,13.627,0,0,1,2.22,1.238,1.992,1.992,0,0,0,2.256-3.285,17.643,17.643,0,0,0-2.694-1.521v-32.12a17.589,17.589,0,0,0,8.853-8.942Z" transform="translate(-15.068 -15.069)"/><path class="c" d="M172.706,117.938a22.411,22.411,0,0,0-20.5,13.371,1.992,1.992,0,1,0,3.647,1.607,18.416,18.416,0,0,1,33.712.012,1.992,1.992,0,0,0,3.648-1.6A22.409,22.409,0,0,0,172.706,117.938Z" transform="translate(-110.463 -32.591)"/><path class="c" d="M174.213,185.426H63.761a7.024,7.024,0,0,0-7.016,7.016v55.282a7.024,7.024,0,0,0,7.016,7.016H174.213a7.024,7.024,0,0,0,7.016-7.016V192.442A7.023,7.023,0,0,0,174.213,185.426Zm3.031,62.3a3.035,3.035,0,0,1-3.031,3.031H63.761a3.034,3.034,0,0,1-3.031-3.031V192.442a3.034,3.034,0,0,1,3.031-3.031H174.213a3.035,3.035,0,0,1,3.031,3.031v55.282Z" transform="translate(-41.229 -81.626)"/><path class="c" d="M188.425,215.524a13.622,13.622,0,0,1-7.051-7.123,3.7,3.7,0,0,0-3.407-2.236H90.144a3.7,3.7,0,0,0-3.407,2.236,13.621,13.621,0,0,1-7.051,7.122,3.7,3.7,0,0,0-2.2,3.392v32.471a3.7,3.7,0,0,0,2.2,3.392,13.622,13.622,0,0,1,7.051,7.123,3.7,3.7,0,0,0,3.407,2.236h87.823a3.7,3.7,0,0,0,3.407-2.236,13.622,13.622,0,0,1,7.051-7.122,3.7,3.7,0,0,0,2.2-3.392V218.916A3.7,3.7,0,0,0,188.425,215.524Zm-1.783,35.688a17.589,17.589,0,0,0-8.853,8.942H90.322a17.591,17.591,0,0,0-8.853-8.942v-32.12a17.589,17.589,0,0,0,8.853-8.942h87.467a17.591,17.591,0,0,0,8.853,8.942v32.12Z" transform="translate(-56.297 -96.694)"/><path class="c" d="M218.916,230.283a16.433,16.433,0,1,0,16.433,16.433A16.451,16.451,0,0,0,218.916,230.283Zm0,29.941a13.508,13.508,0,1,1,13.508-13.508A13.523,13.523,0,0,1,218.916,260.224Z" transform="translate(-168.969 -108.58)"/><path class="c" d="M264.457,278.266h3.138l1.977-2.412H257.066l-1.977,2.412h4.773a4.618,4.618,0,0,1,3.391,2.853h-6.186l-1.977,2.412h8.119a4.867,4.867,0,0,1-4.415,2.879l-3.34.031,6.048,6.173h3.589l-4.181-4.268a6.923,6.923,0,0,0,5.059-4.815h1.628l1.977-2.412H266A5.971,5.971,0,0,0,264.457,278.266Z" transform="translate(-212.467 -145.979)"/><path class="c" d="M-24.786-19.864a4.829,4.829,0,0,0-.2-1.437.654.654,0,0,0-.592-.479,1.169,1.169,0,0,1-.324.042q-.268.014-.465.042-.225.028-.451.042t-.366.014q-1.522,0-1.522-1.325t1.466-1.325q.141,0,.437.014a4.613,4.613,0,0,1,.606.07.593.593,0,0,1,.141.014.463.463,0,0,0,.113.014,3.522,3.522,0,0,0,.437.028h.352q.423,0,.761-.014t.62-.042H-23.8q.874-.085,1.1-.085a1.41,1.41,0,0,1,.733.169,1.084,1.084,0,0,1,.423.451,3.023,3.023,0,0,1,.141.958v.254a3.418,3.418,0,0,1-.028.423q-.056,1.381-.1,2.72t-.042,2.494v4.031q0,.536.028,1.268,0,.338.014.62t.014.507q.028.338.028.662v.465q.056,1.494.789,1.494.141,0,.366-.014t.507-.042l.507-.056a3.818,3.818,0,0,1,.395-.028q1.776,0,1.776,1.325T-18.81-5.263q-.254,0-.479-.014t-.451-.042q-1.127-.141-1.973-.225t-1.409-.085A20.318,20.318,0,0,0-26-5.376l-.846.1a5.4,5.4,0,0,1-.592.042q-1.635,0-1.635-1.353,0-1.325,1.8-1.325.225,0,.465.014a2.023,2.023,0,0,1,.437.07,1.816,1.816,0,0,1,.225.014,1.616,1.616,0,0,0,.2.014.966.966,0,0,1,.183.014.653.653,0,0,0,.127.014.727.727,0,0,0,.733-.479,9.138,9.138,0,0,0,.141-1.3q.056-.93.056-2.452ZM-7.761-4.784a6.974,6.974,0,0,1-5.806-2.649A11.516,11.516,0,0,1-15.6-14.649a11.468,11.468,0,0,1,2.142-7.357,7.152,7.152,0,0,1,5.947-2.762,6.807,6.807,0,0,1,5.694,2.649A8.388,8.388,0,0,1-.236-19.074a14.153,14.153,0,0,1,.507,3.946A12.032,12.032,0,0,1-1.87-7.574,6.971,6.971,0,0,1-7.761-4.784Zm.2-17.222q-4.51,0-4.707,7.047v.423a9.532,9.532,0,0,0,1.184,5.2A3.777,3.777,0,0,0-7.733-7.518,3.776,3.776,0,0,0-5.76-8.04,4.536,4.536,0,0,0-4.266-9.533,7.559,7.559,0,0,0-3.322-11.9,14.07,14.07,0,0,0-3-15.072,9.309,9.309,0,0,0-4.182-20.23,3.825,3.825,0,0,0-7.564-22.006ZM10.193-4.784A6.974,6.974,0,0,1,4.387-7.434a11.516,11.516,0,0,1-2.029-7.216A11.468,11.468,0,0,1,4.5-22.006a7.152,7.152,0,0,1,5.947-2.762,6.807,6.807,0,0,1,5.694,2.649,8.388,8.388,0,0,1,1.578,3.044,14.152,14.152,0,0,1,.507,3.946,12.032,12.032,0,0,1-2.142,7.554A6.971,6.971,0,0,1,10.193-4.784Zm.2-17.222q-4.51,0-4.707,7.047v.423a9.532,9.532,0,0,0,1.184,5.2,3.777,3.777,0,0,0,3.354,1.818,3.776,3.776,0,0,0,1.973-.521,4.536,4.536,0,0,0,1.494-1.494,7.56,7.56,0,0,0,.944-2.368,14.07,14.07,0,0,0,.324-3.171,9.309,9.309,0,0,0-1.184-5.158A3.825,3.825,0,0,0,10.391-22.006Z" transform="translate(102.463 153.339)"/></g></svg>