<svg xmlns="http://www.w3.org/2000/svg" width="122.095" height="119.42" viewBox="0 0 122.095 119.42"><defs><style>.a{fill:#005e18;}.b{fill:#caf3df;}</style></defs><g transform="translate(-266 -1313)"><g transform="translate(266 1313)"><g transform="translate(0 0)"><path class="a" d="M118.071,73.569c1.886-2.329,4.025-4.968,4.025-8.251s-2.138-5.922-4.025-8.251c-1.179-1.455-2.4-2.96-2.67-4.156-.293-1.289.163-3.233.6-5.112.672-2.867,1.435-6.116.055-8.977-1.4-2.908-4.451-4.346-7.139-5.614-1.72-.812-3.5-1.651-4.292-2.644s-1.23-2.935-1.642-4.8c-.64-2.893-1.365-6.171-3.873-8.173s-5.846-1.975-8.8-1.958c-1.921.011-3.905.021-5.077-.544-1.127-.544-2.332-2.08-3.5-3.566C79.894,9.173,77.8,6.511,74.631,5.789c-3.065-.7-6.044.761-8.673,2.048-1.75.856-3.56,1.742-4.91,1.742s-3.16-.886-4.91-1.743c-2.628-1.287-5.607-2.744-8.673-2.048-3.174.722-5.264,3.384-7.108,5.733-1.166,1.486-2.372,3.022-3.5,3.565-1.172.565-3.155.555-5.077.544-2.953-.016-6.3-.035-8.8,1.958s-3.233,5.281-3.872,8.173c-.413,1.867-.84,3.8-1.643,4.8S14.9,32.4,13.175,33.208c-2.689,1.268-5.736,2.706-7.139,5.614-1.38,2.86-.617,6.11.055,8.977.441,1.88.9,3.823.6,5.112-.272,1.2-1.491,2.7-2.67,4.156C2.138,59.4,0,62.036,0,65.318s2.138,5.922,4.025,8.251c1.179,1.455,2.4,2.96,2.67,4.156.293,1.289-.163,3.233-.6,5.112-.672,2.867-1.435,6.117-.055,8.977,1.4,2.908,4.451,4.346,7.139,5.614,1.72.812,3.5,1.651,4.292,2.643s1.229,2.935,1.642,4.8c.64,2.893,1.365,6.171,3.873,8.174s5.845,1.975,8.8,1.958c1.921-.01,3.905-.021,5.077.544,1.127.544,2.332,2.08,3.5,3.566,1.844,2.349,3.933,5.012,7.107,5.733,3.065.7,6.044-.761,8.673-2.048,1.75-.857,3.56-1.742,4.91-1.742s3.16.886,4.91,1.743c2.158,1.056,4.552,2.228,7.037,2.228a7.352,7.352,0,0,0,1.636-.18c3.174-.722,5.264-3.384,7.108-5.733,1.166-1.486,2.372-3.022,3.5-3.565,1.172-.565,3.156-.554,5.077-.544,2.952.015,6.3.035,8.8-1.958s3.233-5.281,3.872-8.173c.413-1.867.84-3.8,1.642-4.8s2.572-1.832,4.292-2.644c2.689-1.268,5.736-2.706,7.139-5.614,1.38-2.86.617-6.11-.055-8.977-.441-1.88-.9-3.824-.6-5.113C115.673,76.529,116.892,75.025,118.071,73.569Zm-4.125-3.341c-1.561,1.927-3.175,3.92-3.721,6.32-.565,2.485.033,5.035.612,7.5.495,2.109,1.006,4.289.442,5.458-.586,1.215-2.638,2.183-4.623,3.12-2.268,1.07-4.614,2.176-6.176,4.132s-2.134,4.51-2.677,6.968c-.472,2.134-.96,4.34-2,5.172s-3.28.81-5.458.8c-2.524-.014-5.134-.028-7.413,1.071-2.236,1.079-3.828,3.107-5.367,5.069-1.362,1.736-2.771,3.53-4.109,3.834-1.237.281-3.233-.695-5.162-1.639-2.293-1.123-4.665-2.284-7.244-2.284S56.1,116.91,53.8,118.032c-1.929.944-3.926,1.922-5.163,1.639-1.338-.3-2.746-2.1-4.108-3.834-1.54-1.962-3.132-3.991-5.368-5.069a14.91,14.91,0,0,0-6.561-1.074c-.284,0-.569,0-.852,0-2.177.011-4.428.024-5.458-.8s-1.53-3.038-2-5.172c-.544-2.458-1.106-5-2.677-6.968s-3.907-3.062-6.176-4.132c-1.985-.936-4.037-1.9-4.623-3.12-.564-1.169-.052-3.349.442-5.458.579-2.466,1.177-5.017.612-7.5-.546-2.4-2.16-4.393-3.721-6.32-1.4-1.724-2.841-3.507-2.841-4.91s1.444-3.185,2.841-4.91c1.561-1.927,3.175-3.92,3.721-6.321.565-2.484-.034-5.035-.612-7.5-.495-2.109-1.006-4.289-.442-5.458.586-1.215,2.638-2.183,4.623-3.12,2.268-1.07,4.614-2.176,6.176-4.132s2.134-4.51,2.677-6.968c.472-2.134.96-4.34,2-5.172s3.279-.81,5.458-.8c2.524.015,5.134.028,7.413-1.071,2.236-1.079,3.828-3.107,5.367-5.069,1.362-1.736,2.771-3.53,4.109-3.834,1.237-.282,3.233.695,5.163,1.639,2.293,1.123,4.664,2.284,7.244,2.284S66,13.727,68.291,12.6c1.929-.944,3.925-1.921,5.162-1.639,1.338.3,2.746,2.1,4.108,3.834,1.54,1.962,3.132,3.991,5.368,5.069,2.279,1.1,4.885,1.084,7.413,1.071,2.175-.012,4.428-.024,5.458.8s1.53,3.038,2,5.172c.544,2.458,1.106,5,2.677,6.968s3.907,3.062,6.175,4.132c1.985.936,4.037,1.9,4.623,3.12.564,1.169.052,3.349-.442,5.458-.579,2.466-1.177,5.017-.612,7.5.545,2.4,2.16,4.394,3.721,6.321,1.4,1.724,2.841,3.507,2.841,4.91S115.342,68.5,113.946,70.228Z" transform="translate(0 -5.608)"/></g><path class="b" d="M125.84,72.778c0,4.188-5.62,7.689-6.51,11.608-.92,4.046,2.6,9.633.841,13.284-1.79,3.711-8.372,4.429-10.918,7.617-2.558,3.2-1.8,9.777-5.006,12.334-3.188,2.545-9.425.356-13.136,2.147-3.651,1.761-5.816,8.019-9.862,8.939-3.919.89-8.575-3.789-12.763-3.789s-8.845,4.679-12.764,3.788c-4.046-.92-6.212-7.178-9.862-8.939-3.711-1.79-9.949.4-13.136-2.147-3.2-2.558-2.449-9.131-5.006-12.334-2.545-3.188-9.127-3.906-10.918-7.617-1.761-3.651,1.761-9.237.841-13.284-.891-3.919-6.511-7.419-6.511-11.608s5.62-7.689,6.51-11.608c.92-4.046-2.6-9.633-.841-13.284,1.79-3.711,8.372-4.429,10.918-7.617,2.558-3.2,1.8-9.777,5.006-12.334,3.188-2.545,9.425-.356,13.136-2.147,3.651-1.761,5.816-8.019,9.862-8.939,3.919-.89,8.575,3.789,12.763,3.789s8.845-4.679,12.764-3.788c4.046.92,6.212,7.178,9.862,8.939,3.711,1.79,9.949-.4,13.136,2.147,3.2,2.558,2.449,9.131,5.006,12.334,2.545,3.188,9.127,3.906,10.918,7.617,1.761,3.651-1.761,9.237-.841,13.284C120.22,65.089,125.84,68.589,125.84,72.778Z" transform="translate(-7.437 -13.068)"/></g><path class="a" d="M120.381,77.913a42.468,42.468,0,1,0,42.468,42.468A42.516,42.516,0,0,0,120.381,77.913Zm0,79.627a37.159,37.159,0,1,1,37.159-37.159A37.2,37.2,0,0,1,120.381,157.54Z" transform="translate(206.667 1252.329)"/><circle class="b" cx="38.838" cy="38.838" r="38.838" transform="translate(288.2 1333.769)"/><path class="a" d="M41.863,20.146a5.581,5.581,0,1,1,5.581,5.59A5.592,5.592,0,0,1,41.863,20.146Zm2.976,0a2.6,2.6,0,1,0,2.6-2.609A2.61,2.61,0,0,0,44.839,20.146ZM3.248,22.363Q0,18.99,0,12.868,0,6.8,3.224,3.4T12.269,0q5.726,0,9.021,3.374t3.3,9.254q0,6.169-3.2,9.639t-8.925,3.47Q6.5,25.737,3.248,22.363ZM8.925,7.784A9.133,9.133,0,0,0,7.7,12.868a9.111,9.111,0,0,0,1.227,5.109,3.911,3.911,0,0,0,3.44,1.831q4.475,0,4.474-6.94t-4.571-6.94A3.816,3.816,0,0,0,8.925,7.784ZM29.7,23.368a1.493,1.493,0,0,1,0-2.108L44.628,6.3a1.489,1.489,0,1,1,2.1,2.108L31.8,23.368a1.486,1.486,0,0,1-2.1,0ZM27.332,5.59a5.581,5.581,0,1,1,5.581,5.59A5.592,5.592,0,0,1,27.332,5.59Zm2.976,0a2.6,2.6,0,1,0,2.6-2.609A2.61,2.61,0,0,0,30.308,5.59ZM48.594,4.438a1.493,1.493,0,0,1,0-2.108l.108-.108A1.49,1.49,0,0,1,50.806,4.33l-.107.108a1.487,1.487,0,0,1-2.1,0Z" transform="translate(300.578 1359.74)"/></g></svg>