<svg xmlns="http://www.w3.org/2000/svg" xmlns:xlink="http://www.w3.org/1999/xlink" width="128" height="128" viewBox="0 0 128 128"><defs><style>.a{fill:#dff8ec;}.b{clip-path:url(#a);}.c{fill:#2ad181;stroke:#2ad181;stroke-width:0.5px;}</style><clipPath id="a"><rect class="a" width="128" height="128" rx="16"/></clipPath></defs><g class="b"><path class="a" d="M0,0H128V128H0Z"/><g transform="translate(28.822 29)"><path class="c" d="M329.4,282.836a11.681,11.681,0,1,0,11.681-11.68,11.681,11.681,0,0,0-11.681,11.68Zm11.681-9.345a9.344,9.344,0,1,1-9.345,9.345A9.344,9.344,0,0,1,341.079,273.492Zm0,0" transform="translate(-289.504 -238.445)"/><path class="c" d="M370.9,561.637h13.35v2.336H370.9Zm0,0" transform="translate(-325.998 -493.884)"/><path class="c" d="M329.4,522.9H352.76v2.336H329.4Zm0,0" transform="translate(-289.504 -459.822)"/><path class="c" d="M116.379,522.9h2.336v2.336h-2.336Zm0,0" transform="translate(-102.183 -459.822)"/><path class="c" d="M58.285,542.27h2.336v2.336H58.285Zm0,0" transform="translate(-51.097 -476.853)"/><path class="c" d="M14.313,56.507A88.466,88.466,0,0,0,25.551,21.933l10.863,10.8a1.166,1.166,0,0,0,.818.34,1.1,1.1,0,0,0,.189-.015,1.166,1.166,0,0,0,.856-.631,11.4,11.4,0,0,0-2.14-13.179l-.955-.956H43.4a1.169,1.169,0,0,0,1.109-1.538A11.4,11.4,0,0,0,33.673,8.946H32.155l5.833-5.867a1.168,1.168,0,0,0-.306-1.869A11.407,11.407,0,0,0,24.5,3.349L23.381,4.464a11.424,11.424,0,0,0-1.013,1.168,11.223,11.223,0,0,0-1-1.168L20.249,3.349A11.4,11.4,0,0,0,7.071,1.21a1.168,1.168,0,0,0-.306,1.869l5.84,5.867H11.072A11.4,11.4,0,0,0,.239,16.753a1.169,1.169,0,0,0,1.109,1.538H9.555l-.955.956A11.4,11.4,0,0,0,6.46,32.426a1.168,1.168,0,0,0,.856.631,1.109,1.109,0,0,0,.189.015,1.166,1.166,0,0,0,.823-.34L18.445,22.676A63.31,63.31,0,0,1,6.232,53.545a43.583,43.583,0,0,0-4.768-.972L.735,52.5.5,54.826l.681.066c1.168.167,2.329.4,3.483.671-.234.293-.467.591-.709.88l1.792,1.5A65.763,65.763,0,0,0,21.029,20.106l1.344-1.336,1.007,1A85.4,85.4,0,0,1,8.567,61.237l1.913,1.339c.918-1.311,1.794-2.671,2.644-4.058A41.43,41.43,0,0,1,27.258,69.591l1.807-1.48a43.629,43.629,0,0,0-7.757-7.367H70.264V58.408H17.847c-1.145-.691-2.327-1.318-3.534-1.9ZM36.8,29.822,24.461,17.551a9.01,9.01,0,0,1,8.917,2.231L34.494,20.9A9.069,9.069,0,0,1,36.8,29.822Zm4.813-13.867H31.944a11.392,11.392,0,0,0-7.235-.863,9.058,9.058,0,0,1,7.384-3.809h1.577a9.069,9.069,0,0,1,7.946,4.672ZM25.029,6.116,26.145,5a9.076,9.076,0,0,1,8.928-2.309L28.149,9.656a11.393,11.393,0,0,0-5.514,4.328,8.841,8.841,0,0,1,2.4-7.868ZM18.594,5,19.71,6.116a8.865,8.865,0,0,1,1.343,1.769,11.113,11.113,0,0,0-.893,3.883A11.394,11.394,0,0,0,16.6,9.656L9.672,2.691A9.072,9.072,0,0,1,18.6,5Zm-7.526,6.282h1.577a9.061,9.061,0,0,1,7.391,3.808,11.4,11.4,0,0,0-7.232.865H3.13a9.07,9.07,0,0,1,7.942-4.672ZM7.942,29.822A9.069,9.069,0,0,1,10.252,20.9l1.115-1.116A8.928,8.928,0,0,1,17.7,17.175a9.238,9.238,0,0,1,2.588.371Zm0,0" transform="translate(0 0)"/></g></g></svg>