<svg xmlns="http://www.w3.org/2000/svg" xmlns:xlink="http://www.w3.org/1999/xlink" width="128" height="128" viewBox="0 0 128 128"><defs><style>.a{fill:#dff8ec;}.b{clip-path:url(#a);}.c{fill:#2ad181;}</style><clipPath id="a"><rect class="a" width="128" height="128" rx="16"/></clipPath></defs><g class="b"><path class="a" d="M0,0H128V128H0Z"/><g transform="translate(28.857 28.854)"><g transform="translate(0.143 -44.853)"><g transform="translate(0 53)"><g transform="translate(0 0)"><path class="c" d="M67.405,73.142l-1.528-1.617L60.517,57.073A6.288,6.288,0,0,0,54.661,53H16.368a6.267,6.267,0,0,0-5.855,4.073L5.227,71.345l-2.2,2.037A8.6,8.6,0,0,0,0,79.926v21.056a6.26,6.26,0,0,0,6.26,6.23h3.954a6.26,6.26,0,0,0,6.26-6.23V97.927h37.14v3.055a6.26,6.26,0,0,0,6.26,6.23h3.954a6.26,6.26,0,0,0,6.26-6.23V79.372A8.684,8.684,0,0,0,67.405,73.142ZM13.328,58.092a3.239,3.239,0,0,1,3.04-2.1H54.676a3.26,3.26,0,0,1,3.04,2.1l4.672,12.58H58.9a10.272,10.272,0,0,0-20.322,0H8.656Zm42.516,12.58H41.6a7.274,7.274,0,0,1,14.242,0ZM13.478,100.982a3.256,3.256,0,0,1-3.265,3.235H6.26A3.256,3.256,0,0,1,3,100.982V97.058a6.082,6.082,0,0,0,3.265.869h7.218Zm53.613,0a3.256,3.256,0,0,1-3.265,3.235H59.873a3.266,3.266,0,0,1-3.265-3.235V97.927h7.218a6.082,6.082,0,0,0,3.265-.869Zm-3.265-6.05H6.26A3.231,3.231,0,0,1,3,91.727v-11.8a5.622,5.622,0,0,1,1.992-4.283l.06-.06,2.037-1.917H63.8l1.438,1.542c.015.03.06.045.075.075a5.644,5.644,0,0,1,1.767,4.088V91.727h.015A3.241,3.241,0,0,1,63.826,94.932Z" transform="translate(0 -53)"/></g></g><g transform="translate(7.039 79.657)"><g transform="translate(0 0)"><path class="c" d="M59.729,231H48.5a1.5,1.5,0,0,0-1.5,1.5v7.787a1.5,1.5,0,0,0,1.5,1.5H59.729a1.5,1.5,0,0,0,1.5-1.5V232.5A1.5,1.5,0,0,0,59.729,231Zm-1.5,7.787H50V234h8.237Z" transform="translate(-47 -231)"/></g></g><g transform="translate(48.821 79.657)"><g transform="translate(0 0)"><path class="c" d="M338.729,231H327.5a1.5,1.5,0,0,0-1.5,1.5v7.787a1.5,1.5,0,0,0,1.5,1.5h11.232a1.5,1.5,0,0,0,1.5-1.5V232.5A1.5,1.5,0,0,0,338.729,231Zm-1.5,7.787H329V234h8.237Z" transform="translate(-326 -231)"/></g></g><g transform="translate(26.312 85.946)"><g transform="translate(0 0)"><path class="c" d="M191.664,273H177.2a1.5,1.5,0,0,0,0,3h14.467a1.5,1.5,0,0,0,0-3Z" transform="translate(-175.7 -273)"/></g></g><g transform="translate(26.312 81.304)"><path class="c" d="M191.664,242H177.2a1.5,1.5,0,0,0,0,3h14.467a1.5,1.5,0,0,0,0-3Z" transform="translate(-175.7 -242)"/></g></g></g></g></svg>