<svg xmlns="http://www.w3.org/2000/svg" width="139.151" height="52" viewBox="0 0 139.151 52"><defs><style>.a{fill:#ea8334;}.b{fill:#fff;}</style></defs><g transform="translate(-868.849 -2263)"><path class="a" d="M52,77h0L26,57,0,77V-62.149H52V77Z" transform="translate(945.852 2263) rotate(90)"/><path class="b" d="M-64.692-.72v-25.6h7.524A11.1,11.1,0,0,1-48.816-23a12.2,12.2,0,0,1,3.2,8.856v1.3a12.108,12.108,0,0,1-3.222,8.82A11.339,11.339,0,0,1-57.348-.72Zm4.428-22.032V-4.284h2.916a6.562,6.562,0,0,0,5.4-2.25,9.638,9.638,0,0,0,1.872-6.174v-1.476a9.779,9.779,0,0,0-1.818-6.354,6.431,6.431,0,0,0-5.274-2.214Zm33.336-3.564h4.464v17.1q0,4.392-2.79,6.624A10.521,10.521,0,0,1-32.04-.36a10.394,10.394,0,0,1-6.822-2.232Q-41.58-4.824-41.58-9.216v-17.1h4.392v17.1a5.178,5.178,0,0,0,1.4,4.014A5.348,5.348,0,0,0-32.04-3.924,5.267,5.267,0,0,0-28.3-5.2a5.257,5.257,0,0,0,1.368-4.014Zm9.216,25.6v-25.6h16.6v3.564H-13.284v7.092H-2.772v3.492H-13.284v7.884H-.972V-.72Z" transform="translate(976.85 2303)"/></g></svg>