<svg xmlns="http://www.w3.org/2000/svg" width="122" height="122" viewBox="0 0 122 122"><defs><style>.a{fill:#c5f2dd;}.b{fill:#c6f2dd;}.c{fill:#c5f2dc;}.d{fill:#005e18;}</style></defs><circle class="a" cx="27.044" cy="27.044" r="27.044" transform="translate(66.124 1.787)"/><ellipse class="b" cx="16.5" cy="16" rx="16.5" ry="16" transform="translate(77 13)"/><path class="c" d="M316.359,271.643a7.148,7.148,0,0,0-7.148-7.148H269.419a7.148,7.148,0,0,0,0,14.3h-4.766a7.148,7.148,0,0,0,0,14.3h4.766a7.148,7.148,0,0,0,0,14.3,7.148,7.148,0,0,0,0,14.3h39.792a7.148,7.148,0,0,0,0-14.3,7.148,7.148,0,0,0,0-14.3h-4.766a7.148,7.148,0,0,0,0-14.3h4.766A7.148,7.148,0,0,0,316.359,271.643Z" transform="translate(-196.146 -201.471)"/><path class="c" d="M286.1,293.089h-.519a7.149,7.149,0,1,1,0-14.3h.518a10.11,10.11,0,0,1,0-14.3H269.566a7.246,7.246,0,0,0-7.294,6.947,7.149,7.149,0,0,0,7.146,7.35H264.8a7.246,7.246,0,0,0-7.294,6.947,7.149,7.149,0,0,0,7.146,7.35h4.766a7.148,7.148,0,0,0,0,14.3,7.148,7.148,0,0,0-7.146,7.349,7.245,7.245,0,0,0,7.294,6.948H286.1a10.11,10.11,0,0,1,0-14.3h0a10.11,10.11,0,0,1,0-14.3Z" transform="translate(-196.144 -201.471)"/><path class="c" d="M59.206,384.495H19.414a7.148,7.148,0,0,0,0,14.3H14.648a7.148,7.148,0,0,0,0,14.3H54.44a7.148,7.148,0,1,0,0-14.3h4.766a7.148,7.148,0,1,0,0-14.3Z" transform="translate(-5.713 -292.877)"/><path class="b" d="M40.859,384.495h-21.3a7.246,7.246,0,0,0-7.295,6.947,7.149,7.149,0,0,0,7.146,7.35H14.8A7.246,7.246,0,0,0,7.5,405.739a7.149,7.149,0,0,0,7.146,7.35H36.093l-.123-.127c-1.546-4.794-.262-10.32,4.889-14.17a10.11,10.11,0,0,1,0-14.3Z" transform="translate(-5.712 -292.877)"/><path class="b" d="M124.567,176H112.562a3.574,3.574,0,0,0,0,7.148h3.376L86.3,212.785a3.574,3.574,0,1,0,5.054,5.055L120.993,188.2v3.376a3.574,3.574,0,1,0,7.148,0V179.57A3.574,3.574,0,0,0,124.567,176Z" transform="translate(-64.937 -134.059)"/><path class="d" d="M298.837,57.663a28.831,28.831,0,1,0-28.832-28.832A28.864,28.864,0,0,0,298.837,57.663Zm0-54.089a25.257,25.257,0,1,1-25.257,25.257A25.286,25.286,0,0,1,298.837,3.574Z" transform="translate(-205.668)"/><path class="d" d="M333.114,81.218a18.109,18.109,0,1,0-8.906-33.873,1.787,1.787,0,0,0,1.763,3.109,14.557,14.557,0,1,1-4.694,4.23,1.787,1.787,0,1,0-2.909-2.077,18.1,18.1,0,0,0,14.746,28.61Z" transform="translate(-239.945 -34.277)"/><path class="d" d="M312.433,265.936A8.946,8.946,0,0,0,303.5,257H263.706a8.93,8.93,0,0,0-6.934,14.564,8.935,8.935,0,0,0,0,17.336,8.921,8.921,0,0,0,1.578,12.777,8.932,8.932,0,0,0,5.355,16.084H303.5a8.932,8.932,0,0,0,5.355-16.084,8.932,8.932,0,0,0-3.187-15.817,8.914,8.914,0,0,0,0-11.257A8.95,8.95,0,0,0,312.433,265.936Zm-3.574,42.891a5.368,5.368,0,0,1-5.361,5.361H263.706a5.361,5.361,0,0,1,0-10.723H303.5A5.368,5.368,0,0,1,308.859,308.826Zm0-14.3a5.368,5.368,0,0,1-5.361,5.361H263.706a5.361,5.361,0,0,1,0-10.723h4.766a1.787,1.787,0,0,0,0-3.574h-9.531a5.361,5.361,0,0,1,0-10.723h39.792a5.361,5.361,0,0,1,0,10.723H275.62a1.787,1.787,0,0,0,0,3.574H303.5A5.368,5.368,0,0,1,308.859,294.529ZM303.5,271.3H263.706a5.361,5.361,0,0,1,0-10.723H303.5a5.361,5.361,0,0,1,0,10.723Z" transform="translate(-190.434 -195.762)"/><path class="d" d="M53.493,377H13.7a8.93,8.93,0,0,0-6.934,14.564,8.935,8.935,0,0,0,2.168,17.6H48.727A8.93,8.93,0,0,0,55.661,394.6,8.935,8.935,0,0,0,53.493,377Zm0,14.3H27.282a1.787,1.787,0,1,0,0,3.574H48.727a5.361,5.361,0,1,1,0,10.723H8.936a5.361,5.361,0,0,1,0-10.723h11.2a1.787,1.787,0,0,0,0-3.574H13.7a5.361,5.361,0,0,1,0-10.723H53.493a5.361,5.361,0,1,1,0,10.723Z" transform="translate(0 -287.168)"/><path class="d" d="M86.9,213.39l26.66-26.66a5.362,5.362,0,0,0,10.653-.868V173.856a5.367,5.367,0,0,0-5.361-5.361H106.844a5.362,5.362,0,0,0-.868,10.652l-26.66,26.66A5.361,5.361,0,0,0,86.9,213.39Zm-5.055-5.055,29.641-29.641a1.787,1.787,0,0,0-1.264-3.051h-3.376a1.787,1.787,0,0,1,0-3.574h12.005a1.789,1.789,0,0,1,1.787,1.787v12.005a1.787,1.787,0,0,1-3.574,0v-3.376a1.787,1.787,0,0,0-3.051-1.264L84.371,210.862a1.787,1.787,0,1,1-2.527-2.527Z" transform="translate(-59.219 -128.346)"/><path class="d" d="M265.136,278.441H268.5l2.121-2.587H257.21l-2.121,2.587h5.119a4.954,4.954,0,0,1,3.637,3.06H257.21l-2.121,2.587H263.8a5.22,5.22,0,0,1-4.735,3.088l-3.583.033,6.486,6.62h3.849l-4.485-4.577a7.425,7.425,0,0,0,5.426-5.164H268.5l2.121-2.587h-3.836A6.4,6.4,0,0,0,265.136,278.441Z" transform="translate(-169.784 -256.077)"/></svg>