<svg xmlns="http://www.w3.org/2000/svg" xmlns:xlink="http://www.w3.org/1999/xlink" width="128" height="128" viewBox="0 0 128 128"><defs><style>.a{fill:#dff8ec;}.b{clip-path:url(#a);}.c{fill:#2ad181;}</style><clipPath id="a"><rect class="a" width="128" height="128" rx="16"/></clipPath></defs><g class="b"><path class="a" d="M0,0H128V128H0Z"/><g transform="translate(28.822 49)"><g transform="translate(0.178 -41.184)"><g transform="translate(20.57 46.328)"><path class="c" d="M141.026,146.243h-5.869v-5.869a2.143,2.143,0,0,0-2.129-2.158h-8.472a2.143,2.143,0,0,0-2.143,2.143v5.869h-5.854a2.143,2.143,0,0,0-2.158,2.129v8.473a2.143,2.143,0,0,0,2.143,2.143h5.869v5.854a2.143,2.143,0,0,0,2.129,2.158H133a2.143,2.143,0,0,0,2.143-2.143h0v-5.869h5.869a2.143,2.143,0,0,0,2.158-2.129v-8.458A2.143,2.143,0,0,0,141.026,146.243Zm-.734,9.853h-6.574a1.438,1.438,0,0,0-1.438,1.438v6.574h-6.991v-6.574a1.439,1.439,0,0,0-1.438-1.438h-6.574v-6.976h6.574a1.439,1.439,0,0,0,1.438-1.438v-6.588h6.976v6.574A1.439,1.439,0,0,0,133.7,149.1h6.588Z" transform="translate(-114.4 -138.216)"/></g><g transform="translate(0 26.184)"><g transform="translate(0 0)"><path class="c" d="M59.983,35.568H48.13V30.5a4.186,4.186,0,0,0-4.048-4.319q-.177-.006-.353,0H26.18a4.186,4.186,0,0,0-4.4,3.962q-.009.176,0,.353V35.54H9.925C5.351,35.54,0,38.143,0,45.465V76.751c0,7.322,5.351,9.925,9.925,9.925H59.983c4.574,0,9.925-2.6,9.925-9.925V45.494C69.908,38.172,64.572,35.568,59.983,35.568ZM24.655,30.5a1.349,1.349,0,0,1,1.539-1.539H43.729c1.539,0,1.539,1.108,1.539,1.539V35.54H24.655ZM67.031,76.751c0,6.358-4.919,7.048-7.048,7.048H9.925c-2.115,0-7.048-.69-7.048-7.048V45.494c0-6.358,4.919-7.048,7.048-7.048H59.983c2.115,0,7.048.69,7.048,7.048V76.751Z" transform="translate(0 -26.184)"/></g></g></g></g></g></svg>