<svg xmlns="http://www.w3.org/2000/svg" width="156.015" height="156.019" viewBox="0 0 156.015 156.019"><defs><style>.a{fill:#dff8ec;}.b{opacity:0.5;}.c{fill:#fff;}.d{fill:#2ad181;}</style></defs><g transform="translate(-1277 1955)"><g transform="translate(1277 -1955)"><g transform="translate(0 0)"><path class="a" d="M62.6,6H54.8A5.216,5.216,0,0,1,60,11.2v85.16L47,100.7v2.6l20.8-6.943V11.2A5.216,5.216,0,0,0,62.6,6Z" transform="translate(75.215 9.602)"/><path class="a" d="M59.8,21.2V87.3L39,94.217V21.2A5.216,5.216,0,0,1,44.2,16H54.6a5.216,5.216,0,0,1,5.2,5.2Z" transform="translate(62.412 25.605)"/><path class="a" d="M43.8,26.2V71.056a13.412,13.412,0,0,0-4.082-.65H26.12A21.008,21.008,0,0,1,23,70.172V26.2A5.216,5.216,0,0,1,28.2,21H38.6A5.216,5.216,0,0,1,43.8,26.2Z" transform="translate(36.807 33.607)"/><g class="b"><path class="c" d="M67.8,11.2v85.16L47,103.3V11.2A5.216,5.216,0,0,1,52.2,6H62.6A5.216,5.216,0,0,1,67.8,11.2Z" transform="translate(75.215 9.602)"/><path class="c" d="M51.8,31.2V78.214L46.29,80.06a10.226,10.226,0,0,1-3.3.546H36.877a9.408,9.408,0,0,0,1.43-11.493l-.234-.39A12.9,12.9,0,0,0,31,63.054V31.2A5.216,5.216,0,0,1,36.2,26H46.6A5.216,5.216,0,0,1,51.8,31.2Z" transform="translate(49.61 41.608)"/><path class="c" d="M35.8,36.2V54.169A23.533,23.533,0,0,1,24.1,49.2,23.9,23.9,0,0,0,15,44.7V36.2A5.216,5.216,0,0,1,20.2,31H30.6A5.216,5.216,0,0,1,35.8,36.2Z" transform="translate(24.005 49.61)"/></g><path class="a" d="M24.4,39.2V93.807a5.2,5.2,0,0,1-5.2,5.2H6.2a5.216,5.216,0,0,1-5.2-5.2V39.2A5.216,5.216,0,0,1,6.2,34h13A5.216,5.216,0,0,1,24.4,39.2Z" transform="translate(1.6 54.411)"/><path class="a" d="M134.367,60.885l-48.73,29.67a18.2,18.2,0,0,1-9.465,2.652H10.384l-.624-.13a5.273,5.273,0,0,0,.624-2.47V36h7.281a23.447,23.447,0,0,1,5.721.7,23.9,23.9,0,0,1,9.1,4.5,23.533,23.533,0,0,0,11.7,4.967,21.008,21.008,0,0,0,3.12.234h13.6a13.412,13.412,0,0,1,4.082.65,12.9,12.9,0,0,1,7.073,5.669l.234.39A9.408,9.408,0,0,1,70.867,64.6h6.111a10.227,10.227,0,0,0,3.3-.546l5.513-1.846,20.8-6.917,20.8-6.943,1.014-.338a7.164,7.164,0,0,1,7.957,2.5v.026a7.1,7.1,0,0,1-2,10.349Z" transform="translate(15.619 57.611)"/><path class="a" d="M93.431,4.232l-8.4,33.593a2.6,2.6,0,0,1-4.605.928L70.759,25.859l-56.557,39A6.507,6.507,0,1,1,6.814,54.15L62.958,15.432,55.209,5.16A2.6,2.6,0,0,1,57.289,1H90.908a2.6,2.6,0,0,1,2.522,3.232Z" transform="translate(6.395 1.6)"/><path class="a" d="M12.8,34H5a5.216,5.216,0,0,1,5.2,5.2V93.807a5.2,5.2,0,0,1-5.2,5.2h7.8a5.2,5.2,0,0,0,5.2-5.2V39.2A5.216,5.216,0,0,0,12.8,34Z" transform="translate(8.002 54.411)"/><path class="a" d="M24.3,41.2a23.816,23.816,0,0,0,14.822,5.2h7.8A23.816,23.816,0,0,1,32.1,41.2,23.816,23.816,0,0,0,17.281,36H10v.023A23.814,23.814,0,0,1,24.3,41.2Z" transform="translate(16.003 57.611)"/><path class="a" d="M37.585,46.319l.234.39A9.408,9.408,0,0,1,36.389,58.2H42.5a10.177,10.177,0,0,0,1.841-.179A9.4,9.4,0,0,0,45.62,46.709l-.234-.39A12.973,12.973,0,0,0,34.231,40h-7.8a12.973,12.973,0,0,1,11.155,6.319Z" transform="translate(42.296 64.012)"/><path class="a" d="M100.3,43.363v-.026a7.164,7.164,0,0,0-7.957-2.5l-1.948.65a7.112,7.112,0,0,1,2.1,1.846v.026a7.1,7.1,0,0,1-2,10.349l-48.73,29.67A18.2,18.2,0,0,1,32.3,86.034h7.8a18.2,18.2,0,0,0,9.465-2.652L98.3,53.712a7.1,7.1,0,0,0,2-10.349Z" transform="translate(51.69 64.784)"/><path class="a" d="M45.454,1h-7.8a2.6,2.6,0,0,1,2.522,3.23L32.4,35.324l2.572,3.43a2.6,2.6,0,0,0,4.605-.928l8.4-33.6A2.6,2.6,0,0,0,45.454,1Z" transform="translate(51.85 1.6)"/><path class="a" d="M14.2,64.864l.244-.169a6.407,6.407,0,0,1,.172-10.544L70.754,15.432,63.005,5.16A2.6,2.6,0,0,1,65.086,1h-7.8A2.6,2.6,0,0,0,55.2,5.16l7.749,10.263L6.813,54.15A6.506,6.506,0,1,0,14.2,64.864Z" transform="translate(6.4 1.6)"/><path class="c" d="M6.2,99.008H14a5.216,5.216,0,0,1-5.2-5.2V39.2A5.216,5.216,0,0,1,14,34H6.2A5.216,5.216,0,0,0,1,39.2V93.807A5.216,5.216,0,0,0,6.2,99.008Z" transform="translate(1.6 54.411)"/><path class="a" d="M0,0H20.8V5.2H0Z" transform="translate(11.745 53.597) rotate(-34.612)"/></g></g><g transform="translate(1277 -1955)"><path class="d" d="M7.8,124.012h13a7.762,7.762,0,0,0,5.773-2.6H91.791a20.8,20.8,0,0,0,10.815-3.032l48.732-29.67a9.738,9.738,0,0,0,4.493-6.467,9.569,9.569,0,0,0-1.628-7.468c-.047-.075-.1-.148-.151-.224a9.7,9.7,0,0,0-10.856-3.38L95.065,87.213a7.814,7.814,0,0,1-2.47.4H91.1a11.961,11.961,0,0,0-.967-10.237l-.234-.39a15.688,15.688,0,0,0-13.368-7.58h-13.6a21.2,21.2,0,0,1-13.2-4.631,26.3,26.3,0,0,0-8.123-4.4V53.8a2.6,2.6,0,0,1,2.6-2.6h10.4a2.6,2.6,0,0,1,2.6,2.6v7.8a2.6,2.6,0,1,0,5.2,0V27.8a2.6,2.6,0,0,1,2.6-2.6h10.4a2.6,2.6,0,0,1,2.6,2.6,2.6,2.6,0,1,0,5.2,0,7.8,7.8,0,0,0-7.8-7.8h-10.4a7.8,7.8,0,0,0-7.8,7.8V46.448a7.8,7.8,0,0,0-2.6-.445h-10.4a7.8,7.8,0,0,0-7.8,7.8v5.411A26.066,26.066,0,0,0,33.284,59H28.125A7.8,7.8,0,0,0,20.8,53.8H7.8A7.8,7.8,0,0,0,0,61.6v10.4a2.6,2.6,0,1,0,5.2,0V61.6A2.6,2.6,0,0,1,7.8,59h13a2.6,2.6,0,0,1,2.6,2.6v54.607a2.6,2.6,0,0,1-2.6,2.6H7.8a2.6,2.6,0,0,1-2.6-2.6v-31.2a2.6,2.6,0,1,0-5.2,0v31.2a7.8,7.8,0,0,0,7.8,7.8Zm38.68-55.176a26.422,26.422,0,0,0,16.447,5.77h13.6a10.453,10.453,0,0,1,8.916,5.047l.234.39a6.8,6.8,0,0,1-.39,7.564h-15.8a25.915,25.915,0,0,0-14.424,4.369l-1.906,1.269a2.6,2.6,0,1,0,2.886,4.327l1.9-1.269a20.748,20.748,0,0,1,11.54-3.495H92.6a12.947,12.947,0,0,0,4.114-.668L144.853,76.1a4.493,4.493,0,0,1,4.909,1.37c.044.075.1.148.148.221a4.522,4.522,0,0,1-1.264,6.579L99.9,113.936a15.625,15.625,0,0,1-8.113,2.275H28.6V64.205h4.681a21.2,21.2,0,0,1,13.2,4.631Z" transform="translate(0 32.006)"/><path class="d" d="M95.008,88.21a2.6,2.6,0,0,0,2.6-2.6V12.8a7.8,7.8,0,0,0-7.8-7.8h-10.4a7.8,7.8,0,0,0-7.8,7.8V31.482A7.712,7.712,0,0,0,69,31H58.6a7.8,7.8,0,0,0-7.8,7.8V57.485a7.713,7.713,0,0,0-2.6-.478H37.8a7.8,7.8,0,0,0-7.8,7.8v13a2.6,2.6,0,0,0,5.2,0v-13a2.6,2.6,0,0,1,2.6-2.6H48.2a2.6,2.6,0,0,1,2.6,2.6v36.4a2.6,2.6,0,0,0,5.2,0V38.8a2.6,2.6,0,0,1,2.6-2.6H69a2.6,2.6,0,0,1,2.6,2.6V90.81a2.6,2.6,0,1,0,5.2,0V12.8a2.6,2.6,0,0,1,2.6-2.6h10.4a2.6,2.6,0,0,1,2.6,2.6V85.61A2.6,2.6,0,0,0,95.008,88.21Z" transform="translate(48.009 8.002)"/><path class="d" d="M10,23.37a2.6,2.6,0,1,1-.026-5.2H10a2.6,2.6,0,1,1,0,5.2Z" transform="translate(11.825 29.076)"/><path class="d" d="M54.231,2.881a5.177,5.177,0,0,0,.52,5.461l6.113,8.1L24.068,41.8a2.6,2.6,0,1,0,2.951,4.28L66.034,19.172v-.016c.034-.023.07-.026.1-.049a2.6,2.6,0,0,0,.52-3.64L58.883,5.2H92.511l-8.4,33.6L74.438,25.9a2.6,2.6,0,0,0-3.565-.582l-56.572,39a3.828,3.828,0,0,1-2.195.686,3.9,3.9,0,0,1-2.213-7.117,2.6,2.6,0,0,0-2.959-4.278,9.1,9.1,0,0,0,5.172,16.6,8.966,8.966,0,0,0,5.167-1.6l54.5-37.585,8.175,10.9a5.2,5.2,0,0,0,9.2-1.872l8.4-33.6A5.2,5.2,0,0,0,92.508,0H58.883a5.18,5.18,0,0,0-4.652,2.881Z" transform="translate(4.796 0)"/></g></g></svg>