<svg xmlns="http://www.w3.org/2000/svg" width="60" height="60" viewBox="0 0 185 185"><defs><style>.a,.c{fill:#2ad181;}.a{opacity:0.05;}.b{fill:#dff9ed;}</style></defs><g transform="translate(-73 -2236)"><path class="a" d="M42,0H143a42,42,0,0,1,42,42V143a42,42,0,0,1-42,42H42A42,42,0,0,1,0,143V42A42,42,0,0,1,42,0Z" transform="translate(73 2236)"/><path class="b" d="M-12661.326-1606.147h56.453v-6.957l-28.028-12.126-28.425,12.126Z" transform="translate(12799 3926)"/><rect class="b" width="8" height="23" transform="translate(142 2320)"/><rect class="b" width="8" height="23" transform="translate(182 2320)"/><rect class="b" width="56" height="9" transform="translate(138 2349)"/><rect class="b" width="12" height="9" transform="translate(140 2343)"/><rect class="b" width="12" height="9" transform="translate(180 2343)"/><path class="c" d="M12800.757,3986a1.758,1.758,0,0,1-1.756-1.756v-7.268a1.756,1.756,0,0,1,1.756-1.756h.7v-5.276a1.758,1.758,0,0,1,1.759-1.756h.585v-19.921h-3.047a1.759,1.759,0,0,1-1.756-1.759v-7.032a1.757,1.757,0,0,1,1.081-1.623l28.245-11.718a1.738,1.738,0,0,1,1.346,0l28.244,11.718a1.758,1.758,0,0,1,1.084,1.623v7.032a1.759,1.759,0,0,1-1.759,1.759h-3.046v19.921h.584a1.758,1.758,0,0,1,1.759,1.756v5.276h.7a1.756,1.756,0,0,1,1.759,1.756v7.268a1.758,1.758,0,0,1-1.759,1.756Zm1.759-3.514h52.968v-3.75h-52.968Zm42.306-7.264h8.2V3971.7h-8.2Zm-30.469-7.032h.585a1.758,1.758,0,0,1,1.759,1.756v5.276h24.607v-5.276a1.758,1.758,0,0,1,1.759-1.756h.587v-19.921h-29.3Zm-9.374,7.032h8.2V3971.7h-8.2Zm42.186-7.032h3.514v-19.921h-3.514Zm-39.843,0h3.514v-19.921h-3.514Zm-4.806-27.538v4.1h52.968v-4.1L12829,3929.662Zm15.936.584a1.757,1.757,0,0,1,0-3.514h21.1a1.757,1.757,0,0,1,0,3.514Z" transform="translate(-12663.002 -1627)"/></g></svg>