<svg xmlns="http://www.w3.org/2000/svg" width="372.375" height="248" viewBox="0 0 372.375 248"><defs><style>.a,.i{fill:none;stroke-miterlimit:10;}.a{stroke:#fc9f21;}.a,.d{opacity:0.66;}.b{fill:#fccb21;}.c{fill:#f9fbfc;opacity:0.5;}.d,.e,.g{fill:#fc9f21;}.f{fill:#a5681e;}.f,.k{opacity:0.08;}.g{font-size:22px;font-family:Montserrat-Bold, Montserrat;font-weight:700;}.h{fill:#fff;}.i{stroke:#fff;stroke-linecap:round;stroke-width:4px;stroke-dasharray:0 8;}.j{fill:#dbdbdb;}.l{fill:#f59b20;}</style></defs><g transform="translate(613.682 -2577.532)"><path class="a" d="M466.3,880.561a10.891,10.891,0,1,1-10.891-10.891A10.891,10.891,0,0,1,466.3,880.561Z" transform="translate(-865.346 1928.368)"/><rect class="b" width="88.536" height="16.534" rx="5.77" transform="translate(-591.013 2805.623)"/><rect class="c" width="13.03" height="85.032" rx="3.77" transform="translate(-504.229 2807.366) rotate(90)"/><path class="d" d="M250.9,881H243.06a3.29,3.29,0,0,0-3.29,3.29v6.424a3.29,3.29,0,0,0,3.29,3.29H250.9Z" transform="translate(-829.022 1926.358)"/><rect class="d" width="29.646" height="13.03" transform="translate(-572.596 2807.375)"/><path class="d" d="M338.828,881H337.52v13.022h1.308a3.29,3.29,0,0,0,3.29-3.29V884.29A3.29,3.29,0,0,0,338.828,881Z" transform="translate(-846.364 1926.358)"/><rect class="d" width="28.347" height="13.03" transform="translate(-539.519 2807.375)"/><rect class="b" width="88.536" height="16.534" rx="5.77" transform="translate(-582.253 2789.204)"/><rect class="c" width="13.03" height="85.032" rx="3.77" transform="translate(-495.469 2790.964) rotate(90)"/><path class="d" d="M261.6,861.07H253.76a3.29,3.29,0,0,0-3.29,3.29v6.424a3.29,3.29,0,0,0,3.29,3.29H261.6Z" transform="translate(-830.921 1929.894)"/><rect class="d" width="29.646" height="13.03" transform="translate(-563.835 2790.964)"/><path class="d" d="M349.488,861.07H348.18v13.022h1.308a3.29,3.29,0,0,0,3.29-3.29v-6.424a3.29,3.29,0,0,0-3.29-3.307Z" transform="translate(-848.256 1929.894)"/><rect class="d" width="28.347" height="13.03" transform="translate(-530.758 2790.964)"/><rect class="b" width="88.536" height="16.534" rx="5.77" transform="translate(-482.521 2805.623)"/><rect class="c" width="13.03" height="85.032" rx="3.77" transform="translate(-395.737 2807.375) rotate(90)"/><path class="d" d="M382.8,881H374.96a3.29,3.29,0,0,0-3.29,3.29v6.424a3.29,3.29,0,0,0,3.29,3.29H382.8Z" transform="translate(-852.423 1926.358)"/><rect class="d" width="29.646" height="13.03" transform="translate(-464.103 2807.375)"/><path class="d" d="M470.718,881H469.41v13.022h1.308a3.29,3.29,0,0,0,3.29-3.29V884.29A3.29,3.29,0,0,0,470.718,881Z" transform="translate(-869.762 1926.358)"/><rect class="d" width="28.347" height="13.03" transform="translate(-431.027 2807.375)"/><rect class="b" width="88.536" height="16.534" rx="5.77" transform="translate(-476.385 2789.204)"/><rect class="c" width="13.03" height="85.032" rx="3.77" transform="translate(-389.601 2790.964) rotate(90)"/><path class="d" d="M390.26,861.07H382.42a3.29,3.29,0,0,0-3.29,3.29v6.424a3.29,3.29,0,0,0,3.29,3.29h7.839Z" transform="translate(-853.746 1929.894)"/><rect class="d" width="29.646" height="13.03" transform="translate(-457.967 2790.964)"/><path class="d" d="M478.178,861.07H476.87v13.022h1.308a3.29,3.29,0,0,0,3.29-3.29v-6.424a3.29,3.29,0,0,0-3.29-3.307Z" transform="translate(-871.086 1929.894)"/><rect class="d" width="28.347" height="13.03" transform="translate(-424.891 2790.964)"/><rect class="b" width="88.536" height="16.534" rx="5.77" transform="translate(-479.889 2772.793)"/><rect class="c" width="13.03" height="85.032" rx="3.77" transform="translate(-393.105 2774.545) rotate(90)"/><path class="d" d="M386,841.11H378.15a3.29,3.29,0,0,0-3.29,3.29v6.416a3.29,3.29,0,0,0,3.29,3.29H386Z" transform="translate(-852.988 1933.435)"/><rect class="d" width="29.646" height="13.03" transform="translate(-461.471 2774.545)"/><path class="d" d="M473.918,841.11H472.61v13.071h1.308a3.29,3.29,0,0,0,3.29-3.29v-6.416a3.29,3.29,0,0,0-3.29-3.364Z" transform="translate(-870.33 1933.435)"/><rect class="d" width="28.347" height="13.03" transform="translate(-428.395 2774.545)"/><rect class="b" width="88.536" height="16.534" rx="5.77" transform="translate(-484.76 2760.216) rotate(-3.78)"/><rect class="c" width="13.03" height="85.032" rx="3.77" transform="translate(-398.028 2756.187) rotate(86.22)"/><path class="d" d="M380.276,824.76l-7.823.518a3.29,3.29,0,0,0-3.085,3.513l.428,6.408a3.29,3.29,0,0,0,3.512,3.076l7.823-.518Z" transform="translate(-852.013 1936.336)"/><rect class="d" width="29.646" height="13.03" transform="translate(-466.269 2760.746) rotate(-3.78)"/><path class="d" d="M467.968,819.1l-1.308.09.823,13,1.3-.09a3.29,3.29,0,0,0,3.077-3.513l-.42-6.408A3.29,3.29,0,0,0,467.968,819.1Z" transform="translate(-869.274 1937.341)"/><rect class="d" width="28.347" height="13.03" transform="translate(-433.265 2758.567) rotate(-3.78)"/><rect class="b" width="88.536" height="16.534" rx="5.77" transform="translate(-382.601 2805.623)"/><rect class="c" width="13.03" height="85.032" rx="3.77" transform="translate(-295.809 2807.375) rotate(90)"/><path class="d" d="M504.27,881H496.43a3.29,3.29,0,0,0-3.29,3.29v6.424a3.29,3.29,0,0,0,3.29,3.29h7.839Z" transform="translate(-873.972 1926.358)"/><rect class="d" width="29.646" height="13.03" transform="translate(-364.182 2807.375)"/><path class="d" d="M592.2,881H590.89v13.022H592.2a3.29,3.29,0,0,0,3.29-3.29V884.29A3.29,3.29,0,0,0,592.2,881Z" transform="translate(-891.314 1926.358)"/><rect class="d" width="28.347" height="13.03" transform="translate(-331.107 2807.375)"/><rect class="b" width="88.536" height="16.534" rx="5.77" transform="translate(-373.832 2789.204)"/><rect class="c" width="13.03" height="85.032" rx="3.77" transform="translate(-287.048 2790.964) rotate(90)"/><path class="d" d="M514.93,861.07H507.09a3.29,3.29,0,0,0-3.29,3.29v6.424a3.29,3.29,0,0,0,3.29,3.29h7.839Z" transform="translate(-875.863 1929.894)"/><rect class="d" width="29.646" height="13.03" transform="translate(-355.414 2790.964)"/><path class="d" d="M602.858,861.07H601.55v13.022h1.308a3.29,3.29,0,0,0,3.29-3.29v-6.424a3.29,3.29,0,0,0-3.29-3.307Z" transform="translate(-893.205 1929.894)"/><rect class="d" width="28.347" height="13.03" transform="translate(-322.338 2790.964)"/><rect class="b" width="88.536" height="16.534" rx="5.77" transform="translate(-369.447 2772.793)"/><rect class="c" width="13.03" height="85.032" rx="3.77" transform="translate(-282.664 2774.553) rotate(90)"/><path class="d" d="M520.26,841.11H512.42a3.29,3.29,0,0,0-3.29,3.29v6.416a3.29,3.29,0,0,0,3.29,3.29h7.839Z" transform="translate(-876.809 1933.435)"/><rect class="d" width="29.646" height="13.03" transform="translate(-351.029 2774.545)"/><path class="d" d="M608.178,841.11H606.87v13.071h1.308a3.29,3.29,0,0,0,3.29-3.29v-6.416a3.29,3.29,0,0,0-3.29-3.364Z" transform="translate(-894.148 1933.435)"/><rect class="d" width="28.347" height="13.03" transform="translate(-317.953 2774.545)"/><rect class="b" width="88.536" height="16.534" rx="5.77" transform="translate(-379.968 2756.382)"/><rect class="c" width="13.03" height="85.032" rx="3.77" transform="translate(-293.184 2758.134) rotate(90)"/><path class="d" d="M507.47,821.16H499.63a3.29,3.29,0,0,0-3.29,3.29V830.9a3.29,3.29,0,0,0,3.29,3.29h7.839Z" transform="translate(-874.54 1936.974)"/><rect class="d" width="29.646" height="13.03" transform="translate(-361.55 2758.134)"/><path class="d" d="M595.4,821.16H594.09v13.03H595.4a3.29,3.29,0,0,0,3.29-3.29v-6.416a3.29,3.29,0,0,0-3.29-3.323Z" transform="translate(-891.881 1936.974)"/><rect class="d" width="28.347" height="13.03" transform="translate(-328.474 2758.134)"/><rect class="b" width="88.536" height="16.534" rx="5.77" transform="translate(-370.328 2739.971)"/><rect class="c" width="13.03" height="85.032" rx="3.77" transform="translate(-283.535 2741.723) rotate(90)"/><path class="d" d="M519.19,801.21H511.35a3.29,3.29,0,0,0-3.29,3.29v6.408a3.29,3.29,0,0,0,3.29,3.29h7.839Z" transform="translate(-876.619 1940.513)"/><rect class="d" width="29.646" height="13.03" transform="translate(-351.91 2741.724)"/><path class="d" d="M607.118,801.21H605.81v13.03h1.308a3.29,3.29,0,0,0,3.29-3.29v-6.416a3.291,3.291,0,0,0-3.29-3.323Z" transform="translate(-893.96 1940.513)"/><rect class="d" width="28.347" height="13.03" transform="translate(-318.833 2741.724)"/><rect class="b" width="88.536" height="16.534" rx="5.77" transform="translate(-363.311 2723.561)"/><rect class="c" width="13.03" height="85.032" rx="3.77" transform="translate(-276.527 2725.313) rotate(90)"/><path class="d" d="M527.72,781.26H519.88a3.29,3.29,0,0,0-3.29,3.29v6.416a3.29,3.29,0,0,0,3.29,3.29h7.839Z" transform="translate(-878.132 1944.053)"/><rect class="d" width="29.646" height="13.03" transform="translate(-344.893 2725.313)"/><path class="d" d="M615.638,781.26H614.33v13.03h1.308a3.29,3.29,0,0,0,3.29-3.29v-6.416a3.29,3.29,0,0,0-3.29-3.323Z" transform="translate(-895.471 1944.053)"/><rect class="d" width="28.347" height="13.03" transform="translate(-311.816 2725.313)"/><rect class="b" width="88.536" height="16.534" rx="5.77" transform="translate(-371.199 2707.15)"/><rect class="c" width="13.03" height="85.032" rx="3.77" transform="translate(-284.416 2708.902) rotate(90)"/><path class="d" d="M518.13,761.31H510.29A3.29,3.29,0,0,0,507,764.6v6.424a3.29,3.29,0,0,0,3.29,3.29h7.839Z" transform="translate(-876.431 1947.592)"/><rect class="d" width="29.646" height="13.03" transform="translate(-352.781 2708.902)"/><path class="d" d="M606.048,761.31H604.74v13.03h1.308a3.29,3.29,0,0,0,3.29-3.29v-6.424a3.29,3.29,0,0,0-3.29-3.315Z" transform="translate(-893.771 1947.592)"/><rect class="d" width="28.347" height="13.03" transform="translate(-319.705 2708.902)"/><rect class="b" width="88.536" height="16.534" rx="5.77" transform="matrix(0.997, -0.08, 0.08, 0.997, -362.713, 2694.281)"/><rect class="c" width="13.072" height="85.303" rx="3.782" transform="translate(-277.923 2690.605) rotate(85.426)"/><path class="d" d="M528.589,744.43l-7.815.633a3.29,3.29,0,0,0-3.027,3.554l.51,6.4a3.29,3.29,0,0,0,3.562,3.044l7.815-.625Z" transform="translate(-878.336 1950.587)"/><rect class="d" width="29.646" height="13.03" transform="matrix(0.997, -0.08, 0.08, 0.997, -344.208, 2694.548)"/><path class="d" d="M616.18,737.567l-1.3.107,1.036,12.981,1.308-.1a3.29,3.29,0,0,0,3.027-3.562l-.51-6.4a3.29,3.29,0,0,0-3.562-3.027Z" transform="translate(-895.57 1951.806)"/><rect class="d" width="28.347" height="13.03" transform="matrix(0.997, -0.08, 0.08, 0.997, -311.247, 2691.909)"/><circle class="b" cx="42.24" cy="42.24" r="42.24" transform="translate(-325.787 2737.503)"/><circle class="e" cx="33.471" cy="33.471" r="33.471" transform="translate(-318.01 2746.322)"/><path class="f" d="M609.789,806.8c-.642,0-1.283,0-1.908.058a33.463,33.463,0,0,1,0,66.819c.625,0,1.267.057,1.908.057a33.469,33.469,0,1,0,0-66.939Z" transform="translate(-894.327 1939.523)"/><circle class="b" cx="22.013" cy="22.013" r="22.013" transform="translate(-315.664 2779.793) rotate(-45)"/><text class="g" transform="translate(-291.432 2783.116)"><tspan x="0" y="0">$</tspan></text><path class="h" d="M284.172,851.64s-3.8-12.133-7.017-10.233S284.172,851.64,284.172,851.64Z" transform="translate(-835.544 1933.418)"/><path class="h" d="M299.84,851.64s3.8-12.133,7.017-10.233S299.84,851.64,299.84,851.64Z" transform="translate(-839.68 1933.418)"/><path class="h" d="M397.455,817.753s-8.876-9.106-10.891-5.956S397.455,817.753,397.455,817.753Z" transform="translate(-855.027 1938.753)"/><path class="h" d="M544.65,732.286s-6.581-10.875-9.254-8.226S544.65,732.286,544.65,732.286Z" transform="translate(-881.399 1954.274)"/><path class="h" d="M408,813.56s3.8-12.125,7.017-10.233S408,813.56,408,813.56Z" transform="translate(-858.867 1940.174)"/><path class="h" d="M555.62,732.713s4.936-11.7,7.987-9.493S555.62,732.713,555.62,732.713Z" transform="translate(-885.057 1954.398)"/><path class="i" d="M293.16,838.557A50.384,50.384,0,0,1,380.487,806.3" transform="translate(-838.494 1942.478)"/><path class="i" d="M551.74,719.387c1.374-7.864,1.708-23.917,40.658-47.009" transform="translate(-884.368 1964.195)"/><path class="i" d="M398.674,789.213A71.566,71.566,0,0,1,524.268,723.8" transform="translate(-856.509 1959.502)"/><path class="j" d="M576.951,675.388l-5.561-23.033,54.39-36.375Z" transform="translate(-867.216 1961.552)"/><path class="h" d="M622.15,615.98l-54.39,36.375-16.83-8.629Z" transform="translate(-863.586 1961.552)"/><path class="k" d="M578.15,675.388l3.644-19.7,45.185-39.707Z" transform="translate(-868.416 1961.552)"/><path class="h" d="M582.58,655.687l29.07,10.916,16.115-50.622Z" transform="translate(-869.201 1961.552)"/><rect class="l" width="372" height="4" rx="2" transform="translate(-613.682 2821.532)"/></g></svg>