<svg xmlns="http://www.w3.org/2000/svg" width="72" height="72" viewBox="0 0 72 72"><defs><style>.a{opacity:0;}.b,.c{fill:#2ad181;}.b{opacity:0.1;}</style></defs><g class="a"><rect class="b" width="72" height="72"/><rect class="c" width="48" height="48" transform="translate(12 12)"/></g><path class="c" d="M4,47a4,4,0,0,1-4-4V7A4,4,0,0,1,4,3h6V7H5A1,1,0,0,0,4,8V42a1,1,0,0,0,1,1H41a1,1,0,0,0,1-1V8a1,1,0,0,0-1-1H37V3h5a4,4,0,0,1,4,4V43a4,4,0,0,1-4,4Zm8-23V20H24v4ZM35,10H31V0h4V10h0ZM16,10H12V0h4V10h0ZM28,7H19V3h9V7h0Z" transform="translate(13 13)"/></svg>