<svg xmlns="http://www.w3.org/2000/svg" width="72" height="72" viewBox="0 0 72 72"><defs><style>.a{opacity:0;}.b,.c{fill:#2ad181;}.b{opacity:0.1;}</style></defs><g class="a" transform="translate(14958 -8372)"><rect class="b" width="72" height="72" transform="translate(-14958 8372)"/><rect class="b" width="48" height="48" transform="translate(-14946 8384)"/></g><path class="c" d="M1,38a1,1,0,0,1-1-1V35a1,1,0,0,1,1-1H29a1,1,0,0,1,1,1v2a1,1,0,0,1-1,1ZM1,21a1,1,0,0,1-1-1V18a1,1,0,0,1,1-1H27a1,1,0,0,1,1,1v2a1,1,0,0,1-1,1ZM1,4A1,1,0,0,1,0,3V1A1,1,0,0,1,1,0H35a1,1,0,0,1,1,1V3a1,1,0,0,1-1,1Z" transform="translate(16 17)"/></svg>