<svg xmlns="http://www.w3.org/2000/svg" xmlns:xlink="http://www.w3.org/1999/xlink" width="128" height="128" viewBox="0 0 128 128"><defs><style>.a{fill:#dff8ec;}.b{clip-path:url(#a);}.c{fill:#2ad181;stroke:#dff8ec;}</style><clipPath id="a"><rect class="a" width="128" height="128" rx="16"/></clipPath></defs><g class="b"><path class="a" d="M0,0H128V128H0Z"/><g transform="translate(28.857 28.854)"><g transform="translate(0 0)"><path class="c" d="M70.21,30.439a6.13,6.13,0,0,0-2.137-4.213L62,21.019V6.224a2.057,2.057,0,0,0-2.057-2.057h-8.23a2.034,2.034,0,0,0-2.03,2.057v4.215L39.269,1.564a6.14,6.14,0,0,0-8.027-.006L2.158,26.226a6.169,6.169,0,0,0-.667,8.706,6.236,6.236,0,0,0,6.769,1.8V68.221a2.034,2.034,0,0,0,2.03,2.057H59.941A2.057,2.057,0,0,0,62,68.221V36.73a6.171,6.171,0,0,0,8.212-6.291ZM53.769,8.281h4.142v9.211l-4.142-3.527ZM43.509,66.163H26.749V49.677H43.509Zm14.4,0H47.6V47.647a2.057,2.057,0,0,0-2.057-2.057H24.691a2.034,2.034,0,0,0-2.03,2.057V66.163H12.347V33.77l22.9-19.424L57.911,33.751V66.163Zm7.707-33.913a2.058,2.058,0,0,1-2.9.224L36.591,10.08a2.057,2.057,0,0,0-2.67-.007L7.515,32.473a2.058,2.058,0,0,1-2.687-3.117L33.913,4.689a2.048,2.048,0,0,1,2.679,0L65.4,29.35A2.06,2.06,0,0,1,65.619,32.251Z" transform="translate(-0.001 -0.068)"/></g><g transform="translate(26.775 24.672)"><path class="c" d="M209.856,179.938H197.237a2.034,2.034,0,0,0-2.03,2.057V194.34a2.034,2.034,0,0,0,2.03,2.057h12.619a2.057,2.057,0,0,0,2.057-2.057V182A2.057,2.057,0,0,0,209.856,179.938Zm-2.03,12.344h-8.531v-8.23h8.531Z" transform="translate(-195.207 -179.938)"/></g><g transform="translate(35.251 53.75)"><circle class="c" cx="2.057" cy="2.057" r="2.057"/></g></g></g></svg>