<svg xmlns="http://www.w3.org/2000/svg" width="108" height="108" viewBox="0 0 108 108"><defs><style>.a{fill:#00796b;}.b{fill:#fff;}</style></defs><g transform="translate(-284 -2116)"><circle class="a" cx="54" cy="54" r="54" transform="translate(284 2116)"/><path class="b" d="M359.363,556.9c-21.43,0-37.263,15.833-37.263,37.263s15.833,37.263,37.263,37.263,37.263-15.833,37.263-37.263S381.183,556.9,359.363,556.9Zm0,68.434a31.171,31.171,0,1,1,31.171-31.171A31.262,31.262,0,0,1,359.363,625.334Z" transform="translate(-22.1 1575.1)"/><g transform="translate(325 2150)"><path class="b" d="M97.029,8.692a.848.848,0,0,0-.626-.245H91.743A9.432,9.432,0,0,0,90,4.523h6.348a.837.837,0,0,0,.871-.872V.872A.838.838,0,0,0,96.348,0H73.678a.839.839,0,0,0-.872.872V4.5a.884.884,0,0,0,.872.872h3.951q5.749,0,7.3,3.079H73.678a.839.839,0,0,0-.872.872V12.1a.839.839,0,0,0,.872.871H85.313a5.324,5.324,0,0,1-2.793,3.406,12.3,12.3,0,0,1-5.79,1.172H73.678a.884.884,0,0,0-.872.872V21.88a.815.815,0,0,0,.245.6q5.231,5.558,13.569,15.558a.8.8,0,0,0,.681.327h5.313a.79.79,0,0,0,.79-.491.744.744,0,0,0-.109-.926q-7.955-9.755-12.506-14.6a13.819,13.819,0,0,0,7.521-3,10.186,10.186,0,0,0,3.515-6.376H96.4a.84.84,0,0,0,.872-.871V9.319A.848.848,0,0,0,97.029,8.692Z" transform="translate(-72.806)"/></g></g></svg>