<svg xmlns="http://www.w3.org/2000/svg" width="247.939" height="248.192" viewBox="0 0 247.939 248.192"><defs><style>.a{fill:#ea3447;opacity:0.06;isolation:isolate;}.b{fill:#fff;}.c,.h,.i,.k{fill:none;}.c,.d,.f{stroke:#000;}.c,.h,.i{stroke-linecap:round;}.c,.h{stroke-miterlimit:10;}.c,.e,.f,.g,.h,.i{stroke-width:3px;}.c,.f,.h{fill-rule:evenodd;}.e{fill:rgba(255,198,25,0.1);}.e,.i{stroke:#ffc619;}.f{fill:#54a0ff;}.g{fill:#d5f7e6;stroke:#29d281;}.h{stroke:#2ad181;stroke-linejoin:round;}.j{stroke:none;}</style></defs><g transform="translate(0 0)"><path class="a" d="M-1276.575,2054.478c39.359,96.519,103.314,37.747,117.742,92.9s-96.612,111.216-157.482,98.011-94.336-60.678-88.528-153.607S-1315.934,1957.958-1276.575,2054.478Z" transform="translate(1405.492 -1999.147)"/><g transform="translate(58.713 15.929)"><rect class="b" width="129.614" height="175.905" rx="14" transform="translate(1.424 20.286)"/><path class="c" d="M1662.02,427.613V551.154c0,5.15-4.628,9.324-10.337,9.324H1543.968c-5.709,0-10.337-4.174-10.337-9.324V526.8" transform="translate(-1532.088 -364.405)"/><path class="c" d="M1533.631,447.672V333.664a10.337,10.337,0,0,1,10.337-10.337h107.714a10.337,10.337,0,0,1,10.337,10.337v17.96" transform="translate(-1532.088 -302.854)"/><g class="d" transform="translate(0 152.749)"><ellipse class="j" cx="1.78" cy="1.78" rx="1.78" ry="1.78"/><ellipse class="k" cx="1.78" cy="1.78" rx="2.28" ry="2.28"/></g><path class="e" d="M91.09,140.777H6.944A6.952,6.952,0,0,1,0,133.833V6.944A6.952,6.952,0,0,1,6.944,0h7.694V11.017a4.885,4.885,0,0,0,4.88,4.88h59a4.886,4.886,0,0,0,4.88-4.88V0H91.09a6.952,6.952,0,0,1,6.944,6.944V133.833A6.952,6.952,0,0,1,91.09,140.777Z" transform="translate(16.72 38.704)"/><path class="f" d="M1675.146,293.1v29.315a4.871,4.871,0,0,1-4.88,4.86h-59a4.87,4.87,0,0,1-4.88-4.86V293.1h13.818v-.053a20.559,20.559,0,0,1,41.118,0v.053Z" transform="translate(-1575.029 -272.57)"/><g transform="translate(39.169 112.867)"><g class="g" transform="translate(0)"><ellipse class="j" cx="25.282" cy="25.282" rx="25.282" ry="25.282"/><ellipse class="k" cx="25.282" cy="25.282" rx="23.782" ry="23.782"/></g><path class="h" d="M1645.979,520.755l8.285,8.285,16.788-16.788" transform="translate(-1633.148 -495.651)"/></g><line class="i" x2="66.331" transform="translate(31.528 82.791)"/><line class="i" x2="66.331" transform="translate(31.528 94.255)"/><line class="i" x2="66.331" transform="translate(31.528 71.326)"/></g></g></svg>