<svg xmlns="http://www.w3.org/2000/svg" width="108" height="108" viewBox="0 0 108 108"><defs><style>.a{fill:#00796b;}.b{fill:none;}.c{fill:#fff;}</style></defs><g transform="translate(-690 -2116)"><circle class="a" cx="54" cy="54" r="54" transform="translate(690 2116)"/><g transform="translate(707.785 2133.982)"><g transform="translate(0)"><rect class="b" width="72" height="72" transform="translate(0.215 0.018)"/></g><g transform="translate(3.249 10.644)"><path class="c" d="M61,6A35.416,35.416,0,0,0,50.5,4.5C44.652,4.5,38.352,5.7,34,9c-4.35-3.3-10.651-4.5-16.5-4.5S5.35,5.7,1,9V52.952a1.613,1.613,0,0,0,1.5,1.5c.3,0,.45-.15.75-.15A36.618,36.618,0,0,1,17.5,51c5.85,0,12.151,1.2,16.5,4.5,4.05-2.55,11.4-4.5,16.5-4.5a30.536,30.536,0,0,1,14.251,3.15,1.352,1.352,0,0,0,.75.15A1.613,1.613,0,0,0,67,52.8V9A20.463,20.463,0,0,0,61,6Zm0,40.5A34.863,34.863,0,0,0,50.5,45c-5.1,0-12.451,1.95-16.5,4.5V15c4.05-2.55,11.4-4.5,16.5-4.5A34.863,34.863,0,0,1,61,12Z" transform="translate(-1 -4.5)"/><g transform="translate(36.002 13.501)"><path class="c" d="M26.5,13.5a35.084,35.084,0,0,1,7.5.78V9.72A40.512,40.512,0,0,0,26.5,9,34.522,34.522,0,0,0,13,11.49v4.98C16.39,14.55,21.1,13.5,26.5,13.5Z" transform="translate(-13 -9)"/><path class="c" d="M13,14.15v4.98c3.39-1.92,8.1-2.97,13.5-2.97a35.084,35.084,0,0,1,7.5.78V12.38a40.511,40.511,0,0,0-7.5-.72A35.075,35.075,0,0,0,13,14.15Z" transform="translate(-13 -3.68)"/><path class="c" d="M26.5,14.33A34.522,34.522,0,0,0,13,16.82V21.8c3.39-1.92,8.1-2.97,13.5-2.97a35.084,35.084,0,0,1,7.5.78V15.05A38.093,38.093,0,0,0,26.5,14.33Z" transform="translate(-13 1.661)"/></g></g></g></g></svg>