<svg xmlns="http://www.w3.org/2000/svg" width="95.003" height="95.003" viewBox="0 0 95.003 95.003"><defs><style>.a{fill:#dff8ec;}.b{fill:#2ad181;}</style></defs><g transform="translate(-4004 7980)"><circle class="a" cx="18" cy="18" r="18" transform="translate(4033 -7979)"/><rect class="a" width="73" height="15" rx="7" transform="translate(4015 -7933)"/><rect class="a" width="73" height="15" rx="7" transform="translate(4015 -7912)"/><g transform="translate(4004 -7980)"><path class="b" d="M89.9,12.851H65.571A19.161,19.161,0,0,0,47.5,0a18.927,18.927,0,0,0-8.645,2.062,1.392,1.392,0,0,0,1.26,2.482A16.169,16.169,0,0,1,47.5,2.783,16.345,16.345,0,1,1,35.084,8.5a1.392,1.392,0,0,0-2.114-1.811,19.1,19.1,0,0,0-3.533,6.162H5.1a5.108,5.108,0,0,0-5.1,5.1V89.9A5.108,5.108,0,0,0,5.1,95H89.9A5.108,5.108,0,0,0,95,89.9V17.954A5.108,5.108,0,0,0,89.9,12.851Zm0,2.783a2.322,2.322,0,0,1,2.319,2.319V28.3H64.284a19.193,19.193,0,0,0,2.024-12.662Zm-84.8,0H28.7A19.172,19.172,0,0,0,30.719,28.3H2.783V17.954A2.322,2.322,0,0,1,5.1,15.635ZM89.9,92.22H5.1A2.322,2.322,0,0,1,2.783,89.9V31.08h29.8a19.1,19.1,0,0,0,29.863-.024c.081.015,29.777.024,29.777.024V89.9A2.322,2.322,0,0,1,89.9,92.22Z"/><path class="b" d="M121.984,362.293H62.916c-10.295,0-10.312,15.994,0,15.994h59.068C132.278,378.287,132.3,362.293,121.984,362.293Zm0,13.211H62.916c-6.709,0-6.755-10.427,0-10.427h59.068C128.692,365.076,128.738,375.5,121.984,375.5Z" transform="translate(-44.948 -295.068)"/><path class="b" d="M115.25,397.891a1.392,1.392,0,0,0,0,2.783A1.392,1.392,0,0,0,115.25,397.891Z" transform="translate(-92.77 -324.061)"/><path class="b" d="M153.778,397.891a1.392,1.392,0,0,0,0,2.783A1.392,1.392,0,0,0,153.778,397.891Z" transform="translate(-124.149 -324.061)"/><path class="b" d="M192.306,397.891a1.392,1.392,0,0,0,0,2.783A1.392,1.392,0,0,0,192.306,397.891Z" transform="translate(-155.528 -324.061)"/><path class="b" d="M230.835,397.891a1.392,1.392,0,0,0,0,2.783A1.392,1.392,0,0,0,230.835,397.891Z" transform="translate(-186.908 -324.061)"/><path class="b" d="M269.363,397.891a1.392,1.392,0,0,0,0,2.783A1.392,1.392,0,0,0,269.363,397.891Z" transform="translate(-218.287 -324.061)"/><path class="b" d="M307.892,397.891a1.392,1.392,0,0,0,0,2.783A1.392,1.392,0,0,0,307.892,397.891Z" transform="translate(-249.667 -324.061)"/><path class="b" d="M346.42,397.891a1.392,1.392,0,0,0,0,2.783A1.392,1.392,0,0,0,346.42,397.891Z" transform="translate(-281.046 -324.061)"/><path class="b" d="M384.948,397.891a1.392,1.392,0,0,0,0,2.783A1.392,1.392,0,0,0,384.948,397.891Z" transform="translate(-312.425 -324.061)"/><path class="b" d="M121.984,249.118H62.916c-10.295,0-10.312,15.994,0,15.994h46.845a1.392,1.392,0,0,0,0-2.783H62.916c-6.709,0-6.755-10.427,0-10.427h59.068c6.709,0,6.755,10.427,0,10.427h-4.8a1.392,1.392,0,0,0,0,2.783h4.8C132.278,265.112,132.3,249.118,121.984,249.118Z" transform="translate(-44.948 -202.893)"/><path class="b" d="M221.524,42.1a4.954,4.954,0,0,0-4.949,4.949v3.282a3.252,3.252,0,0,0-2.906,3.229v7.182a3.251,3.251,0,0,0,3.247,3.247h9.215a3.251,3.251,0,0,0,3.247-3.247V53.562a3.251,3.251,0,0,0-2.906-3.229V47.051A4.954,4.954,0,0,0,221.524,42.1Zm-2.166,4.949c0-2.709,4.331-2.833,4.331,0v3.264h-4.331ZM226.6,60.744a.465.465,0,0,1-.464.464h-9.215a.465.465,0,0,1-.464-.464V53.562a.465.465,0,0,1,.464-.464h9.215a.465.465,0,0,1,.464.464Z" transform="translate(-174.022 -34.29)"/><path class="b" d="M166.662,286.108a1.392,1.392,0,0,0-1.392-1.392H115.227a1.392,1.392,0,0,0,0,2.783h50.044A1.392,1.392,0,0,0,166.662,286.108Z" transform="translate(-92.747 -231.886)"/><path class="b" d="M250.1,115.716a1.392,1.392,0,0,0,0,2.783A1.392,1.392,0,0,0,250.1,115.716Z" transform="translate(-202.598 -94.244)"/></g></g></svg>