<svg xmlns="http://www.w3.org/2000/svg" width="320" height="51.355" viewBox="0 0 320 51.355"><defs><style>.a{fill:#333335;}.b{fill:#185c29;}.c{fill:#fff;}.d{fill:#313133;}</style></defs><g transform="translate(0.11 -0.113)"><g transform="translate(-0.11 0.113)"><path class="a" d="M380.193,191.363l-8.817,9.957v10.353h-1.833v-36.16h1.833v23.331l20.705-23.331h2.328L381.53,190.076l14.812,21.6h-2.179Z" transform="translate(-157.878 -171.328)"/><path class="a" d="M411.951,204.017a12.749,12.749,0,0,1,12.831-12.879,11.752,11.752,0,0,1,10.947,7.083v-6.587h1.783V216.4h-1.783v-6.588a11.751,11.751,0,0,1-10.947,7.083A12.781,12.781,0,0,1,411.951,204.017Zm23.926,0a11.023,11.023,0,1,0-11.047,11.2A11.027,11.027,0,0,0,435.877,204.017Z" transform="translate(-170.711 -176.055)"/><path class="a" d="M456.065,212.314l1.437-1.139a9.92,9.92,0,0,0,8.223,4.062c4.805,0,7.281-2.576,7.281-5.647,0-3.467-3.715-4.309-7.53-5.3-4.011-1.04-8.123-2.328-8.123-6.638,0-3.665,3.269-6.589,8.322-6.589a11.055,11.055,0,0,1,8.421,3.517l-1.386,1.09a8.9,8.9,0,0,0-7.035-3.022c-4.062,0-6.539,2.08-6.539,4.953,0,3.319,3.566,4.21,7.331,5.2,4.062,1.041,8.322,2.23,8.322,6.786,0,3.616-3.021,7.282-9.114,7.282A11.7,11.7,0,0,1,456.065,212.314Z" transform="translate(-184.061 -176.03)"/><g transform="translate(0 0)"><path class="b" d="M18.44,0A18.442,18.442,0,1,1,0,18.442,18.442,18.442,0,0,1,18.44,0Z" transform="translate(0 35.922) rotate(-76.881)"/><path class="c" d="M95.579,191.722h4.533l-3.034,3.724H95.545a9.338,9.338,0,0,1-6.939,7.12l5.67,7-4.8-.035L81.678,199.9s3.555-.009,4.766-.008h0l.78-.216a6.441,6.441,0,0,0,4.31-4.226H81.053l3.082-3.724H91.59a6.431,6.431,0,0,0-3.919-4.24H81.052l3.082-3.717h15.978l-3.034,3.717H93.537A9.267,9.267,0,0,1,95.579,191.722Z" transform="translate(-69.834 -173.826)"/></g><g transform="translate(55.404 3.688)"><path class="a" d="M142.37,193.377a18.551,18.551,0,1,1,18.576,18.576A18.334,18.334,0,0,1,142.37,193.377Zm35.22,0a16.645,16.645,0,1,0-16.645,16.792A16.691,16.691,0,0,0,177.59,193.377Z" transform="translate(-142.37 -174.801)"/><path class="a" d="M205.166,175.512h10.551c8.124,0,13.275,5.152,13.275,12.086s-5.152,12.186-13.275,12.186H207v11.888h-1.833ZM207,177.2V198.05h8.669c7.083,0,11.443-4.508,11.443-10.452,0-5.994-4.359-10.4-11.443-10.4Z" transform="translate(-161.373 -175.016)"/><path class="a" d="M248.924,175.512h10.551c8.124,0,13.275,5.152,13.275,12.086s-5.152,12.186-13.275,12.186h-8.719v11.888h-1.833Zm1.833,1.684V198.05h8.669c7.084,0,11.443-4.508,11.443-10.452,0-5.994-4.359-10.4-11.443-10.4Z" transform="translate(-174.614 -175.016)"/><path class="a" d="M291.759,193.377a18.551,18.551,0,1,1,18.576,18.576A18.334,18.334,0,0,1,291.759,193.377Zm35.219,0a16.644,16.644,0,1,0-16.644,16.792A16.691,16.691,0,0,0,326.978,193.377Z" transform="translate(-187.577 -174.801)"/></g><path class="a" d="M491.938,175.512h1.734V192.6a10.677,10.677,0,0,1,10.006-6.192c6.589,0,11.146,4.26,11.146,11.294v13.969h-1.833V197.7c0-5.845-3.617-9.659-9.511-9.659a9.54,9.54,0,0,0-9.759,9.659v13.969h-1.783Z" transform="translate(-194.892 -171.328)"/><g transform="translate(294.083 45.771)"><path class="d" d="M488.719,238.778v.6H488.4V235.14h.325v1.935a1.372,1.372,0,0,1,1.166-.657,1.511,1.511,0,1,1,0,3.022,1.37,1.37,0,0,1-1.172-.662Zm2.332-.848a1.184,1.184,0,1,0-.334.849A1.183,1.183,0,0,0,491.051,237.93Z" transform="translate(-488.4 -235.14)"/><path class="d" d="M494.42,239.8l-1.282-2.742h.365l1.1,2.365,1.021-2.365h.36l-1.874,4.248h-.354Z" transform="translate(-489.835 -235.724)"/><path class="d" d="M499.47,236.481h.5V236.2c0-.837.232-1.057,1.044-1.057h.03v.308c-.633,0-.743.111-.743.755v.273h.743v.3H500.3v2.608h-.33v-2.608h-.5Z" transform="translate(-491.751 -235.144)"/><path class="d" d="M502.728,235.336a.289.289,0,0,1,.3.291.295.295,0,1,1-.3-.291Zm-.162,1.2h.33v2.905h-.33Z" transform="translate(-492.635 -235.202)"/><path class="d" d="M504.313,237.033h.319v.546a1.206,1.206,0,0,1,1.079-.6,1.219,1.219,0,0,1,1.282,1.337v1.627h-.33v-1.627a.938.938,0,0,0-.992-1.034,1.015,1.015,0,0,0-1.033,1.04v1.621h-.324Z" transform="translate(-493.217 -235.696)"/><path class="d" d="M508.932,239.453l.266-.221a1.124,1.124,0,0,0,.934.471c.5,0,.759-.267.759-.581,0-.36-.411-.435-.835-.54-.464-.116-.969-.267-.969-.808,0-.43.4-.808,1.021-.808a1.4,1.4,0,0,1,1.055.435l-.25.2a1.028,1.028,0,0,0-.806-.355c-.447,0-.7.227-.7.518,0,.342.394.435.817.54.476.116.986.255.986.813,0,.4-.342.872-1.1.872A1.452,1.452,0,0,1,508.932,239.453Z" transform="translate(-494.614 -235.693)"/><path class="d" d="M513.208,235.145h.325v1.871a1.281,1.281,0,0,1,2.361.743v1.626h-.337v-1.627a.935.935,0,0,0-.992-1.034,1.013,1.013,0,0,0-1.026,1.04v1.621h-.331Z" transform="translate(-495.908 -235.144)"/><path class="d" d="M518.039,238.5a1.484,1.484,0,0,1,1.5-1.529,1.43,1.43,0,0,1,1.485,1.476v.145h-2.673a1.157,1.157,0,0,0,1.206,1.1,1.126,1.126,0,0,0,1.1-.726l.29.139a1.424,1.424,0,0,1-1.381.884A1.438,1.438,0,0,1,518.039,238.5Zm.325-.209h2.319a1.09,1.09,0,0,0-1.143-1.023A1.183,1.183,0,0,0,518.364,238.29Z" transform="translate(-497.367 -235.693)"/><path class="d" d="M523.68,235.141v4.241h-.336V235.14Z" transform="translate(-498.976 -235.14)"/><path class="d" d="M525.418,235.141v4.241h-.336V235.14Z" transform="translate(-499.501 -235.14)"/></g></g></g></svg>