<svg xmlns="http://www.w3.org/2000/svg" width="160.532" height="127.995" viewBox="0 0 160.532 127.995"><defs><style>.a{fill:#fff;}.b{fill:#dff8ec;}.c{fill:#005e18;}</style></defs><g transform="translate(-233 -2682)"><g transform="translate(284.184 2682)"><path class="a" d="M115.581,38.772a6.6,6.6,0,0,1-1.083-8.719c5.293-7.657,14.023-21.724,7.458-22.693-4.526-.668-14.536,4.874-24.546,4.874S77.388,6.692,72.862,7.36C66.3,8.329,75.026,22.4,80.319,30.053a6.6,6.6,0,0,1-1.083,8.719C68.3,48.35,41.868,74.4,44.783,100.28c3.665,32.53,52.626,31.337,52.626,31.337s48.961,1.193,52.626-31.337C152.949,74.4,126.518,48.35,115.581,38.772Z" transform="translate(-42.734 -5.479)"/><path class="b" d="M257.005,38.773a6.6,6.6,0,0,1-1.083-8.719C261.215,22.4,269.945,8.33,263.38,7.361a9.41,9.41,0,0,0-3.035.192c-2.289,5.855-11.981,16.881-15.865,22.5a6.6,6.6,0,0,0,1.083,8.719c10.937,9.578,37.369,35.633,34.454,61.508-2.887,25.622-33.874,30.323-46.9,31.164,3.513.227,5.721.173,5.721.173s48.961,1.193,52.626-31.337C294.374,74.406,267.942,48.351,257.005,38.773Z" transform="translate(-184.159 -5.48)"/><g transform="translate(31.199 26.72)"><path class="b" d="M205.16,114.644H165.949a3.87,3.87,0,0,1-3.87-3.87h0a3.87,3.87,0,0,1,3.87-3.87h39.212a3.87,3.87,0,0,1,3.87,3.87h0A3.87,3.87,0,0,1,205.16,114.644Z" transform="translate(-162.079 -106.904)"/></g><path class="c" d="M142.267,71.479A91.5,91.5,0,0,0,129.6,50.962a1.826,1.826,0,0,0-2.857,2.275,87.873,87.873,0,0,1,12.171,19.684c3.3,7.675,4.585,14.967,3.829,21.676a26.458,26.458,0,0,1-9.126,17.423c-4.305,3.773-10.088,6.759-17.189,8.875a89.784,89.784,0,0,1-24.452,3.418h-.088A89.885,89.885,0,0,1,67.434,120.9c-7.1-2.116-12.884-5.1-17.189-8.875A26.458,26.458,0,0,1,41.119,94.6C39.912,83.88,43.854,71.9,52.836,58.979A139.434,139.434,0,0,1,73.145,36.286h37.57c2.362,2.139,5.4,5.024,8.616,8.432a1.826,1.826,0,0,0,2.656-2.507c-2.549-2.7-4.987-5.079-7.081-7.033a5.693,5.693,0,0,0-3.37-10.284h-.522a106.7,106.7,0,0,0,6.7-11.031c2.726-5.352,3.523-8.931,2.51-11.264A4.3,4.3,0,0,0,116.743.076c-2.444-.361-5.668.62-9.75,1.863-4.609,1.4-9.833,2.992-15.063,2.992S81.476,3.341,76.867,1.938C72.785.7,69.56-.285,67.116.076A4.3,4.3,0,0,0,63.631,2.6c-1.013,2.333-.215,5.912,2.51,11.264a106.728,106.728,0,0,0,6.7,11.031h-.522a5.693,5.693,0,0,0-3.372,10.282C56.3,46.973,34.773,70.9,37.49,95.006c1.587,14.087,11.609,24.258,28.982,29.413a91.978,91.978,0,0,0,25.458,3.545c.109,0,.362.006.744.006a92.6,92.6,0,0,0,24.714-3.552c17.373-5.155,27.4-15.326,28.982-29.413C147.2,87.659,145.817,79.744,142.267,71.479ZM66.98,4.054c.049-.114.124-.285.669-.366,1.633-.24,4.8.723,8.154,1.743,4.612,1.4,10.353,3.151,16.126,3.151s11.514-1.747,16.126-3.151c3.353-1.021,6.522-1.983,8.154-1.743.545.08.62.252.669.366.162.373,1.277,4.092-9.362,19.482a8.465,8.465,0,0,0-.765,1.358H77.107a8.445,8.445,0,0,0-.765-1.358C65.7,8.146,66.819,4.427,66.98,4.054Zm5.344,24.492h39.212a2.044,2.044,0,0,1,0,4.088H72.324a2.044,2.044,0,1,1,0-4.088Z" transform="translate(-37.255 0)"/></g><g transform="translate(233 2701.133)"><path class="a" d="M78.958,21V14.783a7.469,7.469,0,0,0-7.469-7.469H19.958a7.469,7.469,0,0,0-7.469,7.469V21a7.469,7.469,0,0,0,7.469,7.469,7.469,7.469,0,0,0-7.469,7.469v6.212a7.469,7.469,0,0,0,7.469,7.469,7.469,7.469,0,0,0-7.469,7.469V63.3a7.469,7.469,0,0,0,7.469,7.469,7.469,7.469,0,0,0-7.469,7.469v6.212a7.469,7.469,0,0,0,7.469,7.469,7.469,7.469,0,0,0-7.469,7.469V105.6a7.469,7.469,0,0,0,7.469,7.469H71.489a7.469,7.469,0,0,0,7.469-7.469V99.385a7.469,7.469,0,0,0-7.469-7.469,7.469,7.469,0,0,0,7.469-7.469V78.234a7.469,7.469,0,0,0-7.469-7.469A7.469,7.469,0,0,0,78.958,63.3V57.084a7.469,7.469,0,0,0-7.469-7.469,7.469,7.469,0,0,0,7.469-7.469V35.934a7.469,7.469,0,0,0-7.469-7.469A7.469,7.469,0,0,0,78.958,21Z" transform="translate(-10.934 -5.759)"/><g transform="translate(1.555 1.555)"><path class="b" d="M78.948,14.4a7.466,7.466,0,0,0-.225-1.482q-.046-.179-.1-.354t-.117-.347a7.431,7.431,0,0,0-.448-.992q-.086-.159-.18-.313-.187-.308-.4-.6t-.456-.553q-.124-.137-.256-.267c-.029-.029-.06-.057-.09-.086-.059-.057-.118-.114-.179-.169-.037-.033-.074-.064-.111-.1-.056-.049-.112-.1-.169-.145-.041-.033-.082-.065-.124-.1s-.112-.088-.169-.13-.088-.063-.133-.094-.114-.08-.171-.118-.093-.06-.14-.09-.116-.073-.175-.108l-.146-.084c-.059-.034-.119-.067-.179-.1L74.824,8.1q-.091-.046-.184-.089l-.156-.071Q74.39,7.9,74.3,7.86l-.16-.063c-.064-.024-.129-.047-.194-.07l-.163-.055c-.066-.021-.133-.041-.2-.061s-.109-.032-.164-.047-.138-.035-.207-.051-.11-.026-.165-.038c-.072-.015-.144-.028-.217-.041-.054-.01-.108-.02-.162-.029-.077-.012-.154-.021-.232-.031-.051-.006-.1-.014-.154-.02-.087-.009-.174-.015-.261-.021-.043,0-.086-.008-.13-.01-.131-.007-.264-.011-.4-.011H67.527a7.435,7.435,0,0,1,1.616,4.637v4.139c0,.015,0,.03,0,.045a3.79,3.79,0,0,1-3.812,3.726H12.489v1.135a7.469,7.469,0,0,0,7.469,7.469H64.5A4.66,4.66,0,0,1,69.143,33.1v4.139c0,.014,0,.027,0,.041a3.793,3.793,0,0,1-3.816,3.73H15.719a3.766,3.766,0,0,0-3.2,1.738,7.468,7.468,0,0,0,7.408,6.866H64.5a4.636,4.636,0,0,1,4.642,4.595c0,.014,0,.029,0,.043V58.39a2.661,2.661,0,0,1-.227,1.155A4.343,4.343,0,0,1,64.9,62.159H12.489V63.3a7.469,7.469,0,0,0,7.469,7.469H64.5A4.661,4.661,0,0,1,69.144,75.4v4.16a3.769,3.769,0,0,1-3.776,3.747H12.489v1.137a7.469,7.469,0,0,0,7.469,7.469H64.5a4.661,4.661,0,0,1,4.645,4.637v4.16a3.769,3.769,0,0,1-3.776,3.746H12.489V105.6a7.469,7.469,0,0,0,7.469,7.469H71.489c.117,0,.232,0,.348-.009s.221-.013.331-.023h.02l.022,0c.1-.01.2-.023.3-.036l.065-.008c.095-.014.189-.031.282-.048l.018,0,.063-.011c.09-.018.178-.038.267-.059l.09-.021c.085-.021.169-.045.253-.069l.042-.012.056-.016c.081-.024.161-.051.24-.078l.051-.017.052-.018c.077-.027.153-.057.229-.087l.066-.026.04-.016c.074-.03.147-.063.219-.1l.049-.022.059-.027c.07-.033.14-.068.209-.1l.049-.025.062-.031c.067-.035.133-.072.2-.109l.113-.065c.064-.038.126-.077.189-.116l.046-.029.067-.043q.091-.06.179-.122l.055-.039.057-.041c.057-.042.114-.084.17-.128l.052-.041.06-.047q.081-.065.16-.133l.091-.079.02-.017q.076-.068.151-.137l.084-.08.026-.024q.072-.069.142-.141l.048-.05.059-.062q.067-.072.133-.145c.035-.039.069-.079.1-.119s.083-.1.124-.149l.085-.109.014-.019q.058-.075.115-.152l.015-.021.08-.113c.036-.051.072-.1.107-.155s.061-.094.091-.142.066-.1.1-.157c.023-.038.044-.076.066-.114l.02-.035c.03-.053.06-.105.088-.159s.054-.1.08-.157.054-.107.08-.161.05-.109.074-.164.048-.108.071-.163c.012-.03.024-.059.035-.089l.033-.083c.021-.054.042-.108.062-.162l.006-.019c.019-.054.037-.108.055-.162s.036-.107.053-.161.026-.091.039-.136l.014-.051c.015-.054.031-.108.045-.163.007-.029.014-.059.02-.088s.017-.072.025-.108c.012-.053.025-.107.036-.161.008-.038.014-.076.02-.114s.011-.062.017-.093c.009-.052.019-.1.027-.155s.009-.077.015-.115.009-.07.013-.1.013-.1.018-.149c.009-.085.014-.17.02-.256,0-.039.007-.078.009-.118q.01-.188.01-.379V99.384q0-.193-.01-.384a7.494,7.494,0,0,0-.076-.753q-.055-.36-.144-.709c-.009-.036-.02-.072-.03-.108-.021-.076-.041-.152-.064-.227-.013-.043-.027-.084-.041-.127-.022-.068-.045-.136-.069-.2-.016-.044-.032-.087-.048-.13q-.037-.1-.077-.194c-.017-.043-.035-.085-.053-.128-.028-.065-.057-.129-.087-.193-.018-.04-.037-.08-.056-.119-.034-.069-.069-.137-.105-.205-.017-.033-.034-.066-.051-.1q-.163-.3-.353-.58l-.063-.091c-.043-.063-.087-.125-.132-.186l-.079-.1c-.043-.055-.085-.11-.129-.165l-.087-.105q-.066-.078-.134-.155l-.092-.1q-.071-.077-.144-.151c-.03-.031-.061-.063-.092-.093-.054-.053-.109-.105-.165-.157-.027-.025-.053-.051-.081-.076q-.124-.112-.253-.219l-.005,0c-.086-.071-.174-.14-.263-.207-.03-.023-.061-.044-.091-.066-.061-.045-.122-.089-.185-.132l-.11-.073c-.058-.038-.117-.076-.176-.113l-.118-.071q-.088-.052-.178-.1L75,92.788c-.062-.033-.124-.065-.187-.1l-.119-.059c-.069-.033-.139-.064-.209-.094l-.1-.046q-.156-.066-.316-.125l-.007,0c-.107-.039-.214-.075-.323-.109l-.11-.032c-.074-.022-.149-.044-.224-.064l-.132-.033c-.07-.017-.139-.033-.21-.048l-.14-.028q-.1-.02-.209-.037l-.142-.022c-.072-.01-.144-.019-.217-.027l-.138-.015c-.079-.008-.159-.013-.239-.018l-.12-.008q-.178-.009-.358-.009h0c.117,0,.232,0,.348-.009s.221-.013.331-.023h.02l.022,0c.1-.01.2-.023.3-.036l.065-.008c.095-.014.189-.031.282-.048l.018,0,.063-.011c.09-.018.178-.038.267-.059l.09-.021c.085-.021.169-.045.253-.069l.042-.012.056-.016c.081-.024.161-.051.24-.078l.051-.017.052-.018c.077-.027.153-.057.229-.087l.066-.026.04-.016c.074-.03.147-.062.219-.1l.049-.022.059-.027c.07-.033.14-.068.209-.1l.049-.025.062-.031c.067-.035.133-.072.2-.11l.113-.065c.064-.038.126-.077.189-.116l.046-.029.067-.043q.091-.06.179-.122l.036-.026.076-.054q.086-.063.17-.128l.111-.088q.081-.065.161-.133l.11-.1q.077-.068.151-.137l.092-.088.016-.015q.072-.07.142-.142l.107-.112q.067-.072.133-.145l.029-.033.075-.086c.042-.049.084-.1.124-.149s.067-.084.1-.127.077-.1.115-.152.064-.09.1-.135.072-.1.106-.155.061-.094.091-.141.066-.1.1-.158.058-.1.086-.149.06-.106.088-.159c.017-.031.032-.063.049-.1l.031-.062c.027-.054.054-.107.08-.161s.05-.109.074-.164.048-.108.071-.163.045-.114.067-.171h0c.021-.054.043-.108.062-.163.014-.038.026-.077.039-.116l.021-.063c.018-.054.037-.108.054-.163.011-.037.022-.076.032-.114l.021-.074c.015-.054.031-.108.045-.162s.03-.13.045-.2.025-.107.036-.161c0-.011,0-.022.006-.033.011-.057.021-.115.031-.172s.019-.1.027-.158c.005-.034.009-.069.013-.1s.01-.077.015-.115.013-.1.019-.149c.007-.066.01-.133.015-.2,0-.017,0-.033,0-.05,0-.042.007-.083.009-.125q.01-.188.01-.379V78.233q0-.193-.01-.384a7.493,7.493,0,0,0-.076-.753c-.034-.224-.08-.444-.134-.661-.035-.142-.073-.283-.116-.422q-.055-.175-.117-.347a7.467,7.467,0,0,0-1.487-2.454q-.124-.137-.256-.267c-.029-.029-.06-.057-.09-.086-.059-.057-.118-.114-.179-.169-.037-.033-.074-.064-.111-.1-.056-.049-.112-.1-.169-.145-.041-.033-.082-.065-.124-.1s-.112-.088-.169-.13-.088-.063-.132-.094-.114-.08-.172-.119-.093-.06-.14-.09-.116-.073-.175-.108l-.146-.084c-.06-.034-.119-.067-.18-.1l-.151-.077c-.061-.031-.123-.06-.185-.089l-.155-.07-.19-.08-.159-.063c-.064-.024-.129-.048-.195-.07l-.163-.055c-.066-.021-.133-.041-.2-.061s-.109-.032-.164-.047-.138-.035-.207-.051-.109-.026-.165-.038c-.072-.015-.144-.028-.217-.041-.054-.01-.108-.02-.162-.029-.077-.012-.154-.021-.232-.031-.051-.006-.1-.014-.154-.02-.087-.009-.174-.015-.261-.021-.043,0-.086-.008-.13-.01-.131-.007-.264-.011-.4-.011.117,0,.232,0,.348-.009s.223-.013.334-.024h.008l.031,0c.1-.01.2-.023.306-.037l.063-.008c.1-.014.19-.031.284-.048l.031-.006.047-.009c.09-.018.179-.038.268-.059l.039-.009.05-.011c.085-.021.17-.045.254-.069l.1-.027c.081-.024.162-.051.242-.078l.1-.034c.078-.028.154-.057.23-.087l.105-.041c.074-.03.147-.063.22-.1l.108-.049c.071-.033.14-.068.21-.1l.11-.056c.067-.035.134-.072.2-.11l.111-.064c.064-.038.127-.077.19-.117l.112-.072c.061-.04.121-.081.18-.122l.046-.032.067-.047q.086-.063.171-.128l.01-.008.1-.079q.082-.066.161-.134l.11-.1q.077-.068.152-.138l.105-.1,0,0q.072-.07.143-.142l.027-.029.078-.082c.045-.048.09-.1.134-.146l.1-.118q.063-.074.125-.149l.014-.018.085-.108c.039-.05.078-.1.115-.153s.064-.089.1-.134.072-.1.107-.156.061-.094.091-.141.066-.1.1-.158l.038-.066.048-.084c.03-.053.06-.106.089-.159s.054-.1.08-.157.054-.107.08-.161.05-.109.074-.163.049-.108.071-.163.045-.114.067-.171.043-.109.063-.164l.012-.037c.016-.047.032-.094.048-.141s.037-.109.054-.164.035-.123.053-.185h0c.015-.055.031-.109.045-.164.007-.03.014-.06.021-.089l.024-.106c.012-.054.025-.107.036-.161s.025-.138.037-.207c.009-.052.019-.1.027-.156,0-.021.005-.042.008-.063q.01-.077.02-.155c.006-.05.013-.1.018-.15.008-.083.014-.167.019-.251,0-.041.007-.082.009-.123q.01-.188.01-.379h0V57.082q0-.193-.01-.384a7.49,7.49,0,0,0-.076-.753c-.034-.224-.08-.444-.134-.661-.035-.142-.073-.283-.116-.422q-.055-.175-.117-.347A7.467,7.467,0,0,0,77.02,52.06q-.124-.137-.256-.267c-.029-.029-.06-.057-.09-.086-.059-.057-.118-.114-.179-.169-.037-.033-.074-.064-.111-.1-.056-.049-.112-.1-.169-.145-.041-.033-.082-.065-.124-.1s-.112-.088-.169-.13-.088-.063-.132-.094-.114-.08-.172-.119-.093-.06-.14-.09-.116-.073-.175-.108l-.146-.084q-.089-.05-.18-.1l-.151-.077q-.092-.046-.185-.089l-.155-.07-.19-.08-.159-.063c-.064-.024-.129-.048-.195-.07l-.163-.055c-.066-.021-.133-.041-.2-.061l-.164-.047c-.069-.018-.138-.035-.207-.051s-.109-.026-.165-.038c-.072-.015-.144-.028-.217-.041-.054-.01-.108-.02-.162-.029-.077-.012-.154-.021-.232-.031-.051-.006-.1-.014-.154-.02-.087-.009-.174-.015-.261-.021-.043,0-.086-.008-.13-.01-.131-.007-.264-.011-.4-.011h.034q.157,0,.313-.008h0a7.512,7.512,0,0,0,.9-.1l.025,0q.205-.035.406-.082l.038-.009c.14-.033.279-.069.415-.11h0q.165-.049.326-.106h0l.017-.006q.155-.055.307-.116l.028-.011c.1-.04.195-.082.29-.126l.037-.017q.139-.064.274-.135l.018-.009.028-.014q.131-.069.259-.143l.052-.03c.083-.048.164-.1.245-.15l.057-.037q.117-.077.231-.157l.061-.044q.11-.08.217-.164l.059-.046.006,0c.069-.055.137-.112.2-.169l.064-.056,0,0q.1-.085.192-.174l.069-.066q.091-.088.179-.178l.07-.073q.085-.09.167-.183L77.16,47c.053-.061.1-.123.155-.186l.013-.016.057-.072c.049-.063.1-.126.144-.19l.012-.017.056-.079c.045-.064.09-.128.132-.193l.015-.024.051-.08c.041-.064.081-.129.12-.194.022-.037.043-.074.064-.111.037-.065.074-.13.109-.2.021-.039.041-.08.061-.119.033-.065.067-.131.1-.2h0c.02-.042.038-.084.057-.127.03-.066.059-.132.087-.2.018-.044.035-.09.053-.134.026-.066.052-.132.076-.2.017-.047.032-.1.048-.142.022-.066.045-.132.065-.2l0-.013c.014-.046.026-.093.04-.139.019-.065.037-.13.054-.2.007-.029.013-.058.02-.087l.017-.074c.015-.065.031-.129.044-.195,0-.018.006-.036.01-.054.008-.04.014-.08.021-.119.011-.063.023-.125.033-.188s.016-.124.024-.186.016-.121.023-.182c0-.039.006-.079.009-.119s.005-.066.008-.1c0-.051.009-.1.011-.154.006-.119.009-.239.009-.36,0-.006,0-.013,0-.019V35.933a7.469,7.469,0,0,0-7.469-7.469c.117,0,.232,0,.347-.009h0c.09,0,.179-.011.267-.018l.048,0,.034,0c.081-.007.162-.017.242-.027l.108-.014c.077-.011.153-.023.229-.036l.071-.013.045-.008q.111-.021.22-.045l.118-.027c.072-.017.144-.035.216-.054l.074-.021.04-.011c.072-.021.144-.041.214-.064L73.8,28.1l.068-.023q.182-.061.36-.131h0q.178-.07.351-.149l.112-.051c.058-.027.115-.057.172-.086L75,27.59c.054-.028.106-.058.159-.088l.139-.08c.05-.03.1-.06.15-.091l.138-.088,0,0,.141-.095.021-.015.122-.087c.044-.032.088-.063.131-.1s.1-.077.147-.116.079-.062.117-.094c.059-.049.117-.1.174-.151.027-.024.054-.047.081-.071l0,0q.13-.119.255-.244l.005-.005,0,0c.081-.082.161-.166.239-.251l0,0,.013-.015c.075-.083.148-.167.219-.253l.03-.038c.065-.08.129-.161.191-.244h0l.034-.047c.059-.08.118-.161.174-.244l.034-.054c.054-.082.108-.164.159-.249l.024-.042c.013-.021.025-.044.038-.065.04-.068.08-.136.118-.205.013-.024.025-.049.038-.074l.012-.024c.039-.074.078-.148.114-.224.016-.034.031-.068.046-.1.035-.076.07-.151.1-.228.016-.037.03-.076.045-.113.03-.075.061-.149.089-.225.008-.023.016-.047.024-.07s.022-.065.033-.1c.021-.059.041-.118.06-.178.007-.022.013-.045.019-.068l0-.009.024-.084c.018-.064.038-.128.055-.193s.035-.148.051-.223c.011-.046.022-.092.032-.138s.017-.094.025-.141l.007-.037,0-.027c.01-.054.021-.108.029-.163.005-.034.009-.069.013-.1s.009-.073.014-.11c.007-.053.015-.106.02-.16q.019-.188.029-.379t.01-.384V14.782C78.958,14.654,78.955,14.525,78.948,14.4Z" transform="translate(-12.489 -7.313)"/><ellipse class="b" cx="37.083" cy="37.083" rx="37.083" ry="37.083" transform="translate(29.387 31.586)"/></g><path class="b" d="M306.932,155.873a37.441,37.441,0,0,0-4.907.324,37.085,37.085,0,0,1,0,73.518,37.084,37.084,0,1,0,4.907-73.841Z" transform="translate(-238.908 -122.731)"/><path class="a" d="M29.476,0A29.476,29.476,0,1,1,0,29.476,29.476,29.476,0,0,1,29.476,0Z" transform="translate(38.589 40.627)"/><path class="c" d="M239.743,216.423a1.556,1.556,0,0,0-1.683,1.415,27.881,27.881,0,1,1-.794-9.466,1.555,1.555,0,0,0,3.011-.782,31.055,31.055,0,1,0,.882,10.516A1.555,1.555,0,0,0,239.743,216.423Z" transform="translate(-142.218 -145.191)"/><path class="c" d="M73.2,31.587A38.5,38.5,0,0,0,46.521,42.3H14.2a5.921,5.921,0,0,1-5.914-5.914V30.175A5.921,5.921,0,0,1,14.2,24.261H65.73a5.887,5.887,0,0,1,5.649,4.155,1.555,1.555,0,1,0,2.97-.924A9,9,0,0,0,70.8,22.7a9.021,9.021,0,0,0,3.952-7.461V9.024A9.035,9.035,0,0,0,65.73,0H14.2A9.035,9.035,0,0,0,5.175,9.024v6.212A9.023,9.023,0,0,0,9.14,22.705a9.023,9.023,0,0,0-3.965,7.469v6.212A9.023,9.023,0,0,0,9.14,43.856a9.023,9.023,0,0,0-3.965,7.469v6.212A9.023,9.023,0,0,0,9.14,65.007a9.023,9.023,0,0,0-3.965,7.469v6.212A9.023,9.023,0,0,0,9.14,86.157a9.023,9.023,0,0,0-3.965,7.469v6.212a9.035,9.035,0,0,0,9.024,9.024H54.773a1.555,1.555,0,0,0,0-3.11H14.2a5.921,5.921,0,0,1-5.914-5.914V93.626A5.921,5.921,0,0,1,14.2,87.712H38.751A38.636,38.636,0,1,0,73.2,31.587ZM8.285,15.236V9.024A5.921,5.921,0,0,1,14.2,3.11H65.73a5.921,5.921,0,0,1,5.914,5.914v6.212A5.921,5.921,0,0,1,65.73,21.15H14.2A5.921,5.921,0,0,1,8.285,15.236Zm0,42.3V51.325A5.921,5.921,0,0,1,14.2,45.411H43.607a38.505,38.505,0,0,0-8.444,18.04H14.2A5.921,5.921,0,0,1,8.285,57.537ZM37.337,84.6H14.2a5.921,5.921,0,0,1-5.914-5.914V72.476A5.921,5.921,0,0,1,14.2,66.562H34.736c-.114,1.206-.175,2.428-.175,3.663A38.433,38.433,0,0,0,37.337,84.6ZM73.2,105.752a35.527,35.527,0,1,1,35.527-35.528A35.568,35.568,0,0,1,73.2,105.752Z" transform="translate(-5.175)"/><path class="c" d="M272.7,280.388h5.9l3.717-4.534H258.806l-3.717,4.534h8.972a8.682,8.682,0,0,1,6.374,5.363H258.806l-3.717,4.534h15.262c-1.145,3.012-4.4,5.228-8.3,5.412l-6.279.058,11.369,11.6h6.746l-7.86-8.023c4.816-1.346,8.5-4.792,9.51-9.051h3.06l3.717-4.534h-6.724A11.225,11.225,0,0,0,272.7,280.388Z" transform="translate(-200.742 -221.422)"/></g></g></svg>