<svg xmlns="http://www.w3.org/2000/svg" width="130.374" height="127.769" viewBox="0 0 130.374 127.769"><defs><style>.a{fill:#fff;}.b{fill:#dff8ec;}.c{fill:#0a6d34;}</style></defs><g transform="translate(0 -5.115)"><path class="a" d="M172.272,182.552l-5.34-1.71a4.126,4.126,0,0,1-2.673-2.7c-6.145-19.541-28.964-28.516-51.934-28.516-26.872,0-48.657,12.28-48.657,39.4,0,15.629,7.666,26.576,19.509,32.9a1.093,1.093,0,0,1,.561.756l2.653,13.782a2.75,2.75,0,0,0,2.7,2.238h8.96a2.75,2.75,0,0,0,2.7-2.238l1.45-7.662a1.094,1.094,0,0,1,1.205-.88,77.338,77.338,0,0,0,8.914.5,81.17,81.17,0,0,0,12.1-.9,1.094,1.094,0,0,1,1.243.875l1.526,8.064a2.75,2.75,0,0,0,2.7,2.238h8.96a2.75,2.75,0,0,0,2.7-2.238l2.756-14.592a1.092,1.092,0,0,1,.572-.765c7.033-3.657,12.852-8.688,16.563-15.1a3.969,3.969,0,0,1,2.217-1.807l8.6-2.756a5.268,5.268,0,0,0,3.661-5.017v-8.855A5.268,5.268,0,0,0,172.272,182.552Z" transform="translate(-47.456 -107.715)"/><g transform="translate(16.212 37.86)"><path class="a" d="M175.261,277.666a5.279,5.279,0,0,0-.853-1.139l-.021-.022a5.257,5.257,0,0,0-2.117-1.29l-3.959-1.268,2,4.657c0,5.786-.686,10.928-6.166,12.787l-5,4c-2.492.8-4.646,4.377-6.224,6.463-1.933,2.555-4.23,3.851-6.818,5.889-3.052,2.4-5.11,2.84-5.7,6.679-.419,2.737-.745,6.417-.952,8.487a3.113,3.113,0,0,1-3.1,2.8h-4.435a2.75,2.75,0,0,1-2.7-2.238l-1.526-8.823a1.094,1.094,0,0,0-1.242-.875,110.538,110.538,0,0,1-14.127.9c-3.045,0-8.554-.168-11.444-.5a1.094,1.094,0,0,0-1.205.88l-1.45,8.168a2.75,2.75,0,0,1-2.7,2.238H91.116a2.75,2.75,0,0,1-2.7-2.238l-2.147-11.77a1.092,1.092,0,0,0-.561-.756c-10.762-5.745-20.6-19.828-21.849-33.254h0q-.044.494-.079,1c0,.007,0,.013,0,.02,0,.033,0,.066-.006.1q-.03.451-.051.907c-.006.126-.01.254-.015.381-.009.232-.018.464-.024.7-.009.38-.015.762-.015,1.147a44.15,44.15,0,0,0,.352,5.641,38.093,38.093,0,0,0,1.353,6.313c.033.109.068.217.1.326q.128.4.265.8c.036.106.073.213.11.318q.377,1.066.816,2.087c.031.072.062.145.093.217q.216.494.446.979c.025.053.052.106.077.159q.215.445.442.884l.078.151q.248.471.51.932l.115.2a33.4,33.4,0,0,0,1.827,2.832c.062.087.126.173.189.259q.238.324.483.642c.064.084.128.167.194.25.221.281.445.56.675.834l.006.008c.23.274.466.544.7.811.072.081.146.161.219.241q.267.294.542.581c.074.077.147.155.222.232.25.258.5.513.762.763l0,0q.432.419.879.823.894.81,1.846,1.565T78.938,312q.5.351,1.021.688.466.3.943.595l.275.167q.36.217.723.427l.289.166q.49.278.988.546a1.116,1.116,0,0,1,.2.138,1.092,1.092,0,0,1,.148.159c.013.017.025.035.037.052a1.065,1.065,0,0,1,.081.139c.009.019.019.038.028.058a1.094,1.094,0,0,1,.066.21l2.653,13.782a2.77,2.77,0,0,0,.132.469q.043.112.095.22t.113.209q.06.1.129.2t.146.185c.058.068.12.131.184.192.02.019.042.037.062.056.046.042.093.082.142.12l.075.057c.05.037.1.071.154.1.024.015.047.031.071.045.076.045.154.088.235.125l0,0c.08.037.163.07.248.1l.081.026c.06.019.121.037.183.051l.094.021q.094.019.189.032c.029,0,.057.009.086.011a2.787,2.787,0,0,0,.279.016h8.961a2.739,2.739,0,0,0,1.163-.258,2.748,2.748,0,0,0,1.539-1.981l1.45-7.662h0a1.08,1.08,0,0,1,.053-.183c.007-.018.014-.034.022-.051a1.088,1.088,0,0,1,.063-.121c.009-.016.018-.031.028-.046a1.031,1.031,0,0,1,.518-.409l.045-.017a1.056,1.056,0,0,1,.112-.032c.029-.007.059-.011.089-.015s.057-.009.086-.01a1.064,1.064,0,0,1,.19,0c.482.056.967.105,1.453.152l.366.034c.486.044.974.086,1.465.12h.007c.491.035.985.063,1.48.089l.375.019c.5.023,1,.044,1.5.058q1.129.032,2.271.032,1.526,0,3.05-.056.78-.029,1.558-.073l.158-.01q.707-.041,1.412-.093l.033,0q1.546-.118,3.081-.293h.009q.7-.081,1.4-.172c.225-.03.449-.063.674-.1.247-.035.494-.068.741-.1a1.086,1.086,0,0,1,1.16.653c0,.006.006.011.009.017a1.108,1.108,0,0,1,.061.207l.763,4.032.763,4.032a2.75,2.75,0,0,0,2.7,2.238h8.961a2.717,2.717,0,0,0,.279-.016l.086-.011c.064-.008.127-.019.189-.032l.094-.021c.062-.015.122-.032.183-.052l.081-.026c.085-.03.168-.063.249-.1h0c.081-.038.159-.081.236-.126.024-.014.047-.03.071-.045.053-.033.1-.068.154-.1l.074-.056c.049-.038.1-.079.142-.12.021-.019.042-.037.062-.056.064-.061.126-.125.184-.192.023-.026.043-.055.065-.082a2.71,2.71,0,0,0,.551-1.2l.6-3.2.628-3.323.394-2.084,1.131-5.988h0l.1-.537.446-.221a.017.017,0,0,0,.015,0l.009-.006c.215-.112.425-.229.638-.343s.447-.237.667-.359c.19-.106.376-.217.565-.325.237-.136.477-.27.711-.409.193-.115.38-.235.571-.352.225-.138.451-.274.673-.415.2-.127.392-.258.588-.388s.419-.272.624-.411.382-.27.573-.4.406-.282.6-.427.365-.276.547-.413c.2-.15.4-.3.6-.451.177-.139.348-.282.523-.423.195-.157.392-.312.584-.473.176-.148.346-.3.519-.451s.37-.316.55-.478.329-.307.494-.461.361-.331.536-.5c.16-.155.313-.315.471-.472.173-.174.35-.345.519-.521.154-.161.3-.327.453-.49s.334-.354.495-.535c.147-.165.287-.336.431-.5.158-.185.32-.366.474-.554.14-.17.273-.346.41-.519.15-.19.3-.378.451-.571.134-.177.262-.36.393-.54s.285-.385.422-.582.249-.373.373-.56.268-.394.4-.6c.159-.25.3-.509.463-.758.094-.148.183-.3.271-.451a3.882,3.882,0,0,1,2.165-1.761l.031-.01h0l4.389-1.406,4.214-1.35a5.268,5.268,0,0,0,3.661-5.017v-8.857a5.251,5.251,0,0,0-.491-2.211Q175.358,277.839,175.261,277.666Z" transform="translate(-63.667 -238.237)"/><path class="a" d="M334.925,142.546a4.182,4.182,0,0,1,2.369-2.919c4.618-2.114,16.384-7.2,19.409-5.616,3.788,1.984,1.8,23.4-3.968,26.673C347.16,163.842,330.983,161.257,334.925,142.546Z" transform="translate(-265.396 -133.71)"/></g><circle class="b" cx="24" cy="24" r="24" transform="translate(34.631 6.897)"/><path class="a" d="M363.262,144.637c-2.634,0-9.012,2.171-16.645,5.665a1.4,1.4,0,0,0-.8.963c-1.112,5.279-.517,9.528,1.721,12.287a8.566,8.566,0,0,0,.858.91.646.646,0,0,0,1.06-.328C343.38,155.19,364.978,144.637,363.262,144.637Z" transform="translate(-257.349 -103.994)"/><path class="c" d="M393.635,272.509a1.9,1.9,0,1,0-3.795,0,2.409,2.409,0,0,1-4.818,0,1.9,1.9,0,1,0-3.795,0,6.2,6.2,0,0,0,12.407,0Z" transform="translate(-284.153 -197.892)"/><path class="c" d="M125.395,73.031l-5.34-1.711a2.234,2.234,0,0,1-1.442-1.461,34.431,34.431,0,0,0-5.048-9.985,36.64,36.64,0,0,0-3.372-3.978h0a47.049,47.049,0,0,0,1.16-10.747c-.079-4.834-1.046-7.67-2.953-8.669-1.027-.539-4.154-2.176-21.079,5.572a6.158,6.158,0,0,0-1.122.668c-1.141-.307-2.307-.59-3.481-.845-.141-.031-.287-.058-.429-.088h0a25.847,25.847,0,0,0,2.323-9.609,1.9,1.9,0,0,0-3.791-.17A22.076,22.076,0,0,1,66.376,51.747a55.023,55.023,0,0,0-15.272,0A22.094,22.094,0,1,1,78.489,21.073a1.9,1.9,0,0,0,3.389-1.707A25.9,25.9,0,1,0,45,52.965h0q-1.77.46-3.508,1.038a1.9,1.9,0,0,0,1.2,3.6,50.919,50.919,0,0,1,32.092,0,1.9,1.9,0,0,0,1.2-3.6q-1.737-.581-3.508-1.038h0a25.872,25.872,0,0,0,7.876-7.7c.523.1,1.042.208,1.554.319q1.022.222,2.032.474c-.021.083-.043.165-.06.249a22.628,22.628,0,0,0,.178,11.543,13.737,13.737,0,0,0,5.032,7.073,15.961,15.961,0,0,0,9.339,2.964,12.52,12.52,0,0,0,6.052-1.4c1.783-1.01,3.278-3.139,4.46-6.334q.82.957,1.553,1.961A30.636,30.636,0,0,1,114.993,71a6.034,6.034,0,0,0,3.9,3.936l5.34,1.711a3.36,3.36,0,0,1,2.343,3.21V88.71a3.36,3.36,0,0,1-2.343,3.21l-8.6,2.756a5.862,5.862,0,0,0-3.28,2.664c-3.38,5.842-8.695,10.676-15.8,14.369A2.973,2.973,0,0,0,95,113.8L92.241,128.4a.853.853,0,0,1-.838.694h-8.96a.853.853,0,0,1-.838-.694l-1.526-8.064a2.981,2.981,0,0,0-3.39-2.4,79.316,79.316,0,0,1-11.82.879,75.646,75.646,0,0,1-8.7-.491,3.006,3.006,0,0,0-3.288,2.412l-1.45,7.662a.853.853,0,0,1-.838.694h-8.96a.855.855,0,0,1-.839-.7l-2.653-13.781a2.979,2.979,0,0,0-1.531-2.071C24.509,106.073,18.11,95.276,18.11,81.312A36.475,36.475,0,0,1,22.7,62.768a33.1,33.1,0,0,1,12.332-12.04,1.9,1.9,0,0,0-1.9-3.285A36.114,36.114,0,0,0,14.8,74.421h0c-.183-.017-.365-.032-.547-.051a9.447,9.447,0,0,0-.7-3.786A7.772,7.772,0,0,0,7.8,65.552a5.244,5.244,0,0,0-4.938,2.2c-1.81,2.392-1.515,4.285-.949,5.452.956,1.969,3.412,3.362,7.489,4.238q-.168.252-.37.506A9.31,9.31,0,0,1,1.942,81.7,1.992,1.992,0,0,0,0,83.68v.009a1.987,1.987,0,0,0,1.9,1.982q.2.01.427.01c2.331,0,6.073-.86,9.668-5.368a10.821,10.821,0,0,0,1.385-2.238q.537.061,1.032.106a.006.006,0,0,1,0,0c-.065,1.028-.1,2.071-.1,3.133a39.1,39.1,0,0,0,5.6,20.939A38.36,38.36,0,0,0,34.493,115.7l2.579,13.4a4.651,4.651,0,0,0,4.566,3.783H50.6a4.651,4.651,0,0,0,4.566-3.783l1.311-6.928a79.964,79.964,0,0,0,8.394.435,83.356,83.356,0,0,0,11.625-.81l1.382,7.3a4.651,4.651,0,0,0,4.566,3.783H91.4a4.651,4.651,0,0,0,4.566-3.784l2.683-14.206c7.58-4.008,13.294-9.274,16.985-15.654a2.074,2.074,0,0,1,1.154-.95l8.6-2.756a7.144,7.144,0,0,0,4.98-6.825V79.854A7.143,7.143,0,0,0,125.395,73.031Zm-18.122-22.55c-.73,6.245-2.689,11.588-4.658,12.7-2.237,1.267-7.4,1.512-11.281-1.325S86.16,53.91,87.6,47.088h0A2.289,2.289,0,0,1,88.9,45.5c9.5-4.348,14.975-5.77,17.01-5.77a1.985,1.985,0,0,1,.688.092C107.209,40.475,108.01,44.178,107.273,50.481ZM5.327,71.546c-.2-.4.267-1.117.561-1.505A1.514,1.514,0,0,1,7.107,69.3a1.426,1.426,0,0,1,.191.013A4.135,4.135,0,0,1,10.04,72a5.761,5.761,0,0,1,.4,1.789C7.811,73.245,5.77,72.46,5.327,71.546Z"/><path class="c" d="M268.029,279.186h4.335l2.731-3.332H257.821l-2.732,3.332h6.593a6.38,6.38,0,0,1,4.684,3.941h-8.545l-2.732,3.332H266.3a6.723,6.723,0,0,1-6.1,3.977l-4.614.043L263.945,299H268.9l-5.776-5.9a9.563,9.563,0,0,0,6.988-6.651h2.249l2.731-3.332h-4.941A8.249,8.249,0,0,0,268.029,279.186Z" transform="translate(-206.429 -256.436)"/></g></svg>