<svg xmlns="http://www.w3.org/2000/svg" width="72.003" height="72.003" viewBox="0 0 72.003 72.003"><defs><style>.a{opacity:0.54;}.b{fill:none;}</style></defs><g class="a"><path class="b" d="M317.9,552.9h72v72h-72Z" transform="translate(-317.9 -552.9)"/><path d="M350.1,554.9a30,30,0,1,0,30,30A30.09,30.09,0,0,0,350.1,554.9Zm0,54a24,24,0,1,1,24-24A24.072,24.072,0,0,1,350.1,608.9Z" transform="translate(-313.5 -548.9)"/><path d="M24.51,4a9.255,9.255,0,1,1-9.255,9.255A9.243,9.243,0,0,1,24.51,4Zm0,44.115A22.213,22.213,0,0,1,6,38.182c.093-6.139,12.34-9.5,18.51-9.5,6.139,0,18.417,3.363,18.51,9.5A22.213,22.213,0,0,1,24.51,48.115Z" transform="translate(12.001 14.002)"/></g></svg>