<svg xmlns="http://www.w3.org/2000/svg" width="72.003" height="72.003" viewBox="0 0 72.003 72.003"><defs><style>.a{opacity:0.54;}.b{fill:none;}</style></defs><g class="a"><path class="b" d="M77.9,552.9h72v72h-72Z" transform="translate(-77.9 -552.9)"/><g transform="translate(27.287 21.602)"><path d="M91.457,6.693a.653.653,0,0,0-.482-.189H87.388a7.263,7.263,0,0,0-1.343-3.021h4.888a.645.645,0,0,0,.671-.671V.671A.645.645,0,0,0,90.933,0H73.477a.646.646,0,0,0-.671.671v2.79a.681.681,0,0,0,.671.671h3.042q4.427,0,5.622,2.371H73.477a.646.646,0,0,0-.671.671v2.14a.646.646,0,0,0,.671.671h8.959a4.1,4.1,0,0,1-2.151,2.623,9.468,9.468,0,0,1-4.458.9h-2.35a.681.681,0,0,0-.671.671v2.665a.627.627,0,0,0,.189.462q4.028,4.28,10.448,11.98a.619.619,0,0,0,.525.252h4.091a.609.609,0,0,0,.609-.378.573.573,0,0,0-.084-.713q-6.125-7.511-9.63-11.245A10.641,10.641,0,0,0,84.744,14.9a7.843,7.843,0,0,0,2.706-4.91h3.525a.647.647,0,0,0,.671-.671V7.175A.653.653,0,0,0,91.457,6.693Z" transform="translate(-72.806)"/></g><path d="M350.1,554.9a30,30,0,1,0,30,30A30.09,30.09,0,0,0,350.1,554.9Zm0,54a24,24,0,1,1,24-24A24.072,24.072,0,0,1,350.1,608.9Z" transform="translate(-313.5 -548.9)"/></g></svg>