<svg xmlns="http://www.w3.org/2000/svg" width="72" height="72" viewBox="0 0 72 72"><defs><style>.a{fill:none;}.b{fill:gray;}</style></defs><path class="a" d="M197.9,550.9h72v72h-72Z" transform="translate(-197.9 -550.9)"/><path class="b" d="M1.491,54a1.47,1.47,0,1,1,0-2.941H3.078V34.7a1.479,1.479,0,0,1,1.491-1.47h5.957a1.479,1.479,0,0,1,1.491,1.47V51.059h2.978V40.575a1.478,1.478,0,0,1,1.488-1.47h5.96a1.479,1.479,0,0,1,1.491,1.47V51.059h2.978V28.814A1.479,1.479,0,0,1,28.4,27.345h5.96a1.478,1.478,0,0,1,1.488,1.469V51.059h2.978V20a1.48,1.48,0,0,1,1.491-1.47h5.957A1.48,1.48,0,0,1,47.765,20V51.059h1.59a1.47,1.47,0,1,1,0,2.941Zm13.5-25.185a4,4,0,0,1,.055-.535l-4.409-2.175a4.39,4.39,0,1,1,1.375-3.171,4,4,0,0,1-.058.535l4.414,2.175a4.433,4.433,0,0,1,5-.8l5.983-5.9a4.286,4.286,0,0,1-.449-1.89,4.474,4.474,0,0,1,6.941-3.668l5.2-3.846L36.206,6.019,47.645,4.07,44.021,15.749l-3.2-3.846-5.2,3.846a4.395,4.395,0,0,1,.223,1.305,4.449,4.449,0,0,1-6.382,3.969l-5.983,5.9a4.323,4.323,0,0,1,.449,1.89,4.469,4.469,0,0,1-8.938,0Zm.643-11.383a.375.375,0,0,1-.315-.149q-3.838-4.546-6.246-7.07a.364.364,0,0,1-.113-.272V8.369a.38.38,0,0,1,.118-.279.385.385,0,0,1,.281-.117H10.77a5.719,5.719,0,0,0,2.666-.533,2.425,2.425,0,0,0,1.286-1.547H9.363a.389.389,0,0,1-.286-.111A.382.382,0,0,1,8.964,5.5V4.233a.376.376,0,0,1,.113-.283.384.384,0,0,1,.286-.112h5.183q-.716-1.4-3.362-1.4H9.363a.386.386,0,0,1-.281-.119.38.38,0,0,1-.118-.279V.4A.376.376,0,0,1,9.077.112.384.384,0,0,1,9.363,0H19.8a.39.39,0,0,1,.289.112A.376.376,0,0,1,20.2.4V1.659a.382.382,0,0,1-.113.285.4.4,0,0,1-.289.111H16.879a4.223,4.223,0,0,1,.8,1.783h2.144a.382.382,0,0,1,.289.112.368.368,0,0,1,.113.285V5.5a.37.37,0,0,1-.113.285.387.387,0,0,1-.289.111H17.718A4.606,4.606,0,0,1,16.1,8.79a6.4,6.4,0,0,1-3.461,1.361q2.09,2.205,5.757,6.637a.332.332,0,0,1,.05.42.365.365,0,0,1-.365.224Z" transform="translate(10.861 8.647)"/></svg>