<svg xmlns="http://www.w3.org/2000/svg" width="51" height="51" viewBox="0 0 51 51"><defs><style>.a{opacity:0.3;}.b{opacity:0;}.c{opacity:0.1;}</style></defs><g class="a"><g class="b"><rect class="c" width="51" height="51"/><rect class="c" width="27" height="27" transform="translate(12 12)"/></g><path d="M11.3,35.546A18.563,18.563,0,1,1,18.5,37,18.439,18.439,0,0,1,11.3,35.546ZM2.846,18.5A15.654,15.654,0,1,0,18.5,2.846,15.672,15.672,0,0,0,2.846,18.5Zm14.031,8.05a1.762,1.762,0,0,1-.511-1.3,1.7,1.7,0,0,1,.511-1.281,1.717,1.717,0,0,1,1.258-.488,1.787,1.787,0,0,1,1.278.488,1.7,1.7,0,0,1,.511,1.281,1.762,1.762,0,0,1-.511,1.3,1.785,1.785,0,0,1-1.278.488A1.715,1.715,0,0,1,16.877,26.55Zm3.046-4.871H16.366V8.538h3.445l.112,13.14h0Z" transform="translate(7 7)"/></g></svg>