<svg xmlns="http://www.w3.org/2000/svg" width="890.461" height="911.543" viewBox="0 0 890.461 911.543"><defs><style>.a{fill:#efefef;}.aa,.ac,.ae,.ak,.am,.ao,.ap,.ar,.b,.c,.t,.u,.w,.y{fill:none;}.b,.c{stroke:#b7b9bc;}.aa,.ac,.ae,.ak,.am,.ao,.ap,.ar,.b,.c,.t,.u,.y{stroke-miterlimit:10;}.b{stroke-width:0.995px;}.d{opacity:0.64;}.e{fill:#6fb9b2;}.f{fill:#b1c1a7;}.g,.h{fill:#fff;}.g{opacity:0.47;}.i{fill:#6ea5f9;opacity:0.29;}.j{fill:#d2e0ff;stroke:#6ca0ff;}.am,.j,.w{stroke-linecap:round;}.j,.w{stroke-linejoin:round;}.am,.ao,.j{stroke-width:2px;}.k{fill:#90afd3;}.l{fill:#b8cce8;}.m{fill:#3a3acc;}.n{fill:#e5e3e4;}.o{fill:#c3cbcb;}.p{fill:#adadad;}.q{fill:#f9bbaf;}.r{fill:#ffcbc2;}.s{fill:#4a1a1a;}.t,.u{stroke:#f7a794;}.aa,.ac,.ap,.t,.y{stroke-width:0.75px;}.ae,.u,.w{stroke-width:0.5px;}.v{fill:#212237;}.w{stroke:#212237;}.x{fill:#011e3b;}.y{stroke:#2c79e8;}.z{fill:#2c79e8;}.aa{stroke:#0f1d49;}.ab{fill:#f7633a;}.ac{stroke:#aa260c;}.ad{fill:#f7958b;}.ae{stroke:#f7958b;}.af{fill:#f886bc;}.ag{fill:#d34f9b;}.ah{fill:#2070e5;}.ai{fill:#ffcbbd;}.aj{fill:#000094;}.ak{stroke:#fff;}.al{fill:#fca604;}.am{stroke:#ee8f0a;}.an{fill:#2e7efa;}.ao{stroke:#2e3192;}.ap{stroke:#d34f9b;}.aq{fill:#28364c;}.ar{stroke:#4a1a1a;}</style></defs><g transform="translate(-0.061 0)"><path class="a" d="M343.34,909.25c146.18,16.75,170.5-62.83,294-90.54,70.38-15.79,156.94,10.88,213.17-53.77C892.8,716.33,899.44,640.53,880.38,581c-8.9-27.81-38.06-54.12-44.73-81.42-13.78-56.31,13.13-100.05,24.47-156.22,13.07-64.74,11.37-129.56-46.17-181.61C757.83,111,677.41,115.34,612.55,80.52c-67.9-36.46-92.17-93.77-181.62-77.76C359.8,15.48,329.84,79.35,275.48,112c-139,83.48-262,82.34-233.16,277.34,12.09,81.59,55.92,156.51,61,236.27C112.3,767.44,149.4,887,343.34,909.25Z"/><rect class="b" width="17.763" height="17.763" transform="translate(183.903 95.102) rotate(-74.846)"/><path class="c" d="M82.36,319.66A6.68,6.68,0,1,0,89,313a6.68,6.68,0,0,0-6.64,6.66Z"/><path class="c" d="M75.67,457.51a6.69,6.69,0,1,0,6.69-6.68A6.69,6.69,0,0,0,75.67,457.51Z"/><path class="c" d="M750.08,409a6.68,6.68,0,1,0,1.953-4.73A6.68,6.68,0,0,0,750.08,409Z"/><path class="c" d="M707.32,50l-.72,4.45a4,4,0,0,1-4,3.37l-3-.06a4,4,0,0,0-4,3.37l-.47,2.91a4,4,0,0,1-4,3.37l-3-.06a4,4,0,0,0-4,3.38l-.47,2.92a4,4,0,0,1-4,3.37L676.08,77"/><path class="c" d="M70.2,425l-3.74,2.51a4,4,0,0,1-5.22-.65l-2-2.2a4,4,0,0,0-5.22-.64l-2.45,1.64a4,4,0,0,1-5.22-.64l-2-2.21a4,4,0,0,0-5.22-.64l-2.46,1.65a4,4,0,0,1-5.22-.65l-2.33-2.6"/><line class="c" x2="15.45" y2="9.54" transform="translate(109.31 285.25)"/><line class="c" x2="14.19" y2="11.32" transform="translate(239.01 84.94)"/><line class="c" y1="12.2" x2="13.44" transform="translate(813.36 175.87)"/><path class="c" d="M635.61,696.88a6.69,6.69,0,1,0,6.69-6.68A6.69,6.69,0,0,0,635.61,696.88Z"/><path class="c" d="M548,701.65l-3.74,2.52a4,4,0,0,1-5.22-.65l-2-2.2a4,4,0,0,0-5.22-.65l-2.45,1.65a4,4,0,0,1-5.22-.65l-2-2.2a4,4,0,0,0-5.22-.65l-2.46,1.66a4,4,0,0,1-5.22-.65l-2.33-2.6"/><g class="d"><path class="e" d="M154.08,823.7c5.35-11.05,33.25-59.37,62.66-75.33,3.74-2,7.68-3.91,11.92-4.31s8.85.94,11.41,4.34c2.34,3.1,2.6,7.32,1.92,11.14-5.34,30.23-39.77,41.8-56.58,64.16"/><path class="f" d="M154.08,823.51s27.68-54.63,54.7-87.17c12.79-15.41,21.58-44,8.13-52.5-19.46-12.37-38.59,15.18-47.35,28.87-13.25,20.69-23,43.59-30.52,66.92-1.09,3.38-11,43.88-11.21,43.88Z"/><path class="g" d="M147.72,824l-2.94-1c9.5-29.7,30.05-85.37,61-124.52l2.43,1.92C177.56,739.2,157.15,794.48,147.72,824Z"/><path class="e" d="M96.05,823.51s-3.22-84.06-40.42-122.92c-10-10.5-26.52-21.41-40-24.4-17.52-3.87-17,16.73-13.87,30.09,4.11,17.3,18.25,28.08,28.44,41,18.77,23.72,30,39.37,43.67,76.27"/><path class="f" d="M107.23,823.51c10-18.37,6.51-96.93,1.47-121.54a125.57,125.57,0,0,0-20.5-47.44C79.3,642.15,52.7,614.87,37.05,626c-9,6.41,4.66,29.5,8.28,36.44a394.8,394.8,0,0,1,28.3,71.24c8.41,28.6,14.77,58.65,17,88.73a5.47,5.47,0,0,0,.08,1.14"/><path class="e" d="M109.06,823.51c-3.31-44-1.19-111.5,18.64-149.62,22.49-43.25,51.8-63.21,56.05-46.36,12.34,48.88-37.18,180.34-51.12,196"/><path class="g" d="M81.92,823.67C76.7,770.28,48.38,718.4,9.79,691.49L11.56,689C50.86,716.4,79.69,769.16,85,823.4Z"/><path class="g" d="M99.44,823.57C98,782.44,93.55,745.94,85.83,712c-7.55-33.23-19.08-56.39-35.23-70.82l2.06-2.3c16.65,14.87,28.49,38.56,36.18,72.43,7.77,34.18,12.25,70.87,13.69,112.19Z"/><path class="h" d="M124.62,823.6l-3.08-.17c2.91-52.64,18.22-109.21,48.17-178l2.83,1.24C142.74,715.11,127.51,771.33,124.62,823.6Z"/><path class="g" d="M169.52,824.25l-2.71-1.47c24.59-45.22,60.22-69.22,60.58-69.46l1.7,2.57C228.74,756.13,193.73,779.74,169.52,824.25Z"/></g><g class="d"><path class="e" d="M715.82,786c-5.35-11-33.25-59.37-62.66-75.33-3.74-2-7.68-3.91-11.92-4.3s-8.85.94-11.41,4.33c-2.34,3.1-2.6,7.33-1.93,11.15,5.35,30.22,39.77,41.8,56.59,64.15"/><path class="f" d="M715.82,785.85s-27.68-54.63-54.7-87.18c-12.79-15.4-21.58-43.94-8.13-52.5,19.46-12.37,38.59,15.19,47.35,28.88,13.25,20.69,23,43.59,30.52,66.92,1.08,3.38,11,43.88,11.21,43.88Z"/><path class="g" d="M722.18,786.32l2.94-.94c-9.5-29.7-30-85.37-61-124.52l-2.42,1.92C692.34,701.54,712.75,756.82,722.18,786.32Z"/><path class="e" d="M773.85,785.85s3.22-84.06,40.41-122.92c10-10.5,26.53-21.42,40-24.4,17.52-3.88,17,16.73,13.87,30.08-4.11,17.3-18.25,28.09-28.45,41-18.76,23.71-30,39.36-43.66,76.27"/><path class="f" d="M762.67,785.85c-10-18.37-6.51-96.93-1.47-121.54a125.61,125.61,0,0,1,20.5-47.45c8.9-12.37,35.5-39.65,51.15-28.57,9,6.41-4.66,29.51-8.28,36.44A395.379,395.379,0,0,0,796.27,696c-8.41,28.6-14.77,58.66-17,88.74,0,.38-.05.76-.08,1.14"/><path class="e" d="M760.84,785.85c3.31-44,1.19-111.5-18.64-149.63C719.71,593,690.4,573,686.15,589.87c-12.35,48.88,37.17,180.34,51.12,196"/><path class="g" d="M788,786c5.22-53.39,33.54-105.27,72.13-132.17l-1.77-2.54c-39.3,27.4-68.13,80.16-73.44,134.41Z"/><path class="g" d="M770.46,785.91c1.43-41.13,5.89-77.64,13.61-111.62,7.55-33.22,19.08-56.38,35.23-70.81l-2.06-2.31c-16.65,14.87-28.49,38.57-36.18,72.44-7.77,34.17-12.25,70.87-13.69,112.19Z"/><path class="h" d="M745.27,785.94l3.09-.17c-2.91-52.65-18.22-109.21-48.17-178L697.36,609C727.16,677.44,742.39,733.67,745.27,785.94Z"/><path class="g" d="M700.37,786.59l2.72-1.48c-24.59-45.22-60.22-69.21-60.58-69.45l-1.7,2.57C641.16,718.47,676.17,742.07,700.37,786.59Z"/></g><ellipse class="i" cx="260" cy="5.5" rx="260" ry="5.5" transform="translate(344.73 783.9)"/><ellipse class="i" cx="260" cy="5.5" rx="260" ry="5.5" transform="translate(10.13 821.11)"/><rect class="j" width="549.29" height="335.28" rx="7.87" transform="translate(245.4 174.59)"/><path class="k" d="M540.87,219.34h0l-6.07-7.18h0a3.21,3.21,0,0,0-4.5,0h0a2.58,2.58,0,0,1-3.65,0l-.05-.05h0c-.15-1-.87-3.08-.87-3.64a1.84,1.84,0,0,0-1.84-1.84H513.66a1.84,1.84,0,0,0-1.84,1.84h0c0,.55-.72,2.68-.87,3.64h-.05a2.58,2.58,0,0,1-3.66.06h0a3.21,3.21,0,0,0-4.5,0h-.05l-6.06,7.17h0a1.83,1.83,0,0,0,1.46,2.93h0c1.1,0,1.54,1.31,2.11,2.17a1.01,1.01,0,0,0,1.71.52c1.66-.74,1.26,1,1.26,1a8.15,8.15,0,0,0-1.4,4.61c0,3.22,3.67,9.72,3.67,11a8.25,8.25,0,0,0,2,5.4,4.57,4.57,0,0,0-2,3.79c0,.66.14,1.28-1.84,1.84a1.84,1.84,0,1,0,0,3.68h-1.9a1.84,1.84,0,0,0-1.84,1.84h0v.09a6.43,6.43,0,0,0,0,9v.08a1.85,1.85,0,0,0,1.83,1.85h2.77a2.29,2.29,0,0,0,.43,3.2,2.23,2.23,0,0,0,1.4.47h24.82a2.29,2.29,0,0,0,2.3-2.28,2.26,2.26,0,0,0-.47-1.39h2.77a1.84,1.84,0,0,0,1.84-1.84h0v-.09a6.42,6.42,0,0,0,0-9v-.09a1.84,1.84,0,0,0-1.84-1.84h-1.84a1.844,1.844,0,0,0,.23-3.68.89.89,0,0,0-.23,0c-2-.56-1.84-1.18-1.84-1.84a4.6,4.6,0,0,0-2-3.8,8.2,8.2,0,0,0,2-5.39c0-1.32,3.68-7.81,3.68-11a8.24,8.24,0,0,0-1.41-4.61s-.4-1.72,1.27-1a1,1,0,0,0,1.7-.53c.57-.86,1-2.17,2.11-2.17a1.82,1.82,0,0,0,1.84-1.81,1.73,1.73,0,0,0-.37-1.11Z"/><rect class="l" width="178.87" height="25.12" transform="translate(281.66 217.37)"/><path class="m" d="M296.28,365.56l-5.1-9.08-5.11,9.08h-4.66l7.23-11.75-7-11.32h5.1l4.72,8.67,4.75-8.67H301l-7,11.31,7.26,11.76Z"/><path class="m" d="M317.69,365.56l-5.1-9.08-5.1,9.08h-4.67l7.23-11.75-7-11.32h5.11l4.72,8.67,4.74-8.67h4.84l-7,11.32,7.25,11.75Z"/><path class="m" d="M339.11,365.56l-5.1-9.08-5.11,9.08h-4.66l7.23-11.75-7-11.32h5.1l4.72,8.67,4.75-8.67h4.82l-7,11.32L344,365.56Z"/><path class="m" d="M360.52,365.56l-5.1-9.08-5.1,9.08h-4.67l7.23-11.75-7-11.32h5.1l4.72,8.67,4.75-8.67h4.82l-7,11.31,7.25,11.76Z"/><path class="m" d="M381.93,365.56l-5.1-9.08-5.1,9.08h-4.67l7.23-11.75-7-11.32h5.1l4.72,8.67,4.75-8.67h4.82l-7,11.32,7.25,11.75Z"/><path class="m" d="M390.87,345.14A7.91,7.91,0,0,1,402,343.77a8.067,8.067,0,0,1,1.37,1.37c1.41,2,2.11,5,2.12,8.88s-.71,6.85-2.12,8.88a7.91,7.91,0,0,1-11.1,1.37,7.668,7.668,0,0,1-1.36-1.37q-2.12-3-2.12-8.88C388.75,350.13,389.45,347.17,390.87,345.14Zm3,15.35a3.54,3.54,0,0,0,6.41,0,21.4,21.4,0,0,0,0-12.93,3.53,3.53,0,0,0-6.41,0A21.6,21.6,0,0,0,393.87,360.49Z"/><path class="m" d="M417.23,365.56h-4.15V347.28L408.31,350v-4.15l5.87-3.41h3.06Z"/><path class="m" d="M438,362.15v3.41H422.38v-2.78l8.62-8.7a12.32,12.32,0,0,0,2.09-2.57,4.869,4.869,0,0,0,.59-2.34,3.6,3.6,0,0,0-1-2.66,3.69,3.69,0,0,0-2.68-1,4.29,4.29,0,0,0-2.72.86,5,5,0,0,0-1.61,2.5l-3.06-1.8a6.9,6.9,0,0,1,2.73-3.7,9.53,9.53,0,0,1,8.81-.36,6.67,6.67,0,0,1,2.73,2.51,6.77,6.77,0,0,1,1,3.62,6.361,6.361,0,0,1-.51,2.58,9.342,9.342,0,0,1-1.44,2.33c-.63.76-1.51,1.71-2.63,2.84l-5.1,5.26Z"/><path class="m" d="M457.3,360.65h-2.9v4.91h-4v-4.91h-9.62v-2.81L451,342.49h3.39v14.76h2.89Zm-6.9-3.41v-8l-5.38,8Z"/><path class="m" d="M474.16,365.56l-5.11-9.08-5.1,9.08h-4.66l7.23-11.75-7-11.32h5.1l4.72,8.67,4.75-8.67h4.82l-7,11.32,7.25,11.75Z"/><rect class="l" width="178.87" height="12.56" transform="translate(281.66 249.54)"/><rect class="l" width="178.87" height="25.12" transform="translate(281.66 412.34)"/><rect class="l" width="255.03" height="12.56" transform="translate(281.66 444.51)"/><rect class="l" width="201.13" height="12.56" transform="translate(281.66 463.83)"/><rect class="l" width="178.87" height="25.12" transform="translate(576.89 217.37)"/><rect class="l" width="178.87" height="12.56" transform="translate(576.89 249.54)"/><rect class="n" width="69.99" height="69.99" rx="8.77" transform="translate(685.78 406.4)"/><rect class="o" width="69.99" height="69.99" rx="8.77" transform="translate(685.78 307.44)"/><circle class="p" cx="14.59" cy="14.59" r="14.59" transform="translate(706.18 423.13)"/><path class="p" d="M693.39,476.4a27.38,27.38,0,0,1,54.76-.31v.31Z"/><path class="q" d="M193.2,338.46c.05-.79,1-1.21,1.8-1.11a3.6,3.6,0,0,1,2.57,2,7.7,7.7,0,0,1,.68,3.29,6.22,6.22,0,0,1-.52,3.08,3.83,3.83,0,0,1-4.8,1.66"/><path class="r" d="M192.22,323.58s6.55,25,2.95,30.07c-5.38,7.67-18.2,8.26-23.6,4.72-4.52-3-8.24-18.87-8.24-23C163.33,324.17,186.33,317.68,192.22,323.58Z"/><path class="r" d="M159.06,353l-2.56,21.92s8.19,8.85,20.57,8.85,12.39-8.26,12.39-8.26L187.1,356.6l-19-20-9,16.34"/><path class="s" d="M170.59,334.65c0-1.43-.06-2.87-.1-4.3,0-.29-.14-3.36-.43-3.42a71.8,71.8,0,0,0,18.62,1.25,11.71,11.71,0,0,0,5.72-1.44c1.51-1,1.19-15.26-17-15.95-3.47-.14-7.08,0-10.14,1.6s-7.77,4.78-7.85,8.26c-4.45,1.49-9.21,10.32-6.63,19.66,1.45,5.26,2.4,10.68,6.26,12.65,4.91-2,8.27-7.52,9.12-8.72C170,341.69,170.64,337.71,170.59,334.65Z"/><path class="t" d="M187.49,359.74s-8.59,1.69-14.51-1.48c-4.67-2.51-6.35-8.31-6.35-8.31"/><path class="r" d="M169.55,341.79c-.55-.92-2.36-2.11-3.36-2a4.16,4.16,0,0,0-2.61,1.49c-3.28,3.69.29,10.72,5.31,9.94,1.84-.28,1.34-2.72,1.34-2.72"/><path class="u" d="M188,336.62s3.81,5.88,3.45,7.51-4.25,1.83-4.25,1.83"/><path class="h" d="M191.49,348l-10.61,1.48s2,5.48,7.8,4.27C192.79,352.85,191.49,348,191.49,348Z"/><path class="v" d="M191.41,335.05c.09.47.2.94.33,1.39a.41.41,0,0,0,.49.28.4.4,0,0,0,.27-.49,12.642,12.642,0,0,0-.43-1.36.342.342,0,0,0-.66.18Z"/><path class="w" d="M188.94,332.27a2.77,2.77,0,0,1,4-.47"/><path class="v" d="M179.33,337.87a13.42,13.42,0,0,0,.25,1.41.394.394,0,0,0,.76-.21c-.09-.46-.22-.93-.35-1.38a.34.34,0,0,0-.63-.08.33.33,0,0,0,0,.26Z"/><path class="w" d="M180.78,333.49s-2.59-.89-5.29,2.18"/><path class="r" d="M197.29,747.57l5,50.63-.42,15.93,62.44-.32a2.76,2.76,0,0,0,2.74-2.78h0a2.73,2.73,0,0,0-1.781-2.56L238.34,796.08,235.8,743.4"/><path class="x" d="M269.83,813.14c-.64-2-1.81-4.25-3-4.76l-28.56-12.3c-15.74,6.38-36.11,1.51-36.11,1.51l-3.63,21.5a1.28,1.28,0,0,0,1.29,1.28h69.52C270.75,820.36,269.85,813.2,269.83,813.14Z"/><path class="y" d="M244.46,797.32a33.147,33.147,0,0,0-4,6.76"/><path class="y" d="M248.06,799.46a29.6,29.6,0,0,0-3.31,5.75"/><path class="y" d="M251.1,801a43,43,0,0,0-3.11,5.28"/><line class="y" y1="0.37" x2="71.22" transform="translate(198.9 815.36)"/><path class="y" d="M200.88,805.21s16.73.34,18.17,10.42"/><path class="y" d="M261,805.86s-4.61,6.56-5.52,9.58"/><path class="z" d="M226.5,517.6c10.74,77.11,20.35,271.8,20.35,271.8H193.09S182,663,172.59,580.62c-23.66-39.15-21.82-81.55-24.49-87.19"/><path class="aa" d="M200.44,789.4s-13.3-138.3-22.71-220.69"/><path class="r" d="M110.93,747.57l-2.29,50.63-.43,15.93,62.44-.32A2.77,2.77,0,0,0,173.4,811h0a2.76,2.76,0,0,0-1.79-2.56l-26.92-12.39,4.75-52.68"/><path class="x" d="M176.13,813.14c-.64-2-1.81-4.25-3-4.76l-28.56-12.3c-15.73,6.38-36.11,1.51-36.11,1.51l-3.63,21.5a1.28,1.28,0,0,0,1.29,1.28h69.52C177.05,820.36,176.15,813.2,176.13,813.14Z"/><path class="y" d="M150.76,797.32a33.147,33.147,0,0,0-4,6.76"/><path class="y" d="M154.36,799.46a29.6,29.6,0,0,0-3.31,5.75"/><path class="y" d="M157.4,801a41.689,41.689,0,0,0-3.1,5.28"/><line class="y" y1="0.37" x2="71.21" transform="translate(105.21 815.36)"/><path class="y" d="M107.18,805.21s16.73.34,18.17,10.42"/><path class="y" d="M167.29,805.86s-4.62,6.56-5.53,9.58"/><path class="z" d="M112.58,510.46a301.459,301.459,0,0,0,1.34,60.26C109.33,663.58,103,789.4,103,789.4h53.75s25.88-218.15,27.09-280.48"/><path class="aa" d="M121.76,510.46a300.72,300.72,0,0,0,1.34,60.26c-4.59,92.86-10.94,218.68-10.94,218.68"/><path class="aa" d="M175.87,609.94s7.46-64.48,8.11-88.15"/><line class="aa" x2="54.48" transform="translate(103.57 778.76)"/><line class="aa" x2="54.13" transform="translate(192.03 778.61)"/><path class="aa" d="M121.16,547.79s15.45,1.2,24-20.7"/><path class="aa" d="M181.6,547.8s5.39-1.53,5.89-3.22,2-21.63,2-21.63"/><path class="aa" d="M209.18,527.09s1.22,18,20.95,20.71"/><path class="r" d="M239.43,414.2s12.47,17.48,16.48,18.27,38.75-38,38.75-38l21.16,16.34s-31.5,63.66-61.07,65.37c-25.53,1.47-50.24-38.42-50.24-38.42"/><path class="ab" d="M157.33,367.93s3.56,5.25,18,6.73c10.89,1.12,13.55-4.05,13.55-4.05s26.29,14,34.09,72S231.5,531,231.5,531H108.06s-.41-44.13,3.2-82.07C115,409.93,123.16,377,157.33,367.93Z"/><path class="ab" d="M188.85,370.61c12.79,1.15,26.93,6,34.28,15.26a300.815,300.815,0,0,1,25.56,38.6L214,448.94Z"/><path class="ac" d="M223.13,442.24c-2-16.25-6.47-37.06-6.47-37.06"/><line class="ac" y1="16.21" x2="23.4" transform="translate(222.01 418.04)"/><path class="r" d="M129.3,445.77s-12.06,26.49-11.15,32.79c.69,4.76,39.64,16.48,39.64,16.48l-1.92,26.75s-71.05-6-79.31-20.29c-11.3-19.51,12.54-70,12.54-70"/><path class="r" d="M149.54,493.43c5.83,1,36.51,7.25,36.14,8.81s-9.36,1.2-9.09,2.05c.38,1.21,7,2.82,10.87,3.38,3.41.51,8.79,1.87,8.77,3.38,0,2.87-18.71-.11-18.71-.11s20.67-.55,20.87,1.86c.3,3.47-21.59,3.23-22.36,4,0,0,19-5.06,19.26-2.49s-16.67,7.5-21.89,7.14c4.34-.51,17.57-7,17.67-4.58s-11.35,5.71-13.19,5.85a105.282,105.282,0,0,1-28.72-2.13"/><path class="ad" d="M194.14,512.15c-2.46.1-4.91,0-7.35-.1-1.23-.08-2.45-.16-3.67-.3s-2.43-.29-3.64-.52c2.45.06,4.89.18,7.34.32S191.7,511.87,194.14,512.15Z"/><path class="ad" d="M191.93,515.35c-1.3.27-2.62.46-3.94.62s-2.65.28-4,.38-2.66.14-4,.11a25.468,25.468,0,0,1-4-.33h4c1.34,0,2.64-.12,4-.23C186.63,515.71,189.27,515.47,191.93,515.35Z"/><path class="ad" d="M188.53,518.4a59.07,59.07,0,0,1-7,1.3c-1.18.14-2.36.27-3.54.33a26.586,26.586,0,0,1-3.57,0C179.14,519.56,183.8,518.83,188.53,518.4Z"/><path class="ab" d="M157.79,367.92c-14.55-.23-28.74,2.49-37.83,9.24-17,12.62-33.21,54.34-33.21,54.34l47.17,18.26,20.54-40"/><line class="ac" y1="27.55" x2="15.9" transform="translate(130.65 421.39)"/><line class="ac" x1="44.25" y1="18.39" transform="translate(90.88 422.78)"/><path class="ac" d="M151.51,368s8,10.44,24,10.44,17.73-7.26,17.73-7.26"/><path class="r" d="M285.78,404.71s23.17-29.08,24.76-29-1.45,5.4-.13,5.25,8.38-11.91,9.94-11.37c2.11.73-4.6,11.16-4.6,11.16s1.84-2,3.49-.79c1.16.82-.08,4-.08,4s1.9-1.12,3.09-.24,0,3.64,0,3.64,1.86-2.25,3.15-.39-5,17.69-15.78,35.14"/><path class="ae" d="M308.86,383.62a65.392,65.392,0,0,1-2.59,10.56"/><path class="ad" d="M324.9,390.72c-.91,1.36-1.86,2.69-2.88,4a21.99,21.99,0,0,1-1.64,1.84,6.731,6.731,0,0,1-1,.79,2.151,2.151,0,0,1-.59.28.68.68,0,0,1-.7-.17,1.77,1.77,0,0,1-.14-1.3,11.91,11.91,0,0,1,.31-1.21c.25-.78.56-1.55.88-2.3q1-2.25,2.15-4.42l.37.22c-1,1.58-2,3.13-3.05,4.63a22.435,22.435,0,0,1-1.77,2.15,4.85,4.85,0,0,1-1.13.91.94.94,0,0,1-.89.06,1,1,0,0,1-.4-.79,8.859,8.859,0,0,1,.52-2.8c.28-.88.6-1.75.93-2.61q1-2.58,2.21-5.08l.39.2c-.9,1.66-1.85,3.3-2.91,4.87a23.355,23.355,0,0,1-1.71,2.28,5.621,5.621,0,0,1-1.07,1,1.16,1.16,0,0,1-.78.22.72.72,0,0,1-.51-.66,8.64,8.64,0,0,1,.48-2.84c.28-.9.6-1.79.94-2.67q1-2.64,2.24-5.2-1.12,2.6-2.07,5.26c-.32.89-.61,1.78-.86,2.68a8.39,8.39,0,0,0-.43,2.72.377.377,0,0,0,.27.4.89.89,0,0,0,.54-.19,5.431,5.431,0,0,0,1-.94,21.534,21.534,0,0,0,1.65-2.27c1-1.58,2-3.2,2.85-4.86l.4.2c-.77,1.66-1.5,3.35-2.16,5.06-.33.86-.64,1.72-.91,2.59a9.05,9.05,0,0,0-.5,2.61c0,.45.18.53.58.34a4.229,4.229,0,0,0,1-.81,20.846,20.846,0,0,0,1.74-2.1c1.09-1.47,2.1-3,3.05-4.57l.37.21c-.77,1.43-1.52,2.88-2.19,4.36-.33.74-.65,1.49-.91,2.25a9.447,9.447,0,0,0-.31,1.16,1.54,1.54,0,0,0,0,1.07c.19.23.64.06,1-.15a7.192,7.192,0,0,0,.94-.73,23.3,23.3,0,0,0,1.67-1.77A39.649,39.649,0,0,0,324.9,390.72Z"/><path class="af" d="M612.67,484.89c-.49.33-1,.66-1.5,1-4.94,3.2-10,6.43-15.58,8.12-3.26,1-6.8,1.49-9.45,3.65a27.187,27.187,0,0,1-3.19,2.5c-.32.19-3.44,1.38-3.31,1a4.64,4.64,0,0,1-2.81,2.17.74.74,0,0,1-.41.08.252.252,0,0,1-.22-.31c-.4.8-1.83,1.16-2.28.72s.68-2.47.68-2.47-.76.06-1-.2a2.679,2.679,0,0,1-.48-1.57,18.71,18.71,0,0,1,5.36-14.25"/><path class="ag" d="M577.23,495.63a12.542,12.542,0,0,0-1.31,2.45,20.587,20.587,0,0,0-.94,2.56c-.05.16.19.22.25.07.35-.85.69-1.69,1-2.53s.77-1.64,1.06-2.5c0-.07-.08-.1-.11-.05Z"/><path class="ag" d="M582.52,495.6c-1.95,2-4.47,3.77-5.52,6.47,0,.1.13.17.18.08,1.36-2.54,3.55-4.34,5.47-6.42.08-.09,0-.22-.13-.13Z"/><path class="af" d="M620.85,489.07q-22.56.07-45.12-.11a23.227,23.227,0,0,1,3.92-5.85,21.059,21.059,0,0,1,5.6-4.29,50,50,0,0,1,22.7-5.71"/><path class="ah" d="M673.37,383.2s-20.58,54.8-25.72,59.34S593.5,472,593.5,472l15,32.45s59-24,67.41-32.45,35.32-41,38-73.7"/><path class="ai" d="M712.65,747.14l2.11,58.93L713,824.61H644.18a3.18,3.18,0,0,1-3.15-3.22h0a3.22,3.22,0,0,1,2-3l30.63-14.57-4.93-61.3"/><path class="aj" d="M637.9,823.84c.72-2.33,2-5,3.38-5.55l32.49-14.48c18,7.33,41.18,1.54,41.18,1.54l1.9,25a1.49,1.49,0,0,1-1.47,1.5H638.49C636.89,831.84,637.88,823.91,637.9,823.84Z"/><path class="ak" d="M666.73,805.28a39.063,39.063,0,0,1,4.63,7.84"/><path class="ak" d="M662.64,807.8a34.248,34.248,0,0,1,3.81,6.67"/><path class="ak" d="M659.19,809.64a49.009,49.009,0,0,1,3.56,6.12"/><line class="ak" x1="78.83" y1="0.03" transform="translate(637.58 826.43)"/><path class="ak" d="M715.64,814.49s-18.25.22-19.84,12"/><path class="ak" d="M647.94,815.32s5.3,7.6,6.35,11.12"/><path class="al" d="M727.85,519.57s6.64,30-7.63,66.41c0,0-6.91,44.09-7.47,87.57-.57,44.36,5.22,100.88,5.22,122H661.35s-6.94-60.11-7.56-120.69c-.69-67.86,4.93-150.51,4.93-170.28"/><path class="am" d="M669.82,795.54s-7-61.22-7.57-122.56c-.69-67.39,5-148.82,5-168.41"/><path class="ai" d="M616.92,699.18,619,758.11l-1.78,18.54H548.39a3.18,3.18,0,0,1-3.14-3.22h0a3.19,3.19,0,0,1,2-3l30.63-14.57L573,694.55"/><path class="aj" d="M542.18,775.88c.71-2.33,2-5,3.38-5.55L578,755.85c18,7.33,41.18,1.54,41.18,1.54l1.9,25a1.49,1.49,0,0,1-1.47,1.5H542.72C541.16,783.88,542.15,776,542.18,775.88Z"/><path class="ak" d="M571,757.32a39.06,39.06,0,0,1,4.63,7.84"/><path class="ak" d="M566.92,759.84a34.7,34.7,0,0,1,3.8,6.67"/><path class="ak" d="M563.46,761.68A50.371,50.371,0,0,1,567,767.8"/><line class="ak" x1="78.83" y1="0.03" transform="translate(541.85 778.47)"/><path class="ak" d="M619.91,766.53s-18.25.22-19.83,12"/><path class="ak" d="M552.22,767.36s5.29,7.6,6.34,11.12"/><path class="al" d="M632.47,522.85s-54.41,52.65-66.67,86.94c-8.54,23.9,3.88,139.05,3.88,139.05h54.19s-6.61-105.35-3.19-115.61c4-12.05,50.68-53.15,50.68-53.15a46,46,0,0,0,29.29-26.15c8.46-19.48,4.55-43.11,4.55-43.11"/><path class="am" d="M645.19,522.85s-56.4,60.86-66.67,86.94c-7.8,19.81,3.87,139.05,3.87,139.05"/><path class="am" d="M655,595.07c4.27-4,11.67-10.76,13.93-12.78a14.9,14.9,0,0,1,4.92-3,46.52,46.52,0,0,0,26.85-25.4"/><path class="am" d="M685.65,541.8s-16.22.57-23,0"/><line class="am" x1="13.08" transform="translate(716.31 541.8)"/><path class="af" d="M535.24,389.52c-5.69-2.65-31.58-14.21-32.19-12.61s7.6,7.12,6.69,7.38c-.5.15-7.83-1.79-11.49-3.62-3.27-1.64-8.77-3.72-9.66-2.36-1.67,2.58,16.36,11.33,16.36,11.33s-3.19-1.5-4.81.51c-2.33,2.91,2.61,5.6,2.61,5.6s-2.83-1.47-3.77,1,3.27,4.71,3.27,4.71-3.36-1.65-3.79,1.49c-.56,4.12,26.36,13.81,26.36,13.81"/><path class="an" d="M666.44,362.78a18.28,18.28,0,0,0,14,2.88c8.59-1.5,10.75-5.77,10.75-5.77s23,3.27,34,75.65a481.308,481.308,0,0,1,5.19,92.22H625.65s-3.2-110.58,2.13-131.13"/><path class="an" d="M658.2,416s-31.05,35-60,35-83.49-31.39-83.49-31.39l13-36.5,63.35,23.2s33.37-31.83,48.77-37.7,26.6-5.82,26.6-5.82"/><path class="ao" d="M624.82,442.93s19.5-15.18,28.91-22.31"/><line class="ao" x1="11.93" y2="38.22" transform="translate(521.83 385.31)"/><line class="ao" x1="105.35" transform="translate(625.43 518.86)"/><path class="ao" d="M643.31,428.6c-1,30.76,0,99.16,0,99.16"/><path class="af" d="M690.86,344.12l2.38,19.53s-18.47,9.89-30.71-.62V351.64Z"/><path class="af" d="M665.8,313.47s-21.58,27.78-13.69,38.07c4.1,5.35,17.48,4.07,23.86,0,4.73-3,17.94-19.13,15.92-23.25C684.17,312.55,665.8,313.47,665.8,313.47Z"/><path class="s" d="M668.57,318.56a141.367,141.367,0,0,0,1.06,21.32l1.65,36.56s28.48,3.09,46.69-9.82c0,0-6.11-38.41-19.68-50.05-12.91-11.07-29.72-10.27-38.25-3.11,0,0,1.18,3.36,2.78,4.13s5.75,1,5.75,1"/><path class="af" d="M666.71,336.2c2.63-3.41,4.76-2.87,5.93-1,1.55,2.5-1.56,7.69-3,8.57-2.94,1.8-5.32,1.61-5.55-.83"/><path class="ap" d="M662.29,355a4.39,4.39,0,0,0,4.1-2.66"/><path class="aq" d="M660.12,327.56c-.9.77-1.75,2.16-1.25,3.19a.7.7,0,0,0,.73.39C661.62,330.94,662,326,660.12,327.56Z"/><path class="ar" d="M660.38,323.77c2,0,3.31,1.63,4.06,3.26"/><path class="h" d="M658.48,341.9l-4.8-1.57s-1.89,6,.35,6.79C656.51,348,658.48,341.9,658.48,341.9Z"/><path class="s" d="M684.6,310a4.61,4.61,0,0,1-3.18-4.53,5.85,5.85,0,0,1,3.08-4.81,7.69,7.69,0,0,1,5.73-.49,6.14,6.14,0,0,1,2,.95c2.45,1.86,2.39,5.87.65,8.43a5.18,5.18,0,0,1-2.92,2.26,8.6,8.6,0,0,1-5.17-1"/><path class="af" d="M657.83,327.24c-.54.3-6.22,2.82-6.26,5.15,0,1.32,3.13,2.76,3.13,2.76"/><path class="af" d="M583.12,484.48c-3.39,3.74-4.52,7.41-5.89,10.4a1.13,1.13,0,0,0-.13.43c0,.68,1,.75,1.62.5a13.09,13.09,0,0,0,4-2.4,9.3,9.3,0,0,1,1.43-1.16,8.28,8.28,0,0,1,3.23-.77c4.56-.58,9.15-2.89,11.36-7"/><path class="ap" d="M583.12,484.48c-3.39,3.74-4.52,7.41-5.89,10.4a1.13,1.13,0,0,0-.13.43c0,.68,1,.75,1.62.5a13.09,13.09,0,0,0,4-2.4,9.3,9.3,0,0,1,1.43-1.16,8.28,8.28,0,0,1,3.23-.77c4.56-.58,9.15-2.89,11.36-7"/></g></svg>