<svg xmlns="http://www.w3.org/2000/svg" width="150" height="150" viewBox="0 0 185 185"><defs><style>.a,.d{fill:#2ad181;}.a{opacity:0.05;}.b{fill:#d8d8d8;stroke:#979797;opacity:0;}.b,.c{stroke-miterlimit:10;}.c{fill:rgba(42,209,129,0.1);}.c,.e{stroke:#2ad181;stroke-width:4px;}.e,.g{fill:none;}.e{stroke-linecap:round;}.f{stroke:none;}</style></defs><g transform="translate(-91 -909)"><rect class="a" width="185" height="185" rx="42" transform="translate(91 909)"/><g transform="translate(-5156 -3742)"><g transform="translate(5299 4711)"><g class="b"><rect class="f" width="82" height="66"/><rect class="g" x="0.5" y="0.5" width="81" height="65"/></g><g transform="translate(6.73 7.851)"><g class="c" transform="translate(0.27 0.149)"><rect class="f" width="69" height="50" rx="6"/><rect class="g" x="2" y="2" width="65" height="46" rx="4"/></g></g></g><path class="d" d="M3,0h7a3,3,0,0,1,3,3v7a3,3,0,0,1-3,3H3a3,3,0,0,1-3-3V3A3,3,0,0,1,3,0Z" transform="translate(5353 4729)"/><line class="e" x2="48.241" transform="translate(5315.259 4756.678)"/><line class="e" x2="25.802" transform="translate(5315.259 4747.365)"/></g></g></svg>