<svg xmlns="http://www.w3.org/2000/svg" width="150" height="150" viewBox="0 0 185 185"><defs><style>.a,.c,.e{fill:#2ad181;}.a{opacity:0.05;}.b{fill:#dff9ed;stroke-width:3px;}.b,.c,.d,.f{stroke:#2ad181;}.c,.d{stroke-width:2px;}.d{fill:#fff;}.f{fill:none;stroke-linecap:round;stroke-width:4px;}</style></defs><g transform="translate(-91 -909)"><rect class="a" width="185" height="185" rx="42" transform="translate(91 909)"/><g transform="translate(-654.462 536.48)"><g transform="translate(816.462 430.52)"><path class="b" d="M855.468,430.52a3.851,3.851,0,0,1,3.852,3.852v52.295a3.853,3.853,0,0,1-3.852,3.854H820.316a3.853,3.853,0,0,1-3.854-3.854V442.4a2.921,2.921,0,0,1,.855-2.063l8.962-8.961a2.916,2.916,0,0,1,2.063-.854Z" transform="translate(-816.462 -430.52)"/><path class="c" d="M817.223,440.244l8.964-8.964a2.916,2.916,0,0,1,.854-.592v6.557a3.853,3.853,0,0,1-3.853,3.853h-6.557a2.92,2.92,0,0,1,.592-.854Z" transform="translate(-816.368 -430.426)"/><path class="d" d="M821.508,456.762h25.51a1.242,1.242,0,0,0,1.176-1.3v-12.79a1.243,1.243,0,0,0-1.176-1.3h-25.51a1.242,1.242,0,0,0-1.174,1.3v12.79A1.241,1.241,0,0,0,821.508,456.762Z" transform="translate(-812.834 -423.58)"/><path class="e" d="M821.328,454.629h18.563l-8.278-10.77a1.633,1.633,0,0,0-2.636,0L820.8,454.5a1.123,1.123,0,0,0,.527.132Z" transform="translate(-813.279 -421.448)"/><path class="e" d="M844.622,453.536a1.288,1.288,0,0,0,.594-.143l-6.289-7.58a1.85,1.85,0,0,0-2.846,0l-6.411,7.723Z" transform="translate(-809.855 -420.357)"/></g><line class="f" x2="24.863" transform="translate(824.848 472.552)"/><line class="f" x2="13.633" transform="translate(825.118 480.126)"/></g></g></svg>