<svg xmlns="http://www.w3.org/2000/svg" width="962.583" height="849.657" viewBox="0 0 962.583 849.657"><defs><style>.a{fill:#fff3c2;}.b{opacity:0.2;}.c,.d{fill:#f9b630;}.c{opacity:0.22;}.e,.f{fill:#f9d56e;}.f{fill-rule:evenodd;}.g{fill:#3c593d;}.h{fill:#fbd022;}.i{fill:#f2801c;}.j{fill:#fc9324;}.k{fill:#f7d21d;}.l{fill:#fdf0b9;}.m{fill:#173956;}.n{opacity:0.44;}.o{fill:#6fb9b2;}.p{fill:#b1c1a7;}.q,.r{fill:#fff;}.q{opacity:0.47;}.al,.am,.q,.t{isolation:isolate;}.s{opacity:0.6;}.t{opacity:0.08;}.u{fill:#a5681e;}.v{fill:#ffcb1b;}.w{opacity:0.4;}.x{fill:#97ffcb;}.y{fill:#f777ba;}.z{fill:#2e7efa;}.aa,.ab,.ac,.af,.ah,.aj{fill:none;}.aa{stroke:#1a3987;}.aa,.af,.ah,.aj{stroke-linejoin:round;}.aa,.ab,.aj{stroke-width:0.75px;}.ab{stroke:#4c3f89;}.ab,.ac{stroke-miterlimit:10;}.ac{stroke:#18277a;}.ac,.ah{stroke-linecap:round;}.ac,.af{stroke-width:2px;}.ad{fill:#ffa18d;}.ae{fill:#f05448;}.af{stroke:#91302c;}.ag{fill:#00276f;}.ah{stroke:#00276f;stroke-width:0.5px;}.ai{fill:#0b0b3a;}.aj{stroke:#e07a6c;}.ak{fill:#fccb21;}.al{fill:#f9fbfc;opacity:0.5;}.am{fill:#fc9f21;opacity:0.66;}</style></defs><g transform="translate(0 -35.343)"><g transform="translate(0)"><path class="a" d="M266.5,819.839c138.778,57.479,184.811-6.441,313.8,4.742,73.458,6.382,150.965,55.325,224.186,14.039,55.049-31.041,82.663-96.769,80.6-155.4-.988-27.4-22.251-59.356-21.184-85.655,2.192-54.248,40.8-85.448,67.611-132.266,30.882-53.981,47.3-112.29,5.353-175.469-40.916-61.638-121.031-81.16-174.954-131.1-56.461-52.3-64.293-110.492-156.545-122.189-73.34-9.346-120.557,38.915-183.023,52.243C262.691,122.931,142.213,85.992,116.15,268.4c-10.864,76.309,11.219,155.918-6.064,228.552C79.372,626.093,82.374,743.6,266.5,819.839Z" transform="translate(0)"/><g class="b" transform="translate(366.491 171.23)"><path class="c" d="M409.34,786.42V481.68h57.31V732.76h68.19V181.23h66.74V589.92h14.69V264.4h52.96V479.43h102.1V825.52H409.34Z" transform="translate(-373.99 -181.23)"/><path class="d" d="M804.98,629.75V856.6H373.99V655.33h35.35v87.81h36.67V424.13h32.86V682.42h7.84V248.5h66.82V813.29h32.78V497.99h67.84V738.28h48.63V207.71h58.34V629.75Z" transform="translate(-373.99 -181.23)"/><rect class="d" width="48.13" height="16.88" transform="translate(112.72 101.67)"/><rect class="d" width="48.13" height="16.88" transform="translate(112.72 144.29)"/><rect class="d" width="48.13" height="16.88" transform="translate(112.72 186.92)"/><rect class="d" width="48.13" height="16.88" transform="translate(112.72 229.54)"/><rect class="d" width="48.13" height="16.88" transform="translate(112.72 272.16)"/><rect class="d" width="48.13" height="16.88" transform="translate(112.72 314.78)"/><rect class="d" width="48.13" height="16.88" transform="translate(112.72 357.4)"/><rect class="d" width="48.13" height="16.88" transform="translate(112.72 400.02)"/><rect class="d" width="48.13" height="16.88" transform="translate(112.72 442.64)"/><rect class="d" width="7.06" height="20.94" transform="translate(217.98 336.47)"/><rect class="d" width="7.06" height="20.94" transform="translate(230.13 336.47)"/><rect class="d" width="7.06" height="20.94" transform="translate(242.28 336.47)"/><rect class="d" width="7.06" height="20.94" transform="translate(254.43 336.47)"/><rect class="d" width="7.06" height="20.94" transform="translate(266.58 336.47)"/><rect class="d" width="7.06" height="20.94" transform="translate(217.98 370.33)"/><rect class="d" width="7.06" height="20.94" transform="translate(230.13 370.33)"/><rect class="d" width="7.06" height="20.94" transform="translate(242.28 370.33)"/><rect class="d" width="7.06" height="20.94" transform="translate(254.43 370.33)"/><rect class="d" width="7.06" height="20.94" transform="translate(266.58 370.33)"/><rect class="d" width="7.06" height="20.94" transform="translate(217.98 404.19)"/><rect class="d" width="7.06" height="20.94" transform="translate(230.13 404.19)"/><rect class="d" width="7.06" height="20.94" transform="translate(242.28 404.19)"/><rect class="d" width="7.06" height="20.94" transform="translate(254.43 404.19)"/><rect class="d" width="7.06" height="20.94" transform="translate(266.58 404.19)"/><rect class="d" width="7.06" height="20.94" transform="translate(217.98 438.05)"/><rect class="d" width="7.06" height="20.94" transform="translate(230.13 438.05)"/><rect class="d" width="7.06" height="20.94" transform="translate(242.28 438.05)"/><rect class="d" width="7.06" height="20.94" transform="translate(254.43 438.05)"/><rect class="d" width="7.06" height="20.94" transform="translate(266.58 438.05)"/><rect class="d" width="7.06" height="20.94" transform="translate(217.98 471.91)"/><rect class="d" width="7.06" height="20.94" transform="translate(230.13 471.91)"/><rect class="d" width="7.06" height="20.94" transform="translate(242.28 471.91)"/><rect class="d" width="7.06" height="20.94" transform="translate(254.43 471.91)"/><rect class="d" width="7.06" height="20.94" transform="translate(266.58 471.91)"/></g><g transform="translate(0 36.33)"><path class="e" d="M497.25,284.88a5.93,5.93,0,1,1,4.2-1.733A5.94,5.94,0,0,1,497.25,284.88Zm0-9.95a4,4,0,1,0,4,4A4,4,0,0,0,497.25,274.93Z" transform="translate(-6.067 -36.33)"/><path class="e" d="M96.69,430a5.94,5.94,0,1,1,5.93-5.94h0A5.93,5.93,0,0,1,96.69,430Zm0-10a4,4,0,1,0,4,4h0A4,4,0,0,0,96.69,420Z" transform="translate(0 -36.33)"/><path class="e" d="M177.77,227.46a7,7,0,1,1,7-7,7,7,0,0,1-7,7Zm0-11.77a4.779,4.779,0,1,1,0,.05Z" transform="translate(-2.12 -36.33)"/><path class="e" d="M248,154.29H228.91a1,1,0,0,1-.06-1.92H248a1,1,0,0,1,.07,1.92Z" transform="translate(-2.846 -36.33)"/><path class="e" d="M423.35,235.35H404.3a1,1,0,1,1-.06-1.91h19.11a1,1,0,1,1,.06,1.91.06.06,0,0,1-.06,0Z" transform="translate(-5.032 -36.33)"/><path class="e" d="M266,666.17H243.77a1,1,0,0,1-.06-1.92H266a1,1,0,0,1,0,1.92Z" transform="translate(-3.042 -36.33)"/><path class="f" d="M623,37.9V40h2.07a1.58,1.58,0,0,1,1.58,1.57h0a1.58,1.58,0,0,1-1.58,1.56H623V45.2a1.56,1.56,0,0,1-1.56,1.56h0a1.56,1.56,0,0,1-1.56-1.56V43.09h-2.07a1.56,1.56,0,0,1-1.56-1.56h0A1.56,1.56,0,0,1,617.81,40h2.07V37.9a1.58,1.58,0,0,1,1.56-1.57h0A1.57,1.57,0,0,1,623,37.9Z" transform="translate(-7.597 -36.33)"/><path class="f" d="M719,97.87a1.274,1.274,0,0,1,2.54-.21v6a1.27,1.27,0,0,1-2.54,0Zm-8.63,4.64a1.27,1.27,0,0,1,1.79-1.79l4.06,4a1.28,1.28,0,1,1-1.65,1.95,1.062,1.062,0,0,1-.15-.15Zm-2.88,9.41a1.26,1.26,0,0,1-1.38-1.15,1.28,1.28,0,0,1,1.16-1.39h6a1.27,1.27,0,1,1,0,2.54Zm4.64,8.63a1.27,1.27,0,1,1-1.82-1.76h0l4-4.05a1.293,1.293,0,1,1,2,1.64l-.16.16Zm9.42,2.88a1.275,1.275,0,0,1-2.54.22.81.81,0,0,1,0-.22v-5.75a1.274,1.274,0,1,1,2.54-.21v6Zm8.67-4.64a1.27,1.27,0,0,1-1.8,1.79l-4-4a1.27,1.27,0,1,1,1.64-1.94,1.143,1.143,0,0,1,.16.15Zm2.88-9.42a1.274,1.274,0,1,1,.21,2.54.74.74,0,0,1-.21,0h-5.75a1.275,1.275,0,1,1-.22-2.54h6Zm-4.64-8.62a1.27,1.27,0,0,1,1.8,1.79l-4,4a1.271,1.271,0,1,1-1.95-1.63,1.143,1.143,0,0,1,.15-.16Z" transform="translate(-8.886 -36.33)"/><path class="f" d="M106.41,186.46v2.06h2.07a1.58,1.58,0,0,1,1.57,1.57h0a1.59,1.59,0,0,1-1.57,1.57h-2.07v2a1.56,1.56,0,0,1-1.56,1.56h0a1.56,1.56,0,0,1-1.56-1.56h0V191.6h-2.05a1.59,1.59,0,0,1-1.58-1.57h0a1.59,1.59,0,0,1,1.58-1.57h2.06V186.4a1.56,1.56,0,0,1,1.56-1.56h0a1.56,1.56,0,0,1,1.55,1.57h0Z" transform="translate(0 -36.33)"/><path class="f" d="M516.07,101.43v2.06h2.06a1.56,1.56,0,0,1,1.56,1.57h0a1.56,1.56,0,0,1-1.56,1.56h-2.06v2.07a1.56,1.56,0,0,1-1.57,1.56h0a1.56,1.56,0,0,1-1.57-1.56v-2.07h-2.06a1.58,1.58,0,0,1-1.57-1.56h0a1.58,1.58,0,0,1,1.57-1.57h2v-2.06a1.58,1.58,0,0,1,1.56-1.57h0a1.59,1.59,0,0,1,1.61,1.55h0Z" transform="translate(-6.278 -36.33)"/><path class="f" d="M6.76,502.73v2.06H8.83a1.58,1.58,0,0,1,1.56,1.57h0a1.57,1.57,0,0,1-1.56,1.56H6.76V510a1.56,1.56,0,0,1-1.56,1.56h0A1.56,1.56,0,0,1,3.64,510v-2.07H1.56A1.58,1.58,0,0,1,0,506.36H0a1.58,1.58,0,0,1,1.56-1.57H3.63v-2.06a1.57,1.57,0,0,1,1.57-1.57h0a1.58,1.58,0,0,1,1.56,1.57Z" transform="translate(0 -36.33)"/><path class="f" d="M889.09,491.67v2.09h2.06a1.56,1.56,0,0,1,1.56,1.56h0a1.56,1.56,0,0,1-1.56,1.57h-2.06V499a1.58,1.58,0,0,1-1.58,1.56h0A1.56,1.56,0,0,1,886,499v-2.07h-2a1.57,1.57,0,0,1-1.57-1.57h0A1.58,1.58,0,0,1,884,493.8h2v-2.1a1.56,1.56,0,0,1,1.56-1.56h0a1.57,1.57,0,0,1,1.56,1.53Z" transform="translate(-10.877 -36.33)"/><path class="f" d="M828.06,259.84v2.06h2.06a1.59,1.59,0,0,1,1.57,1.57h0a1.58,1.58,0,0,1-1.57,1.57h-2.06v2.06a1.58,1.58,0,0,1-1.57,1.57h0a1.59,1.59,0,0,1-1.57-1.57V265h-2.06a1.56,1.56,0,0,1-1.56-1.57h0a1.58,1.58,0,0,1,1.56-1.57h2.06V259.8a1.58,1.58,0,0,1,1.57-1.56h0a1.56,1.56,0,0,1,1.57,1.6Z" transform="translate(-10.877 -36.33)"/><path class="f" d="M466.38,335.46v2h2.06a1.57,1.57,0,0,1,1.57,1.57h0a1.58,1.58,0,0,1-1.57,1.57h-2.06v2.06a1.56,1.56,0,0,1-1.56,1.56h0a1.56,1.56,0,0,1-1.56-1.56v-2h-2.07a1.58,1.58,0,0,1-1.57-1.58h0a1.56,1.56,0,0,1,1.57-1.56h2.07v-2.06a1.56,1.56,0,0,1,1.56-1.57h0a1.57,1.57,0,0,1,1.56,1.57Z" transform="translate(-5.666 -36.33)"/><path class="f" d="M176.5,207.66a1.28,1.28,0,0,1,1.17-1.38,1.26,1.26,0,0,1,1.37,1.16.81.81,0,0,1,0,.22v5.75a1.274,1.274,0,1,1-2.54.21v-6Zm-8.62,4.64a1.29,1.29,0,1,1,1.63-2,1.21,1.21,0,0,1,.16.16l4,4a1.27,1.27,0,0,1-1.79,1.8ZM165,221.71a1.28,1.28,0,0,1-.23-2.54h6a1.274,1.274,0,1,1,.21,2.54h-6Zm4.64,8.63a1.27,1.27,0,0,1-1.79-1.79l4-4.05a1.273,1.273,0,0,1,1.83,1.77h0Zm9.41,2.88a1.274,1.274,0,0,1-2.54.21v-6a1.28,1.28,0,0,1,2.54,0Zm8.63-4.64a1.27,1.27,0,0,1-1.79,1.79l-4-4.05a1.27,1.27,0,0,1,1.8-1.79Zm2.88-9.42a1.274,1.274,0,1,1,.21,2.54.74.74,0,0,1-.21,0h-5.75a1.275,1.275,0,0,1-.22-2.54h6Zm-4.64-8.67a1.26,1.26,0,0,1,1.79.15,1.28,1.28,0,0,1,0,1.65l-4.05,4a1.27,1.27,0,0,1-1.79-1.8Z" transform="translate(-2.06 -36.33)"/><path class="e" d="M37.13,601.72a7,7,0,1,1,7-7A7,7,0,0,1,37.13,601.72Zm0-11.77a4.8,4.8,0,1,0,4.79,4.8h0A4.79,4.79,0,0,0,37.13,590Z" transform="translate(0 -36.33)"/><path class="f" d="M35.86,582a1.26,1.26,0,0,1,1.27-1.28A1.29,1.29,0,0,1,38.41,582h0v5.75a1.28,1.28,0,0,1-2.55,0h0Zm-8.63,4.65a1.27,1.27,0,0,1,0-1.8,1.29,1.29,0,0,1,1.8,0l4,4a1.29,1.29,0,0,1,0,1.8,1.27,1.27,0,0,1-1.8,0ZM24.35,596a1.274,1.274,0,0,1-.21-2.54h6a1.275,1.275,0,0,1,.22,2.54h-6ZM29,604.65A1.28,1.28,0,0,1,27.09,603l.11-.11,4.05-4a1.28,1.28,0,0,1,1.8,1.8l-4,4Zm9.41,2.88a1.26,1.26,0,0,1-1.27,1.27,1.29,1.29,0,0,1-1.28-1.27h0v-5.76a1.28,1.28,0,0,1,2.55,0h0ZM47,602.88a1.271,1.271,0,1,1-1.69,1.9l-.11-.1-4-4.09a1.26,1.26,0,0,1,.15-1.79,1.28,1.28,0,0,1,1.65,0l4,4Zm2.88-9.4a1.27,1.27,0,1,1,0,2.54H44.17a1.275,1.275,0,0,1-.22-2.54h6Zm-4.65-8.68a1.273,1.273,0,0,1,1.8,1.8l-4,4a1.29,1.29,0,0,1-1.8,0,1.31,1.31,0,0,1,0-1.8Z" transform="translate(0 -36.33)"/><path class="f" d="M280.24,593.29a.72.72,0,0,1,.7-.72h0a.72.72,0,0,1,.73.71h0v3.26a.73.73,0,0,1-.73.73h0a.72.72,0,0,1-.72-.72h0Zm-4.95,2.65a.73.73,0,0,1,1-1l2.31,2.31a.73.73,0,0,1-1,1Zm-1.62,5.36a.72.72,0,0,1-.81-.63.73.73,0,0,1,.64-.81h3.43a.725.725,0,1,1,.17,1.44Zm2.65,5a.73.73,0,0,1-1.13-.92l.1-.1,2.31-2.31a.73.73,0,1,1,1.13.92l-.1.1Zm5.37,1.62a.72.72,0,0,1-.72.72h0a.71.71,0,0,1-.72-.7v-3.28a.72.72,0,0,1,.71-.73h0a.73.73,0,0,1,.73.73h0v3.26Zm4.94-2.64a.72.72,0,0,1,0,1h0a.74.74,0,0,1-1,0l-2.3-2.31a.72.72,0,0,1,0-1h0a.74.74,0,0,1,1,0Zm1.63-5.37a.73.73,0,0,1,0,1.44H285a.724.724,0,0,1,0-1.44Zm-2.66-5a.73.73,0,0,1,1,1h0l-2.3,2.31a.76.76,0,0,1-1,0,.72.72,0,0,1,0-1h0Z" transform="translate(-3.385 -36.33)"/><path class="e" d="M851,565.24a7,7,0,1,1,7-7,7,7,0,0,1-7,7Zm0-11.77a4.78,4.78,0,1,0,3.39,1.4,4.79,4.79,0,0,0-3.39-1.4Z" transform="translate(-10.877 -36.33)"/><path class="f" d="M849.72,545.43a1.27,1.27,0,1,1,2.54,0v5.75a1.275,1.275,0,0,1-2.54.22v-6Zm-8.67,4.65a1.273,1.273,0,0,1,1.8-1.8l4,4.05a1.27,1.27,0,0,1,0,1.8,1.31,1.31,0,0,1-1.8,0Zm-2.88,9.42a1.28,1.28,0,0,1,0-2.55h5.76a1.26,1.26,0,0,1,1.27,1.28,1.28,1.28,0,0,1-1.27,1.27Zm4.65,8.62a1.27,1.27,0,0,1-1.8,0,1.29,1.29,0,0,1,0-1.8l4.05-4a1.273,1.273,0,1,1,1.8,1.8Zm9.41,2.88a1.275,1.275,0,0,1-2.54,0v-5.75a1.28,1.28,0,1,1,2.55-.22v6Zm8.63-4.65a1.273,1.273,0,1,1-1.8,1.8l-4-4a1.28,1.28,0,0,1,.1-1.8,1.3,1.3,0,0,1,1.7,0Zm2.88-9.41a1.27,1.27,0,0,1,1.28,1.27,1.29,1.29,0,0,1-1.27,1.28H858a1.28,1.28,0,1,1,0-2.55Zm-4.65-8.63a1.273,1.273,0,1,1,1.8,1.8l-4,4a1.273,1.273,0,1,1-1.8-1.8Z" transform="translate(-10.877 -36.33)"/></g><path class="g" d="M679.47,623.94c.41,4.81.9,9.61,1.5,14.39s1.26,9.56,2,14.32,1.67,9.49,2.7,14.19,2.32,9.34,3.73,13.93c2.91,9.21,5.7,18.46,8.18,27.8,1.23,4.66,2.43,9.34,3.48,14.06.53,2.35,1,4.72,1.44,7.1a36.2,36.2,0,0,1,.76,7.19,21.6,21.6,0,0,0-.34-3.59c-.19-1.19-.42-2.38-.67-3.55-.49-2.36-1-4.71-1.64-7-1.16-4.68-2.43-9.33-3.75-14-2.65-9.27-5.4-18.52-8.39-27.68a187.168,187.168,0,0,1-6.29-28.31,278.638,278.638,0,0,1-2.71-28.85Z" transform="translate(-7.782 -7.979)"/><circle class="h" cx="45.62" cy="45.62" r="45.62" transform="translate(601.447 588.801) rotate(-45)"/><circle class="i" cx="32.83" cy="32.83" r="32.83" transform="translate(620.657 598.566) rotate(-57.03)"/><path class="j" d="M705.1,589a31.18,31.18,0,1,1-37.32-23.49A31.18,31.18,0,0,1,705.1,589Z" transform="translate(-7.682 -6.782)"/><path class="i" d="M687.66,580.33v-2.82a.75.75,0,0,0-.75-.74l-23.75.25c-.41,0-1.62,1.46-1.62,1.87l.92,2.55a.74.74,0,0,0,.75.73h4c4.07,0,6.65,1.08,7.68,3.34l-11.65.12c-.41,0-1.36.25-1.62,1.66l.91,1.91a.73.73,0,0,0,.75.74l12-.12c-.71,3.2-3.81,5-8.83,5h-3.11a1.7,1.7,0,0,0-1.61,1.87l.91,2.38a.75.75,0,0,0,.21.51c5.31,5.53,9.46,10.37,13.95,15.67a.78.78,0,0,0,.58.27l4.53,1.06c1,0,1.43-1.29,1.55-1.55a.76.76,0,0,0-.1-.79c-4.29-5.16-8.82-10.49-13-14.89,6.38-.74,10.51-4.26,11.28-9.66l4.67,1c.92.1,1.51-.62,1.5-1.86v-2.82a.74.74,0,0,0-.75-.73h-5.52a9.18,9.18,0,0,0-2-4.24l6.59,1C687.05,582.39,687.66,580.74,687.66,580.33Z" transform="translate(-7.597 -6.744)"/><path class="k" d="M686.78,581.45v-2.82a.75.75,0,0,0-.75-.74l-23.75.24a.76.76,0,0,0-.74.76v3.66a.73.73,0,0,0,.75.74h4c4.07,0,6.65,1.08,7.68,3.34l-11.65.12a.75.75,0,0,0-.74.75v2.82a.75.75,0,0,0,.75.74l12-.12c-.71,3.2-3.81,5-8.83,5h-3.11a.73.73,0,0,0-.73.75v3.5a.75.75,0,0,0,.21.51c5.31,5.53,9.46,10.37,13.95,15.67a.72.72,0,0,0,.58.26h5.41a.75.75,0,0,0,.67-.44.76.76,0,0,0-.1-.79c-4.3-5.15-8.82-10.48-13-14.89,6.38-.74,10.51-4.25,11.27-9.65l5.44-.06a.75.75,0,0,0,.74-.75v-2.82a.76.76,0,0,0-.76-.74l-5.51.06a9.19,9.19,0,0,0-2-4.24l7.48-.08a.75.75,0,0,0,.74-.78Z" transform="translate(-7.589 -6.749)"/><path class="l" d="M634.18,613.51s-16.2-41.4,25.35-59.16C659.53,554.35,629.35,569.19,634.18,613.51Z" transform="translate(-7.263 -6.632)"/><path class="g" d="M845.89,427.38c.41,4.81.9,9.61,1.51,14.39s1.25,9.56,2,14.32,1.67,9.48,2.7,14.19,2.32,9.34,3.73,13.93c2.91,9.21,5.71,18.46,8.18,27.79,1.23,4.67,2.43,9.35,3.49,14.06q.78,3.54,1.43,7.11a36.2,36.2,0,0,1,.76,7.19,21.606,21.606,0,0,0-.34-3.59c-.19-1.19-.42-2.38-.67-3.56-.49-2.35-1.05-4.7-1.64-7-1.16-4.68-2.42-9.33-3.75-14-2.65-9.27-5.4-18.52-8.39-27.69a187.982,187.982,0,0,1-6.29-28.3,278.7,278.7,0,0,1-2.72-28.84Z" transform="translate(-10.877 -5.465)"/><circle class="h" cx="45.62" cy="45.62" r="45.62" transform="translate(764.846 394.81) rotate(-45)"/><circle class="i" cx="32.83" cy="32.83" r="32.83" transform="translate(783.943 404.452) rotate(-57.03)"/><path class="j" d="M871.52,392.45A31.18,31.18,0,1,1,834.21,369,31.18,31.18,0,0,1,871.52,392.45Z" transform="translate(-10.877 -4.422)"/><path class="i" d="M854.08,383.77v-2.82a.75.75,0,0,0-.75-.74l-23.75.25c-.41,0-1.62,1.46-1.62,1.87l.92,2.55a.74.74,0,0,0,.76.73h4c4.07,0,6.65,1.08,7.69,3.34l-11.66.12c-.41,0-1.36.25-1.62,1.66l.91,1.91a.74.74,0,0,0,.76.74l12-.12c-.71,3.2-3.81,5-8.83,5h-3.1a1.7,1.7,0,0,0-1.62,1.87l.91,2.38a.8.8,0,0,0,.21.51c5.31,5.53,9.46,10.37,14,15.67a.78.78,0,0,0,.58.27L848.3,420c1.05,0,1.43-1.29,1.55-1.55a.76.76,0,0,0-.1-.79c-4.29-5.16-8.82-10.49-13-14.89,6.38-.74,10.51-4.26,11.28-9.66l4.67,1.05c.92.1,1.51-.62,1.5-1.86v-2.82a.73.73,0,0,0-.75-.73h-5.52a9.18,9.18,0,0,0-2-4.24l6.59,1C853.47,385.82,854.08,384.18,854.08,383.77Z" transform="translate(-10.877 -4.446)"/><path class="k" d="M853.2,384.89v-2.82a.75.75,0,0,0-.75-.74l-23.75.24a.76.76,0,0,0-.74.76v3.66a.75.75,0,0,0,.75.74h4c4.07,0,6.65,1.08,7.68,3.34l-11.65.12a.75.75,0,0,0-.74.75v2.82a.75.75,0,0,0,.75.74l12-.12c-.71,3.2-3.81,5-8.83,5h-3.11a.73.73,0,0,0-.73.75v3.5a.75.75,0,0,0,.21.51c5.31,5.53,9.46,10.37,13.95,15.67a.77.77,0,0,0,.58.26h5.41a.75.75,0,0,0,.57-1.23c-4.29-5.15-8.82-10.49-13-14.89,6.38-.74,10.51-4.25,11.28-9.65l5.43-.06a.75.75,0,0,0,.74-.75v-2.82a.75.75,0,0,0-.75-.74L847,390a9.28,9.28,0,0,0-2-4.24l7.47-.08a.75.75,0,0,0,.73-.79Z" transform="translate(-10.877 -4.453)"/><path class="l" d="M800.6,417s-16.2-41.4,25.35-59.16C826,357.79,795.77,372.63,800.6,417Z" transform="translate(-10.877 -4.281)"/><path class="g" d="M700.73,462.4c.3,3,.63,6.06,1,9.08s.83,6,1.34,9,1.07,6,1.73,9,1.48,5.89,2.37,8.79c1.82,5.82,3.59,11.67,5.12,17.58.77,3,1.51,5.92,2.16,8.9q.48,2.25.87,4.5a22.579,22.579,0,0,1,.43,4.56,25.457,25.457,0,0,0-.68-4.51c-.32-1.49-.69-3-1.07-4.44q-1.14-4.43-2.42-8.81c-1.71-5.85-3.44-11.7-5.35-17.48a117.327,117.327,0,0,1-3.94-17.93,161.682,161.682,0,0,1-1.56-18.24Z" transform="translate(-7.952 -5.614)"/><circle class="h" cx="28.83" cy="28.83" r="28.83" transform="translate(649.185 447.718) rotate(-56.48)"/><circle class="i" cx="20.75" cy="20.75" r="20.75" transform="translate(660.508 445.715) rotate(-57.03)"/><path class="j" d="M716.93,440.32a19.71,19.71,0,1,1-23.59-14.84A19.71,19.71,0,0,1,716.93,440.32Z" transform="translate(-7.895 -4.967)"/><path class="i" d="M705.9,434.84v-1.79a.45.45,0,0,0-.47-.46l-15,.15c-.26,0-1,.92-1,1.18l.58,1.61a.46.46,0,0,0,.47.47h2.53c2.58,0,4.21.69,4.86,2.11l-7.37.08a1.062,1.062,0,0,0-1,1l.58,1.21a.47.47,0,0,0,.47.47l7.58-.08c-.45,2-2.41,3.14-5.58,3.18h-2a1.07,1.07,0,0,0-1,1.18l.58,1.5a.46.46,0,0,0,.13.32c3.36,3.5,6,6.56,8.82,9.91a.47.47,0,0,0,.37.17l2.86.67c.66,0,.9-.82,1-1a.46.46,0,0,0-.07-.5c-2.71-3.26-5.57-6.63-8.23-9.41,4-.47,6.64-2.69,7.13-6.1l3,.66c.58.06,1-.39,1-1.18v-1.78a.46.46,0,0,0-.48-.46L702,438a5.859,5.859,0,0,0-1.27-2.68l4.17.66C705.52,436.13,705.9,435.1,705.9,434.84Z" transform="translate(-7.838 -4.973)"/><path class="k" d="M705.34,435.54v-1.78a.48.48,0,0,0-.48-.47l-15,.16a.45.45,0,0,0-.46.47v2.32a.48.48,0,0,0,.48.47h2.53c2.57,0,4.2.68,4.85,2.11l-7.36.08a.47.47,0,0,0-.47.47v1.78a.47.47,0,0,0,.48.47l7.57-.08c-.45,2-2.41,3.15-5.58,3.18h-2a.48.48,0,0,0-.47.48v2.21a.49.49,0,0,0,.14.32c3.35,3.5,6,6.56,8.81,9.91a.51.51,0,0,0,.37.16h3.42a.48.48,0,0,0,.36-.77c-2.72-3.26-5.57-6.63-8.24-9.42,4-.46,6.65-2.69,7.13-6.1h3.43a.48.48,0,0,0,.47-.48v-1.78a.47.47,0,0,0-.47-.47h-3.49a5.76,5.76,0,0,0-1.27-2.68l4.73-.05a.47.47,0,0,0,.52-.51Z" transform="translate(-7.831 -4.978)"/><path class="l" d="M672.1,455.81s-10.24-26.17,16-37.4C688.12,418.41,669,427.79,672.1,455.81Z" transform="translate(-7.628 -4.879)"/><path class="g" d="M484,624.5a143.333,143.333,0,0,1,2.66,17.12c.64,5.74,1.07,11.51,1.5,17.27.68,11.51,2,23,3.33,34.44s2.87,22.9,4.55,34.32c.84,5.71,1.7,11.42,2.63,17.12.47,2.84,1,5.69,1.5,8.52.27,1.42.55,2.83.86,4.24a28.223,28.223,0,0,0,1.14,4.17,29.867,29.867,0,0,1-1.24-4.14c-.34-1.41-.65-2.82-.94-4.23-.59-2.83-1.13-5.67-1.64-8.51q-1.56-8.52-2.88-17.08c-1.77-11.41-3.44-22.84-4.85-34.3s-2.73-23-3.45-34.49c-.35-5.76-.8-11.51-1.26-17.26q-.34-4.31-.8-8.61A85.649,85.649,0,0,0,484,624.5Z" transform="translate(-5.511 -10)"/><circle class="h" cx="31.6" cy="31.6" r="31.6" transform="translate(433.393 630.393) rotate(-41.55)"/><circle class="i" cx="22.75" cy="22.75" r="22.75" transform="matrix(0.007, -1, 1, 0.007, 455.115, 655.833)"/><path class="j" d="M504.22,632.86a21.6,21.6,0,1,1-27.85-12.52,21.6,21.6,0,0,1,27.85,12.52Z" transform="translate(-5.407 -7.266)"/><path class="i" d="M491.43,628.58l-.3-1.93a.51.51,0,0,0-.58-.43l-16.27,2.45a2.5,2.5,0,0,0-.93,1.44l.87,1.66a.52.52,0,0,0,.59.43l2.75-.41c2.78-.42,4.66.1,5.59,1.55l-8,1.2a1.22,1.22,0,0,0-1,1.29l.81,1.23a.51.51,0,0,0,.59.43l8.21-1.23c-.18,2.26-2.14,3.78-5.58,4.3l-2.12.32a1.18,1.18,0,0,0-.93,1.44l.86,1.54a.49.49,0,0,0,.19.33c4.17,3.28,7.48,6.21,11.07,9.41a.54.54,0,0,0,.42.13L491,654c.71-.11.85-1,.91-1.21a.5.5,0,0,0-.15-.53c-3.44-3.13-7-6.35-10.37-9,4.31-1.12,6.81-3.93,6.81-7.7l3.31.26c.64,0,1-.56.85-1.41l-.29-1.94a.52.52,0,0,0-.59-.43l-3.77.57a6.479,6.479,0,0,0-1.79-2.72l4.62.08C491.2,630.05,491.47,628.87,491.43,628.58Z" transform="translate(-5.394 -7.221)"/><path class="k" d="M490.93,629.43l-.29-1.93a.52.52,0,0,0-.59-.43l-16.27,2.45a.51.51,0,0,0-.43.59l.38,2.51a.51.51,0,0,0,.58.43l2.75-.41c2.79-.42,4.66.1,5.59,1.55l-8,1.2a.53.53,0,0,0-.44.59l.29,1.93a.52.52,0,0,0,.59.43l8.21-1.23c-.18,2.26-2.13,3.78-5.57,4.3l-2.13.32a.51.51,0,0,0-.43.59l.36,2.39a.53.53,0,0,0,.19.33c4.17,3.28,7.48,6.21,11.08,9.41a.53.53,0,0,0,.42.13L491,654a.51.51,0,0,0,.41-.36.52.52,0,0,0-.14-.53c-3.44-3.13-7.06-6.35-10.37-9,4.3-1.12,6.8-3.93,6.81-7.7l3.72-.56a.52.52,0,0,0,.43-.59l-.29-1.93a.51.51,0,0,0-.59-.44l-3.77.57a6.39,6.39,0,0,0-1.79-2.72l5.12-.77a.51.51,0,0,0,.39-.54Z" transform="translate(-5.391 -7.229)"/><path class="l" d="M457.92,656.49s-15.09-26.85,11.71-43C469.63,613.46,450.35,626.54,457.92,656.49Z" transform="translate(-5.154 -7.201)"/><path class="g" d="M389.56,733.16a3.121,3.121,0,0,1,1.45-.7,2.47,2.47,0,0,1,1.61.3,5.59,5.59,0,0,1,2.1,2.49,23.462,23.462,0,0,1,1.77,6.23,80.2,80.2,0,0,1,.86,12.85c0,4.3-.2,8.57-.24,12.84S397,775.73,397,780c0,8.56,0,17.11.16,25.66.12,4.28.24,8.55.47,12.82.11,2.14.25,4.27.45,6.4a39.693,39.693,0,0,0,1,6.33,38.529,38.529,0,0,1-1.17-6.31c-.25-2.13-.44-4.26-.6-6.39-.34-4.27-.55-8.55-.71-12.83-.31-8.55-.48-17.12-.46-25.68s.15-17.13.3-25.67a98.617,98.617,0,0,0-.6-12.75,24.321,24.321,0,0,0-1.47-6.15A5.33,5.33,0,0,0,392.5,733,2.59,2.59,0,0,0,389.56,733.16Z" transform="translate(-4.396 -10)"/><path class="h" d="M425.63,734.14A28.33,28.33,0,1,1,391.1,713.8,28.33,28.33,0,0,1,425.63,734.14Z" transform="translate(-4.388 -10)"/><path class="i" d="M418,736.13a20.4,20.4,0,1,1-24.86-14.64A20.4,20.4,0,0,1,418,736.13Z" transform="translate(-4.406 -10)"/><path class="j" d="M417.51,736.49a19.37,19.37,0,1,1-23.6-13.9A19.37,19.37,0,0,1,417.51,736.49Z" transform="translate(-4.415 -10)"/><path class="i" d="M406.52,731.42l-.07-1.75a.46.46,0,0,0-.48-.45l-14.74.59c-.26,0-1,.93-1,1.19l.62,1.56a.46.46,0,0,0,.48.45l2.48-.1c2.53-.1,4.15.55,4.84,1.93l-7.24.29c-.25,0-.84.18-1,1.06l.61,1.17a.46.46,0,0,0,.48.45l7.44-.3c-.39,2-2.28,3.16-5.4,3.29l-1.92.07a1.05,1.05,0,0,0-1,1.19l.61,1.46a.49.49,0,0,0,.14.32c3.4,3.33,6.06,6.26,8.95,9.47a.45.45,0,0,0,.36.16l2.84.57c.64,0,.86-.82.93-1a.47.47,0,0,0-.08-.49c-2.76-3.12-5.66-6.35-8.36-9,4-.57,6.45-2.83,6.82-6.2l2.93.57c.57.05.92-.41.89-1.18l-.07-1.75a.46.46,0,0,0-.48-.45l-3.42.14a5.8,5.8,0,0,0-1.32-2.6l4.11.53C406.18,732.7,406.53,731.67,406.52,731.42Z" transform="translate(-4.435 -10)"/><path class="k" d="M406,732.13l-.07-1.75a.46.46,0,0,0-.48-.45l-14.74.59a.46.46,0,0,0-.44.48l.09,2.27a.46.46,0,0,0,.48.45l2.49-.1c2.52-.1,4.15.55,4.83,1.93l-7.24.29a.46.46,0,0,0-.44.48l.07,1.75a.46.46,0,0,0,.48.45l7.44-.3c-.38,2-2.27,3.16-5.39,3.29l-1.93.07a.47.47,0,0,0-.44.48l.08,2.17a.55.55,0,0,0,.14.32c3.4,3.33,6.06,6.26,8.95,9.47a.46.46,0,0,0,.36.16l3.37-.14a.44.44,0,0,0,.4-.28.47.47,0,0,0-.08-.49c-2.76-3.12-5.66-6.35-8.36-9,3.95-.57,6.45-2.83,6.83-6.2l3.37-.13a.46.46,0,0,0,.45-.48l-.07-1.75a.47.47,0,0,0-.49-.45l-3.42.14a5.7,5.7,0,0,0-1.32-2.6l4.64-.18a.46.46,0,0,0,.44-.49Z" transform="translate(-4.433 -10)"/><path class="l" d="M373.92,753s-10.82-25.42,14.66-37.2C388.58,715.8,370.11,725.56,373.92,753Z" transform="translate(-4.226 -8.345)"/><path class="m" d="M880.18,533.17c.35,7.61.46,15.23.43,22.85s-.33,15.24-.75,22.85-1.15,15.21-2,22.78a219.336,219.336,0,0,1-3.8,22.58c-3.36,14.85-6.36,29.78-9.17,44.74-1.39,7.48-2.69,15-3.84,22.5-.58,3.76-1.11,7.53-1.54,11.31-.21,1.89-.4,3.79-.51,5.68a33.9,33.9,0,0,0,0,5.7,33.877,33.877,0,0,1-.16-5.7c.07-1.91.21-3.81.38-5.71.33-3.79.77-7.58,1.25-11.36,1-7.55,2.22-15.08,3.5-22.59,2.57-15,5.63-29.95,8.89-44.83,1.57-7.43,2.87-14.92,3.84-22.46s1.65-15.12,2.19-22.7.9-15.19,1.1-22.8S880.32,540.79,880.18,533.17Z" transform="translate(-10.877 -7.467)"/><circle class="h" cx="63.74" cy="63.74" r="63.74" transform="translate(792.575 554.573) rotate(-68.8)"/><circle class="i" cx="45.88" cy="45.88" r="45.88" transform="translate(820.679 482.724) rotate(-11.91)"/><circle class="j" cx="43.56" cy="43.56" r="43.56" transform="translate(814.611 518.632) rotate(-45)"/><path class="i" d="M908.14,505.68l.53-3.91a1,1,0,0,0-.89-1.17l-32.89-4.44c-.57-.08-2.53,1.69-2.61,2.26l.76,3.71a1,1,0,0,0,.89,1.17l5.55.75c5.63.76,9,2.83,9.95,6.16L873.29,508a2.45,2.45,0,0,0-2.57,2l.87,2.83a1,1,0,0,0,.9,1.17l16.59,2.24c-1.63,4.29-6.27,6.12-13.22,5.18l-4.3-.58A2.38,2.38,0,0,0,869,523.1l.79,3.48a1,1,0,0,0,.18.74c6.23,8.72,11,16.25,16.14,24.48a1,1,0,0,0,.75.48l6.05,2.38c1.45.2,2.24-1.49,2.46-1.83a1,1,0,0,0,0-1.11c-4.9-8-10.08-16.28-15-23.21,9,.26,15.39-3.77,17.54-11.08l6.25,2.39c1.24.32,2.21-.55,2.44-2.27l.53-3.91a1,1,0,0,0-.89-1.17l-7.64-1a12.91,12.91,0,0,0-1.92-6.27l8.91,2.77C906.89,508.39,908.07,506.25,908.14,505.68Z" transform="translate(-10.877 -5.931)"/><path class="k" d="M906.7,507l.53-3.9a1,1,0,0,0-.89-1.17l-32.89-4.44a1,1,0,0,0-1.17.89l-.69,5.08a1.05,1.05,0,0,0,.9,1.17l5.54.75c5.64.76,9,2.83,10,6.16l-16.14-2.18a1,1,0,0,0-1.17.89l-.53,3.91a1,1,0,0,0,.89,1.17l16.6,2.24c-1.63,4.28-6.27,6.12-13.22,5.18l-4.3-.58a1,1,0,0,0-1.17.89l-.66,4.85a1,1,0,0,0,.19.74c6.23,8.72,11,16.24,16.14,24.48a1,1,0,0,0,.74.48l7.5,1a1.024,1.024,0,0,0,1-1.57c-4.9-8-10.08-16.28-15-23.22,9,.26,15.4-3.77,17.54-11.08l7.53,1a1,1,0,0,0,1.17-.89l.53-3.91a1.05,1.05,0,0,0-.9-1.17l-7.63-1a12.91,12.91,0,0,0-1.92-6.27l10.35,1.4a1.05,1.05,0,0,0,1.13-.9Z" transform="translate(-10.877 -5.937)"/><path class="l" d="M827.52,540.8s-14.08-60.51,47-76.71C874.47,464.09,829.75,478.54,827.52,540.8Z" transform="translate(-10.877 -5.671)"/><path class="g" d="M922.1,609.77a3,3,0,0,1,1.52.51,2.46,2.46,0,0,1,1,1.32,5.749,5.749,0,0,1-.22,3.26,23.93,23.93,0,0,1-3.05,5.71,80.634,80.634,0,0,1-8.31,9.85c-3,3.09-6.09,6-9.1,9.07s-6,6.06-9,9.13c-6,6.14-11.91,12.28-17.7,18.58-2.89,3.15-5.77,6.31-8.57,9.54-1.4,1.62-2.78,3.25-4.11,4.92a38.31,38.31,0,0,0-3.69,5.24,36.536,36.536,0,0,1,3.54-5.36c1.29-1.7,2.64-3.37,4-5,2.72-3.3,5.54-6.53,8.4-9.72q8.58-9.56,17.5-18.8c5.93-6.16,12-12.22,18-18.26a98.1,98.1,0,0,0,8.42-9.59,24.748,24.748,0,0,0,3.22-5.44,5.329,5.329,0,0,0,.4-3A2.58,2.58,0,0,0,922.1,609.77Z" transform="translate(-10.877 -7.456)"/><path class="h" d="M955.37,631.53a28.33,28.33,0,1,1-10.72-38.61A28.33,28.33,0,0,1,955.37,631.53Z" transform="translate(-10.877 -7.029)"/><path class="i" d="M948.46,627.62a20.39,20.39,0,1,1-7.72-27.79,20.39,20.39,0,0,1,7.72,27.79Z" transform="translate(-10.877 -6.991)"/><path class="j" d="M947.9,627.57a19.37,19.37,0,1,1-7.33-26.39A19.37,19.37,0,0,1,947.9,627.57Z" transform="translate(-10.877 -6.992)"/><path class="i" d="M943.51,616.3l1.17-1.31a.47.47,0,0,0,0-.66l-11-9.81a2.26,2.26,0,0,0-1.53.18l-.64,1.56a.46.46,0,0,0,0,.65l1.86,1.66c1.89,1.68,2.61,3.27,2.14,4.74l-5.41-4.81a1.06,1.06,0,0,0-1.43.08l-.39,1.26a.46.46,0,0,0,0,.65l5.56,5c-1.67,1.17-3.83.69-6.16-1.38l-1.44-1.28a1.06,1.06,0,0,0-1.53.18l-.57,1.47a.5.5,0,0,0-.12.33c.13,4.76,0,8.71-.14,13a.439.439,0,0,0,.15.36l1.64,2.38c.49.44,1.2,0,1.36-.06a.47.47,0,0,0,.29-.41c.18-4.16.33-8.5.23-12.29,3.25,2.33,6.62,2.44,9.22.28l1.71,2.44c.38.43,1,.35,1.47-.23l1.16-1.31a.45.45,0,0,0,0-.65L938.54,616a5.751,5.751,0,0,0,.85-2.79l2.59,3.24C942.37,617,943.34,616.49,943.51,616.3Z" transform="translate(-10.877 -6.958)"/><path class="k" d="M942.64,616.44l1.16-1.31a.46.46,0,0,0,0-.65l-11-9.82a.46.46,0,0,0-.65,0l-1.52,1.7a.47.47,0,0,0,0,.66l1.86,1.65c1.89,1.68,2.6,3.28,2.14,4.75l-5.41-4.82a.46.46,0,0,0-.65,0l-1.18,1.4a.46.46,0,0,0,0,.65l5.56,5c-1.67,1.18-3.84.7-6.16-1.38l-1.44-1.28a.47.47,0,0,0-.66,0l-1.44,1.62a.47.47,0,0,0-.12.32c.13,4.76,0,8.72-.14,13a.48.48,0,0,0,.15.37l2.51,2.23a.47.47,0,0,0,.49.08.42.42,0,0,0,.28-.4c.19-4.16.34-8.51.24-12.29,3.25,2.33,6.61,2.44,9.22.28l2.52,2.24a.46.46,0,0,0,.65,0l1.17-1.31a.46.46,0,0,0,0-.65l-2.55-2.28a5.78,5.78,0,0,0,.85-2.79l3.46,3.09A.47.47,0,0,0,942.64,616.44Z" transform="translate(-10.877 -6.958)"/><path class="l" d="M905.06,609.18s9.87-25.79,36.39-16.58C941.45,592.6,921.38,586.8,905.06,609.18Z" transform="translate(-10.877 -6.739)"/><path class="g" d="M563.58,636.43q-2.07,8.91-3.76,17.89t-3.06,18c-.87,6-1.62,12.07-2.18,18.13s-.81,12.14-.86,18.21c0,12.2-.18,24.4-.75,36.59-.29,6.09-.63,12.18-1.14,18.26-.27,3-.57,6.08-1,9.11-.19,1.51-.41,3-.68,4.52a27.9,27.9,0,0,1-1.12,4.43,25.992,25.992,0,0,0,1-4.45c.24-1.51.42-3,.58-4.53.32-3,.55-6.07.75-9.11.4-6.08.67-12.17.86-18.26.37-12.18.59-24.37.51-36.55,0-6.12.37-12.23.92-18.31S555,678.24,556,672.22a360.214,360.214,0,0,1,7.58-35.79Z" transform="translate(-6.227 -10)"/><g class="n" transform="translate(539.636 540.54)"><path class="g" d="M558.27,550.54a62.407,62.407,0,0,1,2.77,14.2,94.723,94.723,0,0,1,.15,14.49,130.169,130.169,0,0,1-1.93,14.35q-1.32,7.11-3.07,14.13c-5.75,18.4-7.63,37.65-8.53,56.83q-.61,14.4-.51,28.83c.07,9.61.32,19.22.69,28.83s.93,19.22,1.57,28.82,1.37,19.2,2.47,28.75h-.12c-1.34-9.54-2.27-19.12-3.09-28.71s-1.47-19.21-1.95-28.83-.78-19.24-.86-28.88,0-19.27.52-28.89,1.27-19.25,2.64-28.8c.31-2.39.78-4.76,1.17-7.14.21-1.19.47-2.37.71-3.55s.46-2.37.77-3.54c1-4.72,2.59-9.31,4-13.9a110.647,110.647,0,0,0,3.18-14,132.518,132.518,0,0,0,1.34-14.33,134.869,134.869,0,0,0,0-14.36c-.15-2.39-.35-4.77-.67-7.15a63.3,63.3,0,0,0-1.28-7.08Z" transform="translate(-545.833 -550.54)"/></g><path class="h" d="M595.05,666.74a35.2,35.2,0,1,1-37.8-32.4,35.2,35.2,0,0,1,37.8,32.4Z" transform="translate(-6.32 -7.691)"/><circle class="i" cx="25.34" cy="25.34" r="25.34" transform="translate(524.044 641.593) rotate(-10.8)"/><path class="j" d="M584.6,667.84a24.06,24.06,0,1,1-25.83-22.15,24.06,24.06,0,0,1,25.83,22.15Z" transform="translate(-6.307 -7.624)"/><path class="i" d="M572.27,659.24l.29-2.15a.56.56,0,0,0-.49-.65l-18.15-2.5a2.984,2.984,0,0,0-1.45,1.24l.41,2.05a.58.58,0,0,0,.5.65l3.06.42c3.11.43,4.95,1.58,5.49,3.42L553,660.49a1.35,1.35,0,0,0-1.43,1.08l.48,1.57a.58.58,0,0,0,.49.65l9.16,1.26c-.9,2.36-3.47,3.37-7.31,2.84l-2.37-.32a1.3,1.3,0,0,0-1.44,1.24l.43,1.92a.54.54,0,0,0,.1.41c3.42,4.83,6,9,8.87,13.54a.57.57,0,0,0,.41.27l3.34,1.32c.8.11,1.24-.82,1.36-1a.56.56,0,0,0,0-.62c-2.69-4.42-5.54-9-8.26-12.84,5,.16,8.51-2.06,9.7-6.09l3.45,1.33c.69.18,1.22-.3,1.35-1.25l.3-2.16a.59.59,0,0,0-.49-.65l-4.21-.58A7.138,7.138,0,0,0,565.9,659l4.92,1.54C571.57,660.74,572.22,659.56,572.27,659.24Z" transform="translate(-6.294 -7.58)"/><path class="k" d="M571.47,660l.29-2.16a.57.57,0,0,0-.49-.65l-18.15-2.5a.58.58,0,0,0-.65.49l-.38,2.81a.57.57,0,0,0,.49.65l3.06.42c3.11.43,5,1.57,5.49,3.41l-8.91-1.22a.56.56,0,0,0-.65.49l-.3,2.16a.57.57,0,0,0,.49.64l9.16,1.26c-.9,2.37-3.47,3.37-7.3,2.85l-2.38-.33a.57.57,0,0,0-.64.49l-.37,2.67a.57.57,0,0,0,.1.42c3.42,4.82,6,9,8.88,13.54a.57.57,0,0,0,.41.26l4.13.57a.57.57,0,0,0,.56-.25.56.56,0,0,0,0-.62c-2.69-4.42-5.54-9-8.26-12.84,5,.16,8.51-2.06,9.7-6.09l4.16.57a.57.57,0,0,0,.65-.49l.29-2.16a.56.56,0,0,0-.49-.64l-4.21-.58a7.15,7.15,0,0,0-1.06-3.47l5.72.79a.59.59,0,0,0,.66-.49Z" transform="translate(-6.287 -7.583)"/><path class="l" d="M527.69,678.52s-7.68-33.43,26-42.29C553.73,636.23,529,644.14,527.69,678.52Z" transform="translate(-6.054 -7.461)"/><circle class="h" cx="43.06" cy="43.06" r="43.06" transform="translate(491.38 542.197) rotate(-58.94)"/><circle class="i" cx="31" cy="31" r="31" transform="matrix(0.509, -0.861, 0.861, 0.509, 508.064, 538.534)"/><path class="j" d="M586.18,526.55a29.43,29.43,0,1,1-35.76-21.28,29.43,29.43,0,0,1,35.76,21.28Z" transform="translate(-6.282 -6.032)"/><path class="i" d="M569.52,518.78l-.09-2.66a.7.7,0,0,0-.73-.68l-22.4.78c-.39,0-1.5,1.42-1.49,1.8l.93,2.39a.7.7,0,0,0,.73.68l3.77-.14c3.85-.13,6.31.87,7.34,3l-11,.39c-.39,0-1.28.27-1.49,1.6l.9,1.79a.71.71,0,0,0,.73.68L558,528c-.6,3-3.48,4.79-8.22,5l-2.92.1a1.6,1.6,0,0,0-1.49,1.8l.92,2.23a.73.73,0,0,0,.21.47c5.14,5.1,9.17,9.57,13.53,14.47a.71.71,0,0,0,.55.23l4.31.9c1,0,1.31-1.25,1.42-1.5a.73.73,0,0,0-.11-.75c-4.18-4.76-8.57-9.69-12.65-13.74,6-.85,9.82-4.27,10.42-9.38l4.44.88c.86.08,1.41-.62,1.36-1.79l-.09-2.66a.7.7,0,0,0-.73-.68l-5.2.19a8.7,8.7,0,0,0-2-4l6.25.83C569,520.73,569.53,519.16,569.52,518.78Z" transform="translate(-6.247 -6.013)"/><path class="k" d="M568.72,519.85l-.1-2.66a.7.7,0,0,0-.73-.68l-22.4.79a.7.7,0,0,0-.68.72l.12,3.46a.7.7,0,0,0,.73.68l3.78-.13c3.84-.14,6.3.86,7.33,3l-11,.38a.72.72,0,0,0-.68.73l.1,2.66a.7.7,0,0,0,.73.68l11.3-.39c-.59,3-3.48,4.78-8.21,5l-2.93.1a.71.71,0,0,0-.68.73l.12,3.3a.67.67,0,0,0,.2.47c5.14,5.1,9.17,9.57,13.54,14.47a.68.68,0,0,0,.55.23l5.11-.17a.71.71,0,0,0,.5-1.17c-4.17-4.76-8.56-9.69-12.65-13.75,6-.85,9.83-4.26,10.42-9.37l5.13-.18a.71.71,0,0,0,.68-.73l-.09-2.66a.71.71,0,0,0-.73-.68l-5.2.18a8.681,8.681,0,0,0-2-3.95l7.06-.25a.71.71,0,0,0,.68-.81Z" transform="translate(-6.242 -6.019)"/><path class="l" d="M519.82,551.34s-16.25-38.69,22.55-56.43C542.37,494.91,514.23,509.62,519.82,551.34Z" transform="translate(-5.928 -5.902)"/><g transform="translate(639.941 608.215)"><path class="o" d="M745.41,863.06c-5-13.76-32.28-74.4-64.43-96.31-4.08-2.8-8.42-5.44-13.24-6.29s-10.25.3-13.52,4.13c-3,3.51-3.7,8.56-3.3,13.21,3.16,36.79,41.54,53.92,58.57,82.33" transform="translate(-650.817 -618.215)"/><path class="p" d="M745.44,862.85s-26.37-68.2-54.14-109.8c-13.16-19.7-20.43-54.79-4.17-63.8,23.52-13,42.74,21.85,51.43,39.1,13.16,26.09,22.09,54.5,28.42,83.21.91,4.18,8.32,53.74,8.55,53.75Z" transform="translate(-650.817 -618.215)"/><g transform="translate(44.613 89.685)"><path class="q" d="M752.68,864l3.48-.85c-8-36.56-26.08-105.34-57.73-155.25l-3,2.08C726.79,759.41,744.77,827.71,752.68,864Z" transform="translate(-695.43 -707.9)"/></g><path class="o" d="M812,868.34s11.93-100.63,58.38-143.82c12.55-11.67,32.5-23.23,48.29-25.54,20.47-3,17.91,21.68,13,37.42-6.41,20.39-23.67,32-36.63,46.53-23.83,26.71-38.21,44.47-57.53,87.55" transform="translate(-650.817 -618.215)"/><path class="p" d="M799.14,867.23c-9.71-23,2.05-117,10.23-146.08a155.231,155.231,0,0,1,28.16-55.06c11.41-14,44.58-44.29,61.43-29.51,9.75,8.55-8.24,35-13.07,43a489.837,489.837,0,0,0-39.44,82.9c-12.44,33.54-22.68,69-28.23,105l-.21,1.36" transform="translate(-650.817 -618.215)"/><path class="o" d="M797.07,867.07c8.11-52.51,12.31-133.78-6.68-181.42-21.56-54-53.18-80.71-59.71-60.92-18.93,57.54,24.92,220,39.32,240.13" transform="translate(-650.817 -618.215)"/><g transform="translate(173.863 96.385)"><path class="q" d="M828.13,869.79c11.23-63.62,48.78-123.27,95.63-152l-1.7-3.19c-47.74,29.23-86,89.88-97.38,154.52Z" transform="translate(-824.68 -714.6)"/></g><g transform="translate(153.753 32.335)"><path class="q" d="M808.06,868c5.71-49.24,14.37-92.67,26.56-132.74,11.9-39.16,27.38-65.9,47.38-81.71l-2.14-3c-20.54,16.33-36.44,43.64-48.6,83.57-12.25,40.31-21,84-26.69,133.43Z" transform="translate(-804.57 -650.55)"/></g><g transform="translate(90.813 29.315)"><path class="r" d="M779.19,865.72l3.53.07C784.55,802.32,772.56,733,745,647.53l-3.37,1.22C769.1,733.74,781,802.68,779.19,865.72Z" transform="translate(-741.63 -647.53)"/></g><g transform="translate(15.303 153.445)"><path class="q" d="M727.66,862.29l3.28-1.55c-23.75-56.61-62.23-88.76-62.62-89.08l-2.2,2.92C666.47,774.94,704.28,806.57,727.66,862.29Z" transform="translate(-666.12 -771.66)"/></g></g><g transform="translate(433.51 666.271)"><path class="o" d="M508.46,854.15c-3.67-10-23.45-54-46.8-70-3-2-6.12-3.95-9.63-4.57s-7.44.22-9.82,3c-2.16,2.54-2.68,6.21-2.39,9.59,2.29,26.72,30.17,39.17,42.54,59.81" transform="translate(-439.746 -676.271)"/><path class="p" d="M508.48,854s-19.16-49.54-39.33-79.76c-9.56-14.31-14.84-39.8-3-46.35,17.09-9.47,31.05,15.88,37.36,28.41,9.56,19,16,39.59,20.65,60.45.66,3,6,39,6.21,39Z" transform="translate(-439.746 -676.271)"/><g transform="translate(32.424 65.169)"><path class="q" d="M513.74,854.83l2.53-.62c-5.8-26.55-18.95-76.52-41.94-112.77L472.17,743C494.93,778.85,508,828.46,513.74,854.83Z" transform="translate(-472.17 -741.44)"/></g><path class="o" d="M556.8,858s8.67-73.1,42.41-104.48c9.12-8.47,23.61-16.87,35.08-18.55,14.87-2.19,13,15.75,9.41,27.18-4.66,14.81-17.2,23.27-26.61,33.8-17.31,19.41-27.75,32.31-41.79,63.6" transform="translate(-439.746 -676.271)"/><path class="p" d="M547.49,857.18c-7-16.72,1.49-85,7.43-106.12a112.881,112.881,0,0,1,20.45-40c8.3-10.19,32.39-32.18,44.64-21.44,7.07,6.21-6,25.42-9.5,31.22a354.864,354.864,0,0,0-28.65,60.22c-9,24.36-16.48,50.16-20.51,76.24l-.15,1" transform="translate(-439.746 -676.271)"/><path class="o" d="M546,857.06c5.89-38.15,8.94-97.18-4.85-131.79C525.47,686,502.5,666.64,497.76,681c-13.75,41.79,18.1,159.84,28.56,174.43" transform="translate(-439.746 -676.271)"/><g transform="translate(126.254 70.059)"><path class="q" d="M568.55,859C576.71,812.82,604,769.48,638,748.65l-1.24-2.32C602.1,767.56,574.33,811.62,566,858.57Z" transform="translate(-566 -746.33)"/></g><g transform="translate(111.674 23.529)"><path class="q" d="M554,857.76c4.15-35.78,10.43-67.32,19.29-96.43,8.65-28.47,19.9-47.89,34.38-59.38l-1.55-2.15c-14.92,11.86-26.47,31.7-35.3,60.71-8.9,29.28-15.25,61-19.4,96.93Z" transform="translate(-551.42 -699.8)"/></g><g transform="translate(65.954 21.299)"><path class="r" d="M533,856.07l2.56.06c1.33-46.11-7.38-96.5-27.42-158.56l-2.44.89C525.67,760.2,534.31,810.28,533,856.07Z" transform="translate(-505.7 -697.57)"/></g><g transform="translate(11.114 111.479)"><path class="q" d="M495.57,853.59l2.38-1.13c-17.26-41.13-45.21-64.48-45.49-64.71l-1.6,2.12C451.11,790.13,478.58,813.11,495.57,853.59Z" transform="translate(-450.86 -787.75)"/></g></g><g transform="translate(350.185 775.954)"><path class="o" d="M381.54,855.82c-1.44-3.93-9.22-21.25-18.4-27.51a9.831,9.831,0,0,0-3.78-1.79,4.08,4.08,0,0,0-3.86,1.18,5.12,5.12,0,0,0-.94,3.77c.9,10.5,11.86,15.4,16.72,23.51" transform="translate(-354.506 -785.954)"/><path class="p" d="M381.55,855.76S374,836.28,366.09,824.4c-3.76-5.63-5.84-15.65-1.19-18.22,6.72-3.72,12.2,6.24,14.69,11.17a101.48,101.48,0,0,1,8.11,23.76c.26,1.19,2.38,15.35,2.44,15.35Z" transform="translate(-354.506 -785.954)"/><g transform="translate(12.784 25.556)"><path class="q" d="M383.62,856.09l1-.25c-2.28-10.44-7.45-30.08-16.48-44.33l-.85.59C376.22,826.22,381.36,845.72,383.62,856.09Z" transform="translate(-367.29 -811.51)"/></g><path class="o" d="M400.55,857.32s3.4-28.73,16.67-41.07c3.58-3.33,9.28-6.63,13.79-7.29,5.85-.86,5.11,6.19,3.7,10.68-1.83,5.83-6.76,9.15-10.46,13.29-6.81,7.63-10.91,12.7-16.43,25" transform="translate(-354.506 -785.954)"/><path class="p" d="M396.88,857c-2.77-6.57.59-33.42,2.93-41.72a44,44,0,0,1,8-15.72c3.26-4,12.73-12.65,17.54-8.43,2.79,2.44-2.35,10-3.73,12.27a139.425,139.425,0,0,0-11.26,23.67,154.927,154.927,0,0,0-8.07,30l-.06.39" transform="translate(-354.506 -785.954)"/><path class="o" d="M396.29,857c2.32-15,3.52-38.2-1.9-51.81-6.16-15.43-15.19-23-17.05-17.39-5.41,16.43,7.11,62.83,11.22,68.57" transform="translate(-354.506 -785.954)"/><g transform="translate(49.674 27.476)"><path class="q" d="M405.16,857.74c3.21-18.17,13.93-35.21,27.31-43.4l-.48-.91c-13.64,8.35-24.55,25.67-27.81,44.13Z" transform="translate(-404.18 -813.43)"/></g><g transform="translate(43.874 9.186)"><path class="q" d="M399.43,857.24A213,213,0,0,1,407,819.33c3.4-11.19,7.82-18.83,13.51-23.35l-.61-.84C414.06,799.8,409.52,807.6,406,819a215.621,215.621,0,0,0-7.62,38.11Z" transform="translate(-398.38 -795.14)"/></g><g transform="translate(25.904 8.276)"><path class="r" d="M391.19,856.57h1c.52-18.13-2.91-37.94-10.78-62.34l-1,.35C388.31,818.89,391.71,838.57,391.19,856.57Z" transform="translate(-380.41 -794.23)"/></g><g transform="translate(4.394 43.756)"><path class="q" d="M376.47,855.6l.94-.45a72,72,0,0,0-17.88-25.44l-.63.84A71,71,0,0,1,376.47,855.6Z" transform="translate(-358.9 -829.71)"/></g></g><path class="g" d="M756.72,474.51c-1.16,8.89-2.05,17.81-2.78,26.74s-1.33,17.87-1.68,26.82c-.7,17.89-.68,35.85,1.27,53.64s3.6,35.69,4.75,53.59c.56,9,1.05,17.9,1.28,26.87.11,4.48.16,9,.08,13.45,0,2.24-.11,4.48-.26,6.72a39.339,39.339,0,0,1-.89,6.66,39.268,39.268,0,0,0,.77-6.67c.12-2.23.15-4.47.15-6.71,0-4.48-.13-9-.31-13.44-.35-8.95-.9-17.9-1.56-26.83q-2.01-26.8-5-53.53c-1-8.93-1.44-17.91-1.58-26.88s0-18,.48-26.91Q752.8,501.15,756.72,474.51Z" transform="translate(-8.466 -6.973)"/><g class="n" transform="translate(726.87 343.561)"><path class="g" d="M735.34,349.82a94.887,94.887,0,0,1,6.11,20.35,147.1,147.1,0,0,1,2.48,21.13,190.662,190.662,0,0,1-.41,21.25q-.75,10.6-2.27,21.12c-5.67,27.8-5.35,56.28-3.65,84.46q1.36,21.17,3.82,42.24c1.62,14,3.52,28.06,5.59,42.06s4.42,27.94,7,41.86c1.26,7,2.61,13.9,3.95,20.85s2.75,13.88,4.38,20.76h-.12c-3.41-13.74-6.23-27.61-8.9-41.51s-5.1-27.85-7.32-41.83-4.18-28-5.81-42.07-3-28.17-3.81-42.31-1.25-28.31-.76-42.48c.26-7.08.72-14.16,1.57-21.2q.61-5.29,1.56-10.53c.62-3.5,1.41-6.93,2-10.42a175.124,175.124,0,0,0,2.39-21.06,194.144,194.144,0,0,0-.17-21.17,185,185,0,0,0-2.36-21c-.6-3.47-1.31-6.93-2.18-10.35a80.987,80.987,0,0,0-3.11-10.12Z" transform="translate(-735.32 -349.82)"/></g><path class="h" d="M807.52,513.84a51.75,51.75,0,1,1-60.37-41.38,51.75,51.75,0,0,1,60.37,41.38Z" transform="translate(-8.813 -5.958)"/><circle class="i" cx="37.25" cy="37.25" r="37.25" transform="translate(701.393 492.583) rotate(-16.98)"/><path class="j" d="M792.43,517.09a35.38,35.38,0,1,1-41.27-28.28,35.38,35.38,0,0,1,41.27,28.28Z" transform="translate(-8.703 -5.923)"/><path class="i" d="M773,506.48l.09-3.2a.85.85,0,0,0-.82-.87l-26.93-.77c-.47,0-1.91,1.58-1.92,2l.93,2.94a.83.83,0,0,0,.82.86l4.54.14c4.62.13,7.49,1.52,8.57,4.12l-13.22-.38a2,2,0,0,0-1.91,1.8l.94,2.22a.85.85,0,0,0,.83.87l13.59.39c-.95,3.6-4.54,5.48-10.24,5.31l-3.52-.1a1.94,1.94,0,0,0-1.92,2l.94,2.74a.83.83,0,0,0,.21.58c5.77,6.51,10.26,12.18,15.12,18.39a.86.86,0,0,0,.64.33l5.09,1.4c1.19,0,1.68-1.4,1.83-1.69a.84.84,0,0,0-.08-.9c-4.64-6-9.53-12.28-14.11-17.46,7.27-.55,12.11-4.36,13.21-10.44l5.26,1.39c1,.16,1.74-.63,1.78-2l.09-3.2a.85.85,0,0,0-.82-.87l-6.25-.18a10.46,10.46,0,0,0-2.09-4.9l7.43,1.47C772.25,508.79,773,507,773,506.48Z" transform="translate(-8.566 -5.906)"/><path class="k" d="M772,507.71l.09-3.2a.85.85,0,0,0-.82-.87l-26.93-.78a.85.85,0,0,0-.87.82l-.12,4.16a.84.84,0,0,0,.82.87l4.54.13c4.62.14,7.49,1.52,8.57,4.13l-13.22-.38a.83.83,0,0,0-.87.82l-.09,3.2a.85.85,0,0,0,.82.87l13.59.39c-1,3.6-4.54,5.47-10.24,5.31l-3.52-.1a.85.85,0,0,0-.87.82l-.11,4a.84.84,0,0,0,.21.59c5.77,6.51,10.26,12.18,15.12,18.39a.82.82,0,0,0,.64.32l6.14.18a.85.85,0,0,0,.7-1.36c-4.64-6-9.53-12.28-14.11-17.46,7.27-.56,12.11-4.36,13.22-10.44l6.16.17a.85.85,0,0,0,.87-.82l.09-3.2a.85.85,0,0,0-.82-.87l-6.25-.18a10.43,10.43,0,0,0-2.09-4.89l8.48.24a.84.84,0,0,0,.87-.86Z" transform="translate(-8.557 -5.913)"/><path class="l" d="M710.93,541.72s-16.52-47.65,31.37-65.94C742.3,475.78,707.42,491.25,710.93,541.72Z" transform="translate(-8.2 -5.739)"/><circle class="h" cx="63.31" cy="63.31" r="63.31" transform="translate(637.766 352.815) rotate(-65.12)"/><circle class="i" cx="45.57" cy="45.57" r="45.57" transform="translate(661.634 344.523) rotate(-65.59)"/><path class="j" d="M772.38,310.32a43.27,43.27,0,1,1-55.65-25.45A43.27,43.27,0,0,1,772.38,310.32Z" transform="translate(-8.444 -3.49)"/><path class="i" d="M746.79,301.59l-.56-3.87a1,1,0,0,0-1.17-.88l-32.63,4.69c-.56.09-2,2.31-1.88,2.87l1.73,3.34a1,1,0,0,0,1.17.88l5.51-.79c5.59-.81,9.34.26,11.18,3.18l-16,2.3c-.57.08-1.82.6-1.93,2.58l1.61,2.47a1,1,0,0,0,1.17.88l16.47-2.37c-.39,4.53-4.33,7.55-11.23,8.54L716,326a2.37,2.37,0,0,0-1.89,2.87l1.7,3.11a1.09,1.09,0,0,0,.38.66c8.32,6.63,14.92,12.53,22.07,19a1,1,0,0,0,.84.26l6.44.63c1.43-.21,1.73-2,1.84-2.42a1,1,0,0,0-.28-1.07c-6.85-6.3-14.06-12.81-20.66-18.1,8.64-2.18,13.68-7.78,13.74-15.34l6.63.58c1.27,0,2-1.13,1.71-2.83l-.55-3.88a1,1,0,0,0-1.18-.87l-7.57,1.09a12.77,12.77,0,0,0-3.54-5.47l9.26.22C746.32,304.53,746.87,302.16,746.79,301.59Z" transform="translate(-8.262 -3.537)"/><path class="k" d="M745.78,303.29l-.56-3.88a1,1,0,0,0-1.17-.87l-32.62,4.69a1,1,0,0,0-.88,1.17l.73,5a1,1,0,0,0,1.17.88l5.5-.8c5.59-.8,9.35.27,11.19,3.19l-16,2.3a1,1,0,0,0-.87,1.17l.55,3.88a1,1,0,0,0,1.17.87l16.47-2.37c-.39,4.54-4.33,7.55-11.23,8.55l-4.26.61a1,1,0,0,0-.88,1.17l.7,4.81a1,1,0,0,0,.37.66c8.32,6.63,14.92,12.53,22.07,19a1.09,1.09,0,0,0,.85.26l7.44-1.07a1.05,1.05,0,0,0,.84-.72,1.07,1.07,0,0,0-.29-1.07c-6.85-6.3-14.06-12.81-20.66-18.1,8.64-2.19,13.68-7.78,13.74-15.35l7.47-1.07a1,1,0,0,0,.88-1.17l-.56-3.88a1,1,0,0,0-1.17-.87l-7.58,1.09a12.68,12.68,0,0,0-3.54-5.47l10.27-1.48a1,1,0,0,0,.86-1.13Z" transform="translate(-8.252 -3.554)"/><path class="l" d="M679.3,357.05s-29.89-54,24-86C703.32,271,664.52,297,679.3,357.05Z" transform="translate(-7.755 -3.35)"/><g class="s" transform="translate(304.497 70.401) rotate(-13)"><g transform="translate(18.643 0)"><path class="d" d="M0,73.9,5.676,28.544,128.666,0Z"/></g><g class="t" transform="translate(18.643 0)"><path class="u" d="M0,73.9,20.014,40.849,128.666,0Z"/></g><path class="v" d="M24.49,28.544,147.436,0,0,1.514Z"/><path class="v" d="M0,40.849l45.022,39.5L108.609,0Z" transform="translate(38.526 0)"/></g><g class="w" transform="translate(256.778 161.101) rotate(-13)"><path class="v" d="M4.526,3.883A2.509,2.509,0,0,0,4.9,2.023,2.563,2.563,0,0,0,1.985.034,2.454,2.454,0,0,0,.4,1.115,2.5,2.5,0,0,0,2.882,4.932,2.552,2.552,0,0,0,4.526,3.883Z" transform="translate(80.026 0)"/><path class="v" d="M4.962,2.242h0a2.487,2.487,0,1,0-3.871,2.3,2.433,2.433,0,0,0,1.633.411A2.487,2.487,0,0,0,4.962,2.242Z" transform="translate(5.368 97.362)"/><path class="v" d="M4.793,1.512a2.5,2.5,0,1,0-4.5,2.162,2.454,2.454,0,0,0,.843.973A2.487,2.487,0,0,0,4.793,1.523Z" transform="translate(10.645 114.132)"/><path class="v" d="M1.142,4.58l.108.076A2.491,2.491,0,1,0,3.834.4,2.488,2.488,0,1,0,1.142,4.58Z" transform="translate(8.118 129.508)"/><path class="v" d="M1.111,4.625A2.465,2.465,0,0,0,3.2,4.971a2.53,2.53,0,1,0-2.087-.346Z" transform="translate(7.176 107.035)"/><path class="v" d="M2.4,4.865h.065a2.433,2.433,0,1,0-.065,0Z" transform="translate(18.816 50.657)"/><path class="v" d="M4.875,1.772a2.487,2.487,0,1,0-.189,1.9,2.49,2.49,0,0,0,.189-1.9Z" transform="translate(3.39 186.873)"/><path class="v" d="M1.114,4.57a2.53,2.53,0,0,0,1.168.422,2.487,2.487,0,0,0,2.7-2.26h0A2.5,2.5,0,1,0,1.1,4.57Z" transform="translate(5.324 87.39)"/><path class="v" d="M5,2.48H5a2.5,2.5,0,1,0-4.984.249A2.476,2.476,0,0,0,1.092,4.664a2.411,2.411,0,0,0,1.535.422A2.487,2.487,0,0,0,5,2.48Z" transform="translate(0 167.399)"/><path class="v" d="M1.083,4.557a2.563,2.563,0,0,0,1.233.433,2.5,2.5,0,1,0-1.233-.433Z" transform="translate(0.105 157.67)"/><path class="v" d="M2.933,5a2.519,2.519,0,1,0-1.827-.4A2.444,2.444,0,0,0,2.933,5Z" transform="translate(1.098 177.197)"/><path class="v" d="M1.079,4.587a2.562,2.562,0,0,0,.93.4,2.519,2.519,0,1,0-.93-.4Z" transform="translate(1.402 147.869)"/><path class="v" d="M1.082,4.553a2.366,2.366,0,0,0,.595.3,2.5,2.5,0,1,0-.595-.3Z" transform="translate(3.966 138.408)"/><path class="v" d="M1.083,4.549a2.163,2.163,0,0,0,.757.357A2.5,2.5,0,1,0,.088,1.857,2.465,2.465,0,0,0,1.083,4.549Z" transform="translate(7.087 77.615)"/><path class="v" d="M.831.637A2.5,2.5,0,0,0,.636,4.162a2.615,2.615,0,0,0,.454.4A2.5,2.5,0,1,0,.831.637Z" transform="translate(20.903 114.581)"/><path class="v" d="M1.073,4.632c.13.087.27.162.411.238a2.552,2.552,0,1,0-.411-.238Z" transform="translate(10.345 68.147)"/><path class="v" d="M1.107,4.489l.162.1a2.444,2.444,0,1,0-.162-.1Z" transform="translate(14.761 59.413)"/><path class="v" d="M1.8.1A2.5,2.5,0,1,0,4.889,1.78,2.5,2.5,0,0,0,1.8.1Z" transform="translate(63.823 93.089)"/><path class="v" d="M1.094,4.547A2.487,2.487,0,1,0,.51,4,2.162,2.162,0,0,0,1.094,4.547Z" transform="translate(55.238 16.29)"/><path class="v" d="M2,.048A2.487,2.487,0,0,0,.051,2.989,2.433,2.433,0,0,0,1.133,4.546a2.487,2.487,0,1,0,.908-4.5Z" transform="translate(73.417 90.668)"/><path class="v" d="M1.061,4.574A2.519,2.519,0,1,0,.3,3.72,2.325,2.325,0,0,0,1.061,4.574Z" transform="translate(118.336 101.496)"/><path class="v" d="M.012,2.725A2.476,2.476,0,1,0,.57.9,2.5,2.5,0,0,0,.012,2.725Z" transform="translate(83.131 89.17)"/><path class="v" d="M1.087,4.542A2.487,2.487,0,1,0,.168,3.386a2.487,2.487,0,0,0,.919,1.157Z" transform="translate(54.539 96.381)"/><path class="v" d="M1.1,4.55a2.422,2.422,0,0,0,1.276.422A2.487,2.487,0,1,0,1.1,4.55Z" transform="translate(92.973 88.913)"/><path class="v" d="M.339,3.74a2.661,2.661,0,0,0,.746.8,2.53,2.53,0,0,0,2.671.087A2.487,2.487,0,1,0,.339,3.74Z" transform="translate(36.837 105.109)"/><path class="v" d="M1.1,4.548a2.487,2.487,0,1,0-.227-.173,1.577,1.577,0,0,0,.227.173Z" transform="translate(26.275 43.233)"/><path class="v" d="M1.1,4.55a2.487,2.487,0,1,0-.346-.281A2.812,2.812,0,0,0,1.1,4.55Z" transform="translate(32.933 35.857)"/><path class="v" d="M1.028.471A2.508,2.508,0,0,0,.466,3.953a2.7,2.7,0,0,0,.627.595A2.487,2.487,0,0,0,4.521,1.034,2.509,2.509,0,0,0,1.028.471Z" transform="translate(28.586 110.54)"/><path class="v" d="M1.086,4.558a2.5,2.5,0,1,0-.519-.476,2.661,2.661,0,0,0,.519.476Z" transform="translate(47.495 22.431)"/><path class="v" d="M1.08,4.554a2.5,2.5,0,1,0-.833-.973,2.541,2.541,0,0,0,.833.973Z" transform="translate(45.513 100.37)"/><path class="v" d="M1.091,4.546a2.471,2.471,0,1,0-.443-.378A2.162,2.162,0,0,0,1.091,4.546Z" transform="translate(40.038 28.952)"/><path class="v" d="M4.7,1.345A2.49,2.49,0,0,0,.28,3.637a2.357,2.357,0,0,0,.8.919A2.5,2.5,0,0,0,4.7,1.312Z" transform="translate(92.028 146.381)"/><path class="v" d="M4.844,1.692A2.487,2.487,0,1,0,3.265,4.85,2.508,2.508,0,0,0,4.844,1.692Z" transform="translate(82.972 150.218)"/><path class="v" d="M2.9.031A2.508,2.508,0,0,0,1.082,4.572a2.476,2.476,0,0,0,1.005.389A2.5,2.5,0,0,0,2.9.031Z" transform="translate(76.557 244.497)"/><path class="v" d="M2.738.012A2.5,2.5,0,0,0,1.094,4.564a2.433,2.433,0,0,0,1.168.411A2.5,2.5,0,0,0,2.738.012Z" transform="translate(86.317 245.756)"/><path class="v" d="M3.8,4.6h0A2.489,2.489,0,1,0,.377,3.816a2.41,2.41,0,0,0,.7.735A2.508,2.508,0,0,0,3.8,4.6Z" transform="translate(71.512 5.041)"/><path class="v" d="M3.106.078a2.487,2.487,0,0,0-2,4.476,2.261,2.261,0,0,0,.822.368A2.5,2.5,0,1,0,3.106.078Z" transform="translate(66.879 242.546)"/><path class="v" d="M4.726,1.368A2.5,2.5,0,0,0,.174,3.411a2.4,2.4,0,0,0,.865,1.081A2.5,2.5,0,0,0,4.726,1.411Z" transform="translate(6.874 196.199)"/><path class="v" d="M4.944,2.1a2.487,2.487,0,1,0-2.1,2.844A2.487,2.487,0,0,0,4.944,2.1Z" transform="translate(73.401 152.515)"/><path class="v" d="M3.129.081A2.5,2.5,0,0,0,1.085,4.558a2.466,2.466,0,0,0,.768.346A2.5,2.5,0,0,0,3.129.081Z" transform="translate(102.704 90.333)"/><path class="v" d="M3.852.4A2.5,2.5,0,0,0,1.03,4.519h0A2.5,2.5,0,0,0,3.841.388Z" transform="translate(114.208 127.228)"/><path class="v" d="M3.409.181A2.465,2.465,0,0,0,.165,1.619a2.5,2.5,0,0,0,.919,2.952,2.368,2.368,0,0,0,.519.27A2.5,2.5,0,1,0,3.376.181Z" transform="translate(118.74 118.548)"/><path class="v" d="M2.518,0A2.487,2.487,0,0,0,1.1,4.552,2.422,2.422,0,0,0,2.5,4.985,2.5,2.5,0,0,0,2.5,0Z" transform="translate(120.659 108.956)"/><path class="v" d="M4.986,2.722A2.5,2.5,0,1,0,0,2.559,2.509,2.509,0,0,0,1.083,4.722,2.455,2.455,0,0,0,2.4,5.154,2.5,2.5,0,0,0,4.986,2.722Z" transform="translate(63.566 152.941)"/><path class="v" d="M4.568,3.9a2.5,2.5,0,1,0-3.471.67h0A2.5,2.5,0,0,0,4.568,3.9Z" transform="translate(111.672 94.282)"/><path class="v" d="M1.022.486A2.476,2.476,0,0,0,.481,3.957a2.259,2.259,0,0,0,.605.595A2.487,2.487,0,0,0,4.5,1.027,2.476,2.476,0,0,0,1.022.486Z" transform="translate(100.393 141.2)"/><path class="v" d="M.731.741h0a2.476,2.476,0,0,0,0,3.514,2.819,2.819,0,0,0,.357.292A2.487,2.487,0,1,0,.721.73Z" transform="translate(107.811 134.79)"/><path class="v" d="M2.588,0A2.5,2.5,0,0,0,1.1,4.564,2.444,2.444,0,0,0,2.4,4.986,2.5,2.5,0,0,0,2.588,0Z" transform="translate(96.14 246.396)"/><path class="v" d="M4.1,4.415A2.5,2.5,0,1,0,.574,4.09,2.563,2.563,0,0,0,4.1,4.415Z" transform="translate(21.445 130.656)"/><path class="v" d="M3.926.449A2.5,2.5,0,0,0,.953,4.46l.076.054A2.5,2.5,0,0,0,3.926.449Z" transform="translate(31.312 226.465)"/><path class="v" d="M1.076,4.559a2.53,2.53,0,0,0,2.833,0A2.5,2.5,0,1,0,.438,3.91,2.433,2.433,0,0,0,1.076,4.559Z" transform="translate(63.263 10.483)"/><path class="v" d="M.691.759A2.5,2.5,0,0,0,.767,4.283a2.346,2.346,0,0,0,.314.259A2.487,2.487,0,1,0,.691.759Z" transform="translate(23.746 220.086)"/><path class="v" d="M1.188.364A2.5,2.5,0,0,0,.366,3.791a2.433,2.433,0,0,0,.724.757A2.5,2.5,0,0,0,4.626,1.2,2.508,2.508,0,0,0,1.188.364Z" transform="translate(11.409 204.804)"/><path class="v" d="M5.637,5.944a2.5,2.5,0,0,0,.681-3.46A2.454,2.454,0,0,0,4.815,1.4a2.584,2.584,0,0,0-.53-.649A2.5,2.5,0,1,0,1.042,4.527a2.4,2.4,0,0,0,1.081.541.54.54,0,0,0,.087.13,2.368,2.368,0,0,0,.67.681,2.476,2.476,0,0,0,2.757.065Z" transform="translate(13.825 121.401)"/><path class="v" d="M.935.561A2.465,2.465,0,0,0,.556,4.054a2.3,2.3,0,0,0,.53.5A2.5,2.5,0,0,0,4.438.929,2.476,2.476,0,0,0,.935.561Z" transform="translate(17.079 212.84)"/><path class="v" d="M4.283.751A2.5,2.5,0,1,0,.9,4.417a2.86,2.86,0,0,0,.281.227A2.5,2.5,0,0,0,4.283.751Z" transform="translate(28.126 137.709)"/><path class="v" d="M3.464.195h0A2.5,2.5,0,0,0,1.031,4.52a2.787,2.787,0,0,0,.4.205A2.49,2.49,0,1,0,3.453.173Z" transform="translate(48.298 236.306)"/><path class="v" d="M4.91,3.047A2.487,2.487,0,1,0,1.082,4.539a2.4,2.4,0,0,0,.843.378A2.487,2.487,0,0,0,4.91,3.047Z" transform="translate(53.838 151.818)"/><path class="v" d="M3.288.131A2.487,2.487,0,0,0,.131,1.709a2.454,2.454,0,0,0,.962,2.833,2.293,2.293,0,0,0,.605.314h0A2.5,2.5,0,1,0,3.288.12Z" transform="translate(57.441 239.844)"/><path class="v" d="M4.576,3.883a2.5,2.5,0,1,0-3.482.681h0a2.487,2.487,0,0,0,3.482-.681Z" transform="translate(35.908 143.914)"/><path class="v" d="M3.818.386a2.488,2.488,0,1,0-2.66,4.206L1.31,4.7A2.5,2.5,0,0,0,3.818.375Z" transform="translate(39.415 231.787)"/><path class="v" d="M4.791,3.489A2.5,2.5,0,1,0,1.1,4.57a2.245,2.245,0,0,0,.389.216,2.5,2.5,0,0,0,3.3-1.3Z" transform="translate(44.495 148.762)"/><g transform="translate(106.086 246.517)"><path class="x" d="M1.081,4.54A2.5,2.5,0,0,1,2.022.031,2.573,2.573,0,0,1,4.93,2.02a2.465,2.465,0,0,1-.389,1.86A2.5,2.5,0,0,1,2.951,4.961,2.541,2.541,0,0,1,1.081,4.54Z"/></g></g><path class="k" d="M74.68,413.17a372.423,372.423,0,0,0,8.75-37.12,136.4,136.4,0,0,0,2.08-18.9c0-1.58,0-3.16-.05-4.73a33.15,33.15,0,0,0-.58-4.66,12.28,12.28,0,0,0-1.54-4.28,3.44,3.44,0,0,0-1.51-1.39,2.381,2.381,0,0,0-1-.2,3.329,3.329,0,0,0-1,.18A6.121,6.121,0,0,0,78,343.19a12.881,12.881,0,0,0-1.59,1.63,24.208,24.208,0,0,0-2.54,3.88,46.929,46.929,0,0,0-3.53,8.7A72.439,72.439,0,0,0,67.47,376a79.05,79.05,0,0,0,7.88,36.54v.32l5.91,49,5.77,49,5.66,49,5.54,49q5.52,49,10.79,98.1l2.6,24.53L113,743.83l1.26,12.28c1.66,16.36,3.39,32.72,5,49.09-2.15-16.31-4.15-32.64-6.21-49l-3.06-24.48-3-24.49q-5.91-49-11.61-98l-5.63-49-5.54-49-5.42-49L73.47,413.1v.31A80.63,80.63,0,0,1,65.79,376,72.231,72.231,0,0,1,69,357a47.67,47.67,0,0,1,3.75-8.9,25.091,25.091,0,0,1,2.74-4,13,13,0,0,1,1.8-1.76,7,7,0,0,1,2.22-1.28,4.219,4.219,0,0,1,1.36-.23,3.37,3.37,0,0,1,1.36.3,4.55,4.55,0,0,1,1.94,1.77,13.09,13.09,0,0,1,1.59,4.66,33.8,33.8,0,0,1,.5,4.82c.06,1.6,0,3.2,0,4.79a134.581,134.581,0,0,1-2.34,19c-1.16,6.26-2.59,12.47-4.17,18.67S76.52,407.08,74.68,413.17Z" transform="translate(0 -10)"/><path class="k" d="M75.52,422.44a317.2,317.2,0,0,1,18.4-27.11,129.53,129.53,0,0,1,10.79-12.49,42.07,42.07,0,0,1,6.38-5.38,12.24,12.24,0,0,1,4.08-1.84,5.67,5.67,0,0,1,1.3-.11,3.81,3.81,0,0,1,1.41.36,3.33,3.33,0,0,1,1.13,1,3.85,3.85,0,0,1,.64,1.24,7,7,0,0,1,.3,2.41,12.86,12.86,0,0,1-.22,2.23,26.289,26.289,0,0,1-1.15,4.17,44.108,44.108,0,0,1-3.66,7.58,66.38,66.38,0,0,1-10.31,13.11,62.41,62.41,0,0,1-28.75,16.5l-.55.14L74.8,424a96.63,96.63,0,0,1-29.21-24,83.551,83.551,0,0,1-10.31-16,52.769,52.769,0,0,1-3.46-8.92,26.521,26.521,0,0,1-.9-4.83,13.68,13.68,0,0,1,0-2.56A6.66,6.66,0,0,1,31.7,365a3.76,3.76,0,0,1,1.23-1.37,3.42,3.42,0,0,1,1.62-.61,5.561,5.561,0,0,1,2.87.53,16.54,16.54,0,0,1,4.15,2.82,53,53,0,0,1,6.45,7,153.1,153.1,0,0,1,10.45,15.64,353.508,353.508,0,0,1,17,33.35c-5.76-11.06-11.69-22.05-18.35-32.55a147.3,147.3,0,0,0-10.75-15.16,52,52,0,0,0-6.3-6.63,14.829,14.829,0,0,0-3.6-2.36,3.5,3.5,0,0,0-1.66-.29,1.23,1.23,0,0,0-.92.7,4.56,4.56,0,0,0-.43,1.77,11.45,11.45,0,0,0,0,2.11,26.76,26.76,0,0,0,.9,4.34,50.5,50.5,0,0,0,3.38,8.45A81.779,81.779,0,0,0,47.85,398,94.77,94.77,0,0,0,76.3,421.2l-1-.13A56.818,56.818,0,0,0,90,415.12a60.611,60.611,0,0,0,6.66-4.43,67.171,67.171,0,0,0,6.08-5.22,63.721,63.721,0,0,0,10-12.45,45,45,0,0,0,3.58-7.1,22.784,22.784,0,0,0,1.12-3.72,11.289,11.289,0,0,0,.23-1.84,5.1,5.1,0,0,0-.21-1.64,1.36,1.36,0,0,0-.65-.92,2.07,2.07,0,0,0-1.3-.09,10.191,10.191,0,0,0-3.36,1.43,41.93,41.93,0,0,0-6.23,5A132.2,132.2,0,0,0,95,396.2C88.14,404.57,81.75,413.46,75.52,422.44Z" transform="translate(0 -4.354)"/><path class="k" d="M76.29,437.62q4.13-3.48,8.3-6.92T93,423.9c5.66-4.47,11.39-8.87,17.22-13.13s11.82-8.33,18-12.09a93.791,93.791,0,0,1,9.63-5.18,31.9,31.9,0,0,1,5.27-1.91,9.139,9.139,0,0,1,3.08-.28,3.25,3.25,0,0,1,1.88.85,2.57,2.57,0,0,1,.63,1,3.289,3.289,0,0,1,.13,1,5.429,5.429,0,0,1-.31,1.69,10,10,0,0,1-.59,1.39,19.922,19.922,0,0,1-1.48,2.47A43.8,43.8,0,0,1,143,404a80.15,80.15,0,0,1-8,7.56,129.693,129.693,0,0,1-17.91,12.51,126.092,126.092,0,0,1-19.76,9.35,105.4,105.4,0,0,1-21.2,5.49h-.36a195.454,195.454,0,0,1-20.7-3.14,160.611,160.611,0,0,1-20.21-5.53,104.63,104.63,0,0,1-19.1-8.82,52.439,52.439,0,0,1-8.55-6.34A22.92,22.92,0,0,1,3.66,411a10.89,10.89,0,0,1-1.33-2.61,5.25,5.25,0,0,1-.11-3.3,4,4,0,0,1,.94-1.57,5.171,5.171,0,0,1,1.38-1,8.69,8.69,0,0,1,2.93-.76,21.341,21.341,0,0,1,5.47.32,56.076,56.076,0,0,1,10.17,2.94A138.625,138.625,0,0,1,42,414.14c6,3.46,11.87,7.23,17.58,11.17q4.31,2.94,8.49,6c2.78,2,5.55,4.13,8.28,6.29q-4.25-3-8.56-5.9c-2.87-1.94-5.76-3.84-8.66-5.73-5.84-3.73-11.77-7.27-17.86-10.52a137.66,137.66,0,0,0-18.78-8.58,54.525,54.525,0,0,0-9.82-2.63,18.929,18.929,0,0,0-4.9-.24,6.36,6.36,0,0,0-2.1.57,1.93,1.93,0,0,0-1.09,1.15,3,3,0,0,0,.14,1.8,8.911,8.911,0,0,0,1.06,2A21.57,21.57,0,0,0,9,413.16a50,50,0,0,0,8.19,5.92,101.544,101.544,0,0,0,18.67,8.39,178.731,178.731,0,0,0,40.25,8.46h-.35a101.182,101.182,0,0,0,20.62-5.27,130.592,130.592,0,0,0,19.37-9,125.535,125.535,0,0,0,17.63-12.08,86.4,86.4,0,0,0,7.83-7.23,40.421,40.421,0,0,0,3.36-4,17.941,17.941,0,0,0,1.34-2.18,5.13,5.13,0,0,0,.68-2,1.531,1.531,0,0,0,0-.3c0-.07,0-.1-.07-.12a1,1,0,0,0-.57-.22,6.931,6.931,0,0,0-2.27.2,29.191,29.191,0,0,0-4.92,1.7,100.426,100.426,0,0,0-9.52,4.88c-6.21,3.57-12.22,7.58-18.17,11.61S99.28,420.2,93.5,424.5c-2.89,2.15-5.77,4.33-8.64,6.51S79.15,435.37,76.29,437.62Z" transform="translate(0 -4.618)"/><path class="k" d="M153.93,503a303.607,303.607,0,0,0,9.91-29.38A108.331,108.331,0,0,0,167,458.44c.16-1.27.28-2.55.33-3.83a27,27,0,0,0-.12-3.82,10.07,10.07,0,0,0-.92-3.58,2.84,2.84,0,0,0-1.11-1.24,2,2,0,0,0-.76-.24,2.461,2.461,0,0,0-.81.08,4.719,4.719,0,0,0-1.6.76,10.861,10.861,0,0,0-1.42,1.2,20.2,20.2,0,0,0-2.35,2.94,39.183,39.183,0,0,0-3.52,6.77,59.1,59.1,0,0,0-3.76,14.85,64.35,64.35,0,0,0,3.59,30.18v.26l1,40.09.92,40.11.84,40.1.74,40.1q.72,40.11,1.24,80.21l.23,20.06.12,10,.08,10c.1,13.36.25,26.74.28,40.1-.49-13.36-.86-26.72-1.28-40.09l-.61-20-.55-20.05q-1-40.09-1.91-80.2l-.81-40.1L154.1,583l-.64-40.11L153,502.8v.25a65.39,65.39,0,0,1-3.38-30.88,58.1,58.1,0,0,1,4-15.1,38.28,38.28,0,0,1,3.71-6.91,20.568,20.568,0,0,1,2.53-3.06,10.249,10.249,0,0,1,1.59-1.28,5.48,5.48,0,0,1,1.9-.87,3.462,3.462,0,0,1,1.11-.09,2.75,2.75,0,0,1,1.08.35,3.76,3.76,0,0,1,1.43,1.58,10.94,10.94,0,0,1,.94,3.9,28.641,28.641,0,0,1,0,3.93c-.07,1.3-.2,2.6-.37,3.88a109.492,109.492,0,0,1-3.35,15.19c-1.41,5-3,9.89-4.8,14.79S155.88,498.16,153.93,503Z" transform="translate(0 -10)"/><path class="k" d="M153.9,510.51a258.133,258.133,0,0,1,17-20.53,103.338,103.338,0,0,1,9.67-9.28,34.511,34.511,0,0,1,5.58-3.87,10,10,0,0,1,3.44-1.18,4.169,4.169,0,0,1,1.06,0,2.94,2.94,0,0,1,1.12.39,2.82,2.82,0,0,1,.84.88A3.091,3.091,0,0,1,193,478a5.73,5.73,0,0,1,.06,2,9.83,9.83,0,0,1-.35,1.78,20.433,20.433,0,0,1-1.25,3.29,35.668,35.668,0,0,1-3.54,5.86,54.311,54.311,0,0,1-9.34,9.82,50.75,50.75,0,0,1-24.53,11.15l-.45.08-.4-.26a78.68,78.68,0,0,1-21.81-21.6,67.522,67.522,0,0,1-7.12-13.7,43.209,43.209,0,0,1-2.12-7.49,22.05,22.05,0,0,1-.37-4,11.9,11.9,0,0,1,.2-2.07,5.45,5.45,0,0,1,.84-2.14,3.16,3.16,0,0,1,1.1-1,2.8,2.8,0,0,1,1.36-.37,4.47,4.47,0,0,1,2.28.65,14,14,0,0,1,3.15,2.59,44.1,44.1,0,0,1,4.68,6.19,124.411,124.411,0,0,1,7.26,13.45A285.573,285.573,0,0,1,153.9,510.5c-3.81-9.39-7.78-18.73-12.36-27.74A122.283,122.283,0,0,0,134,469.67a42.6,42.6,0,0,0-4.6-5.85,12.241,12.241,0,0,0-2.73-2.18,2.781,2.781,0,0,0-1.32-.36,1,1,0,0,0-.8.5,3.66,3.66,0,0,0-.48,1.39,9,9,0,0,0-.13,1.72,21.55,21.55,0,0,0,.39,3.58,41.541,41.541,0,0,0,2.1,7.09,65.62,65.62,0,0,0,7,13.12,77,77,0,0,0,21.19,20.89l-.82-.18a46.641,46.641,0,0,0,12.4-3.69,48.348,48.348,0,0,0,5.72-3.08,55,55,0,0,0,5.33-3.76,51.9,51.9,0,0,0,9.08-9.3,36.243,36.243,0,0,0,3.44-5.48,17.7,17.7,0,0,0,1.19-2.92,9.19,9.19,0,0,0,.33-1.47,4.3,4.3,0,0,0,0-1.34,1.16,1.16,0,0,0-.46-.8,1.66,1.66,0,0,0-1.05-.17,8.29,8.29,0,0,0-2.82.89,33.721,33.721,0,0,0-5.42,3.55,108,108,0,0,0-9.81,8.95C165.48,497,159.63,503.73,153.9,510.51Z" transform="translate(0 -5.453)"/><path class="k" d="M153.36,522.86q3.62-2.5,7.25-5T168,513q7.38-4.8,14.94-9.32c5-3,10.2-5.84,15.5-8.41a76.28,76.28,0,0,1,8.19-3.45,26.841,26.841,0,0,1,4.42-1.15,7.3,7.3,0,0,1,2.51,0,2.53,2.53,0,0,1,1.45.82,2.309,2.309,0,0,1,.44.87,2.51,2.51,0,0,1,0,.82,4.45,4.45,0,0,1-.37,1.34,8.8,8.8,0,0,1-.59,1.09,16.562,16.562,0,0,1-1.39,1.88,34.2,34.2,0,0,1-3.15,3.22,64.315,64.315,0,0,1-7,5.51A104.422,104.422,0,0,1,187.46,515a102.663,102.663,0,0,1-16.71,6.06,84.922,84.922,0,0,1-17.58,2.82h-.29a158.666,158.666,0,0,1-16.51-4.12,131.384,131.384,0,0,1-15.94-6,84.9,84.9,0,0,1-14.78-8.6,43.051,43.051,0,0,1-6.44-5.78,18.94,18.94,0,0,1-2.59-3.62,8.87,8.87,0,0,1-.88-2.22,4.31,4.31,0,0,1,.16-2.68,3.28,3.28,0,0,1,.89-1.2A4.129,4.129,0,0,1,98,489a6.909,6.909,0,0,1,2.42-.4,17.71,17.71,0,0,1,4.41.68,45.52,45.52,0,0,1,8,3.16,113.282,113.282,0,0,1,14.56,8.79c4.62,3.27,9.06,6.76,13.38,10.38q3.26,2.71,6.41,5.5t6.22,5.72c-2.14-1.83-4.29-3.64-6.47-5.43s-4.37-3.54-6.57-5.29c-4.44-3.46-9-6.79-13.66-9.88a111.559,111.559,0,0,0-14.54-8.37A44.281,44.281,0,0,0,104.4,491a15.31,15.31,0,0,0-3.92-.54,5.1,5.1,0,0,0-1.74.31,1.55,1.55,0,0,0-1,.84,2.51,2.51,0,0,0,0,1.46,8,8,0,0,0,.7,1.71,18.39,18.39,0,0,0,2.37,3.18,40.279,40.279,0,0,0,6.18,5.41,82.91,82.91,0,0,0,14.46,8.22,145.189,145.189,0,0,0,31.93,9.91h-.29a82.232,82.232,0,0,0,17.09-2.68A106.637,106.637,0,0,0,186.55,513a102.781,102.781,0,0,0,15.19-8.42,68.751,68.751,0,0,0,6.88-5.26,33,33,0,0,0,3-3,15.771,15.771,0,0,0,1.25-1.67,4.25,4.25,0,0,0,.7-1.6,1,1,0,0,0,0-.24c0-.06,0-.08-.05-.1a.85.85,0,0,0-.44-.23,5.8,5.8,0,0,0-1.86,0,24.362,24.362,0,0,0-4.11,1,83.728,83.728,0,0,0-8.07,3.22c-5.3,2.42-10.47,5.2-15.59,8s-10.18,5.8-15.18,8.84q-3.76,2.29-7.49,4.61C158.34,519.68,155.85,521.25,153.36,522.86Z" transform="translate(0 -5.683)"/><path class="v" d="M57.32,895s406.792-121,905.263,0C962.583,895,504.566,837.3,57.32,895Z" transform="translate(0 -10)"/><path class="y" d="M207.7,788.12,143.51,788l-20.79,3.69,6.2,79.36a3.65,3.65,0,0,0,3.91,3.35h0a3.64,3.64,0,0,0,3.21-2.59l13.71-36.6,67.12,3.15" transform="translate(0 -10)"/><path class="z" d="M130.33,878.2c2.57-1,5.41-2.79,6-4.39l13.44-38.73c-9.9-20.08-5.44-47.34-5.44-47.34H115.88a1.7,1.7,0,0,0-1.56,1.83l6.92,88.66C121.39,880.07,130.25,878.23,130.33,878.2Z" transform="translate(0 -10)"/><path class="aa" d="M148.71,843.33a44.77,44.77,0,0,0-9.28-4.65" transform="translate(0 -10)"/><path class="aa" d="M146.23,848.26a39.335,39.335,0,0,0-7.88-3.8" transform="translate(0 -10)"/><path class="aa" d="M144.45,852.41a54.593,54.593,0,0,0-7.23-3.58" transform="translate(0 -10)"/><line class="aa" x2="7.1" y2="90.9" transform="translate(120.33 777.9)"/><path class="aa" d="M133.92,787.74s1.39,21.07-11.73,23.92" transform="translate(0 -10)"/><path class="aa" d="M139.05,865.87s-9.06-5.43-13.12-6.34" transform="translate(0 -10)"/><path class="z" d="M309.69,649c1.09,1.89,19.1,85.28,31.88,143.42,8,36.39,10.36,59.56-43.51,59.06-74.17-.68-125.79-.27-125.79-.27l-6.53-66,101.68-2.55-18-64.45s-26.88-30.89-11.55-69.61" transform="translate(-2.272 -10)"/><line class="ab" x2="7.45" y2="65.4" transform="translate(176.71 774.93)"/><path class="ac" d="M295.1,693.94l25.35,102.21a4.58,4.58,0,0,1-4.42,5.47l-148.5,1.65" transform="translate(-2.221 -10)"/><path class="y" d="M395,765.84l-8.83,64.83,1,21,82.08-6.4a3.63,3.63,0,0,0,3.35-3.91h0a3.64,3.64,0,0,0-2.59-3.2l-36.6-13.71,11.87-67.76" transform="translate(-4.735 -10)"/><path class="z" d="M476.37,843.85c-1-2.57-2.79-5.42-4.39-6l-38.73-13.44c-20.08,9.9-47.34,5.44-47.34,5.44l-2.72,28.62a1.7,1.7,0,0,0,1.82,1.56l91.39-7.13C478.24,852.79,476.4,843.93,476.37,843.85Z" transform="translate(-4.739 -10)"/><path class="ac" d="M441.5,825.47a44,44,0,0,0-4.65,9.27" transform="translate(-4.904 -10)"/><path class="ac" d="M446.43,828a39.079,39.079,0,0,0-3.8,7.88" transform="translate(-4.965 -10)"/><path class="ac" d="M450.58,829.72A55.332,55.332,0,0,0,447,837" transform="translate(-5.013 -10)"/><line class="ac" y1="7.3" x2="93.62" transform="translate(378.611 836.74)"/><path class="ac" d="M384.94,840s22-1.16,24.89,12" transform="translate(-4.414 -10)"/><path class="ac" d="M464,835.12s-5.43,9.07-6.34,13.13" transform="translate(-5.147 -10)"/><path class="z" d="M342.44,627.25l6,18.06a6,6,0,0,0,6.08,4.06l63.56-4.63c15.55-1.14,32-1.93,41.87,10.91,8.09,10.53,6.84,29.12,2.32,50.71C458.41,724.9,446,809,446,809l-65.4,4.76,11.3-100.13-75.46,5.49s-48.81,4-45.61-45.5" transform="translate(-3.783 -10)"/><line class="ac" y1="4.77" x2="65.49" transform="translate(377.068 788.59)"/><path class="ac" d="M325.39,718.47l-8.95.65s-46.78,3.41-50.91-45.12" transform="translate(-3.161 -7.931)"/><path class="ac" d="M314.83,645.1s5.18,54.69,51.26,51.33l34.68-2.52A6.81,6.81,0,0,1,408,701.6l-14.91,111" transform="translate(-3.89 -10)"/><path class="ac" d="M321,667.5c.43,1,19-5.76,17.34-24.11" transform="translate(-3.652 -7.389)"/><path class="ac" d="M281.65,678.17a78.8,78.8,0,0,0,18.83-4" transform="translate(-3.209 -7.566)"/><path class="ac" d="M233.76,681.66s9.21-.41,16.17-1.18" transform="translate(-2.656 -7.613)"/><path class="ad" d="M312.7,511.82s61.72-40.77,130.12-58.6l-11.54-31.8c-66.65,10.13-142,56.05-142,56.05" transform="translate(-3.837 -5.238)"/><path class="ae" d="M228.74,536.92s11.31-41.38,84.77-75.88l24.35,37.17-43.5,36.52" transform="translate(-2.878 -5.628)"/><line class="af" x2="23.49" y2="37.27" transform="translate(302.408 460.023)"/><path class="ad" d="M433,455.77c11.83-3.87,47.94-9.45,48.41-11.95s-12.25-.71-11.48-2.7,20.17-6.07,20-8.7c-.26-3.56-19.91,1.69-19.91,1.69s21.23-6.82,20.11-9.85c-.8-2.14-17.24,2.33-23.73,3.25,6.91-1.89,17.75-6.29,16.88-8.49s-12.13.61-20.87,2.3c5.36-1.56,15-4.93,14.24-7s-34.58,2.68-64.8,10.88" transform="translate(-5.004 -4.851)"/><circle class="h" cx="54.86" cy="54.86" r="54.86" transform="translate(405.025 505.83) rotate(-80.6)"/><circle class="i" cx="39.49" cy="39.49" r="39.49" transform="translate(416.379 439.507) rotate(-22.74)"/><circle class="j" cx="37.5" cy="37.5" r="37.5" transform="translate(431.562 423.59)"/><path class="i" d="M493.71,451.49l.71-3.32a.88.88,0,0,0-.68-1.06l-27.91-6.05c-.49-.11-2.3,1.27-2.4,1.76l.4,3.23a.89.89,0,0,0,.68,1.07l4.71,1c4.78,1,7.51,3,8.12,6l-13.7-3a2.09,2.09,0,0,0-2.34,1.5l.56,2.5a.88.88,0,0,0,.68,1.06l14.09,3.06c-1.69,3.56-5.8,4.82-11.7,3.54l-3.65-.79a2,2,0,0,0-2.39,1.76l.44,3a.88.88,0,0,0,.11.65c4.74,7.9,8.32,14.68,12.17,22.1a.89.89,0,0,0,.61.46l5,2.46c1.23.26,2-1.13,2.23-1.41a.87.87,0,0,0,.09-.95c-3.65-7.19-7.54-14.65-11.31-20.94,7.69.84,13.47-2.19,15.81-8.31l5.2,2.47c1.05.37,1.94-.32,2.25-1.77l.72-3.32a.89.89,0,0,0-.69-1.06l-6.48-1.41a11,11,0,0,0-1.22-5.51l7.46,3C492.44,453.74,493.6,452,493.71,451.49Z" transform="translate(-5.322 -5.228)"/><path class="k" d="M492.37,452.56l.72-3.31a.9.9,0,0,0-.68-1.07l-27.92-6.05a.89.89,0,0,0-1.06.69l-.94,4.31a.9.9,0,0,0,.69,1.06l4.71,1c4.78,1,7.51,3.05,8.12,6l-13.7-3a.91.91,0,0,0-1.07.69l-.72,3.31a.91.91,0,0,0,.69,1.07l14.09,3.05c-1.69,3.57-5.8,4.82-11.7,3.54l-3.65-.79a.9.9,0,0,0-1.06.69l-.89,4.11a.92.92,0,0,0,.1.65c4.75,7.91,8.33,14.69,12.18,22.1a.93.93,0,0,0,.61.47l6.36,1.38a.9.9,0,0,0,1-1.29c-3.66-7.18-7.54-14.65-11.31-20.94,7.69.84,13.47-2.18,15.81-8.31l6.38,1.39a.9.9,0,0,0,1.07-.69l.72-3.31a.9.9,0,0,0-.69-1.07l-6.48-1.4a11,11,0,0,0-1.22-5.51l8.79,1.9a.89.89,0,0,0,1.05-.67Z" transform="translate(-5.309 -5.234)"/><path class="l" d="M422.13,476.13s-7.95-52.87,45.52-62.61C467.65,413.52,428.29,422.86,422.13,476.13Z" transform="translate(-4.945 -4.968)"/><path class="ad" d="M307.85,543.9s44.32,13.38,76.08,13.13c41.65-.32,88.72-19.28,88.72-19.28s3.88-34.53-12.59-31.7c-20.17,5.22-55.33,10.4-82.15,9.12C361.17,514.36,324.5,498,324.5,498" transform="translate(-4.143 -5.957)"/><path class="ad" d="M450.8,508.56c12.19-2.53,46.29-15.65,47.95-13.72s-10.28,6.72-8.63,8.05,20.52-4.76,21.66-2.39c1.54,3.23-18.11,8.44-18.11,8.44s21.81-4.64,22.34-1.46c.37,2.26-16.11,6.56-22.2,9,6.94-1.8,18.53-3.38,18.87-1s-10.83,5.5-19.25,8.39c5.43-1.31,15.42-3.16,15.84-1s-26.18,11.76-51.58,19.81" transform="translate(-5.399 -5.84)"/><path class="ad" d="M257.35,465.79l-3.73,30s17.81,15.58,34-1.31L286,474.69Z" transform="translate(-2.936 -5.426)"/><path class="ad" d="M286.71,435.6s16.22,27.28,8.13,37.29c-4.2,5.2-10.74,7.54-17.08,3.43-4.71-3-23.29-22.1-21.2-26.12C264.56,434.84,286.71,435.6,286.71,435.6Z" transform="translate(-2.99 -5.112)"/><path class="ad" d="M293.51,451.14s5.61,4.82,5.86,8.27c.11,1.52-5.1,2.14-5.1,2.14" transform="translate(-3.299 -5.1)"/><path class="r" d="M294.23,464.47l-9.3-.68C284.74,467.31,292.22,475.51,294.23,464.47Z" transform="translate(-3.214 -5.218)"/><path class="ag" d="M286.87,451.32a3,3,0,0,0,.18,1.15,3.884,3.884,0,0,0,.23.56.94.94,0,0,0,.48.48.28.28,0,0,0,.35-.26,1.42,1.42,0,0,0-.22-.58l-.12-.23s-.06-.13,0-.08l-.05-.1a6.07,6.07,0,0,1-.25-1,.29.29,0,0,0-.32-.21.28.28,0,0,0-.25.29Z" transform="translate(-3.209 -5.054)"/><path class="ah" d="M282,449.8a5.9,5.9,0,0,1,4.19-2.91,3,3,0,0,1,2.18.36" transform="translate(-3.172 -5.009)"/><path class="ai" d="M252.52,440.21c.79-10.16,10.86-13,30.09-11.53,2.58.19,7.19-1.49,8.35.82,1.52,3,1.7,9.13-1.37,11.83-2.68,2.35-6.75,1.5-9.84,2.87-5,2.22-2.1,7-4.55,10.78-4.08,6.34-.45,15-7.57,20.1-4.05,2.93-9.53,2.57-14.5,2a3.85,3.85,0,0,1-1.74-.49c-1.78-1.19-1.44-5.84-2.07-7.79A61,61,0,0,1,246,449.31C246.05,443.57,250.38,439.79,252.52,440.21Z" transform="translate(-2.885 -5.063)"/><path class="ad" d="M275.49,456.39c-1.43-5.84-5.69-3.47-7.12-1.29-1.92,2.92,1.74,9.1,3.47,10.17,3.5,2.17,6.37,2,6.68-.88" transform="translate(-3.026 -5.139)"/><path class="aj" d="M286,478.74a35.138,35.138,0,0,1-10.81-4.42" transform="translate(-3.109 -5.326)"/><path class="ae" d="M252.81,486.8s-24.94,12.77-29.91,54c-2.21,18.33,11.65,115.06,11.65,115,56.47,6.8,115.25-13.6,115.25-13.6s-11.48-62.87-16.35-86.51C322.22,501.1,283,486.36,283,486.36Z" transform="translate(-2.862 -6.716)"/><path class="ae" d="M283,486.36s21.64,1.73,35.88,7.29S365.17,512,365.17,512l-12.7,45.16L295,543.52" transform="translate(-3.454 -5.901)"/><line class="ae" x1="32.23" y1="6.95" transform="translate(296.879 538.655)"/><line class="af" x1="11.78" y2="46.32" transform="translate(339.526 502.054)"/><path class="af" d="M233.51,648.92s54.82,4.26,114.8-12.6" transform="translate(-2.958 -7.215)"/><rect class="ak" width="19.27" height="103.18" rx="5.77" transform="translate(207.119 857.02) rotate(-89.9)"/><rect class="al" width="15.19" height="99.1" rx="3.77" transform="translate(209.169 854.984) rotate(-89.9)"/><path class="am" d="M224.8,849.78h-9.14a3.82,3.82,0,0,0-3.84,3.82h0v7.47a3.83,3.83,0,0,0,3.83,3.84h9.13Z" transform="translate(-2.399 -10)"/><rect class="am" width="15.19" height="34.55" transform="translate(228.543 855.02) rotate(-89.9)"/><path class="am" d="M307.06,849.92h-1.52v15.19H307a3.85,3.85,0,0,0,3.84-3.83h0V853.8a3.85,3.85,0,0,0-3.79-3.88Z" transform="translate(-3.433 -10)"/><rect class="am" width="15.19" height="33.04" transform="translate(266.648 855.092) rotate(-89.9)"/><rect class="ak" width="19.27" height="103.18" rx="5.77" transform="translate(215.231 837.907) rotate(-89.9)"/><rect class="al" width="15.19" height="99.1" rx="3.77" transform="translate(217.272 835.88) rotate(-89.9)"/><path class="am" d="M233,830.67h-9.14a3.83,3.83,0,0,0-3.84,3.83h0V842a3.83,3.83,0,0,0,3.83,3.84h9.13Z" transform="translate(-2.492 -10)"/><rect class="am" width="15.19" height="34.55" transform="translate(236.652 835.907) rotate(-89.9)"/><path class="am" d="M315.26,830.81h-1.52v15.18h1.53a3.84,3.84,0,0,0,3.84-3.82h0v-7.48a3.83,3.83,0,0,0-3.79-3.88Z" transform="translate(-3.525 -10)"/><rect class="am" width="15.19" height="33.04" transform="translate(274.767 835.978) rotate(-89.9)"/><rect class="ak" width="19.27" height="103.18" rx="5.77" transform="translate(206.189 818.763) rotate(-89.9)"/><rect class="al" width="15.19" height="99.1" rx="3.77" transform="translate(208.22 816.727) rotate(-89.9)"/><path class="am" d="M223.85,811.53h-9.14a3.83,3.83,0,0,0-3.84,3.83h0v7.49a3.82,3.82,0,0,0,3.82,3.84h9.14Z" transform="translate(-2.388 -10)"/><rect class="am" width="15.19" height="34.55" transform="translate(227.602 816.763) rotate(-89.9)"/><path class="am" d="M306.1,811.67h-1.52v15.19h1.52a3.85,3.85,0,0,0,3.85-3.83h0v-7.49a3.83,3.83,0,0,0-3.8-3.87Z" transform="translate(-3.422 -10)"/><rect class="am" width="15.19" height="33.04" transform="translate(265.707 816.835) rotate(-89.9)"/><rect class="ak" width="103.2" height="19.27" rx="5.77" transform="translate(215.99 784.482) rotate(-4.49)"/><rect class="al" width="99.42" height="15.23" rx="3.78" transform="translate(215.765 788.102) rotate(-4.48)"/><path class="am" d="M233.84,795.36l-9.11.72a3.83,3.83,0,0,0-3.53,4.12h0l.58,7.46a3.84,3.84,0,0,0,4.09,3.56h.06l9.11-.71Z" transform="translate(-2.507 -10)"/><rect class="am" width="34.56" height="15.19" transform="translate(237.513 784.829) rotate(-4.49)"/><path class="am" d="M315.85,788.92l-1.51.13,1.18,15.13,1.52-.12a3.83,3.83,0,0,0,3.54-4.11h0l-.58-7.46a3.84,3.84,0,0,0-4.11-3.54Z" transform="translate(-3.535 -10)"/><rect class="am" width="33.04" height="15.19" transform="translate(275.484 781.82) rotate(-4.49)"/><rect class="ak" width="19.27" height="103.18" rx="5.77" transform="translate(114.895 866.216) rotate(-89.9)"/><rect class="al" width="15.19" height="99.1" rx="3.77" transform="translate(116.948 864.18) rotate(-89.9)"/><path class="am" d="M130,859h-9.14a3.83,3.83,0,0,0-3.84,3.83h0v7.49a3.83,3.83,0,0,0,3.83,3.84h9.13Z" transform="translate(0 -10)"/><rect class="am" width="15.19" height="34.55" transform="translate(136.356 864.216) rotate(-89.9)"/><path class="am" d="M212.21,859.1h-1.52v15.18h1.53a3.84,3.84,0,0,0,3.84-3.83h0v-7.5a3.83,3.83,0,0,0-3.85-3.85Z" transform="translate(-2.367 -10)"/><rect class="am" width="15.19" height="33.04" transform="translate(172.899 864.288) rotate(-89.9)"/><rect class="ak" width="19.27" height="103.18" rx="5.77" transform="translate(125.142 847.103) rotate(-89.9)"/><rect class="al" width="15.19" height="99.1" rx="3.77" transform="translate(127.196 845.076) rotate(-89.9)"/><path class="am" d="M140.2,839.87h-9.14a3.85,3.85,0,0,0-3.84,3.83v7.48A3.83,3.83,0,0,0,131,855h9.13Z" transform="translate(0 -10)"/><rect class="am" width="15.19" height="34.55" transform="translate(146.624 845.113) rotate(-89.9)"/><path class="am" d="M222.47,840h-1.53v15.18h1.52a3.83,3.83,0,0,0,3.84-3.83h0v-7.48a3.83,3.83,0,0,0-3.81-3.86Z" transform="translate(-2.482 -10)"/><rect class="am" width="15.19" height="33.04" transform="translate(183.028 845.174) rotate(-89.9)"/><rect class="ak" width="19.27" height="103.18" rx="5.77" transform="translate(130.291 827.989) rotate(-89.9)"/><rect class="al" width="15.19" height="99.1" rx="3.77" transform="translate(132.345 825.953) rotate(-89.9)"/><path class="am" d="M145.34,820.74h-9.13a3.84,3.84,0,0,0-3.85,3.82h0V832a3.83,3.83,0,0,0,3.83,3.84h9.14Z" transform="translate(0 -10)"/><rect class="am" width="15.19" height="34.55" transform="translate(151.763 825.979) rotate(-89.9)"/><path class="am" d="M227.6,820.88h-1.53v15.23h1.52a3.82,3.82,0,0,0,3.84-3.82h0v-7.48a3.84,3.84,0,0,0-3.75-3.93Z" transform="translate(-2.54 -10)"/><rect class="am" width="15.19" height="33.04" transform="translate(188.108 826.041) rotate(-89.9)"/><rect class="ak" width="19.27" height="103.18" rx="5.77" transform="translate(118.06 808.846) rotate(-89.9)"/><rect class="al" width="15.19" height="99.1" rx="3.77" transform="translate(120.104 806.799) rotate(-89.9)"/><path class="am" d="M133.11,801.59H124a3.83,3.83,0,0,0-3.84,3.83h0v7.51a3.85,3.85,0,0,0,3.83,3.85h9.14Z" transform="translate(0 -10)"/><rect class="am" width="15.19" height="34.55" transform="translate(139.531 806.826) rotate(-89.9)"/><path class="am" d="M215.38,801.73h-1.53v15.19h1.52a3.83,3.83,0,0,0,3.84-3.83h0v-7.48a3.85,3.85,0,0,0-3.79-3.88Z" transform="translate(-2.403 -10)"/><rect class="am" width="15.19" height="33.04" transform="translate(176.018 806.897) rotate(-89.9)"/><rect class="ak" width="19.27" height="103.18" rx="5.77" transform="translate(129.33 789.732) rotate(-89.9)"/><rect class="al" width="15.19" height="99.1" rx="3.77" transform="translate(131.383 787.686) rotate(-89.9)"/><path class="am" d="M144.38,782.49h-9.13a3.85,3.85,0,0,0-3.85,3.83h0v7.47a3.83,3.83,0,0,0,3.83,3.84h9.14Z" transform="translate(0 -10)"/><rect class="am" width="15.19" height="34.55" transform="translate(150.801 787.732) rotate(-89.9)"/><path class="am" d="M226.65,782.63h-1.53v15.19h1.52a3.83,3.83,0,0,0,3.84-3.83h0v-7.48a3.83,3.83,0,0,0-3.79-3.88Z" transform="translate(-2.529 -10)"/><rect class="am" width="15.19" height="33.04" transform="translate(187.167 787.784) rotate(-89.9)"/><rect class="ak" width="19.27" height="103.18" rx="5.77" transform="translate(137.544 770.619) rotate(-89.9)"/><rect class="al" width="15.19" height="99.1" rx="3.77" transform="translate(139.588 768.573) rotate(-89.9)"/><path class="am" d="M152.59,763.38h-9.13a3.85,3.85,0,0,0-3.85,3.83h0v7.48a3.85,3.85,0,0,0,3.83,3.84h9.14Z" transform="translate(0 -10)"/><rect class="am" width="15.19" height="34.55" transform="translate(159.005 768.619) rotate(-89.9)"/><path class="am" d="M234.85,763.52h-1.53v15.19h1.52a3.83,3.83,0,0,0,3.84-3.83h0V767.4a3.84,3.84,0,0,0-3.79-3.87Z" transform="translate(-2.621 -10)"/><rect class="am" width="15.19" height="33.04" transform="translate(195.276 768.671) rotate(-89.9)"/><rect class="ak" width="19.27" height="103.18" rx="5.77" transform="translate(128.378 751.476) rotate(-89.9)"/><rect class="al" width="15.19" height="99.1" rx="3.77" transform="translate(130.422 749.439) rotate(-89.9)"/><path class="am" d="M143.43,744.24h-9.14a3.85,3.85,0,0,0-3.84,3.83h0v7.48a3.85,3.85,0,0,0,3.83,3.85h9.13Z" transform="translate(0 -10)"/><rect class="am" width="15.19" height="34.55" transform="translate(149.849 749.476) rotate(-89.9)"/><path class="am" d="M225.69,744.37h-1.53v15.19h1.52a3.82,3.82,0,0,0,3.84-3.82h0v-7.49a3.83,3.83,0,0,0-3.8-3.87h0Z" transform="translate(-2.518 -10)"/><rect class="am" width="15.19" height="33.04" transform="translate(186.216 749.537) rotate(-89.9)"/><rect class="ak" width="103.53" height="19.332" rx="5.788" transform="translate(139.98 719.167) rotate(-4.574)"/><rect class="al" width="99.42" height="15.23" rx="3.78" transform="translate(138.067 720.82) rotate(-4.48)"/><path class="am" d="M153.43,728.07l-9.11.72a3.84,3.84,0,0,0-3.54,4.11h0l.59,7.46a3.84,3.84,0,0,0,4.09,3.56h0l9.11-.71Z" transform="translate(0 -10)"/><rect class="am" width="34.56" height="15.19" transform="translate(158.024 717.531) rotate(-4.49)"/><path class="am" d="M235.44,721.63l-1.52.12,1.18,15.13,1.53-.11a3.85,3.85,0,0,0,3.54-4.11h0l-.58-7.46a3.83,3.83,0,0,0-4.11-3.54Z" transform="translate(-2.631 -10)"/><rect class="am" width="33.04" height="15.19" transform="translate(196.013 714.522) rotate(-4.49)"/><circle class="h" cx="49.39" cy="49.39" r="49.39" transform="translate(52.369 866.309) rotate(-80.51)"/><circle class="i" cx="35.55" cy="35.55" r="35.55" transform="translate(62.776 806.628) rotate(-22.65)"/><circle class="j" cx="33.76" cy="33.76" r="33.76" transform="translate(76.36 792.43)"/><path class="i" d="M127.57,822.87l.65-3a.81.81,0,0,0-.61-1l-25.13-5.49a4,4,0,0,0-2.16,1.59l.36,2.91a.81.81,0,0,0,.61,1l4.24.92c4.31,1,6.76,2.75,7.3,5.39l-12.33-2.7a1.9,1.9,0,0,0-2.11,1.36l.5,2.24a.8.8,0,0,0,.62,1l12.67,2.77c-1.52,3.21-5.22,4.34-10.53,3.18l-3.29-.72a1.84,1.84,0,0,0-2.16,1.58l.4,2.74a.78.78,0,0,0,.09.58c4.26,7.12,7.47,13.24,10.93,19.92a.81.81,0,0,0,.55.42l4.52,2.22c1.11.24,1.83-1,2-1.26a.81.81,0,0,0,.08-.86c-3.28-6.48-6.77-13.21-10.15-18.87,6.92.76,12.13-2,14.24-7.46l4.68,2.23c.94.33,1.74-.28,2-1.59l.65-3a.81.81,0,0,0-.62-1l-5.83-1.27a9.94,9.94,0,0,0-1.09-5l6.71,2.69C126.43,824.89,127.48,823.3,127.57,822.87Z" transform="translate(0 -10)"/><path class="k" d="M126.37,823.83l.65-3a.8.8,0,0,0-.61-1l-25.13-5.49a.81.81,0,0,0-1,.62l-.84,3.87a.8.8,0,0,0,.61,1l4.24.93c4.3.94,6.76,2.75,7.3,5.38L99.3,823.47a.81.81,0,0,0-1,.61l-.65,3a.81.81,0,0,0,.62,1L111,830.8c-1.52,3.21-5.22,4.33-10.53,3.17l-3.29-.72a.82.82,0,0,0-1,.62l-.81,3.7a.87.87,0,0,0,.1.59c4.26,7.12,7.47,13.23,10.93,19.92a.8.8,0,0,0,.55.41l5.72,1.26a.83.83,0,0,0,.82-.3.81.81,0,0,0,.08-.86c-3.29-6.48-6.77-13.2-10.15-18.87,6.91.77,12.13-2,14.24-7.46l5.75,1.26a.81.81,0,0,0,1-.62l.65-3a.8.8,0,0,0-.62-1l-5.83-1.28a9.94,9.94,0,0,0-1.09-5l7.91,1.73a.81.81,0,0,0,.94-.52Z" transform="translate(0 -10)"/><path class="l" d="M63.09,844.94s-7.07-47.61,41.08-56.3C104.17,788.64,68.72,797,63.09,844.94Z" transform="translate(0 -10)"/></g></g></svg>