<svg xmlns="http://www.w3.org/2000/svg" width="108" height="108" viewBox="0 0 108 108"><defs><style>.a{fill:#00796b;}.b{fill:#fff;}</style></defs><g transform="translate(-10.268 -10.561)"><circle class="a" cx="54" cy="54" r="54" transform="translate(10.269 10.561)"/><path class="b" d="M1.664,59.765a1.628,1.628,0,1,1,0-3.255H3.437V38.4A1.644,1.644,0,0,1,5.1,36.772h6.651A1.644,1.644,0,0,1,13.416,38.4V56.51h3.325v-11.6A1.644,1.644,0,0,1,18.4,43.279h6.654a1.644,1.644,0,0,1,1.664,1.627v11.6h3.325V31.89a1.644,1.644,0,0,1,1.664-1.626h6.654a1.643,1.643,0,0,1,1.661,1.626V56.51H43.35V22.13A1.645,1.645,0,0,1,45.014,20.5h6.651a1.645,1.645,0,0,1,1.664,1.627V56.51H55.1a1.628,1.628,0,1,1,0,3.255ZM16.741,31.892A4.386,4.386,0,0,1,16.8,31.3L11.88,28.892a5.028,5.028,0,0,1-3.454,1.372,4.882,4.882,0,1,1,0-9.762,4.943,4.943,0,0,1,4.989,4.88,4.387,4.387,0,0,1-.064.592l4.928,2.407a4.983,4.983,0,0,1,5.587-.883l6.68-6.532a4.71,4.71,0,0,1-.5-2.092A4.941,4.941,0,0,1,35.035,14a5.035,5.035,0,0,1,2.76.821l5.8-4.256-3.176-3.9L53.194,4.5,49.148,17.43l-3.571-4.256-5.8,4.256a4.826,4.826,0,0,1,.249,1.445,4.944,4.944,0,0,1-4.989,4.882,5,5,0,0,1-2.136-.489L26.219,29.8a4.75,4.75,0,0,1,.5,2.092,4.991,4.991,0,0,1-9.979,0Zm.718-12.6a.42.42,0,0,1-.352-.165Q12.822,14.1,10.134,11.3a.4.4,0,0,1-.126-.3V9.262a.419.419,0,0,1,.132-.308.431.431,0,0,1,.313-.129h1.57A6.433,6.433,0,0,0,15,8.234a2.69,2.69,0,0,0,1.436-1.712H10.454a.437.437,0,0,1-.319-.122.421.421,0,0,1-.126-.316v-1.4a.415.415,0,0,1,.126-.314.431.431,0,0,1,.319-.124H16.24Q15.44,2.7,12.487,2.7H10.454a.433.433,0,0,1-.313-.131.419.419,0,0,1-.132-.308V.438a.415.415,0,0,1,.126-.314A.431.431,0,0,1,10.454,0H22.108a.438.438,0,0,1,.322.124.415.415,0,0,1,.126.314v1.4a.421.421,0,0,1-.126.316.444.444,0,0,1-.322.122H18.845a4.654,4.654,0,0,1,.9,1.973h2.394a.429.429,0,0,1,.322.124.406.406,0,0,1,.126.316v1.4a.408.408,0,0,1-.126.316.434.434,0,0,1-.322.122H19.782a5.087,5.087,0,0,1-1.8,3.207,7.18,7.18,0,0,1-3.864,1.507q2.334,2.441,6.428,7.346a.365.365,0,0,1,.056.464.408.408,0,0,1-.407.248Z" transform="translate(36.844 34.685)"/></g></svg>