<svg xmlns="http://www.w3.org/2000/svg" width="890.461" height="917.925" viewBox="0 0 890.461 917.925"><defs><style>.a,.e{fill:#fce7e4;}.a{opacity:0.84;}.b{fill:#ffd4cd;}.c{fill:#f4b0a7;}.d{fill:#fefef4;}.f,.g,.i,.j,.k,.m,.n,.p{fill:none;}.f,.g,.i,.j{stroke:#fefef4;}.f,.g,.i,.j,.k,.m,.n{stroke-miterlimit:10;}.f{stroke-width:1.941px;}.g{stroke-width:1.477px;}.h{fill:#407ffe;}.i{stroke-width:4.522px;}.j{stroke-width:1.43px;}.k,.p{stroke:#000;}.k,.n{stroke-width:1.552px;}.l{fill:#f26e5a;}.m{stroke:#db5749;stroke-width:1.5px;}.n{stroke:#fce7e4;}.o{fill:#db5749;}.p{stroke-linecap:round;stroke-linejoin:round;stroke-width:1.238px;}.q{opacity:0.5;}.r{fill:#fff;}</style></defs><g transform="translate(-97.124 -381.833)"><path class="a" d="M914.7,560.761c17.314-150.968-39.428-171.735-68.087-299.3-16.328-72.68,11.249-162.081-55.6-220.149C740.744-2.353,662.36-9.207,600.833,10.473c-28.759,9.2-55.96,39.308-84.191,46.205C458.414,70.9,413.175,43.113,355.09,31.4c-66.946-13.5-133.974-11.744-187.8,47.679-52.5,57.96-48.018,141.021-84.028,208-37.7,70.135-96.959,95.2-80.41,187.578,13.159,73.464,79.2,104.4,112.973,160.548,86.331,143.512,85.147,270.63,286.8,240.794,84.366-12.481,161.845-57.753,244.32-62.982C793.6,803.725,891.736,761.06,914.7,560.761Z" transform="translate(981.228 381.833) rotate(90)"/><g transform="translate(97.124 473.135)"><g transform="translate(0 0)"><g transform="translate(0)"><path class="b" d="M479.164,62.649h-135.4a8.221,8.221,0,0,1-8.221-8.221h0a8.222,8.222,0,0,1,8.221-8.222h135.4a8.223,8.223,0,0,1,8.222,8.222h0A8.221,8.221,0,0,1,479.164,62.649Z" transform="translate(72.2 -46.206)"/><rect class="c" width="25.44" height="24.641" rx="3.415" transform="translate(728.858 710.782)"/><path class="d" d="M181.461,371.569l-65.822,34.1,18.963,9.184L111.053,443l18.375,15.045,22.746-30.231,15.248,16.346Z" transform="translate(-111.053 219.394)"/><path class="b" d="M315.2,458.943H238.3a10.311,10.311,0,0,1-10.311-10.311h0A10.31,10.31,0,0,1,238.3,438.32H315.2a10.311,10.311,0,0,1,10.311,10.311h0A10.312,10.312,0,0,1,315.2,458.943Z" transform="translate(-15.6 273.885)"/></g><g transform="translate(160.807 117.91)"><rect class="e" width="645.356" height="541.857" rx="7.151"/><line class="f" x2="645.356" transform="translate(0 65.201)"/><rect class="f" width="645.356" height="541.857" rx="7.151"/><g transform="translate(45.459 24.167)"><ellipse class="f" cx="9.098" cy="9.098" rx="9.098" ry="9.098"/><ellipse class="f" cx="9.098" cy="9.098" rx="9.098" ry="9.098" transform="translate(35.359)"/><ellipse class="f" cx="9.098" cy="9.098" rx="9.098" ry="9.098" transform="translate(70.718)"/></g></g></g><g transform="translate(1.801 25.993)"><g transform="translate(0 376.937)"><rect class="b" width="311.793" height="135.772" rx="10.354"/><g transform="translate(26.005 19.306)"><path class="g" d="M111.04,286.41a5.9,5.9,0,1,1-5.9-5.9A5.9,5.9,0,0,1,111.04,286.41Z" transform="translate(-99.232 -280.506)"/><ellipse class="g" cx="5.904" cy="5.904" rx="5.904" ry="5.904" transform="translate(22.945 0)"/><ellipse class="g" cx="5.904" cy="5.904" rx="5.904" ry="5.904" transform="translate(45.89 0)"/></g><line class="g" x2="311.793" transform="translate(0 47.559)"/></g><g transform="translate(749.115 0)"><rect class="h" width="104.853" height="94.938" rx="14.132"/><g transform="translate(30.214 23.497)"><path class="d" d="M151.758,122.091a22.212,22.212,0,1,1,22.214-22.212A22.237,22.237,0,0,1,151.758,122.091Zm0-37.749a15.537,15.537,0,1,0,15.537,15.537A15.554,15.554,0,0,0,151.758,84.342Z" transform="translate(-129.546 -77.667)"/><line class="i" x1="25.471" y2="31.074" transform="translate(9.834 6.676)"/></g></g><g transform="translate(677.117 280.643)"><rect class="h" width="211.543" height="275.958" rx="13.046"/><g transform="translate(29.9 19.348)"><ellipse class="j" cx="6.704" cy="6.704" rx="6.704" ry="6.704"/><ellipse class="j" cx="6.704" cy="6.704" rx="6.704" ry="6.704" transform="translate(26.057 0)"/><ellipse class="j" cx="6.704" cy="6.704" rx="6.704" ry="6.704" transform="translate(52.113)"/></g><line class="j" x2="211.543" transform="translate(0 54.015)"/></g></g><g transform="translate(142.997 153.307)"><g transform="translate(214.108 373.324)"><path class="h" d="M463.011,311.561l-1.348-18.223-113.6,5.585v17.586s-52.934,63.7-46.534,276.181h58.88l56.96-16,101.76-42.88S539.351,359.414,463.011,311.561Z" transform="translate(-300.989 -293.338)"/><g transform="translate(47.071 18.223)"><line class="k" y1="4.948" x2="114.952"/><path class="k" d="M345.453,347.15,369,356.738l12.6,101.882" transform="translate(-321.965 -267.633)"/></g></g><g transform="translate(0 140.607)"><g transform="translate(0 29.773)"><g transform="translate(135.416 0.563)"><path class="l" d="M264.849,330.54l31.382-103.6,69.033,25.879-33.12,99.22a35.324,35.324,0,0,1-67.295-21.494Z" transform="translate(-263.28 -145.163)"/><path class="d" d="M298.454,208.358A37.449,37.449,0,1,1,369.8,231.147l-19.342,58.418-69.033-25.879Z" transform="translate(-248.471 -181.914)"/></g><path class="l" d="M379.01,359.771l-78.845-149.5s1.8-27.01-43.072-28.625l.009.04c-.61-.029-1.217-.084-1.831-.084h-15a5.681,5.681,0,0,0-5.705,4.722,5.549,5.549,0,0,0,4.8,6.317l15.128,2.138-20.581,5.493-3.841,1.419-28.026-18.517a4.544,4.544,0,0,0-5.552,7.185c1.729,1.442,4.514,3.831,7.547,6.452l-6.186-3.7a4.543,4.543,0,0,0-4.96,7.6c1.511,1.068,3.456,2.437,5.525,3.891l-2.152-.839a5.552,5.552,0,0,0-6.586,1.827,5.341,5.341,0,0,0,2.325,7.975l30.625,12.82c5.287,2.212,10.339,3.593,16.556,2.12l27.3-6.435,61.085,170.981Z" transform="translate(-188.725 -181.604)"/><line class="m" x2="14.591" y2="27.666" transform="translate(157.925 116.81)"/></g><g transform="translate(207.015 28.214)"><path class="d" d="M342.461,183.24l-29.308,2.19s-42.438,57.565,43.712,205.4l113.6-5.585,8.56-159.282L465,180.746H414.1Z" transform="translate(-302.7 -180.746)"/><path class="n" d="M308.451,261.945s-8.453-17.78-3.022-57.167" transform="translate(-301.959 -161.128)"/></g><g transform="translate(333.484)"><g transform="translate(0 24.506)"><path class="l" d="M501.5,316.313l-47.179-97.431-64.145,36.343,48.211,92.828a35.325,35.325,0,0,0,63.114-31.74Z" transform="translate(-357.764 -145.907)"/><path class="d" d="M443.419,199.691a37.449,37.449,0,1,0-66.91,33.649l28.227,54.682,64.145-36.343Z" transform="translate(-372.33 -178.705)"/><line class="n" x1="23.307" y1="45.148" transform="translate(9.101 64.17)"/></g><g transform="translate(89.871)"><path class="l" d="M574.151,193.441a5.552,5.552,0,0,0-6.586-1.827l-13.7,5.349,12.872-10.891a5.489,5.489,0,0,0,1.117-7.273,5.347,5.347,0,0,0-7.743-1.113l-11.977,9.643,10.21-13.348a5.485,5.485,0,0,0-.465-7.342,5.348,5.348,0,0,0-7.8.567l-20.156,20.917-20.581-5.493,15.13-2.14a5.548,5.548,0,0,0,4.8-6.317,5.681,5.681,0,0,0-5.7-4.721h-15a35.985,35.985,0,0,0-24.063,8.978c-.111.084-.212.142-.325.231-9.2,7.258-5.856,22.134-5.856,22.134L421.809,360.772l56,24.842,32.285-171.8,20.619.038a21.707,21.707,0,0,0,3.842.007h.156l-.009-.007a21.919,21.919,0,0,0,6.5-1.6l30.625-10.84A5.342,5.342,0,0,0,574.151,193.441Z" transform="translate(-421.809 -165.212)"/><line class="m" x1="12.203" y2="42.601" transform="translate(9.756 129.031)"/></g></g></g><g transform="translate(188.139)"><path d="M348.665,115.876c-3.531,2.423-27.216,8.578-27.684,12.876,0,0,7.792,30.46-.189,36.143-21.576,15.368-28.483,45.5-28.483,45.5s56.918,42.62,208.225-2.132c0,0,1.813-18.125-25.708-31.283-7.854-3.756-14.836-9.418-19.249-17.1-3.418-5.954-3.938-8.48-4.844-13.824C448.2,131.113,406.978,75.873,348.665,115.876Z" transform="translate(-292.308 -76.529)"/><path class="o" d="M340.857,142.186a18.144,18.144,0,1,1-19.36-16.841A18.146,18.146,0,0,1,340.857,142.186Z" transform="translate(-282.264 -57.186)"/><path class="l" d="M329.081,168.9l2.508,39.461c.852,13.86,6.519,23.3,20.154,22.353h0c11.639-.81,25.487-10.135,26.126-21.785l-6.938-61.913Z" transform="translate(-262.289 -39.456)"/><path class="l" d="M324.609,183.24l71.643-2.494s-1.742,35.224-44.324,31.925C322.33,210.379,324.609,183.24,324.609,183.24Z" transform="translate(-265.973 -11.925)"/><path class="o" d="M331.3,197.085l45.791-44.768-48.2,8.22Z" transform="translate(-262.442 -35.132)"/><path class="l" d="M355.767,220.168h0c-23.314.069-42.567-18.29-43.265-37.327l-1.371-44.927a44.259,44.259,0,0,1,41.156-45.771h0c24.384-1.7,49.8,16.4,51.5,40.782l.71,36.147C405.045,197.026,383.66,218.226,355.767,220.168Z" transform="translate(-276.967 -84.344)"/><g transform="translate(36.994 55.363)"><path class="p" d="M325.942,133.321l-1.351,11.156,5.765.212" transform="translate(-302.949 -106.002)"/><path d="M343.862,118.367s-12.881-1.057-13.01,4.187c0,0,.011,3.549,11.249,4.254s14.158-.12,15.184-3.455S349.9,118.4,343.862,118.367Z" transform="translate(-297.838 -118.28)"/><path d="M321.357,122.566s9.756-.785,10.675,3.929c0,0,.547,3.189-8,3.68s-11.19-.572-11.35-3.271C312.491,123.689,316.71,122.519,321.357,122.566Z" transform="translate(-312.676 -114.821)"/><path d="M324.278,132.77a4.123,4.123,0,1,1-4.254-3.987A4.122,4.122,0,0,1,324.278,132.77Z" transform="translate(-309.933 -109.708)"/><path d="M343.335,132.145a4.123,4.123,0,1,1-4.256-3.985A4.122,4.122,0,0,1,343.335,132.145Z" transform="translate(-294.377 -110.217)"/><path class="p" d="M339.039,144.119s-6.092-2.779-13.452,3.571" transform="translate(-302.136 -97.681)"/></g><path d="M369.322,87.875a55.865,55.865,0,0,0-17.3,1.827c-13.964,3.718-39.04,14.06-43.337,40.88-1.431,7.069-.44,9.439-.44,9.439s46.834,1.836,74.522-11.236c3.985,16.872,7.669,27.31,24.333,43.741l14.794-22.239,16.657,14.939C438.658,165.792,438.638,91.559,369.322,87.875Z" transform="translate(-279.572 -87.799)"/><g transform="translate(115.579 68.296)"><path class="l" d="M392.187,142.286a18.144,18.144,0,1,1-19.36-16.841A18.145,18.145,0,0,1,392.187,142.286Z" transform="translate(-355.942 -125.401)"/><path class="p" d="M362.125,143.641s-.912-13.123,11.779-11.93" transform="translate(-350.906 -120.311)"/></g></g></g></g><g transform="translate(793.315 899.179) rotate(-18)"><path class="d" d="M73.679,3.89,5.226,66.495A16.044,16.044,0,0,0,11.043,93.58c24.629,8.088,61.552,20.146,87.15,28.5a17.055,17.055,0,0,0,21.86-20.245l-22-90.521A14.8,14.8,0,0,0,73.679,3.89Z" transform="translate(0 0)"/><g class="q" transform="translate(4.332 5.49)"><path class="r" d="M68.772,4.4c-.079-.072.574-1.173,2.577-2.458A13.363,13.363,0,0,1,81.5.373a14.558,14.558,0,0,1,6.766,3.675,16.244,16.244,0,0,1,4.253,8.082c1.566,5.942,3.34,12.68,5.3,20.112,3.808,14.98,8.324,32.75,13.339,52.465q.924,3.717,1.871,7.528a17.739,17.739,0,0,1-.205,9.11,17.912,17.912,0,0,1-22.884,12.03q-4.022-1.3-8.106-2.632-8.163-2.661-16.552-5.4c-11.173-3.672-22.078-7.258-32.61-10.721q-7.9-2.615-15.5-5.135-1.9-.631-3.773-1.258L11.524,87.6l-2.119-.868a16.587,16.587,0,0,1-6.711-5.958,17.01,17.01,0,0,1-1-16.577,18.45,18.45,0,0,1,2.283-3.483L5.4,59.244l1.324-1.2q2.616-2.343,5.146-4.612c6.757-6.02,13.055-11.633,18.818-16.771,11.535-10.218,20.928-18.423,27.5-24S68.523,4.123,68.772,4.4s-3.029,3.747-9.173,9.8S44.449,28.873,33.24,39.45C27.613,44.732,21.462,50.506,14.861,56.7q-2.482,2.318-5.052,4.714L8.547,62.608l-1.029,1.1a13.666,13.666,0,0,0-1.6,2.537,12.257,12.257,0,0,0,.9,11.849,11.62,11.62,0,0,0,4.77,4.126l1.517.6,1.876.605q1.883.605,3.786,1.217L34.3,89.652c10.547,3.429,21.461,6.977,32.643,10.615q8.374,2.749,16.543,5.425,4.075,1.343,8.092,2.663A12.752,12.752,0,0,0,107.933,99.9a12.754,12.754,0,0,0,.212-6.529q-.9-3.795-1.767-7.5c-4.6-19.817-8.739-37.676-12.23-52.735-1.671-7.5-3.188-14.3-4.525-20.3a13.691,13.691,0,0,0-3.179-7.008A12.653,12.653,0,0,0,80.96,2.379a13.016,13.016,0,0,0-9.111.509C69.849,3.774,68.94,4.595,68.772,4.4Z" transform="translate(0 0)"/></g><path class="h" d="M8.883,3.259.183,36.471A5.56,5.56,0,0,0,3.5,43.045h0a5.566,5.566,0,0,0,7.113-2.851l14.427-31.5a4.364,4.364,0,0,0-2.656-5.976L14.417.2A4.364,4.364,0,0,0,8.883,3.259Z" transform="translate(61.761 26.797)"/><path class="h" d="M15.071,13.357a8.363,8.363,0,1,1-1.715-11.7A8.362,8.362,0,0,1,15.071,13.357Z" transform="translate(52.647 76.144)"/></g></g></svg>