<svg xmlns="http://www.w3.org/2000/svg" width="72" height="72" viewBox="0 0 72 72"><defs><style>.a{opacity:0;}.b,.c{fill:#2ad181;}.b{opacity:0.1;}</style></defs><g class="a" transform="translate(14958 -8372)"><rect class="b" width="72" height="72" transform="translate(-14958 8372)"/><rect class="b" width="48" height="48" transform="translate(-14946 8384)"/></g><path class="c" d="M15.88,49.957A26.089,26.089,0,1,1,26,52,25.915,25.915,0,0,1,15.88,49.957ZM4,26A22,22,0,1,0,26,4,22.025,22.025,0,0,0,4,26ZM23.719,37.314A2.477,2.477,0,0,1,23,35.485a2.385,2.385,0,0,1,.718-1.8A2.413,2.413,0,0,1,25.486,33a2.512,2.512,0,0,1,1.8.686,2.385,2.385,0,0,1,.718,1.8,2.477,2.477,0,0,1-.718,1.829,2.508,2.508,0,0,1-1.8.686A2.41,2.41,0,0,1,23.719,37.314Zm3.46-6.846H23.508c-.358-2.174.538-4.342,2.664-6.444,2.246-2.221,3.384-3.88,3.384-4.932,0-2.436-1.332-3.672-3.96-3.672a7.122,7.122,0,0,0-5.22,2.664L18,15.888A10.69,10.69,0,0,1,26.064,12,8.088,8.088,0,0,1,31.5,13.764a6.4,6.4,0,0,1,2.052,5c0,1.768-1.163,3.755-3.456,5.9-2.2,2.054-3.178,4-2.916,5.8h0Z" transform="translate(10 10)"/></svg>