<svg xmlns="http://www.w3.org/2000/svg" xmlns:xlink="http://www.w3.org/1999/xlink" width="923.384" height="911.545" viewBox="0 0 923.384 911.545"><defs><style>.a,.aa,.ae,.af,.ag,.am,.o{fill:none;}.b{fill:#a3b8e0;opacity:0.32;}.c{opacity:0.64;}.d{fill:#6fb9b2;}.e{fill:#b1c1a7;}.f,.g,.i{fill:#fff;}.f{opacity:0.47;}.h{opacity:0.55;}.i{opacity:0.33;}.j{fill:#f777ba;}.al,.k{fill:#6ea5f9;}.l{fill:#e5e5e5;}.m{fill:#020202;opacity:0.2;mix-blend-mode:multiply;isolation:isolate;}.n{opacity:0.5;}.o{stroke:#2f36ad;stroke-width:6px;}.af,.o{stroke-linecap:round;}.ae,.af,.ag,.am,.o{stroke-miterlimit:10;}.p{fill:#6774ff;opacity:0.36;}.q{clip-path:url(#a);}.r{fill:#2e7efa;}.s{fill:#009444;}.t{fill:#18277a;}.u{fill:#5565aa;}.v{fill:#1a3987;}.w{fill:#cc328a;}.x{fill:#00276f;}.y{fill:#212237;}.z{fill:#ffe1ad;}.aa{stroke:#1a3987;stroke-linejoin:round;stroke-width:0.75px;}.ab{fill:#fca604;}.ac{fill:#fa8a02;}.ad{fill:#fa6a39;}.ae,.af{stroke:#ee8f0a;stroke-width:4px;}.ag{stroke:#000094;stroke-width:8px;}.ah{fill:#2a2a68;}.ai{fill:#4376cf;}.aj{fill:#9cd0ff;}.ak{fill:#2e3192;}.al{opacity:0.29;}.am{stroke:#210e3c;}</style><clipPath id="a"><circle class="a" cx="32.798" cy="32.798" r="32.798" transform="translate(0 46.384) rotate(-45)"/></clipPath></defs><g transform="translate(-63.236 -270)"><g transform="translate(31.572 -5.833)"><path class="b" d="M909.253,547.185c16.743-146.178-62.83-170.5-90.545-294.022C802.919,182.789,829.587,96.225,764.938,40,716.327-2.279,640.527-8.915,581.029,10.141c-27.811,8.905-54.115,38.06-81.416,44.739C443.3,68.654,399.556,41.745,343.386,30.405c-64.739-13.071-129.558-11.372-181.61,46.166C111,132.692,115.34,213.117,80.517,277.971,44.062,345.88-13.246,370.15,2.758,459.6,15.483,530.73,79.347,560.685,112.006,615.05c83.486,138.958,82.34,262.043,277.346,233.154,81.585-12.085,156.51-55.92,236.267-60.984C767.438,778.223,887.044,741.128,909.253,547.185Z" transform="translate(924.448 275.833) rotate(90)"/><g transform="translate(135.358 368.484)"><g transform="translate(0 0)"><g class="c" transform="translate(8.871 495.944)"><path class="d" d="M2926.165,600.171c5.349-11.044,33.248-59.368,62.657-75.33,3.74-2.03,7.683-3.909,11.918-4.307s8.855.942,11.417,4.338c2.339,3.1,2.6,7.323,1.922,11.145-5.342,30.226-39.77,41.8-56.586,64.154" transform="translate(-2772.084 -398.047)"/><path class="e" d="M2943.919,642.78s27.676-54.631,54.7-87.177c12.793-15.406,21.577-43.946,8.129-52.5-19.464-12.369-38.588,15.187-47.35,28.873-13.251,20.693-23,43.593-30.517,66.922-1.088,3.38-11.016,43.881-11.211,43.881h26.25Z" transform="translate(-2789.838 -440.838)"/><g transform="translate(144.774 76.952)"><path class="f" d="M2926.1,631.213l-2.945-.943c9.5-29.7,30.056-85.373,61.017-124.519l2.429,1.919C2955.935,546.43,2935.529,601.71,2926.1,631.213Z" transform="translate(-2923.151 -505.751)"/></g><path class="d" d="M2972.344,646.173s-3.214-84.062-40.411-122.925c-10.048-10.5-26.524-21.413-40.045-24.4-17.521-3.872-17.045,16.732-13.872,30.087,4.111,17.3,18.25,28.088,28.447,40.976,18.765,23.713,29.964,39.366,43.661,76.267" transform="translate(-2876.298 -444.231)"/><path class="e" d="M2960.52,681.577c10.042-18.373,6.51-96.932,1.477-121.541a125.59,125.59,0,0,0-20.5-47.447c-8.9-12.375-35.5-39.653-51.151-28.57-9.054,6.412,4.66,29.506,8.278,36.44a394.943,394.943,0,0,1,28.3,71.242c8.407,28.6,14.767,58.654,17.042,88.732.027.383.052.763.08,1.143" transform="translate(-2853.294 -479.635)"/><path class="d" d="M2912.458,682.789c-3.309-43.986-1.192-111.5,18.639-149.629,22.485-43.241,51.8-63.208,56.052-46.353,12.342,48.877-37.178,180.34-51.12,195.981" transform="translate(-2803.396 -480.847)"/><g transform="translate(9.792 67.383)"><path class="f" d="M2951.6,637.364c-5.225-53.388-33.541-105.269-72.135-132.173l1.767-2.537c39.3,27.4,68.134,80.16,73.448,134.407Z" transform="translate(-2879.468 -502.654)"/></g><g transform="translate(50.601 17.263)"><path class="f" d="M2941.511,671.168c-1.429-41.125-5.883-77.632-13.606-111.613-7.548-33.223-19.077-56.386-35.231-70.816l2.058-2.305c16.652,14.872,28.49,38.566,36.186,72.438,7.766,34.172,12.243,70.868,13.682,112.188Z" transform="translate(-2892.675 -486.434)"/></g><g transform="translate(121.541 23.842)"><path class="g" d="M2918.717,666.749l-3.084-.17c2.908-52.644,18.216-109.209,48.169-178.016l2.831,1.233C2936.833,558.257,2921.606,614.482,2918.717,666.749Z" transform="translate(-2915.633 -488.563)"/></g><g transform="translate(166.808 131.75)"><path class="f" d="M2933,594.415l-2.717-1.477c24.594-45.219,60.218-69.215,60.579-69.453l1.706,2.571C2992.218,526.294,2957.206,549.9,2933,594.415Z" transform="translate(-2930.283 -523.485)"/></g></g><g class="h" transform="translate(491.448 447.777)"><path class="d" d="M3089.285,718.444c5.254-69.475-.6-137.618,25.866-203.452,7.512-18.688,24.627-48.163,48.3-49.171,36.564-1.557,14.176,71.9,7.552,99.386-4.258,17.675-10.611,35.26-17.208,52.162-11.7,29.97-29.294,71.876-42.59,101.076" transform="translate(-2950.638 -465.367)"/><path class="e" d="M3134.083,718.734c-11.514-29.454-22.774-59-34.164-88.5-10.1-26.166-21.85-51.751-30.009-78.63-6.211-20.459-22.26-67.346,1.235-81.757,41.847-25.665,75.287,73.643,79.7,108.912,5.817,46.489,4.56,93.249,5.259,139.979" transform="translate(-3014.418 -465.657)"/><path class="d" d="M3130.83,667.51s-24.454-31.237-35.482-45.886c-24.636-32.723-55.014-68.267-50.477-105.05,1.041-8.463,4.143-17.888,12.65-22.9,5.2-3.062,11.662-3.912,17.567-3.35,20.02,1.91,37.953,30.98,46.961,45.886C3139.686,565.4,3167,667.51,3167,667.51" transform="translate(-3044.417 -414.434)"/><g transform="translate(66.323 24.089)"><path class="i" d="M3125.414,702.463c-.72-56.577-29.651-167.207-59.535-227.641l2.769-1.369c30.045,60.755,59.133,172.031,59.857,228.97Z" transform="translate(-3065.878 -473.453)"/></g><g transform="translate(19.936 93.39)"><path class="i" d="M3130.527,656.25c-.531-1.085-53.7-109.085-79.66-158.945l2.74-1.424c25.968,49.885,79.156,157.919,79.691,159.007Z" transform="translate(-3050.867 -495.881)"/></g><g transform="translate(147.132 15.798)"><path class="i" d="M3095.09,708.4l-3.06-.423c12.045-86.939,41.95-190.818,62.755-237.208l2.818,1.267C3136.887,518.232,3107.094,621.733,3095.09,708.4Z" transform="translate(-3092.03 -470.77)"/></g><path class="e" d="M3096.713,675.294s12.218-54.445,20.679-85.354c9.2-33.61,39.292-85.051,70.924-99.667,7.283-3.365,16.058-5.676,23.1-1.835,4.3,2.345,7.239,6.7,8.828,11.34,5.384,15.725-20.956,65.374-30.012,79.31-17.737,27.287-43.142,70.64-63.283,96.206" transform="translate(-2935.11 -422.217)"/><g transform="translate(167.572 77.832)"><path class="i" d="M3101.546,666.625l-2.9-1.066c12.814-34.886,63.542-141.45,101.849-174.713l2.03,2.336C3164.632,526.081,3114.287,631.943,3101.546,666.625Z" transform="translate(-3098.646 -490.846)"/></g></g><path class="j" d="M3108.653,549.65l-39.5,8.58-3.329-20.117,39.5-5.7Z" transform="translate(-2481.005 121.645)"/><path class="j" d="M3141.53,546.742l-30.176,19.2-13.292-21.691,31.043-17.158Z" transform="translate(-2413.64 110.511)"/><g transform="translate(200.409)"><path class="k" d="M3286.615,370.5V969.405a50.644,50.644,0,0,1-1,10.036c-.33,1.619-.745,3.195-1.226,4.746-.264.788-.526,1.576-.789,2.342a49.115,49.115,0,0,1-6.866,12.641,50.915,50.915,0,0,1-4.7,5.423,52.3,52.3,0,0,1-5.4,4.678c-1.267.942-2.6,1.839-3.958,2.692h-.022q-2.035,1.246-4.2,2.3h-.021a48.964,48.964,0,0,1-6.758,2.67h-.021c-1.552.479-3.127.9-4.746,1.224a51.029,51.029,0,0,1-10.061,1.007H2991.177a49.614,49.614,0,0,1-10.587-1.14c-.568-.13-1.115-.238-1.683-.392-.613-.151-1.247-.328-1.861-.5a50.642,50.642,0,0,1-7.435-2.864c-1.2-.59-2.36-1.2-3.476-1.857-.525-.309-1.05-.615-1.554-.942-1.094-.677-2.141-1.421-3.17-2.188a50.237,50.237,0,0,1-8.618-8.223c-1-1.224-1.969-2.493-2.865-3.825a50.307,50.307,0,0,1-3.587-6.257,47.261,47.261,0,0,1-3.345-9.119v-.021a49.583,49.583,0,0,1-1.575-12.422V370.5a49.786,49.786,0,0,1,49.776-49.755H3236.86A49.768,49.768,0,0,1,3286.615,370.5Z" transform="translate(-2941.423 -320.744)"/><path class="l" d="M3268.859,363.868V962.775a39.583,39.583,0,0,1-.788,7.873,32.293,32.293,0,0,1-.917,3.585l-.724,2.123a38.4,38.4,0,0,1-8.968,13.886,37.912,37.912,0,0,1-4.263,3.7c-.742.547-1.641,1.162-2.667,1.817l-.417.263c-.853.525-1.727,1.026-2.645,1.486l-.634.284a35.151,35.151,0,0,1-4.7,1.9l-.548.173c-1.291.4-2.493.7-3.673.964a41.583,41.583,0,0,1-7.9.766H2984.353a38.531,38.531,0,0,1-8.243-.874c-.917-.2-1.838-.417-2.713-.68a39.624,39.624,0,0,1-5.9-2.274c-.918-.46-1.835-.939-2.624-1.421-.459-.263-.809-.46-1.115-.655l-.24-.155c-.677-.414-1.444-.939-2.383-1.641a40.484,40.484,0,0,1-6.736-6.452c-.831-1-1.555-1.968-2.209-2.93a39.766,39.766,0,0,1-2.8-4.9,37.47,37.47,0,0,1-2.472-6.541l-.152-.59a39.214,39.214,0,0,1-1.227-9.709V363.868a38.889,38.889,0,0,1,38.842-38.819h245.664a38.87,38.87,0,0,1,38.82,38.819Z" transform="translate(-2932.825 -311.746)"/><rect class="m" width="280.839" height="120.279" rx="29" transform="translate(29.891 100.071)"/><rect class="g" width="280.839" height="120.279" rx="17" transform="translate(33.956 95.796)"/><g transform="translate(136.064 145.123)"><g class="n"><line class="o" x2="126.793"/></g><g class="n" transform="translate(0 13.356)"><line class="o" x2="151.039"/></g><g class="n" transform="translate(0 26.712)"><line class="o" x2="151.039"/></g></g><g transform="translate(39.09 111.408)"><circle class="p" cx="32.798" cy="32.798" r="32.798" transform="translate(0 46.384) rotate(-45)"/></g><rect class="m" width="280.839" height="120.279" rx="19" transform="translate(29.73 258.348)"/><rect class="g" width="280.839" height="120.279" rx="18" transform="translate(33.956 253.997)"/><g transform="translate(136.064 301.137)"><g class="n"><line class="o" x2="126.793"/></g><g class="n" transform="translate(0 13.356)"><line class="o" x2="151.039"/></g><g class="n" transform="translate(0 26.712)"><line class="o" x2="151.039"/></g></g><g transform="translate(38.532 268.306)"><g class="q" transform="translate(0 0)"><circle class="p" cx="32.798" cy="32.798" r="32.798" transform="translate(0 46.384) rotate(-45)"/></g></g><path class="r" d="M3074.151,344.944H3001.1a22.25,22.25,0,0,1-22.25-22.251H3096.4A22.252,22.252,0,0,1,3074.151,344.944Z" transform="translate(-2863.196 -316.671)"/></g><g transform="translate(336.484 428.601)"><rect class="m" width="59.17" height="59.17" rx="29.585" transform="translate(0 3.55)"/><rect class="s" width="59.17" height="59.17" rx="29.585" transform="translate(3.55)"/></g><g transform="translate(353.084 449.994)"><path class="g" d="M3001.516,487.891l-10.2-9.662a1.546,1.546,0,0,1,2.125-2.246l8.174,7.743,19.735-16.979a1.545,1.545,0,1,1,2.016,2.342Z" transform="translate(-2990.831 -466.375)"/></g><g transform="translate(549.188 666.957)"><path class="t" d="M3054.353,570.564c.487-2.627,1.616-5.652,3.028-6.483l34.691-21.772c20.9,5.577,39.641-5.719,39.641-5.719l11.068,30.566a1.641,1.641,0,0,1-1.434,1.823l-85.3,10.2C3054.272,579.392,3054.337,570.648,3054.353,570.564Z" transform="translate(-3054.191 -536.59)"/><g transform="translate(28.898 9.159)"><path class="u" d="M3069.637,548.876a41.545,41.545,0,0,0-5.989-7.694l1.651-1.628a44.1,44.1,0,0,1,6.321,8.123Z" transform="translate(-3063.648 -539.554)"/></g><g transform="translate(24.668 12.465)"><path class="u" d="M3067.24,548.775a36.614,36.614,0,0,0-4.959-6.569l1.7-1.582a38.645,38.645,0,0,1,5.225,6.918Z" transform="translate(-3062.28 -540.624)"/></g><g transform="translate(21.09 14.918)"><path class="u" d="M3065.757,549.056a53.592,53.592,0,0,0-4.636-6.038l1.672-1.6a55.3,55.3,0,0,1,4.869,6.316Z" transform="translate(-3061.121 -541.418)"/></g><g transform="translate(0 25.226)"><path class="u" d="M3054.575,557.512l-.278-2.3,87.457-10.459.278,2.3Z" transform="translate(-3054.297 -544.754)"/></g><g transform="translate(63.577 12.558)"><path class="u" d="M3077.189,557.229l-2.319-.043c.24-13.794,18.138-16.507,18.321-16.531l.328,2.293C3093.355,542.971,3077.393,545.41,3077.189,557.229Z" transform="translate(-3074.871 -540.654)"/></g><g transform="translate(9.332 22.603)"><path class="u" d="M3065.607,556.385c-1.533-3.464-8.221-10.846-8.291-10.923l1.716-1.557c.288.315,7.011,7.74,8.7,11.547Z" transform="translate(-3057.316 -543.905)"/></g></g><g transform="translate(659.405 653.614)"><path class="t" d="M3089.978,583.751c-.093-2.753.348-6.047,1.548-7.2l32.509-32.1c21.615.927,34.071-12.178,34.071-12.178l17.445,28.249a1.7,1.7,0,0,1-1,2.157L3093.5,592.032C3091.82,592.641,3089.981,583.838,3089.978,583.751Z" transform="translate(-3089.966 -532.272)"/><g transform="translate(23.011 19.764)"><path class="u" d="M3104.931,546.992a42.064,42.064,0,0,0-7.518-6.393l1.278-1.931a43.968,43.968,0,0,1,7.935,6.751Z" transform="translate(-3097.414 -538.668)"/></g><g transform="translate(19.59 24.028)"><path class="u" d="M3102.573,547.433a37.294,37.294,0,0,0-6.266-5.5l1.338-1.888a39.142,39.142,0,0,1,6.6,5.778Z" transform="translate(-3096.306 -540.048)"/></g><g transform="translate(16.633 27.294)"><path class="u" d="M3101.185,548.048a52.778,52.778,0,0,0-5.837-5.027l1.307-1.916a53.874,53.874,0,0,1,6.13,5.265Z" transform="translate(-3095.348 -541.105)"/></g><g transform="translate(0.229 23.147)"><rect class="u" width="88.373" height="2.318" transform="matrix(0.94, -0.341, 0.341, 0.94, 0, 30.145)"/></g><g transform="translate(60.543 11.686)"><path class="u" d="M3109.864,556.723c-2.753-13.88,14.109-20.6,14.28-20.669l.84,2.16c-.151.059-15.221,6.09-12.842,18.058Z" transform="translate(-3109.56 -536.054)"/></g><g transform="translate(6.817 37.645)"><path class="u" d="M3102.647,555.464c-2.253-3.146-10.392-9.075-10.475-9.131l1.362-1.879c.349.253,8.526,6.211,10.994,9.656Z" transform="translate(-3092.173 -544.455)"/></g></g><path class="r" d="M3103.032,447.7s-49.206,110.037-46.609,149.011c2.416,36.289,29.935,128.2,29.935,128.2l39.651-7.821s-18.034-115.775-16.569-127.52,46.653-93.28,46.653-93.28,13.945-19.043,9.165-51.782" transform="translate(-2500.876 -62.071)"/><g transform="translate(607.321 435.985)"><path class="v" d="M3088.5,679.668c-.687-4.678-16.758-114.687-15.291-126.451s34.253-88.129,35.646-91.377l2.129.918c-.339.791-34.049,79.3-35.476,90.743s15.116,124.686,15.284,125.83Z" transform="translate(-3073.11 -461.841)"/></g><g transform="translate(582.406 644.435)"><rect class="v" width="38.029" height="2.315" transform="translate(0 7.534) rotate(-11.427)"/></g><path class="r" d="M3092.334,451.874s-18.757,107.018-9.9,146.2c9.9,43.831,55.444,123.179,55.444,123.179l31.922-17.1s-36.956-96.71-36.881-116.192c.046-12.187,11.241-74.953,11.241-74.953s13.017-35.346-4.5-68.786" transform="translate(-2451.274 -62.683)"/><g transform="translate(678.089 384.642)"><path class="v" d="M3130.04,695.5c-1.391-3.612-34.054-88.716-34.027-113.763.01-8.049,5.062-31.15,9.527-51.528,2.35-10.756,4.575-20.916,5.7-27.288,4.6-26.011,3.261-45.008-3.979-56.463l1.962-1.236c7.555,11.958,9,31.505,4.3,58.1-1.134,6.415-3.362,16.6-5.723,27.377-4.433,20.264-9.461,43.238-9.47,51.034-.028,24.618,33.532,112.049,33.872,112.929Z" transform="translate(-3096.013 -445.225)"/></g><g transform="translate(465.079 91.707)"><path class="j" d="M3070.074,397.19c-9.174-6.7-39.234-20.564-38.909-22.835s10.9,2.926,10.805,1.014-15.8-10.985-14.853-13.167c1.282-2.96,16.858,7.172,16.858,7.172s-16.5-11.927-14.627-14.18c1.326-1.6,14.344,6.94,19.739,9.591-5.473-3.6-13.63-10.463-12.218-12.091s10.387,4.011,17.511,7.963c-4.209-2.874-11.582-8.5-10.349-10.067s20.863,7.842,44.236,25.891" transform="translate(-3027.076 -350.423)"/><path class="t" d="M3154.9,442.324s-15.793-15.11-35.334-36.36c-20.932-22.767-50.58-42.555-60.731-49.035a5.893,5.893,0,0,0-6.965.467c-6.977,5.815-21.419,19.427-10.774,24.673a348.867,348.867,0,0,1,51.679,50.156c9.65,11.751,28.99,46.337,28.99,46.337" transform="translate(-3005.695 -338.754)"/></g><g transform="translate(629.207 392.163)"><path class="v" d="M3082.5,527.992l-2.3-.222c2.737-28.595,4.518-44.316,9.079-80.111l2.3.3C3087.013,483.716,3085.232,499.425,3082.5,527.992Z" transform="translate(-3080.193 -447.659)"/></g><g transform="translate(674.719 393.053)"><path class="v" d="M3118.817,463.65c-19.851-5.281-23.741-14.443-23.9-14.832l2.144-.871c.037.086,3.766,8.519,22.351,13.466Z" transform="translate(-3094.922 -447.947)"/></g><g transform="translate(628.014 394.283)"><path class="v" d="M3088.252,476.343c-2.5-.47-6.829-1.486-7.747-2.994-1.792-2.957.353-19.887,1.057-25l2.292.312c-1.382,10.1-2.3,21.954-1.368,23.487.426.467,3.331,1.381,6.195,1.925Z" transform="translate(-3079.808 -448.345)"/></g><g transform="translate(599.462 394.039)"><path class="v" d="M3070.84,457.437c-.146,0-.235,0-.272,0l.059-2.317c.194,0,11.343.188,17.665-6.851l1.724,1.545C3083.468,457.107,3072.724,457.437,3070.84,457.437Z" transform="translate(-3070.567 -448.266)"/></g><g transform="translate(678.128 629.198)"><path class="v" d="M3097.052,541.824l-1.026-2.076,31.2-15.377,1.026,2.076Z" transform="translate(-3096.026 -524.37)"/></g><g transform="translate(593.803 224.922)"><path class="t" d="M3095.06,393.535s-22.371,6.43-25.584,49.26c-3.037,17.579,4.261,115.29,4.264,115.212,54.145,9.353,89.538-5.763,89.538-5.763s12.22-62.89,8.373-85.889c-9.662-57.736-49.584-70-49.584-70Z" transform="translate(-3068.736 -393.535)"/></g><path class="t" d="M3088.965,487.167c-.5-15.7-5.87-50.484-28.393-80.5l33.254-26.385s31.153,24.942,40.034,46.943" transform="translate(-2491.994 -196.305)"/><g transform="translate(602.249 154.217)"><path class="j" d="M3078.3,377.918s-11.19,31-1.23,41.081c5.172,5.238,20.453,6.152,26.955.961,4.826-3.853,11.97-27.692,9.235-31.87C3102.8,372.13,3078.3,377.918,3078.3,377.918Z" transform="translate(-3068.397 -357.607)"/><g transform="translate(9.607 34.444)"><path class="w" d="M3080.67,395.7c-.964-.158-5.79-1.069-6.081-3.767-.26-2.444,4.894-8.874,5.929-10.138l1.2.977c-2.406,2.935-5.728,7.672-5.586,9,.12,1.134,2.925,2.1,4.789,2.4Z" transform="translate(-3074.579 -381.8)"/></g><g transform="translate(9.467 31.085)"><path class="x" d="M3075.555,381.238c-.084.142-.18.281-.254.426s-.139.288-.21.43a10.067,10.067,0,0,0-.513,1.149.923.923,0,0,0-.021.488.885.885,0,0,0,.145.451l.188.247a.914.914,0,0,0,.392.253.6.6,0,0,0,.31.083.957.957,0,0,0,.485-.021,1.185,1.185,0,0,0,.729-.562,5.987,5.987,0,0,0,.291-.723l.142-.457c.05-.155.1-.306.145-.46s.077-.324.112-.485a1.1,1.1,0,0,0-.105-.819l-.167-.213a.781.781,0,0,0-.343-.219,1.018,1.018,0,0,0-.689-.056,1.14,1.14,0,0,0-.636.488Z" transform="translate(-3074.533 -380.713)"/></g><g transform="translate(9.512 26.323)"><path class="x" d="M3080.6,382.581a.769.769,0,0,1-.664-.38h0a2.939,2.939,0,0,0-4.23-.942.772.772,0,0,1-.765-1.341,4.441,4.441,0,0,1,6.328,1.5.773.773,0,0,1-.278,1.057A.739.739,0,0,1,3080.6,382.581Z" transform="translate(-3074.548 -379.172)"/></g><g transform="translate(25.375 36.669)"><path class="x" d="M3080.595,383.045c-.077.148-.163.294-.228.445s-.124.287-.183.433a9.5,9.5,0,0,0-.464,1.168,1.219,1.219,0,0,0,.853,1.5,1.234,1.234,0,0,0,.94-.124l.247-.192a1.205,1.205,0,0,0,.313-.538,7.939,7.939,0,0,0,.266-.927c.037-.151.077-.306.114-.457s.059-.324.084-.488a.755.755,0,0,0,.019-.423.8.8,0,0,0-.124-.4,1.087,1.087,0,0,0-.51-.433,1.024,1.024,0,0,0-.692-.056,1.082,1.082,0,0,0-.634.488Z" transform="translate(-3079.68 -382.52)"/></g><g transform="translate(25.565 30.978)"><path class="x" d="M3087.295,385.989a.78.78,0,0,1-.637-.327c-2.8-4-5.853-3.421-5.982-3.4a.756.756,0,0,1-.915-.593.77.77,0,0,1,.584-.915c.17-.034,4.156-.862,7.584,4.023a.77.77,0,0,1-.634,1.214Z" transform="translate(-3079.743 -380.678)"/></g><path class="j" d="M3106.825,386.329l6.121,31.082s-20.313,14.594-30.964,0l-5.868-21.444Z" transform="translate(-3061.76 -337.89)"/><path class="y" d="M3128.463,413.965a31.674,31.674,0,0,1,.968-3.313c.942-2.623,2.382-4.944,3.411-7.521a13.38,13.38,0,0,0-4-15.017,22.286,22.286,0,0,1-2.308-1.848c-1.538-1.594-2.076-3.872-2.965-5.9a8.238,8.238,0,0,0-3.4-4.113c-3.671-1.956-8.56.7-12.228-1.264a17.363,17.363,0,0,1-2.185-1.579c-5.261-3.98-11.232-3.053-16.967-.979-2.685.97-3.562,2.027-5.8,3.767-2.441,1.9-5.822,1.774-8.275,3.631-2.574,1.953-3.223,5.537-3.251,8.766a7.951,7.951,0,0,0,.542,3.442,6.437,6.437,0,0,0,3.3,2.938c3.288,1.5,6.983.921,10.471.658,3.408-.256,7.364-2.657,10.7-1.412,3.251,1.215,4.082,5.2,8.083,5.513,1.577.12,3.5-.167,4.437,1.1,1.067,1.437.5,3.8,1.345,5.457a39.663,39.663,0,0,0,3.2,4.425c2.021,2.871,4.889,4.839,3.865,8.584-.713,2.6-3.609,6.785-2.413,9.545.789,1.817,4.79,1.789,7.817-.516,3.118-2.373,4.049-6.9,4.812-10.5C3127.906,416.511,3128.157,415.232,3128.463,413.965Z" transform="translate(-3071.468 -370.653)"/><path class="j" d="M3086.932,387.433c2.964-4.8,5.853-4.428,7.67-2.191,2.416,2.988-.908,10.16-2.686,11.526-3.6,2.766-6.767,2.886-7.428-.226" transform="translate(-3044.259 -343.484)"/><g transform="translate(16.276 60.103)"><path class="w" d="M3077.94,397.242c-.4,0-.8-.009-1.2-.022l.08-2.317c10.642.34,19.745-4.749,19.841-4.8l1.152,2.008A43.872,43.872,0,0,1,3077.94,397.242Z" transform="translate(-3076.736 -390.104)"/></g><path class="g" d="M3075.021,386.722l14.028,3.566s-3.529,7.054-11.1,4.567C3072.555,393.081,3075.021,386.722,3075.021,386.722Z" transform="translate(-3065.218 -337.069)"/></g><g transform="translate(593.239 252.654)"><path class="u" d="M3073.006,434.961l-2.317-.056c.007-.244.563-24.383-2.135-31.582l2.172-.813C3073.577,410.127,3073.031,433.95,3073.006,434.961Z" transform="translate(-3068.554 -402.51)"/></g><g transform="translate(620.558 232.619)"><path class="u" d="M3091.685,405.41c-12.251,0-14.214-7.471-14.291-7.8l2.247-.559c.07.256,1.9,6.338,12.659,6.032,12.842-.278,17.77-6.993,17.817-7.061l1.9,1.332c-.226.318-5.574,7.74-19.671,8.046C3092.124,405.41,3091.9,405.41,3091.685,405.41Z" transform="translate(-3077.394 -396.026)"/></g><path class="j" d="M3085.593,447.771c-9.913,6.881-42.475,19.13-42.219,21.586s11.581-2.75,11.416-.692-17.045,11.251-16.134,13.636c1.239,3.232,18.021-7.107,18.021-7.107s-17.817,12.242-15.936,14.736c1.338,1.767,15.364-6.949,21.145-9.607-5.9,3.677-14.745,10.769-13.321,12.576,1.411,1.789,11.089-3.94,18.737-7.938-4.539,2.942-12.511,8.735-11.275,10.466s23.913-12.295,46.526-24.778" transform="translate(-2537.87 -55.262)"/><path class="t" d="M3093.347,411.844c-5.608,18.867-20.431,50.116-20.431,50.116l40.24,21.21s20.755-25.329,28.6-55.759" transform="translate(-2466.196 -130.348)"/><g transform="translate(598.335 292.336)"><path class="u" d="M3071.359,465.008a1.177,1.177,0,0,1-.635-.192,1.157,1.157,0,0,1-.332-1.6c.188-.287,18.858-28.727,22.613-46.937a1.137,1.137,0,0,1,1.369-.9,1.161,1.161,0,0,1,.9,1.372c-3.844,18.642-22.167,46.56-22.943,47.737A1.171,1.171,0,0,1,3071.359,465.008Z" transform="translate(-3070.201 -415.352)"/></g><path class="t" d="M3181.654,435.913s-20.161,40.1-41.532,62.266c-28.023,29.077-72.769,49.532-72.769,49.532s-26.873-20.314-13.893-30c17.127-10.7,44.239-31.972,61.237-51.7,10.6-12.3,27.565-50.811,27.565-50.811" transform="translate(-2514.259 -123.338)"/><g transform="translate(608.983 301.121)"><path class="u" d="M3074.806,506.7a1.158,1.158,0,0,1-.756-2.033c.6-.519,59.79-52.032,64.653-85.472a1.159,1.159,0,1,1,2.293.331c-4.99,34.3-62.967,84.761-65.43,86.89A1.15,1.15,0,0,1,3074.806,506.7Z" transform="translate(-3073.648 -418.195)"/></g><g transform="translate(0 58.988)"><path class="z" d="M2958.4,367.916c-11.468-2.614-22.4,5.1-27.48,13.07-1.613,2.528-2.858,5.29-4.666,7.682-11.461,15.169-57.637,10.472-48.5,40.324,1.052,3.427,3.057,6.6,3.356,10.175.375,4.484-1.98,8.677-3.22,13-4.013,14.032,5.844,30.424,20.12,33.452,6.393,1.356,13.505.454,19.034,3.94,5.15,3.251,7.486,9.421,11.134,14.3,9.97,13.333,29.808,15.963,45.455,10.274,5.927-2.154,11.847-5.689,14.384-11.458,1.44-3.282,1.677-7.061,3.553-10.113,3.625-5.908,11.64-6.887,17.66-10.32,8.642-4.925,13.728-16.476,9.785-25.826-4.028-9.554-12.548-18.327-14.5-28.576-1.088-5.707.478-11.68-.674-17.375a18.661,18.661,0,0,0-6.634-10.812c-2.33-1.845-5.078-3.109-7.373-4.993-4.83-3.961-5.456-11.037-10.428-15.107-4.954-4.06-11.594-5.4-16.927-8.847" transform="translate(-2876.564 -282.228)"/><path class="r" d="M2899.809,462.717c23.3-11.955,59.887-17.943,83-52.5s32.649-58.765,32.649-58.765l22.186,13.018s-15.67,62.084-37.926,86.321c-29.259,31.854-49.5,44.14-68.48,51.742" transform="translate(-2827.983 -315.555)"/><path class="j" d="M2937.524,377.21c0-11.686,6.795-31.4,8.918-31.533s-.7,10.212,1.029,9.78,7.125-16.049,9.28-15.614c2.916.593-3.477,16.29-3.477,16.29s1.891-2.963,4.274-1.718c1.688.884.814,5.407.814,5.407s2.2-3.313,3.938-2.361.763,6.3.763,6.3,1.833-1.545,3.474-.742,3.972,3.538-7.714,24.692" transform="translate(-2749.16 -339.834)"/><g transform="translate(195.928 18.505)"><path class="w" d="M2943.48,364.592a1.069,1.069,0,0,1-.364-.059,1.159,1.159,0,0,1-.733-1.465c.006-.022.869-2.861-.686-7.542a53.515,53.515,0,0,1-1.718-8.4,1.158,1.158,0,0,1,1.007-1.292,1.134,1.134,0,0,1,1.292,1.007,52.273,52.273,0,0,0,1.622,7.957c1.814,5.472.726,8.862.681,9A1.157,1.157,0,0,1,2943.48,364.592Z" transform="translate(-2939.971 -345.823)"/></g><path class="z" d="M2928.289,413.335" transform="translate(-2768.461 -186.22)"/><path class="z" d="M2905.367,376.731c-1.437-.779-3.35-.547-4.577-1.625-2.055-1.8-2.076-4.9-1.208-7.3,1.384-3.825,6.311-5.5,10.055-4.944,8.951,1.322,7.558,9.928,2.1,13.169" transform="translate(-2829.592 -291.928)"/><g transform="translate(10.54 124.287)"><path class="r" d="M2888.44,465.447s33.6,25.755,32.34,79.879c47.168-10.778,73.037-38.655,73.037-38.655l-3.454-49.115c15.005-33.406-16.834-54.192-16.834-54.192l-38.844-15.388-27.148,11.281Z" transform="translate(-2862.281 -363.509)"/><path class="r" d="M2925.231,391.626s-25.249,7.472-39.375,38.149c-3.192,6.925-5.516,19.269-5.88,32.995l47.823,7.614,10.49-35.859" transform="translate(-2879.976 -355.878)"/><path class="aa" d="M2915,390.74" transform="translate(-2806.779 -357.73)"/><path class="aa" d="M2920.785,397.832" transform="translate(-2794.684 -342.908)"/><path class="aa" d="M2925.473,393.759" transform="translate(-2784.886 -351.42)"/><path class="aa" d="M2915.389,380.057" transform="translate(-2805.961 -380.057)"/></g><g transform="translate(58.436 80.919)"><path class="j" d="M2932.6,371.083s11.741,30.516,2.938,39.817c-4.576,4.836-20.458,2.151-26.438-2.416-4.436-3.39-10.3-23.7-7.906-27.525C2910.336,366.328,2932.6,371.083,2932.6,371.083Z" transform="translate(-2884.679 -356.986)"/><path class="j" d="M2901.068,379.276l-1.2,30.025c2.379,7.57,27.884,14.767,31.963,1.771l-2.547-22.526Z" transform="translate(-2886.288 -338.321)"/><path class="z" d="M2896.734,403.556a24.75,24.75,0,0,1-1.258-8.939,34.668,34.668,0,0,1,1.733-11.309,25.079,25.079,0,0,1,12.807-14.121c5.9-2.781,17.183-5.438,26.329-.031a16.97,16.97,0,0,1,13.083,4,13.033,13.033,0,0,1,3.965,12.786q-13.042-1.492-26.085-2.982a24.786,24.786,0,0,1-9.153,11.68c-4.026,2.75-8.456,6.183-6.789,11.8.7,2.342-1.835,2.775-1.835,7.3-4.681-.491-11.605-7.19-12.69-9.91C2896.805,403.742,2896.768,403.649,2896.734,403.556Z" transform="translate(-2895.475 -366.022)"/><path class="j" d="M2906.746,379.956c-2.772-4.286-5.38-3.89-6.974-1.832-2.129,2.747,1.016,9.168,2.651,10.367,3.313,2.429,6.174,2.475,6.711-.349" transform="translate(-2887.991 -343.852)"/><g transform="translate(23.704 50.59)"><path class="w" d="M2921.934,390.31a32.609,32.609,0,0,1-18.788-6.1l1.435-1.82a30.346,30.346,0,0,0,18.512,5.574l.1,2.318C2922.765,390.3,2922.344,390.31,2921.934,390.31Z" transform="translate(-2903.146 -382.394)"/></g><g transform="translate(40.962 28.96)"><path class="w" d="M2911.841,388.168l-.278-1.52c1.656-.3,4.138-1.211,4.224-2.2.074-.89-3.155-4.505-7.055-7.889l1.017-1.165c1.822,1.582,7.769,6.934,7.577,9.186C2917.113,387.08,2912.719,388.01,2911.841,388.168Z" transform="translate(-2908.732 -375.394)"/></g><path class="g" d="M2920,379.849l-12.609,3.5s3.328,6.307,10.123,3.912C2922.354,385.55,2920,379.849,2920,379.849Z" transform="translate(-2870.584 -337.123)"/><g transform="translate(46.569 25.869)"><path class="x" d="M2910.579,375.739c.031.142.056.29.1.429s.093.278.139.42l.139.417a4.74,4.74,0,0,0,.278.674.925.925,0,0,0,.315.343.937.937,0,0,0,.414.216l.324.043a.915.915,0,0,0,.47-.1.623.623,0,0,0,.269-.155.932.932,0,0,0,.315-.343,1.206,1.206,0,0,0,.121-.939,4.728,4.728,0,0,0-.287-.667l-.208-.393c-.071-.13-.136-.259-.208-.389s-.159-.247-.24-.371a1.109,1.109,0,0,0-.633-.488l-.285-.037a.774.774,0,0,0-.406.093.5.5,0,0,0-.235.136.811.811,0,0,0-.275.3,1.162,1.162,0,0,0-.106.819Z" transform="translate(-2910.548 -374.394)"/></g><g transform="translate(43.033 21.607)"><path class="x" d="M2910.175,376.307a.749.749,0,0,1-.377-.1.767.767,0,0,1-.3-1.044,4.077,4.077,0,0,1,5.794-1.511.774.774,0,0,1-.745,1.356,2.576,2.576,0,0,0-3.7.909A.772.772,0,0,1,2910.175,376.307Z" transform="translate(-2909.403 -373.015)"/></g><g transform="translate(32.387 31.224)"><path class="x" d="M2905.994,377.472c.025.148.042.3.08.448s.075.278.111.42l.115.42c.018.074.036.145.058.216.05.154.136.318.2.473a.893.893,0,0,0,.311.343.942.942,0,0,0,.415.216l.323.043a.9.9,0,0,0,.47-.105.581.581,0,0,0,.269-.155.934.934,0,0,0,.316-.343,1.263,1.263,0,0,0,.125-.939,8.509,8.509,0,0,0-.452-1.075c-.059-.133-.118-.263-.179-.392s-.145-.26-.224-.389a1.077,1.077,0,0,0-.633-.488l-.281-.037a.78.78,0,0,0-.412.093.551.551,0,0,0-.235.136.784.784,0,0,0-.272.3l-.108.253a1.089,1.089,0,0,0,0,.565Z" transform="translate(-2905.957 -376.127)"/></g><g transform="translate(27.294 26.108)"><path class="x" d="M2905.083,379.536a.753.753,0,0,1-.43-.13.769.769,0,0,1-.212-1.069c3.021-4.517,6.693-3.841,6.85-3.816a.773.773,0,0,1-.3,1.517c-.139-.019-2.858-.454-5.268,3.155A.778.778,0,0,1,2905.083,379.536Z" transform="translate(-2904.309 -374.471)"/></g></g><g transform="translate(49.673 266.883)"><path class="ab" d="M2985.283,426.2c-23.972,14.174-67.167,10.178-77.521,5-5.62,7.1-10.771,15.4-12.9,24.21-5.1,21.058-1.487,40.089,11.581,57.1a219.526,219.526,0,0,0,34.661,36.428,35.988,35.988,0,0,1,3.281,3.479,4.886,4.886,0,0,1,2.62,1.4c3.329,2.8,6.6,5.695,10.062,8.309,10.642,8.028,21.107,16.334,32.645,23,4.233,2.447,4.131,2.682,1.344,7.132-5.075,8.1-10.469,15.991-15.2,24.327a145.487,145.487,0,0,0-11.452,16.182c-4.834,7.57-9.316,15.385-14.174,22.94-1.689,2.633-2.391,4.929-.49,7.62a126.1,126.1,0,0,1,11.937,17.044c1.95,1.591,3.09,3.872,4.527,5.886,1.016,1.421,1.925,1.527,3.145.386,3.826-3.581,7.67-7.138,11.506-10.707a73.985,73.985,0,0,1,8.224-7.122q11.971-10.1,23.947-20.2c7.769-6.545,15.472-13.172,23.343-19.578,5.284-4.3,9.887-9.471,15.651-13.148,5.258-5.469,10.49-10.966,15.788-16.4a90.03,90.03,0,0,0,9.959-12.292c6.361-9.36,6.327-16.63-.2-25.783-7.024-9.848-15.151-18.682-23.561-27.223-5.028-5.1-10.053-10.2-14.767-15.62-11.446-13.154-32.442-36.743-44.22-49.566-1.574-1.715-3.936-3.662-3.922-6.158C2990.108,449.846,2988.924,438.209,2985.283,426.2Z" transform="translate(-2892.639 -426.205)"/><path class="ac" d="M2996.506,487.6c-5.763,3.677-10.366,8.846-15.651,13.148-7.871,6.405-15.574,13.033-23.342,19.578q-11.981,10.09-23.948,20.2c-.247,5.238-1.813,10.191-3,15.224-3.955,16.72-7.783,33.467-11.049,50.348-.64,3.3-.517,3.343,2.41,4.409,1.613.59,3.251,1.1,4.876,1.65q10.126,3.268,20.257,6.539c1.863.742,3.717,1.514,5.593,2.222,3.541,1.335,3.566,1.326,4.9-2.169,2.589-6.773,5.087-13.586,7.737-20.332,5.521-14.047,11.021-28.1,16.7-42.079,6.646-16.34,11.618-33.282,16.627-50.194A24,24,0,0,0,2996.506,487.6Z" transform="translate(-2837.133 -297.9)"/><path class="ac" d="M2940.854,531.226c4.734-8.337,10.128-16.222,15.2-24.327,2.787-4.45,2.889-4.684-1.344-7.132-11.538-6.668-22-14.974-32.645-23-3.462-2.614-6.733-5.506-10.062-8.309a4.884,4.884,0,0,0-2.62-1.4c3.059,6.362,6.041,12.768,9.2,19.077,6.785,13.565,13.668,27.074,20.486,40.621C2939.79,528.18,2940.825,529.493,2940.854,531.226Z" transform="translate(-2857.642 -340.832)"/><path class="ad" d="M2942.391,534.445q-10.132-3.268-20.258-6.538c-.189,1.922-.353,3.844-.573,5.76-.525,4.567.489,8.745,3.759,11.847,9.3,8.825,17.995,18.345,28.026,26.32a12.062,12.062,0,0,0,4.024,2.512c2.808.8,4.522-.59,4.325-3.643-.251-3.853-2.1-7.1-4.236-10.1a42.28,42.28,0,0,0-5.173-5.951c-5.361-5.145-7.47-12.224-10.552-18.731C2941.428,535.277,2941.956,534.838,2942.391,534.445Z" transform="translate(-2832.468 -213.651)"/><path class="ad" d="M2928.012,519.993a126.106,126.106,0,0,0-11.936-17.044c-5.77,3.628-8.046,8.936-7.139,15.849.656,5,1.122,10.03,1.83,15.023a90.479,90.479,0,0,1,.823,14.659,16.119,16.119,0,0,0,.849,5.695c1.074,3.078,3.758,3.733,6.072,1.5a12,12,0,0,0,3.213-5.7,67.566,67.566,0,0,0,1.746-8.708A117.517,117.517,0,0,1,2928.012,519.993Z" transform="translate(-2858.981 -265.813)"/><path class="ae" d="M2906.134,432.306c-9.143,16.222-3.952,37.28,5.232,53.481,19.488,34.385,53.861,56.132,86.853,76.48" transform="translate(-2874.437 -413.454)"/><path class="af" d="M2981.633,472.31a1066.2,1066.2,0,0,1-69.691,95.48" transform="translate(-2852.3 -329.847)"/><path class="ag" d="M2921.251,531.7c10.07,14.637,24.38,25.409,38.427,35.911" transform="translate(-2832.843 -205.72)"/><path class="ag" d="M2937.686,536.548q-4.607,3.75-9.032,7.737" transform="translate(-2817.371 -195.592)"/><path class="ag" d="M2939.3,535.046q-6.369,3.6-12.416,7.793" transform="translate(-2821.074 -198.731)"/><path class="ag" d="M2908.979,511.268a134.295,134.295,0,0,0,15.873,9.554" transform="translate(-2858.491 -248.426)"/><path class="ag" d="M2908.795,513.578q7.912,5.066,16.2,9.458" transform="translate(-2858.879 -243.598)"/><path class="ag" d="M2908.413,505.427q.866,19.536,3.473,38.93c.387,2.874.846,5.868,2.469,8.226" transform="translate(-2859.673 -260.634)"/></g><path class="w" d="M2943.306,345.713c-.2,1.7-.406,3.4-.507,5.086-.043.844-.07,1.69-.033,2.515a5.976,5.976,0,0,0,.336,2.234c.071.083.13.2.157.182-.019-.009.01.009.1-.018a1.787,1.787,0,0,0,.7-.451,9.209,9.209,0,0,0,1.419-1.842,38.274,38.274,0,0,0,2.286-4.385,1.054,1.054,0,0,1,1.981.708l-.016.052c-.442,1.573-.849,3.2-1.168,4.8a21.794,21.794,0,0,0-.34,2.376,5.244,5.244,0,0,0,.1,1.91c.132.124-.245-.09-.147-.049s.322-.093.548-.253a6.245,6.245,0,0,0,1.347-1.619,23.991,23.991,0,0,0,2.073-4.326l.016-.043a1.017,1.017,0,0,1,1.938.609c-.381,1.452-.773,2.938-1.082,4.419a18.174,18.174,0,0,0-.485,4.382,1.948,1.948,0,0,0,.195.779c.047.059.078.117.355.052a4.52,4.52,0,0,0,1.5-1.391,28.451,28.451,0,0,0,2.365-3.94,20.217,20.217,0,0,1-1.74,4.351,5.246,5.246,0,0,1-1.651,1.941,1.413,1.413,0,0,1-1.751-.232,2.912,2.912,0,0,1-.567-1.375,19.268,19.268,0,0,1,.094-4.839,42.669,42.669,0,0,1,.8-4.65l1.95.565a23.632,23.632,0,0,1-2.108,4.87,8.289,8.289,0,0,1-1.873,2.249,3.191,3.191,0,0,1-1.737.732,2.334,2.334,0,0,1-1.316-.275,2.492,2.492,0,0,1-.809-.973,6.192,6.192,0,0,1-.3-3.084,23.456,23.456,0,0,1,.411-2.626,40.748,40.748,0,0,1,1.373-5l1.964.76a28.6,28.6,0,0,1-2.706,4.542,10.861,10.861,0,0,1-1.894,2.043,3.11,3.11,0,0,1-1.546.7,1.519,1.519,0,0,1-1.106-.281,1.923,1.923,0,0,1-.6-.813c-.58-2.049-.118-3.674.164-5.4A41.314,41.314,0,0,1,2943.306,345.713Z" transform="translate(-2740.738 -327.547)"/><g transform="translate(93.01 112.817)"><path class="ah" d="M2920.585,423.554h0a6.923,6.923,0,0,1-7.753-5.831l-3.156-25.934,13.9-1.523,3.156,25.934A6.724,6.724,0,0,1,2920.585,423.554Z" transform="translate(-2900.369 -347.25)"/><path class="ai" d="M2933.594,410.556l-11.377.673c-8.072.476-15.02-5.342-15.523-13h0c-.5-7.657,5.632-14.251,13.7-14.727l11.377-.671a1.21,1.21,0,0,1,1.3,1.091l1.665,25.4A1.187,1.187,0,0,1,2933.594,410.556Z" transform="translate(-2906.665 -362.79)"/><path class="aj" d="M2923.459,396.4c.5,7.657-1.306,13.994-4.043,14.158s-5.362-5.914-5.866-13.571,1.31-13.994,4.045-14.155S2922.956,388.746,2923.459,396.4Z" transform="translate(-2892.448 -362.793)"/><g transform="translate(23.336)"><path class="ah" d="M2958.021,433.553s-24.556-10.076-38.152-13.219c-4.5-1.715-5.432-8.618-5.6-12.487-.448-9.984,2.515-12.174,2.515-12.174,15.917-3.56,38.066-17.808,38.066-17.808" transform="translate(-2914.217 -373.165)"/><path class="aj" d="M2925.936,408.216c.989,17.332,6.028,31.162,11.252,30.893s8.663-14.535,7.67-31.864-6.024-31.165-11.25-30.9S2924.946,390.884,2925.936,408.216Z" transform="translate(-2890.08 -376.345)"/><g transform="translate(38.803 4.859)"><path class="ai" d="M2926.936,404.827c.833,14.659,4.706,26.376,8.646,26.175s6.452-12.248,5.613-26.907-4.705-26.376-8.645-26.175S2926.1,390.168,2926.936,404.827Z" transform="translate(-2926.775 -377.917)"/><path class="ah" d="M2935.874,397.991a19.89,19.89,0,0,0-8.135,2.216c-.368-2.543-.643-5.259-.8-8.086s-.2-5.556-.124-8.124a20.036,20.036,0,0,0,8.343,1.372Z" transform="translate(-2926.774 -365.211)"/><path class="z" d="M2929.041,390.889c.2,3.519,1.177,6.331,2.178,6.279s1.654-2.948,1.452-6.467-1.177-6.332-2.181-6.279S2928.84,387.369,2929.041,390.889Z" transform="translate(-2922.116 -364.325)"/></g></g></g><path class="j" d="M2905.451,412.921c11.967-13.729,11.021-11.9,12.6-13.173,5.23-4.2,12.032-5.176,17.368-4.752a10.882,10.882,0,0,1,5.083,1.533,8.858,8.858,0,0,1,3.557,5.074,1.218,1.218,0,0,1-.077,1.122c-.59.7-1.647-.195-2.355-.788a6.507,6.507,0,0,0-6.279-1.026c1.165-.306,2.024.609,2.843,1.449a1.859,1.859,0,0,1-.38,2.929,2.769,2.769,0,0,1,2.744,1.48,2.507,2.507,0,0,1-.667,2.923,1.773,1.773,0,0,1,1.566,1.5,4.25,4.25,0,0,1-.386,2.228c-1.218,3.17-7.664,12.743-7.664,12.743" transform="translate(-2816.198 -224.736)"/><g transform="translate(9.205 186.743)"><path class="r" d="M2880.708,443.362c-3.385,28.23-.278,68.319,30.2,67.726,31.493-.612,76.057-98.431,76.057-98.431l-28.49-11.745-42.685,47.9" transform="translate(-2878.842 -399.988)"/><path class="ak" d="M2910.771,512.491c-8.049,0-14.7-2.836-19.769-8.442-14.139-15.626-12.076-47.273-10.531-60.156l1.532.182c-1.182,9.888-3.954,43.358,10.141,58.938,4.9,5.411,11.35,8.046,19.273,7.926,29.233-.565,70.865-88.3,75.033-97.25l-27.238-11.229-42.321,47.49-1.151-1.026,43.05-48.312,29.734,12.261-.33.726c-1.829,4.014-45.13,98.27-76.746,98.885C2911.222,512.488,2911,512.491,2910.771,512.491Z" transform="translate(-2879.373 -400.613)"/></g></g></g></g><ellipse class="al" cx="260" cy="5.5" rx="260" ry="5.5" transform="translate(180.428 1065.833)"/></g><g transform="translate(-17.016 333.678)"><g transform="translate(80.589 37.386)"><rect class="am" width="20.664" height="20.664" transform="translate(717.309 36.83) rotate(-15.224)"/><path class="am" d="M-142.569-198.93a7.732,7.732,0,0,1-7.732,7.73,7.73,7.73,0,0,1-7.73-7.73,7.73,7.73,0,0,1,7.73-7.73A7.732,7.732,0,0,1-142.569-198.93Z" transform="translate(1003.723 510.862)"/><path class="am" d="M-138.611-117.283a7.73,7.73,0,0,1-7.73,7.73,7.732,7.732,0,0,1-7.732-7.73,7.732,7.732,0,0,1,7.732-7.73A7.73,7.73,0,0,1-138.611-117.283Z" transform="translate(1007.495 588.676)"/><path class="am" d="M-657.27-145.995a7.73,7.73,0,0,1-7.73,7.73,7.732,7.732,0,0,1-7.732-7.73A7.733,7.733,0,0,1-665-153.727,7.732,7.732,0,0,1-657.27-145.995Z" transform="translate(746.019 561.31)"/><path class="am" d="M-569.181-362.417l.824,5.146a4.634,4.634,0,0,0,4.67,3.9l3.416-.07a4.631,4.631,0,0,1,4.67,3.9l.539,3.369a4.636,4.636,0,0,0,4.672,3.9l3.42-.07a4.635,4.635,0,0,1,4.67,3.9l.545,3.387a4.632,4.632,0,0,0,4.668,3.9l4.045-.08" transform="translate(707.393 362.417)"/><path class="am" d="M-142.911-137.8l4.322,2.91a4.636,4.636,0,0,0,6.039-.75l2.281-2.543a4.632,4.632,0,0,1,6.039-.75l2.83,1.906a4.634,4.634,0,0,0,6.039-.75l2.283-2.547a4.631,4.631,0,0,1,6.035-.75l2.848,1.914a4.636,4.636,0,0,0,6.035-.75l2.7-3.012" transform="translate(1018.133 571.612)"/><line class="am" x1="17.868" y2="11.026" transform="translate(812.104 272.126)"/><line class="am" x1="16.417" y2="13.09" transform="translate(663.522 40.408)"/><line class="am" x1="15.547" y1="14.112" transform="translate(0 145.59)"/><path class="am" d="M-142.569-198.93a7.732,7.732,0,0,1-7.732,7.73,7.73,7.73,0,0,1-7.73-7.73,7.73,7.73,0,0,1,7.73-7.73A7.732,7.732,0,0,1-142.569-198.93Z" transform="translate(363.728 947.222)"/><path class="am" d="M-142.911-137.8l4.322,2.91a4.636,4.636,0,0,0,6.039-.75l2.281-2.543a4.632,4.632,0,0,1,6.039-.75l2.83,1.906a4.634,4.634,0,0,0,6.039-.75l2.283-2.547a4.631,4.631,0,0,1,6.035-.75l2.848,1.914a4.636,4.636,0,0,0,6.035-.75l2.7-3.012" transform="translate(465.411 891.609)"/></g></g></g></svg>