<svg xmlns="http://www.w3.org/2000/svg" width="938.646" height="936" viewBox="0 0 938.646 936"><defs><style>.a{fill:#dcffeb;}.b,.u{fill:#fff;}.c,.s{fill:#97ffcb;}.d{fill:none;}.e{fill:#edeef7;}.f,.r{fill:#8ceab8;}.g{fill:#caf9dd;}.h{opacity:0.66;}.h,.k,.m,.o{isolation:isolate;}.i{fill:#fc9f21;}.j{fill:#fccb21;}.k{opacity:0.5;}.l{fill:#f9fbfc;}.m{opacity:0.08;}.n{fill:#a5681e;}.p{fill:#f9b630;}.q,.t{fill:#ffcb1b;}.r,.s,.t,.u{fill-rule:evenodd;}.v{fill:#7ee0ac;}.w{fill:#995037;}.x{fill:#ffe1cc;}.y{fill:#a5634c;}.z{fill:#f777ba;}.aa{fill:#2d1006;}.ab{fill:#6d221d;}.ac{fill:#212237;}.ad{fill:#dcddef;}.ae{fill:#f2f5f9;}.af{fill:#050c26;}.ag{fill:#102059;}.ah{fill:#131c5e;}.ai{fill:#30409e;}.aj{fill:#18277a;}.ak{fill:#5565aa;}.al{fill:#2e7efa;}.am{fill:#1a3987;}.an{fill:#cc328a;}.ao{fill:#00276f;}</style></defs><g transform="translate(0.002)"><path class="a" d="M340.82,928.67C483.3,945,507,867.42,627.4,840.41,696,825,780.38,851,835.19,788c41.21-47.39,47.68-121.27,29.1-179.27-8.68-27.11-37.1-52.76-43.61-79.37-13.42-54.89,12.81-97.53,23.86-152.28,12.74-63.11,11.09-126.29-45-177-54.69-49.5-133.09-45.27-196.3-79.21C537,85.3,513.38,29.44,426.19,45c-69.34,12.4-98.53,74.66-151.53,106.49C139.17,232.9,19.27,231.79,47.39,421.87c11.78,79.54,54.53,152.57,59.4,230.32C115.57,790.43,151.76,907,340.82,928.67Z"/><rect class="b" width="16" height="61.92" transform="translate(313.72 738.6)"/><path class="a" d="M443.67,764.57s48.74-61-4.81-107.76-51.66,37.68-77.43,41.47-73.8-66.85-114.65-20-2.76,95.07,19.67,117S355.51,850.64,388,834.5,443.67,764.57,443.67,764.57Z"/><path class="c" d="M305.46,832.19S124.81,814,131,718s134.3,38.23,134.3,38.23S132,633.37,194.1,588.91,295.48,743.3,295.48,743.3s-42.59-165.85,14.29-160.12,13.94,249,13.94,249Z"/><path class="b" d="M306.9,588.91l-.55,7.29c-.18,2.43-.41,4.88-.49,7.29l-.38,7.31c0,1.2-.13,2.42-.16,3.64l-.1,3.65-.2,7.3V640l.11,7.3c.26,19.5,1.26,38.92,2.6,58.35s3.07,38.84,5,58.21,4,38.76,6.21,58.13l.75,6.57L316.25,823q-15.51-25.31-30.5-50.91c-2.49-4.26-4.94-8.57-7.4-12.85s-4.87-8.6-7.31-12.91c-1.2-2.16-2.42-4.31-3.61-6.47l-3.58-6.51-3.55-6.52-3.5-6.54-3.48-6.55-3.54-6.6-3.41-6.59L243,693.88l-3.32-6.64-3.23-6.68c-1.08-2.23-2.17-4.45-3.22-6.69l-3.13-6.72-1.56-3.38-.78-1.67-.75-1.7-3-6.82c-2-4.51-3.9-9.09-5.85-13.65l-1.43-3.42-1.39-3.44-2.75-6.89-.67-1.73-.64-1.73-1.3-3.48-2.57-7,2.79,6.82,1.39,3.43.69,1.72.73,1.7,2.93,6.83,1.45,3.41,1.51,3.38c2,4.5,4,9,6.14,13.49l3.15,6.7.79,1.67.81,1.67,1.64,3.33,3.23,6.65c1.09,2.23,2.22,4.42,3.33,6.63l3.33,6.61,3.41,6.57,3.42,6.57,3.49,6.54,3.49,6.53,3.56,6.49,3.56,6.5,3.63,6.46,3.61,6.47c1.2,2.16,2.44,4.29,3.66,6.44,2.45,4.28,4.87,8.58,7.39,12.84s4.95,8.54,7.48,12.78q15,25.56,30.59,50.78l-2.72,1c-2.13-19.37-4.23-38.75-6-58.17s-3.4-38.78-4.54-58.27-1.83-39-1.75-58.49V640l.19-7.31.1-3.66V627.2l.08-1.82.36-7.31.18-3.66c.05-1.21.17-2.43.25-3.64l.55-7.3c.15-2.43.45-4.87.7-7.28Z"/><path class="b" d="M148.7,715.57A399.693,399.693,0,0,0,185.34,748l4.87,3.72c1.63,1.23,3.21,2.5,4.88,3.67l5,3.59c1.65,1.19,3.28,2.4,5,3.53l5,3.45,2.52,1.74c.83.58,1.7,1.12,2.55,1.67l5.13,3.34,2.56,1.65c.85.56,1.74,1.08,2.59,1.61l5.2,3.23,2.59,1.61c.87.54,1.76,1,2.63,1.57l5.27,3.09,2.64,1.55c.88.52,1.77,1,2.65,1.51l5.32,3c1.79,1,3.55,2,5.35,3l5.38,2.93c1.8,1,3.58,2,5.4,2.92C282.3,808,297,815.14,311.73,822.2q-23-9-45-19.87c-3.68-1.78-7.3-3.7-10.94-5.57-1.84-.92-3.62-2-5.42-2.92l-5.4-2.93c-1.82-1-3.58-2-5.35-3l-5.32-3.09c-.87-.51-1.77-1-2.65-1.55l-2.62-1.61-5.24-3.21c-.86-.55-1.75-1.07-2.6-1.63l-2.57-1.7-5.14-3.37c-.85-.57-1.72-1.11-2.56-1.7l-2.52-1.76-5-3.53c-1.68-1.16-3.31-2.41-5-3.63l-4.87-3.7c-1.66-1.21-3.25-2.51-4.88-3.79l-4.78-3.9a287.561,287.561,0,0,1-35.17-34.17Z"/><path class="b" d="M251.82,649.29c.22,4.49.25,9,.21,13.46s-.18,9-.39,13.43-.46,9-.83,13.42-.79,8.93-1.44,13.39c-.23-4.5-.25-9-.2-13.46s.17-9,.38-13.44.47-8.94.84-13.42S251.18,653.76,251.82,649.29Z"/><path class="b" d="M230.78,608.2c.24,4.5.26,9,.21,13.46s-.18,9-.37,13.44-.47,8.94-.84,13.42-.79,8.93-1.43,13.38c-.24-4.49-.27-9-.22-13.46s.19-9,.38-13.43.48-9,.85-13.41S230.15,612.66,230.78,608.2Z"/><path class="b" d="M268.59,678.94c.36,4.54.51,9.08.6,13.65s.09,9.06,0,13.65-.2,9-.44,13.58-.52,9.06-1,13.58c-.36-4.54-.53-9.07-.62-13.64s-.08-9.07,0-13.65.21-9.06.44-13.59S268.08,683.46,268.59,678.94Z"/><path class="b" d="M162.18,699.66c1,2.92,1.76,5.84,2.49,8.77s1.33,5.91,1.89,8.88,1,6,1.45,9a85.148,85.148,0,0,1,.86,9.07c-1-2.92-1.77-5.85-2.49-8.77s-1.33-5.91-1.89-8.88-1-6-1.46-9A83.075,83.075,0,0,1,162.18,699.66Z"/><path class="b" d="M183.63,712c.55,3,.89,6,1.17,9.08s.46,6.07.58,9.12.17,6.08.13,9.12-.15,6.09-.48,9.15c-.56-3-.89-6.05-1.17-9.08s-.46-6.07-.58-9.12-.16-6.08-.12-9.12S183.31,715,183.63,712Z"/><path class="b" d="M204.09,721.63c.58,3.31,1,6.63,1.27,10s.55,6.64.7,10,.25,6.65.24,10-.08,6.67-.36,10c-.59-3.31-1-6.62-1.28-9.95s-.55-6.64-.7-10-.24-6.66-.23-10S203.8,725,204.09,721.63Z"/><path class="b" d="M228.07,734.72c.68,3.82,1.14,7.64,1.53,11.48s.69,7.67,1,11.51.4,7.69.47,11.54.09,7.71-.12,11.58c-.67-3.82-1.13-7.65-1.52-11.48s-.69-7.67-1-11.51-.4-7.69-.47-11.54S227.87,738.59,228.07,734.72Z"/><path class="b" d="M252.41,753.28c.52,3.15.82,6.3,1.07,9.44s.38,6.31.46,9.46.08,6.32,0,9.47-.24,6.33-.6,9.49c-.52-3.14-.82-6.29-1.06-9.45s-.38-6.29-.46-9.45-.09-6.32,0-9.48S252.05,756.45,252.41,753.28Z"/><path class="b" d="M325.47,624.85c-1.32,3.77-2.83,7.46-4.41,11.11s-3.23,7.27-4.94,10.85-3.5,7.15-5.37,10.66-3.79,7-5.85,10.4c1.32-3.78,2.83-7.46,4.41-11.11s3.24-7.28,4.95-10.85,3.5-7.15,5.38-10.66S323.37,628.25,325.47,624.85Z"/><path class="b" d="M329.71,672c-1.47,4-3.12,7.8-4.87,11.7s-3.52,7.65-5.38,11.42-3.78,7.52-5.79,11.21-4.07,7.38-6.33,11c1.48-4,3.13-7.8,4.88-11.7s3.52-7.65,5.38-11.42,3.78-7.52,5.79-11.21S327.48,675.61,329.71,672Z"/><path class="b" d="M325.91,720.45q-1.434,3.578-3.22,7c-1.18,2.28-2.42,4.52-3.74,6.73s-2.69,4.38-4.13,6.51a74.1,74.1,0,0,1-4.64,6.2,74.509,74.509,0,0,1,3.22-7.05c1.17-2.28,2.42-4.53,3.74-6.73s2.68-4.38,4.13-6.51a74.1,74.1,0,0,1,4.64-6.15Z"/><path class="c" d="M207.92,404.09c-4-4.71-8-9.5-11.79-14.38s-7.52-9.88-11-15a132.561,132.561,0,0,1-9.51-16q-1-2.1-1.89-4.29a33.81,33.81,0,0,1-1.43-4.48,13,13,0,0,1-.36-4.8,4.45,4.45,0,0,1,1-2.37,3.57,3.57,0,0,1,1.11-.81,4.36,4.36,0,0,1,1.29-.32,7,7,0,0,1,2.49.28,13.318,13.318,0,0,1,2.27.88,25.858,25.858,0,0,1,4,2.53,46.459,46.459,0,0,1,6.82,6.48,70.39,70.39,0,0,1,10.24,15.69,78.78,78.78,0,0,1,7.72,36.45v-.3l14.4,45.87,14.31,45.92,14.21,46,14.1,46q14.07,46,27.92,92.06l6.89,23L304.2,714l3.42,11.53c4.53,15.38,9.11,30.74,13.58,46.14-5-15.23-9.83-30.52-14.73-45.81l-3.67-11.45-3.63-11.46L291.91,680q-14.45-45.87-28.68-91.82l-14.19-46L235,496.25l-14-46.06-13.86-46.06v-.3a76.88,76.88,0,0,0-7.25-35.73A69.7,69.7,0,0,0,190,352.61a45.619,45.619,0,0,0-6.56-6.4,24.19,24.19,0,0,0-3.8-2.46,11.831,11.831,0,0,0-2.06-.83,6,6,0,0,0-2.09-.28,3.261,3.261,0,0,0-1,.23,2.289,2.289,0,0,0-.76.54,3.54,3.54,0,0,0-.81,1.83,12.41,12.41,0,0,0,.29,4.42,33.712,33.712,0,0,0,1.35,4.39c.53,1.43,1.15,2.84,1.8,4.25a134.937,134.937,0,0,0,9.21,16.1,364,364,0,0,0,22.35,29.69Z"/><path class="c" d="M210.79,412.7c-9.07-5.58-18.23-11-27.69-15.88a130.122,130.122,0,0,0-14.5-6.42,42.145,42.145,0,0,0-7.5-2,10.191,10.191,0,0,0-3.57,0,2,2,0,0,0-1.12.59,1.4,1.4,0,0,0-.23,1.07,5.16,5.16,0,0,0,.49,1.53,12.339,12.339,0,0,0,.93,1.56,22.82,22.82,0,0,0,2.45,2.92,43.921,43.921,0,0,0,6,4.93,63,63,0,0,0,13.83,7.21,67.136,67.136,0,0,0,7.48,2.27,58.622,58.622,0,0,0,7.67,1.35,55.59,55.59,0,0,0,15.51-.44l-.9.52a92.28,92.28,0,0,0,16.3-31.74A79.078,79.078,0,0,0,229,362.55a48.678,48.678,0,0,0-.27-8.87,25.26,25.26,0,0,0-.9-4.23,11.341,11.341,0,0,0-.78-1.95,4.34,4.34,0,0,0-1.08-1.37,1.16,1.16,0,0,0-1.11-.26,3.19,3.19,0,0,0-1.37,1,15.139,15.139,0,0,0-2.3,3.52,51,51,0,0,0-3,8.39,148.723,148.723,0,0,0-3.67,17.73c-1.85,12-2.86,24.11-3.69,36.24A344.156,344.156,0,0,1,213,376.27a151.657,151.657,0,0,1,3.23-18,52.177,52.177,0,0,1,3-8.77,16.539,16.539,0,0,1,2.61-4.14,5.38,5.38,0,0,1,2.36-1.59,3.23,3.23,0,0,1,1.69-.09,3.7,3.7,0,0,1,1.48.68,6.62,6.62,0,0,1,1.77,2.13,13.228,13.228,0,0,1,1,2.29,25.41,25.41,0,0,1,1.07,4.66,51,51,0,0,1,.41,9.32,80.681,80.681,0,0,1-3,18.27,94,94,0,0,1-16.73,32.78l-.35.44-.54.1a60.929,60.929,0,0,1-32.12-3.51,65,65,0,0,1-14.33-7.68,43.469,43.469,0,0,1-6.23-5.34,25.748,25.748,0,0,1-2.65-3.25,13.188,13.188,0,0,1-1.07-1.95,7.5,7.5,0,0,1-.66-2.27,4.42,4.42,0,0,1,.09-1.36,3.3,3.3,0,0,1,.68-1.33,3.56,3.56,0,0,1,1.13-.88,5.579,5.579,0,0,1,1.19-.41,12.339,12.339,0,0,1,4.37.05,41.344,41.344,0,0,1,7.85,2.31,125.833,125.833,0,0,1,14.49,6.94,306.287,306.287,0,0,1,27.05,17.03Z"/><path class="c" d="M216.05,426.56q-5.13-1.29-10.25-2.53c-3.41-.83-6.82-1.66-10.25-2.45-6.83-1.58-13.72-3.06-20.61-4.38s-13.81-2.5-20.76-3.26a97.924,97.924,0,0,0-10.41-.64,27.462,27.462,0,0,0-5.05.4,6.51,6.51,0,0,0-2.11.67,1,1,0,0,0-.43.42v.13a1.31,1.31,0,0,0,.09.28,5.12,5.12,0,0,0,1.41,1.59,18.89,18.89,0,0,0,2,1.4,41.466,41.466,0,0,0,4.58,2.27,84.868,84.868,0,0,0,9.81,3.4,121.806,121.806,0,0,0,20.47,3.9,127,127,0,0,0,20.82.51,99.287,99.287,0,0,0,20.47-3.35l-.32.14a174.849,174.849,0,0,0,32.65-23.27A100,100,0,0,0,261.6,387a49.167,49.167,0,0,0,5-8.48,21.889,21.889,0,0,0,1.5-4.53,8.53,8.53,0,0,0,.16-2.2,3,3,0,0,0-.57-1.67,1.94,1.94,0,0,0-1.43-.61,6,6,0,0,0-2.1.31,18.458,18.458,0,0,0-4.28,2.09,54.148,54.148,0,0,0-7.74,6.19,135.169,135.169,0,0,0-13.41,15c-4.17,5.28-8.1,10.77-11.85,16.37q-2.82,4.21-5.51,8.5t-5.32,8.62q2.41-4.45,4.93-8.85c1.67-2.92,3.42-5.82,5.22-8.69,3.57-5.76,7.32-11.4,11.35-16.85a136.569,136.569,0,0,1,13.21-15.52,54.473,54.473,0,0,1,7.94-6.59,20.359,20.359,0,0,1,4.77-2.41,8.069,8.069,0,0,1,2.92-.45,4.46,4.46,0,0,1,1.62.33,3.789,3.789,0,0,1,1.45,1,5.25,5.25,0,0,1,1.19,3,10.739,10.739,0,0,1-.14,2.83,22.782,22.782,0,0,1-1.59,5.11,51.241,51.241,0,0,1-5.18,9,101.477,101.477,0,0,1-13.65,15.34,156.783,156.783,0,0,1-15.88,12.86A193.31,193.31,0,0,1,217,427.6l-.16.08h-.17a102.407,102.407,0,0,1-21.08,3.39,123.23,123.23,0,0,1-21.3-.64,126.778,126.778,0,0,1-20.88-4.18,78.384,78.384,0,0,1-10.06-3.63,42.829,42.829,0,0,1-4.79-2.4,19.627,19.627,0,0,1-2.29-1.66,11.493,11.493,0,0,1-1.07-1,5.381,5.381,0,0,1-1-1.39,3.671,3.671,0,0,1-.26-1,2.69,2.69,0,0,1,.17-1.16,3.16,3.16,0,0,1,1.34-1.48,8.8,8.8,0,0,1,2.87-1,30.078,30.078,0,0,1,5.45-.35,92.132,92.132,0,0,1,10.62.86q10.5,1.5,20.82,3.76c6.88,1.5,13.71,3.22,20.47,5q5.19,1.32,10.27,2.78T216.05,426.56Z"/><line class="d" x1="7.55" y1="4.86" transform="translate(235.28 685.76)"/><line class="d" x1="8.94" y1="0.89" transform="translate(245.27 403.46)"/><ellipse class="e" cx="175.95" cy="39.97" rx="175.95" ry="39.97" transform="translate(532.31 839.49)"/><path class="c" d="M709.43,573.67l7.09,7.59c2.38,2.53,4.7,5.1,7.05,7.64s4.71,5.1,7,7.66c3.75,4.14,7.5,8.26,11.23,12.41q-2-20.24-4-40.46-2.37-24.85-4.74-49.71l-2.26-24.86-1.13-12.45L728.61,469a41.273,41.273,0,0,0-4.94,1.85c-22.67,10.26-33,40.69-35.82,80.37,4.88,4.89,9.66,9.93,14.45,14.94Z"/><path class="c" d="M788.19,789.5s1.94-28,2.78-67.47q-1.53,2.84-3.11,5.64C787.32,764.63,788.19,789.5,788.19,789.5Z"/><path class="c" d="M725.28,694.58l6.86.78,6.83.8c4,.44,8,1,12,1.46l-3.12-29.73-5.08-49.7-.45-4.59c-4.61-5-9.15-10.16-13.73-15.26-2.31-2.57-4.59-5.18-6.89-7.77s-4.6-5.18-6.87-7.8L708,574.94l-6.74-7.89c-4.49-5.24-9-10.54-13.37-15.88-2.91,41.08,2.25,92.08,10.16,140.91,4.53.27,9,.71,13.57,1.13S720.72,694.08,725.28,694.58Z"/><path class="c" d="M731.54,493.75l2.88,24.78q2.8,24.78,5.55,49.66,2.28,20.49,4.42,41,4-5.76,8-11.5l5.08-7.17,5.12-7.14q2.55-3.57,5.14-7.12c1.73-2.36,3.44-4.74,5.19-7.09,3.47-4.73,7-9.41,10.52-14.09-3.1,5-6.29,9.9-9.48,14.8-1.59,2.47-3.21,4.9-4.82,7.36s-3.22,4.89-4.85,7.32l-4.88,7.31-4.93,7.25c-3.2,4.75-6.45,9.46-9.69,14.18l.48,4.53,5.23,49.69,2.87,28.14.32-.41,2.41-3,4.84-6.09c1.57-2,3.25-4,4.88-6s3.24-4,4.9-6l5-6,5-6c3.36-4,6.71-7.91,10.18-11.74-2.93,4.21-6,8.39-9,12.56l-4.61,6.27-4.7,6.23c-1.56,2.09-3.14,4.12-4.7,6.17s-3.14,4.13-4.71,6.16l-4.78,6.13L756,697l-2.17,2.75,1.78,17.5c1.64,16.56,3.33,33.12,4.92,49.73l.08.88q3-4.71,5.95-9.42,2-3.07,4-6.17l4-6.12,4-6.08,4.09-6q2.61-3.83,5.28-7.61c.34-22,1.18-48.29,3-76.06-2.46-92.9-15.51-195.52-62.32-181.4l1.49,12.39Z"/><path class="c" d="M791,722c.45-21.41.59-46.19-.08-71.72-1.83,27.77-2.67,54-3,76.06C788.9,724.92,789.92,723.46,791,722Z"/><path class="c" d="M936.32,466.7q-9.29,11.94-18.78,23.71c-3.17,3.93-6.33,7.88-9.49,11.79l-9.55,11.74c-6.42,7.8-12.8,15.62-19.26,23.38L869.58,549l-9.71,11.59-5.3,22-13.9,57.21-7.73,31.47c5.4-.18,10.8-.39,16.2-.53,6-.17,12-.34,18-.45s12-.21,18-.28,12-.08,18,0c-6,.52-12,.94-18,1.35s-12,.81-18,1.07-12,.63-18,.92c-5.61.28-11.32.48-17,.71L826.62,697q-7.05,28.54-14.21,57.12l-7.15,28.55L798,811.18l-7.3,28.52L787.09,854l-3.69,14.24,3.29-14.34L790,839.52l6.68-28.66,6.81-28.64,6.83-28.64c4.53-19.1,9.17-38.17,13.74-57.25L829.77,673l-8.89-16.47-4.47-8.46q-2.24-4.23-4.45-8.48l-4.41-8.48-4.35-8.52c-2.88-5.65-5.76-11.35-8.51-17.1,3.32,5.45,6.53,11,9.73,16.48l4.77,8.29,4.72,8.33q2.36,4.15,4.68,8.35l4.65,8.36,7.5,13.72,7.26-29.9,14.11-57.18c1.78-7.23,3.6-14.46,5.39-21.69l-4.62-10.38-4.65-10.39c-3.12-7-6.18-13.94-9.24-20.91-1.55-3.51-3-7-4.57-10.48l-4.54-10.49c-3-7.05-6-14.06-8.91-21.11q5.07,10.26,10,20.57l4.93,10.31c1.63,3.44,3.27,6.88,4.89,10.33q4.86,10.37,9.68,20.71l4.8,10.37,3.3,7.2q3.87-15.59,7.74-31.15,7.2-28.53,14.36-57.14l7.3-28.53L891.53,425l2.84-11c-72.27-15.4-96,123.18-103.48,236.33.67,25.53.53,50.31.08,71.72h0c-.84,39.47-2.78,67.47-2.78,67.47s-.87-24.87-.33-61.83c-1.33,2.37-2.68,4.73-4,7.09l-3.67,6.31-3.75,6.27-3.76,6.24c-1.27,2-2.53,4.16-3.82,6.22-2.56,4.1-5.11,8.27-7.75,12.32l-.05.09,1.88,19.58,2.35,24.85,2.26,24.87L768.64,854l1.08,12.44L768.23,854l-1.45-12.41-2.88-24.78L761.11,792,759,772.68l-5.09-.46-5.94-.57-5.93-.6-5.93-.64c-2-.21-4-.44-5.93-.68s-3.95-.45-5.92-.71c-4-.47-7.89-1-11.83-1.6,12.1,55.76,24,96.85,24,96.85s37,12,72.87-2.32C838.26,850.33,956.6,583.59,936.32,466.7Z"/><path class="c" d="M888.6,439.37,881.91,468q-6.76,28.66-13.59,57.29-3.47,14.61-7,29.22l6.1-7.36,9.72-11.61c6.46-7.75,13-15.43,19.52-23.14l9.84-11.51c3.27-3.84,6.59-7.65,9.88-11.48,6.6-7.63,13.22-15.23,19.94-22.75-4.79-27.62-17.31-46.89-40.59-52.43l-1.27-.27-2.53,11Z"/><path class="c" d="M730.29,768.09c2,.09,4,.19,6,.32l5.94.35,6,.4,6,.46,4.55.37-.3-2.77c-1.84-16.53-3.58-33.07-5.34-49.68l-1.8-17.17c-4.19-.56-8.37-1.1-12.54-1.72l-6.81-1-6.82-1c-4.54-.68-9.06-1.42-13.59-2.17s-9-1.51-13.45-2.38c4.28,26.38,9.35,52.12,14.38,75.32,4,.07,8,.21,11.94.38C726.31,767.88,728.3,768,730.29,768.09Z"/><path class="b" d="M728.61,468.94v.01h0Z"/><path class="b" d="M759.81,772.75l-.85-.07,2.15,19.34,2.79,24.79,2.88,24.78L768.23,854l1.49,12.4-1.08-12.44-1.12-12.45-2.27-24.87-2.34-24.85-1.88-19.58-.4.62Z"/><path class="b" d="M760.6,767.82l-.08-.88c-1.59-16.61-3.28-33.17-4.92-49.73l-1.78-17.5-.25.3-.48.61-.78-.1-1.09-.15,1.8,17.17c1.76,16.61,3.5,33.15,5.34,49.68l.3,2.77h.55Z"/><path class="b" d="M753.41,695.7l-2.87-28.14-5.23-49.69-.48-4.53a3.605,3.605,0,0,0-.22.32l-1,1.42-1.18-1.29-.17-.19.45,4.59,5.08,49.7,3.12,29.73.91.11Z"/><path class="b" d="M730.83,493.94l2.26,24.86q2.32,24.86,4.74,49.71,1.93,20.24,4,40.46c.52.57,1,1.15,1.55,1.73l1-1.47q-2.17-20.55-4.42-41-2.75-24.88-5.55-49.66l-2.88-24.78-1.44-12.41L728.61,469h0l1.09,12.54Z"/><path class="b" d="M687.84,551.16Z"/><path class="b" d="M754.52,599.16l4.93-7.25,4.88-7.31q2.45-3.65,4.85-7.32c1.61-2.46,3.23-4.89,4.82-7.36,3.19-4.9,6.38-9.83,9.48-14.8-3.55,4.68-7.05,9.36-10.52,14.09-1.75,2.35-3.46,4.73-5.19,7.09s-3.44,4.74-5.14,7.12l-5.12,7.14-5.08,7.17q-4,5.73-8,11.5c.15,1.37.29,2.74.44,4.11C748.07,608.62,751.32,603.91,754.52,599.16Z"/><path class="b" d="M708,574.94l6.83,7.83c2.27,2.62,4.57,5.21,6.87,7.8s4.58,5.2,6.89,7.77c4.58,5.1,9.12,10.22,13.73,15.26-.16-1.54-.31-3.09-.46-4.63-3.73-4.15-7.48-8.27-11.23-12.41-2.31-2.56-4.66-5.12-7-7.66s-4.67-5.11-7.05-7.64l-7.09-7.59-7.13-7.56c-4.79-5-9.57-10.05-14.45-14.94h0c4.39,5.34,8.88,10.64,13.37,15.88Z"/><path class="b" d="M744.53,612c-.38-.43-.77-.85-1.16-1.28l-1,1.42Z"/><path class="b" d="M743.63,615.08l1-1.42a3.628,3.628,0,0,1,.22-.32c-.15-1.37-.29-2.74-.44-4.11l-1,1.47c.39.43.78.85,1.16,1.28l-2.14.14,1-1.42c-.51-.58-1-1.16-1.55-1.73.15,1.54.3,3.09.46,4.63l.17.19Z"/><path class="b" d="M697.84,692.07h0Z"/><path class="b" d="M725.05,696.65l6.82,1,6.81,1c4.17.62,8.35,1.16,12.54,1.72l-.29-2.75c-4-.5-8-1-12-1.46l-6.83-.8-6.86-.78c-4.56-.5-9.14-1-13.7-1.37s-9-.86-13.57-1.13h0c4.46.87,9,1.65,13.45,2.38S720.51,696,725.05,696.65Z"/><path class="b" d="M756,697l2.35-3.05,4.78-6.13c1.57-2,3.14-4.1,4.71-6.16s3.14-4.08,4.7-6.17l4.7-6.23,4.61-6.27c3-4.17,6.11-8.35,9-12.56-3.47,3.83-6.82,7.79-10.18,11.74l-5,6-5,6c-1.66,2-3.27,4-4.9,6s-3.31,4-4.88,6l-4.84,6.09-2.41,3-.32.41.41,4Z"/><path class="b" d="M753.09,700.62l.48-.61.25-.3-.41-4-1.57,2,.79.1-1.26.51.47-.61-.91-.11.29,2.75,1.09.15Z"/><path class="b" d="M752.63,697.83l-.79-.1-.47.61Z"/><path class="b" d="M712.39,767.42Z"/><path class="b" d="M787.86,727.67q1.57-2.8,3.11-5.64h0c-1.05,1.43-2.07,2.89-3.09,4.34C787.87,726.81,787.87,727.24,787.86,727.67Z"/><path class="b" d="M782.6,734l-4.09,6-4,6.08-4,6.12q-2,3.09-4,6.17-3,4.71-5.95,9.42l.43,4.39.05-.09c2.64-4,5.19-8.22,7.75-12.32,1.29-2.06,2.55-4.17,3.82-6.22l3.76-6.24,3.75-6.27,3.67-6.31c1.35-2.36,2.7-4.72,4-7.09v-1.3Q785.21,730.17,782.6,734Z"/><path class="b" d="M730.14,769.73c2,.24,4,.47,5.93.68l5.93.64,5.93.6,5.94.57,5.09.46-.3-2.69-4.55-.37-6-.46-6-.4-5.94-.35c-2-.13-4-.23-6-.32s-4-.21-6-.29c-4-.17-8-.31-11.94-.38h0c3.94.61,7.88,1.13,11.83,1.6C726.19,769.28,728.16,769.5,730.14,769.73Z"/><path class="b" d="M791,722Z"/><path class="b" d="M759.21,770l.83.07-1.27.63.44-.7h-.55l.3,2.69.85.07.82.08.4-.62-.43-4.39Z"/><path class="b" d="M760,770.1l-.83-.07-.44.7Z"/><path class="b" d="M895.21,410.69l-.84,3.29h.09Z"/><path class="b" d="M888,439.16l-7.3,28.53q-7.15,28.6-14.36,57.14-3.9,15.55-7.74,31.15l.56,1.22,2.19-2.65q3.52-14.61,7-29.22,6.82-28.62,13.59-57.29l6.69-28.67,3.3-14.37,2.53-11h-.09l-2.84,11Z"/><path class="b" d="M830.37,674.11l-.41-.76-.19-.36-5.68,23.34c-4.57,19.08-9.21,38.15-13.74,57.25l-6.83,28.64-6.81,28.64L790,839.52l-3.34,14.35-3.29,14.34L787.09,854l3.65-14.27,7.3-28.52,7.22-28.54,7.15-28.55q7.15-28.58,14.21-57.12l5.63-23h-1Z"/><path class="b" d="M858.41,562.26l-.88-2h0c-1.79,7.23-3.61,14.46-5.39,21.69L838,639.12,830.74,669l1.24,2.28h1l7.73-31.47,13.9-57.21q2.64-11,5.3-22h0Z"/><path class="b" d="M936.34,466.68Z"/><path class="b" d="M857.76,558.86h.09v-.17Z"/><path class="b" d="M906.5,500.93l-9.84,11.51c-6.51,7.71-13.06,15.39-19.52,23.14l-9.72,11.61-6.1,7.36q-.72,3-1.45,6L869.58,549l9.66-11.67c6.46-7.76,12.84-15.58,19.26-23.38l9.55-11.74c3.16-3.91,6.32-7.86,9.49-11.79q9.5-11.76,18.78-23.71h0c-6.72,7.52-13.34,15.12-19.94,22.75C913.09,493.28,909.77,497.09,906.5,500.93Z"/><path class="b" d="M857.76,558.86l.13-.16c.22-.91.45-1.82.68-2.72l-3.3-7.2-4.8-10.37q-4.8-10.36-9.68-20.71c-1.62-3.45-3.26-6.89-4.89-10.33L831,497.06q-4.94-10.31-10-20.57c2.92,7.05,5.9,14.06,8.91,21.11l4.54,10.49c1.52,3.46,3,7,4.57,10.48,3.06,7,6.12,14,9.24,20.91l4.65,10.39,4.62,10.38c.12-.46.23-.92.35-1.38Z"/><path class="b" d="M859.13,557.2l-.56-1.22c-.23.9-.46,1.81-.68,2.72Z"/><path class="b" d="M859.13,557.2l.9,2-2.18-.3c-.12.46-.23.92-.35,1.38h0l.88,2,1.45-1.66h0q.74-3,1.45-6Z"/><path class="b" d="M857.85,558.87l2.18.3-.9-2-1.24,1.5Z"/><path class="b" d="M849.24,673.33c6-.29,12-.65,18-.92s12-.66,18-1.07,12-.83,18-1.35q-9-.105-18,0c-6,.06-12,.17-18,.28s-12,.28-18,.45c-5.4.14-10.8.35-16.2.53l-.69,2.78C837.92,673.81,843.63,673.61,849.24,673.33Z"/><path class="b" d="M823.24,655.29l-4.65-8.36q-2.33-4.18-4.68-8.35l-4.72-8.33L804.42,622c-3.2-5.51-6.41-11-9.73-16.48,2.75,5.75,5.63,11.45,8.51,17.1l4.35,8.52,4.41,8.48q2.2,4.26,4.45,8.48l4.47,8.46L829.77,673l1-4Z"/><path class="b" d="M832.41,672.07l-.43-.78h-.85Z"/><path class="b" d="M832.41,672.07l-1.28-.75h.85L830.74,669l-1,4,.19.36.41.76h1.86l.69-2.78h-1Z"/><path class="c" d="M727.32,872.6S759.16,642,699.5,624.76,688,830.43,688,830.43,660.2,575.71,586.49,605s71.12,267,94.93,272.79S727.32,872.6,727.32,872.6Z"/><path class="b" d="M696.23,624l.2,7.91.22,7.91.45,15.8q.49,15.8,1,31.64c.35,10.53.76,21.06,1.17,31.63l1.24,31.63,1.34,31.59c.48,10.53.93,21.06,1.44,31.62l.76,15.8.79,15.79.85,15.8.42,7.9.46,7.9-.19-7.91-.23-7.91-.44-15.8-.5-15.79-.54-15.8c-.35-10.53-.76-21.06-1.17-31.63l-1.24-31.6L701,718.9c-.48-10.53-.93-21.07-1.45-31.6s-1-21.06-1.54-31.59l-.84-15.79-.43-7.91Z"/><path class="b" d="M729.27,671.88c-2.62,3.51-5.16,7.11-7.71,10.69L717.78,688l-3.76,5.4c-1.25,1.81-2.48,3.63-3.72,5.43s-2.49,3.63-3.71,5.44c-2.45,3.65-4.92,7.28-7.33,10.94l1.35-.11c-2.54-2.7-5.06-5.42-7.6-8.1l-3.84-4-3.85-4-3.88-4c-1.3-1.33-2.58-2.67-3.89-4q-3.91-4-7.88-7.88c2.39,2.83,4.84,5.64,7.29,8.42,1.22,1.41,2.46,2.78,3.69,4.17s2.46,2.78,3.71,4.15l3.72,4.14,3.75,4.1c2.49,2.75,5,5.46,7.53,8.19l.75.8.62-.91c2.46-3.63,4.87-7.3,7.3-11,1.22-1.83,2.41-3.67,3.62-5.5s2.41-3.67,3.6-5.52l3.56-5.53,3.51-5.56C724.66,679.37,727,675.63,729.27,671.88Z"/><path class="b" d="M735.81,761.14c-2.85.58-5.68,1.28-8.51,2s-5.65,1.39-8.46,2.11l-4.23,1.11-4.21,1.13c-2.82.73-5.61,1.52-8.42,2.29l.84.2-1.76-1.7-1.79-1.68-3.58-3.38c-1.17-1.13-2.41-2.23-3.61-3.35s-2.4-2.24-3.62-3.33l-3.65-3.31-3.67-3.28c-2.46-2.17-4.92-4.35-7.45-6.44,2.22,2.38,4.52,4.72,6.81,7.06L684,754l3.51,3.47c1.17,1.17,2.34,2.3,3.51,3.45s2.34,2.3,3.51,3.43l3.56,3.41,1.75,1.7,1.79,1.69.36.34.48-.14c2.79-.8,5.59-1.57,8.38-2.41l4.18-1.23,4.18-1.26c2.78-.84,5.55-1.72,8.32-2.6S733.06,762.09,735.81,761.14Z"/><path class="b" d="M733.54,809.7c-2.49.4-5,.85-7.45,1.32-1.24.23-2.47.48-3.71.72l-3.71.74-3.69.76-3.7.8-3.69.83-3.68.84.85.28q-3-3.51-6-7l-3-3.51L692.68,802l-3.08-3.44-3.11-3.43c-2.09-2.26-4.19-4.52-6.35-6.74,1.84,2.49,3.74,4.92,5.64,7.35l2.88,3.62,2.92,3.59,2.93,3.57c1,1.17,2,2.37,3,3.55,2,2.34,4,4.72,6,7l.35.4.5-.12,3.68-.87,3.67-.9,3.67-.91,3.66-.95c1.22-.31,2.44-.63,3.65-1l3.65-1C728.7,811.12,731.12,810.44,733.54,809.7Z"/><path class="b" d="M586.49,602.67l3.36,8.7,3.39,8.68,6.8,17.37q6.84,17.36,13.73,34.68c4.58,11.56,9.22,23.1,13.83,34.64l13.91,34.6,14,34.57q7,17.26,14.1,34.52l7.08,17.25,7.12,17.24L691,862.14l3.59,8.61,3.61,8.59-3.37-8.69-3.4-8.69-6.79-17.36-6.88-17.34-6.88-17.33c-4.58-11.56-9.22-23.1-13.82-34.64l-13.93-34.61-14-34.56q-7-17.26-14.1-34.52l-14.2-34.52-7.16-17.21-3.53-8.59Z"/><path class="b" d="M639,637.18q-2.25,6.89-4.4,13.8l-2.16,6.91c-.7,2.31-1.42,4.61-2.12,6.93-1.4,4.62-2.81,9.23-4.19,13.86l-2.06,6.93L622,692.56l1.4-.4-7.12-6.44-7.15-6.39c-4.75-4.27-9.56-8.49-14.34-12.74l-7.21-6.31c-2.4-2.12-4.83-4.2-7.24-6.31-4.84-4.18-9.68-8.35-14.59-12.46q6.91,6.66,14,13.17c2.34,2.18,4.68,4.37,7,6.53l7.06,6.5c4.73,4.3,9.44,8.62,14.2,12.9l7.11,6.44,7.15,6.39,1.06.91.38-1.31,2-7,2-6.94c1.33-4.64,2.61-9.29,3.9-13.94.64-2.34,1.27-4.68,1.91-7l1.89-7C636.59,646.53,637.83,641.86,639,637.18Z"/><path class="b" d="M667.22,715.65c-1.59,3.73-3.09,7.48-4.6,11.22l-2.24,5.63-2.2,5.65q-1.11,2.82-2.17,5.66l-2.16,5.67-4.22,11.35.73-.58c-3.78.42-7.56.81-11.34,1.26s-7.56.88-11.34,1.36-7.54,1-11.32,1.46-7.53,1-11.29,1.63c3.8-.21,7.6-.5,11.39-.79s7.6-.58,11.37-1,7.61-.7,11.36-1.06,7.57-.77,11.36-1.17l.54-.06.19-.51L655.44,750l2-5.71c.68-1.9,1.36-3.8,2-5.71l2-5.73,2-5.73C664.73,723.34,666,719.51,667.22,715.65Z"/><path class="c" d="M287.36,104.39,271.05,72.58,337.93,0Z"/><path class="f" d="M287.36,104.39l-1.63-30.17L337.93,0Z"/><path class="g" d="M271.05,72.58,337.93,0l-94.6,65.89Z"/><path class="g" d="M285.73,74.22l46.49,5.7L337.93,0Z"/><path class="c" d="M287.71,112a1.946,1.946,0,1,1,1.38-.56A2,2,0,0,1,287.71,112Z"/><path class="c" d="M357,282.24a2,2,0,0,1-1.87-2h0a2,2,0,0,1,2-1.87h0a1.94,1.94,0,0,1,1.87,2h0a2,2,0,0,1-2,1.88h0Zm5.92-1.94a1.94,1.94,0,0,1,1.8-2.09h0a2,2,0,0,1,2.09,1.8h0a2,2,0,0,1-1.8,2.09h-.15a2,2,0,0,1-1.93-1.8ZM349,281.41h0a2,2,0,0,1-1.6-2.24h0a1.94,1.94,0,0,1,2.24-1.6h0a1.93,1.93,0,0,1,1.6,2.24h0a1.94,1.94,0,0,1-1.92,1.63h0a1.729,1.729,0,0,1-.32-.03Zm21.65-1.9a1.94,1.94,0,0,1,1.57-2.26h0a1.94,1.94,0,0,1,2.27,1.57h0a2,2,0,0,1-1.57,2.26h0a2.094,2.094,0,0,1-.35,0h0a1.94,1.94,0,0,1-1.89-1.57Zm-29.47.07a1.92,1.92,0,0,1-1.29-2.42h0a1.93,1.93,0,0,1,2.42-1.31h0a2,2,0,0,1,1.3,2.44h0a1.93,1.93,0,0,1-1.86,1.38h0a1.88,1.88,0,0,1-.54-.09Zm37.09-1.65a1.94,1.94,0,0,1,1.35-2.41h0a2,2,0,0,1,2.4,1.35h0a1.94,1.94,0,0,1-1.34,2.4h0a1.932,1.932,0,0,1-.53.07h0a1.94,1.94,0,0,1-1.85-1.41Zm-44.61-1.16a2,2,0,0,1-1-2.58h0a2,2,0,0,1,2.58-1h0a1.94,1.94,0,0,1,1,2.57h0a2,2,0,0,1-1.78,1.15h0a1.889,1.889,0,0,1-.77-.14Zm52.05-1.12a2,2,0,0,1,1.14-2.52h0a2,2,0,0,1,2.51,1.13h0a1.94,1.94,0,0,1-1.14,2.52h0a1.789,1.789,0,0,1-.69.12h0a2,2,0,0,1-1.79-1.25Zm7.23-2.9a2,2,0,0,1,.95-2.59h0a2,2,0,0,1,2.59.94h0a2,2,0,0,1-.94,2.6h0a2,2,0,0,1-.82.18h0a2,2,0,0,1-1.72-1.13ZM326.6,273a2,2,0,0,1-.64-2.69h0a2,2,0,0,1,2.68-.64h0a2,2,0,0,1,.64,2.68h0a1.94,1.94,0,0,1-1.67.94h0A1.94,1.94,0,0,1,326.6,273Zm73.4-3.66a2,2,0,0,1,.77-2.65h0a1.94,1.94,0,0,1,2.65.77h0a2,2,0,0,1-.77,2.65h0a1.871,1.871,0,0,1-.93.24h0A2,2,0,0,1,400,269.34Zm-79.93-1a1.94,1.94,0,0,1-.29-2.74h0a2,2,0,0,1,2.74-.3h0a2,2,0,0,1,.29,2.74h0a1.94,1.94,0,0,1-1.52.73h0a1.93,1.93,0,0,1-1.29-.4Zm86.7-2.89a1.94,1.94,0,0,1,.61-2.69h0a2,2,0,0,1,2.69.61h0a2,2,0,0,1-.61,2.69h0a1.93,1.93,0,0,1-1,.31h0a2,2,0,0,1-1.72-.89ZM314.11,263a2,2,0,0,1,0-2.76h0a2,2,0,0,1,2.76,0h0a1.94,1.94,0,0,1,0,2.75h0a1.93,1.93,0,0,1-1.35.55h0A2,2,0,0,1,314.11,263Zm-5.22-6.09a1.94,1.94,0,0,1,.37-2.73h0a2,2,0,0,1,2.74.37h0a2,2,0,0,1-.37,2.73h0a1.87,1.87,0,0,1-1.18.4h0a1.92,1.92,0,0,1-1.56-.8Zm-4.46-6.67a2,2,0,0,1,.7-2.67h0a2,2,0,0,1,2.67.71h0a2,2,0,0,1-.71,2.67h0a2,2,0,0,1-1,.26h0a2,2,0,0,1-1.66-1ZM300.82,243a2,2,0,0,1,1-2.56h0a2,2,0,0,1,2.56,1h0a1.94,1.94,0,0,1-1,2.55h0a1.9,1.9,0,0,1-.77.16h0A2,2,0,0,1,300.82,243Zm-2.64-7.61a2,2,0,0,1,1.37-2.39h0a2,2,0,0,1,2.4,1.37h0a2,2,0,0,1-1.38,2.39h0a1.789,1.789,0,0,1-.51.07h0a1.94,1.94,0,0,1-1.88-1.4Zm-1.27-8.08a1.93,1.93,0,0,1,1.84-2h0a2,2,0,0,1,2.05,1.84h0a2,2,0,0,1-1.85,2.05h-.1a1.94,1.94,0,0,1-1.94-1.85Zm24.53-3a2,2,0,0,1,1.94-2h0a1.93,1.93,0,0,1,2,1.93h0a2,2,0,0,1-1.94,2h0A2,2,0,0,1,321.44,224.31Zm-6.09,1.34a2,2,0,0,1-1.65-2.22h0a2,2,0,0,1,2.23-1.64h0a1.94,1.94,0,0,1,1.63,2.21h0a1.94,1.94,0,0,1-1.93,1.67h0Zm13.86-1.72a2,2,0,0,1,1.57-2.27h0a2,2,0,0,1,2.27,1.57h0a1.94,1.94,0,0,1-1.57,2.27h0a2,2,0,0,1-.35,0h0A2,2,0,0,1,329.21,223.93Zm-21.72,0a2,2,0,0,1-1.33-2.41h0a2,2,0,0,1,2.41-1.34h0a2,2,0,0,1,1.34,2.41h0A2,2,0,0,1,308,224h0a2.05,2.05,0,0,1-.51-.06Zm29.31-1.76a1.94,1.94,0,0,1,1.11-2.52h0a1.94,1.94,0,0,1,2.52,1.11h0a2,2,0,0,1-1.11,2.52h0a2,2,0,0,1-.71.13h0a1.94,1.94,0,0,1-1.81-1.23Zm-36.86-.85-.12-.05h0a1.77,1.77,0,0,1-.92.12h0a1.94,1.94,0,0,1-1.72-2.15h0a2,2,0,0,1,2.17-1.72h0a2,2,0,0,1,.62.19h0a1.87,1.87,0,0,1,1.43,0h0a1.94,1.94,0,0,1,1.08,2.53h0a2,2,0,0,1-1.81,1.22h0a1.91,1.91,0,0,1-.73-.13Zm44-2.32a2,2,0,0,1,.61-2.69h0a2,2,0,0,1,2.69.61h0a2,2,0,0,1-.61,2.69h0a2,2,0,0,1-1,.3h0a2,2,0,0,1-1.73-.91Zm-51.19-1.21h0a1.94,1.94,0,0,1-.71-2.66h0a2,2,0,0,1,2.67-.71h0a2,2,0,0,1,.7,2.67h0a2,2,0,0,1-1.69,1h0a1.9,1.9,0,0,1-1.01-.29Zm57.57-3.26a2,2,0,0,1,.09-2.75h0a2,2,0,0,1,2.76.1h0a2,2,0,0,1-.1,2.76h0a1.92,1.92,0,0,1-1.33.51h0a1.9,1.9,0,0,1-1.46-.61Zm-50.23-.84a2,2,0,0,1-1.43-2.36h0a2,2,0,0,1,2.37-1.42h0a2,2,0,0,1,1.43,2.36h0a2,2,0,0,1-1.9,1.48h0a2,2,0,0,1-.51-.05Zm-14-.53h0a1.94,1.94,0,0,1-.25-2.75h0a2,2,0,0,1,2.74-.24h0a2,2,0,0,1,.26,2.74h0a1.94,1.94,0,0,1-1.5.7h0a1.9,1.9,0,0,1-1.28-.44ZM355.75,209a2,2,0,0,1-.37-2.73h0a2,2,0,0,1,2.73-.37h0a2,2,0,0,1,.37,2.74h0a1.94,1.94,0,0,1-1.55.76h0A2,2,0,0,1,355.75,209Zm-75.44-1.57h0a2,2,0,0,1,.25-2.75h0a1.94,1.94,0,0,1,2.74.26h0a2,2,0,0,1-.26,2.75h0a1.92,1.92,0,0,1-1.24.44h0a1.93,1.93,0,0,1-1.49-.7Zm21.82-1.24A2,2,0,0,1,301,203.7h0a2,2,0,0,1,2.51-1.17h0a2,2,0,0,1,1.16,2.49h0a1.94,1.94,0,0,1-1.83,1.29h0a2,2,0,0,1-.71-.12Zm58.1-3.56a1.94,1.94,0,0,1-.79-2.64h0a2,2,0,0,1,2.64-.79h0a2,2,0,0,1,.79,2.65h0a2,2,0,0,1-1.71,1h0a1.9,1.9,0,0,1-.93-.22Zm-84.51-1.91a1.94,1.94,0,0,1,.76-2.66h0a2,2,0,0,1,2.65.75h0a2,2,0,0,1-.75,2.66h0a2,2,0,0,1-.95.24h0A2,2,0,0,1,275.72,200.72ZM305,198.93a2,2,0,0,1-.94-2.59h0a2,2,0,0,1,2.6-.94h0a2,2,0,0,1,.93,2.6h0a2,2,0,0,1-1.76,1.12h0a1.93,1.93,0,0,1-.83-.19Zm58.7-3.29a2,2,0,0,1-1.18-2.49h0A2,2,0,0,1,365,192h0a2,2,0,0,1,1.18,2.49h0a2,2,0,0,1-1.85,1.29h0a1.89,1.89,0,0,1-.67-.14Zm-91.25-2.33a2,2,0,0,1,1.19-2.49h0a2,2,0,0,1,2.49,1.2h0a2,2,0,0,1-1.2,2.49h0a2.05,2.05,0,0,1-.65.1h0a1.93,1.93,0,0,1-1.87-1.3Zm36-1.37a1.94,1.94,0,0,1-.72-2.66h0a2,2,0,0,1,2.66-.72h0a1.94,1.94,0,0,1,.72,2.66h0a1.94,1.94,0,0,1-1.69,1h0a1.92,1.92,0,0,1-1.01-.28ZM366,188.21a2,2,0,0,1-1.55-2.27h0a2,2,0,0,1,2.28-1.56h0a2,2,0,0,1,1.56,2.27h0a1.94,1.94,0,0,1-1.92,1.59h0Zm-95.67-2.69a1.94,1.94,0,0,1,1.55-2.28h0a2,2,0,0,1,2.28,1.54h0a2,2,0,0,1-1.54,2.29h-.37a2,2,0,0,1-1.93-1.55Zm42.1-.26a2,2,0,0,1-.51-2.71h0a1.94,1.94,0,0,1,2.71-.51h0a2,2,0,0,1,.51,2.71h0a2,2,0,0,1-1.61.85h0a2,2,0,0,1-1.11-.34Zm54.67-4.76a2,2,0,0,1-1.94-2h0a2,2,0,0,1,2-1.94h0a2,2,0,0,1,1.95,2h0a2,2,0,0,1-1.95,1.95h0Zm-97.8-2.94a1.93,1.93,0,0,1,1.82-2.07h0a1.94,1.94,0,0,1,2.07,1.8h0a2,2,0,0,1-1.8,2.09h-.15a2,2,0,0,1-1.95-1.82Zm47.65,1.35a1.94,1.94,0,0,1-.29-2.74h0a1.94,1.94,0,0,1,2.74-.28h0a2,2,0,0,1,.29,2.74h0a1.92,1.92,0,0,1-1.51.72h0a2,2,0,0,1-1.24-.44Zm5-5.95a1.94,1.94,0,0,1,0-2.75h0a2,2,0,0,1,2.76,0h0a1.94,1.94,0,0,1,0,2.75h0a1.92,1.92,0,0,1-1.41.59h0A1.93,1.93,0,0,1,322,173Zm42.38-1.68a1.94,1.94,0,0,1,1.45-2.35h0a1.93,1.93,0,0,1,2.34,1.44h0a1.94,1.94,0,0,1-1.44,2.35h0a1.7,1.7,0,0,1-.46.06h0a2,2,0,0,1-1.87-1.5Zm-93.32.31a2,2,0,0,1-1.89-2h0a1.94,1.94,0,0,1,2-1.89h0a2,2,0,0,1,1.9,2h0a2,2,0,0,1-2,1.89H271Zm56.51-4.09a1.92,1.92,0,0,1,.25-2.73h0a1.94,1.94,0,0,1,2.75.25h0a2,2,0,0,1-.26,2.75h0a2,2,0,0,1-1.24.45h0a1.93,1.93,0,0,1-1.48-.72Zm34-2.7a2,2,0,0,1,.53-2.71h0a1.93,1.93,0,0,1,2.7.51h0a2,2,0,0,1-.52,2.71h0a1.9,1.9,0,0,1-1.09.34h0a2,2,0,0,1-1.55-.85Zm-90.17-1a2,2,0,0,1-1.73-2.15h0a2,2,0,0,1,2.16-1.73h0a2,2,0,0,1,1.72,2.16h0a2,2,0,0,1-1.94,1.73h-.21Zm62.27-1.08a1.94,1.94,0,0,1,.64-2.68h0a1.94,1.94,0,0,1,2.68.63h0a2,2,0,0,1-.64,2.69h0a1.92,1.92,0,0,1-1,.28h0a2,2,0,0,1-1.61-.91Zm22.9-2.42a1.94,1.94,0,0,1-.86-2.61h0a1.93,1.93,0,0,1,2.61-.87h0a2,2,0,0,1,.87,2.61h0a2,2,0,0,1-1.75,1.09h0a1.84,1.84,0,0,1-.8-.21ZM340.5,159a2,2,0,0,1,1.19-2.5h0a2,2,0,0,1,2.48,1.19h0a2,2,0,0,1-1.18,2.49h0a2.12,2.12,0,0,1-.66.11h0A1.93,1.93,0,0,1,340.5,159Zm7.5-2.08a2,2,0,0,1,1.93-2h0a2,2,0,0,1,2,1.94h0a2,2,0,0,1-1.94,2h0a1.94,1.94,0,0,1-1.99-1.98Zm-75.59-.8a2,2,0,0,1-1.58-2.26h0a2,2,0,0,1,2.26-1.58h0a2,2,0,0,1,1.58,2.27h0a1.94,1.94,0,0,1-1.92,1.6h0Zm1.49-7.64a2,2,0,0,1-1.44-2.35h0a1.93,1.93,0,0,1,2.35-1.44h0a1.94,1.94,0,0,1,1.44,2.35h0a2,2,0,0,1-1.9,1.49h0a1.77,1.77,0,0,1-.45-.09Zm1.91-7.56a1.94,1.94,0,0,1-1.32-2.41h0a2,2,0,0,1,2.42-1.33h0a2,2,0,0,1,1.32,2.42h0a1.92,1.92,0,0,1-1.87,1.4h0a2.151,2.151,0,0,1-.55-.12Zm2.28-7.44a2,2,0,0,1-1.21-2.49h0a2,2,0,0,1,2.47-1.21h0a2,2,0,0,1,1.22,2.48h0a1.94,1.94,0,0,1-1.85,1.31h0a2.28,2.28,0,0,1-.63-.13Zm2.61-7.35a2,2,0,0,1-1.11-2.53h0a2,2,0,0,1,2.52-1.11h0a2,2,0,0,1,1.11,2.53h0a2,2,0,0,1-1.82,1.24h0a2.16,2.16,0,0,1-.7-.17Zm2.9-7.24a1.94,1.94,0,0,1-1-2.56h0a2,2,0,0,1,2.57-1h0a2,2,0,0,1,1,2.57h0a2,2,0,0,1-1.8,1.16h0a1.86,1.86,0,0,1-.77-.21Z"/><path class="c" d="M414.92,262a1.98,1.98,0,0,1-1.37-3.37,2,2,0,0,1,2.76,0,1.97,1.97,0,0,1-1.39,3.37Z"/><path class="c" d="M170.12,210.12a62.61,62.61,0,0,0-7.94-14.83l12.6-11.5A80,80,0,0,0,146,160.19l-8.78,14.62A62.91,62.91,0,0,0,121.06,170l.78-17.06a80.59,80.59,0,0,0-37.07,3.7l4.13,16.57a63,63,0,0,0-14.83,7.94l-11.49-12.6A79.73,79.73,0,0,0,39,197.34l14.62,8.78a62.91,62.91,0,0,0-4.85,16.11l-17.06-.78a80.59,80.59,0,0,0,3.7,37.07L52,254.39a62.64,62.64,0,0,0,7.94,14.83L47.3,280.71a79.73,79.73,0,0,0,28.83,23.6l8.78-14.62a63,63,0,0,0,16.1,4.85l-.78,17.06a80.64,80.64,0,0,0,37.08-3.7l-4.14-16.57A62.44,62.44,0,0,0,148,283.39L159.5,296a80,80,0,0,0,23.6-28.83l-14.62-8.78a62.879,62.879,0,0,0,4.84-16.11l17.06.79a80.37,80.37,0,0,0-3.7-37.08ZM140.9,256.69a38.59,38.59,0,1,1-5.42-54.3A38.59,38.59,0,0,1,140.9,256.69Z"/><path class="c" d="M127.12,212.6a25.39,25.39,0,1,0,3.57,35.73,25.39,25.39,0,0,0-3.57-35.73Z"/><path class="c" d="M659.67,85.72a101.147,101.147,0,0,0-11.5-20.64L629.7,76a79,79,0,0,0-15-15l11.1-18.41a101.32,101.32,0,0,0-43.32-18.06l-5.31,20.84A79.111,79.111,0,0,0,556,45.31l-5.22-20.85a100.89,100.89,0,0,0-43.4,17.86l11,18.48a79.36,79.36,0,0,0-15,15l-18.5-11.11A101.369,101.369,0,0,0,466.82,108l20.84,5.32a79.113,79.113,0,0,0-.07,21.19l-20.84,5.21a100.42,100.42,0,0,0,17.86,43.4l18.47-11a79,79,0,0,0,15,15L507,205.62a101.32,101.32,0,0,0,43.32,18.06l5.32-20.84a78.619,78.619,0,0,0,21.18.06L582,223.75a100.89,100.89,0,0,0,43.4-17.86l-11-18.48a79.071,79.071,0,0,0,15-15l18.44,11.07A101.51,101.51,0,0,0,666,140.2l-20.85-5.32a79.11,79.11,0,0,0,.07-21.19L666,108.48A101.144,101.144,0,0,0,659.67,85.72Zm-74.78,83.33a48.6,48.6,0,1,1,26.45-63.44A48.6,48.6,0,0,1,584.89,169.05Z"/><path class="c" d="M554.22,94.53A32,32,0,1,0,596,111.93,32,32,0,0,0,554.22,94.53Z"/><path class="c" d="M805.24,232.51a22.56,22.56,0,1,0,3.17,31.75,22.56,22.56,0,0,0-3.17-31.75Z"/><path class="c" d="M855,281l-13-7.8a55.74,55.74,0,0,0,4.31-14.31l15.16.69a71.411,71.411,0,0,0-3.29-32.94l-14.72,3.67a55.621,55.621,0,0,0-7.05-13.17l11.19-10.22a71.1,71.1,0,0,0-11.56-12,71.917,71.917,0,0,0-14-9l-7.8,13a55.741,55.741,0,0,0-14.31-4.31l.69-15.16a71.421,71.421,0,0,0-32.94,3.29l3.67,14.72a55.62,55.62,0,0,0-13.17,7.05l-10.22-11.19a71.151,71.151,0,0,0-21,25.61l13,7.8a55.74,55.74,0,0,0-4.31,14.31l-15.16-.69a71.539,71.539,0,0,0,3.29,32.94l14.72-3.67a55.621,55.621,0,0,0,7,13.17L734.32,293a71.941,71.941,0,0,0,11.57,12,71,71,0,0,0,14,9l7.81-13a55.621,55.621,0,0,0,14.31,4.31l-.7,15.16a71.54,71.54,0,0,0,32.94-3.29l-3.67-14.72a55.622,55.622,0,0,0,13.17-7L834,306.6A71,71,0,0,0,855,281Zm-37.5-9.31a28.657,28.657,0,1,0-.02-.01Z"/><path class="c" d="M198.32,105.19a32.63,32.63,0,0,0-1.68-8.59l8-3.79A42,42,0,0,0,194,76.66l-6.61,5.94a32.559,32.559,0,0,0-7.26-4.89l3-8.35a41.65,41.65,0,0,0-19-3.84l-.48,8.86A32.09,32.09,0,0,0,155,76.07l-3.79-8a41.85,41.85,0,0,0-16.15,10.72L141,85.36a32.9,32.9,0,0,0-4.89,7.26l-8.35-3a41.72,41.72,0,0,0-3.84,19l8.86.48a33,33,0,0,0,1.69,8.59l-8,3.79a41.66,41.66,0,0,0,10.72,16.14l6.61-5.93a32.269,32.269,0,0,0,7.25,4.89l-3,8.35a41.64,41.64,0,0,0,19,3.84l.48-8.86a32.16,32.16,0,0,0,8.59-1.69l3.79,8A42,42,0,0,0,196,135.54l-5.93-6.62a32.57,32.57,0,0,0,4.88-7.25l8.36,3a41.54,41.54,0,0,0,3.83-19Zm-13.09,5.93a20.07,20.07,0,1,1-15.7-23.65,20.07,20.07,0,0,1,15.7,23.65Z"/><path class="c" d="M918.18,343.83l8.92-1.52a42.521,42.521,0,0,0-6.1-18.78l-8.11,4a33.56,33.56,0,0,0-5.78-6.79l5.23-7.37a42.57,42.57,0,0,0-17.59-9l-2.9,8.56a33,33,0,0,0-8.89-.69l-1.52-8.92a42.63,42.63,0,0,0-18.78,6.09l4,8.12a32.93,32.93,0,0,0-6.78,5.78l-7.38-5.23a42.571,42.571,0,0,0-9,17.59l8.57,2.9a33.39,33.39,0,0,0-.7,8.89L842.49,349a42.52,42.52,0,0,0,6.1,18.78l8.11-4a33.242,33.242,0,0,0,5.78,6.78L857.25,378a42.57,42.57,0,0,0,17.59,9l2.9-8.57a33.389,33.389,0,0,0,8.89.7l1.52,8.92a42.64,42.64,0,0,0,18.78-6.1l-4-8.11A33.239,33.239,0,0,0,909.7,368l7.38,5.23a42.53,42.53,0,0,0,9-17.6l-8.57-2.89a33.419,33.419,0,0,0,.67-8.91ZM903,355a20.45,20.45,0,1,1-8.93-27.5A20.45,20.45,0,0,1,903,355Z"/><rect class="c" width="9.74" height="9.74" rx="1.07" transform="translate(439.4 39.28)"/><rect class="c" width="11" height="11" rx="1.07" transform="translate(812.1 367.6)"/><rect class="c" width="9.74" height="9.74" rx="1.07" transform="translate(256.19 120.29)"/><path class="c" d="M157,311.69a8.08,8.08,0,1,0,8.07,8.08,8.08,8.08,0,0,0-8.07-8.08Z"/><path class="c" d="M49.09,140.25a8.07,8.07,0,1,0-5.719-2.357A8.07,8.07,0,0,0,49.09,140.25Z"/><path class="c" d="M105.83,127.83a4.19,4.19,0,1,0-4.19-4.19,4.19,4.19,0,0,0,4.19,4.19Z"/><path class="c" d="M288.11,104.07a4.19,4.19,0,1,0,4.18,4.18A4.19,4.19,0,0,0,288.11,104.07Z"/><circle class="c" cx="4.19" cy="4.19" r="4.19" transform="translate(883.68 163.39)"/><path class="c" d="M802.14,433.42a4.19,4.19,0,1,0,4.18,4.18A4.19,4.19,0,0,0,802.14,433.42Z"/><path class="f" d="M591.54,806.21l-225.48-1a49.11,49.11,0,0,1-48.9-49.31l2.3-565.29a49.12,49.12,0,0,1,49.33-48.92l225.49,1A49.12,49.12,0,0,1,643.17,192l-2.3,565.28a49.11,49.11,0,0,1-49.33,48.93Z"/><path class="b" d="M594,162.2l-43.72-.2a10.87,10.87,0,0,0-10.66,11.05v7.93A10.86,10.86,0,0,1,528.89,192l-85.22-.38a10.87,10.87,0,0,1-10.57-11.14v-7.93a10.87,10.87,0,0,0-10.58-11.14l-15.37-.07-38.26-.17a34.4,34.4,0,0,0-34.56,34.26l-2.24,551.75a34.39,34.39,0,0,0,34.25,34.54l225,1A34.41,34.41,0,0,0,626,748.5l2.24-551.76A34.39,34.39,0,0,0,594,162.2Z"/><g class="h"><path class="i" d="M409.2,780a12.53,12.53,0,0,1,0-25.06h0a12.53,12.53,0,1,1,0,25.06Zm0-24.09h0a11.56,11.56,0,0,0,0,23.12h0a11.58,11.58,0,0,0,0-23.16Z"/></g><rect class="j" width="97.93" height="18.29" rx="5.48" transform="translate(208.92 763.8)"/><g class="k"><rect class="l" width="94.05" height="14.41" rx="3.58" transform="translate(210.85 765.73)"/></g><g class="h"><path class="i" d="M223.17,765.72H214.5a3.64,3.64,0,0,0-3.64,3.64h0v7.11a3.64,3.64,0,0,0,3.64,3.64h8.67Z"/></g><g class="h"><rect class="i" width="32.79" height="14.41" transform="translate(229.29 765.74)"/></g><g class="h"><path class="i" d="M301.24,765.71H299.8v14.4h1.45a3.64,3.64,0,0,0,3.64-3.64h0v-7.12a3.64,3.64,0,0,0-3.65-3.64Z"/></g><g class="h"><rect class="i" width="31.35" height="14.41" transform="translate(265.87 765.73)"/></g><rect class="j" width="97.93" height="18.29" rx="5.48" transform="translate(218.6 745.64)"/><g class="k"><rect class="l" width="94.05" height="14.41" rx="3.58" transform="translate(220.54 747.58)"/></g><g class="h"><path class="i" d="M232.9,747.59h-8.67a3.64,3.64,0,0,0-3.64,3.64h0v7.1a3.64,3.64,0,0,0,3.64,3.64h8.67Z"/></g><g class="h"><rect class="i" width="32.79" height="14.41" transform="translate(238.97 747.58)"/></g><g class="h"><path class="i" d="M310.94,747.57h-1.45V762h1.44a3.64,3.64,0,0,0,3.64-3.64h0v-7.11a3.65,3.65,0,0,0-3.63-3.66Z"/></g><g class="h"><rect class="i" width="31.35" height="14.41" transform="translate(275.56 747.58)"/></g><rect class="j" width="97.93" height="18.29" rx="5.48" transform="translate(328.91 763.78)"/><g class="k"><rect class="l" width="94.05" height="14.41" rx="3.58" transform="translate(330.85 765.72)"/></g><g class="h"><path class="i" d="M343.18,765.7H334.5a3.63,3.63,0,0,0-3.63,3.64h0v7.11a3.64,3.64,0,0,0,3.64,3.64h8.67Z"/></g><g class="h"><rect class="i" width="32.79" height="14.41" transform="translate(349.29 765.72)"/></g><g class="h"><path class="i" d="M421.24,765.69H419.8v14.4h1.45a3.64,3.64,0,0,0,3.64-3.64h0v-7.12a3.64,3.64,0,0,0-3.65-3.64Z"/></g><g class="h"><rect class="i" width="31.35" height="14.41" transform="translate(385.87 765.71)"/></g><rect class="j" width="97.93" height="18.29" rx="5.48" transform="translate(335.7 745.62)"/><g class="k"><rect class="l" width="94.05" height="14.41" rx="3.58" transform="translate(337.64 747.56)"/></g><g class="h"><path class="i" d="M350,747.57h-8.67a3.64,3.64,0,0,0-3.64,3.64h0v7.11A3.64,3.64,0,0,0,341.3,762H350Z"/></g><g class="h"><rect class="i" width="32.79" height="14.41" transform="translate(356.07 747.56)"/></g><g class="h"><path class="i" d="M428,747.56h-1.45V762H428a3.64,3.64,0,0,0,3.64-3.64h0v-7.11a3.63,3.63,0,0,0-3.62-3.65Z"/></g><g class="h"><rect class="i" width="31.35" height="14.41" transform="translate(392.65 747.56)"/></g><rect class="j" width="97.93" height="18.29" rx="5.48" transform="translate(331.82 727.47)"/><g class="k"><rect class="l" width="94.05" height="14.41" rx="3.58" transform="translate(333.76 729.4)"/></g><g class="h"><path class="i" d="M346.09,729.41h-8.68a3.64,3.64,0,0,0-3.64,3.64h0v7.1a3.64,3.64,0,0,0,3.64,3.64h8.68Z"/></g><g class="h"><rect class="i" width="32.79" height="14.41" transform="translate(352.19 729.41)"/></g><g class="h"><path class="i" d="M424.15,729.4H422.7v14.45h1.44a3.64,3.64,0,0,0,3.64-3.64h0v-7.09a3.64,3.64,0,0,0-3.56-3.72Z"/></g><g class="h"><rect class="i" width="31.35" height="14.41" transform="translate(388.78 729.4)"/></g><rect class="j" width="97.93" height="18.29" rx="5.48" transform="matrix(0.998, -0.066, 0.066, 0.998, 326.445, 713.554)"/><g class="k"><rect class="l" width="94.05" height="14.41" rx="3.58" transform="matrix(0.998, -0.066, 0.066, 0.998, 328.525, 715.301)"/></g><g class="h"><path class="i" d="M340.83,714.53l-8.65.57a3.64,3.64,0,0,0-3.42,3.85h0l.48,7.09a3.64,3.64,0,0,0,3.86,3.4h0l8.65-.57Z"/></g><g class="h"><rect class="i" width="32.87" height="14.445" transform="translate(350.434 714.348) rotate(-4.004)"/></g><g class="h"><path class="i" d="M418.73,709.37l-1.44.1.91,14.38,1.44-.1a3.65,3.65,0,0,0,3.4-3.87h0l-.47-7.09a3.64,3.64,0,0,0-3.84-3.42Z"/></g><g class="h"><rect class="i" width="31.35" height="14.41" transform="matrix(0.998, -0.066, 0.066, 0.998, 383.395, 711.722)"/></g><rect class="j" width="97.93" height="18.29" rx="5.48" transform="translate(439.43 763.76)"/><g class="k"><rect class="l" width="94.05" height="14.41" rx="3.58" transform="translate(441.38 765.7)"/></g><g class="h"><path class="i" d="M453.7,765.69H445a3.64,3.64,0,0,0-3.64,3.64h0v7.1a3.64,3.64,0,0,0,3.64,3.64h8.67Z"/></g><g class="h"><rect class="i" width="32.79" height="14.41" transform="translate(459.8 765.7)"/></g><g class="h"><path class="i" d="M531.77,765.67h-1.44v14.41h1.44a3.65,3.65,0,0,0,3.64-3.64h0v-7.13a3.64,3.64,0,0,0-3.64-3.64Z"/></g><g class="h"><rect class="i" width="31.35" height="14.41" transform="translate(496.39 765.69)"/></g><rect class="j" width="97.93" height="18.29" rx="5.48" transform="translate(449.13 745.6)"/><g class="k"><rect class="l" width="94.05" height="14.41" rx="3.58" transform="translate(451.07 747.54)"/></g><g class="h"><path class="i" d="M463.39,747.55h-8.67a3.65,3.65,0,0,0-3.64,3.64v7.1a3.64,3.64,0,0,0,3.64,3.64h8.67Z"/></g><g class="h"><rect class="i" width="32.79" height="14.41" transform="translate(469.5 747.55)"/></g><g class="h"><path class="i" d="M541.47,747.54H540v14.4h1.45a3.64,3.64,0,0,0,3.64-3.64h0v-7.11a3.63,3.63,0,0,0-3.62-3.65Z"/></g><g class="h"><rect class="i" width="31.35" height="14.41" transform="translate(506.09 747.54)"/></g><rect class="j" width="97.93" height="18.29" rx="5.48" transform="translate(453.98 727.45)"/><g class="k"><rect class="l" width="94.05" height="14.41" rx="3.58" transform="translate(455.91 729.39)"/></g><g class="h"><path class="i" d="M468.24,729.39h-8.67a3.64,3.64,0,0,0-3.64,3.64h0v7.1a3.64,3.64,0,0,0,3.64,3.64h8.67Z"/></g><g class="h"><rect class="i" width="32.79" height="14.41" transform="translate(474.35 729.39)"/></g><g class="h"><path class="i" d="M546.31,729.38h-1.45v14.45h1.45a3.64,3.64,0,0,0,3.64-3.64h0V733.1a3.64,3.64,0,0,0-3.56-3.72Z"/></g><g class="h"><rect class="i" width="31.35" height="14.41" transform="translate(510.93 729.38)"/></g><rect class="j" width="97.93" height="18.29" rx="5.48" transform="translate(442.34 709.3)"/><g class="k"><rect class="l" width="94.05" height="14.41" rx="3.58" transform="translate(444.27 711.23)"/></g><g class="h"><path class="i" d="M456.6,711.24h-8.67a3.64,3.64,0,0,0-3.64,3.64h0V722a3.64,3.64,0,0,0,3.64,3.64h8.67Z"/></g><g class="h"><rect class="i" width="32.79" height="14.41" transform="translate(462.71 711.24)"/></g><g class="h"><path class="i" d="M534.67,711.23h-1.44v14.41h1.45a3.64,3.64,0,0,0,3.64-3.64h0v-7.1a3.63,3.63,0,0,0-3.6-3.67Z"/></g><g class="h"><rect class="i" width="31.35" height="14.41" transform="translate(499.29 711.23)"/></g><rect class="j" width="97.93" height="18.29" rx="5.48" transform="translate(453 691.14)"/><g class="k"><rect class="l" width="94.05" height="14.41" rx="3.58" transform="translate(454.94 693.08)"/></g><g class="h"><path class="i" d="M467.26,693.09h-8.67a3.64,3.64,0,0,0-3.64,3.64h0v7.09a3.63,3.63,0,0,0,3.64,3.63h8.67Z"/></g><g class="h"><rect class="i" width="32.79" height="14.41" transform="translate(473.37 693.08)"/></g><g class="h"><path class="i" d="M545.34,693.07h-1.45v14.42h1.45a3.64,3.64,0,0,0,3.64-3.64h0v-7.1a3.65,3.65,0,0,0-3.61-3.67h0Z"/></g><g class="h"><rect class="i" width="31.35" height="14.41" transform="translate(509.95 693.08)"/></g><rect class="j" width="97.93" height="18.29" rx="5.48" transform="translate(460.75 672.99)"/><g class="k"><rect class="l" width="94.05" height="14.41" rx="3.58" transform="translate(462.69 674.93)"/></g><g class="h"><path class="i" d="M475,674.93h-8.67a3.64,3.64,0,0,0-3.64,3.64h0v7.1a3.64,3.64,0,0,0,3.64,3.64H475Z"/></g><g class="h"><rect class="i" width="32.79" height="14.41" transform="translate(481.13 674.93)"/></g><g class="h"><path class="i" d="M553.08,674.92h-1.44v14.41h1.45a3.64,3.64,0,0,0,3.64-3.64h0V678.6a3.64,3.64,0,0,0-3.6-3.68Z"/></g><g class="h"><rect class="i" width="31.35" height="14.41" transform="translate(517.71 674.92)"/></g><rect class="j" width="97.93" height="18.29" rx="5.48" transform="translate(452.03 654.84)"/><g class="k"><rect class="l" width="94.05" height="14.41" rx="3.58" transform="translate(453.96 656.78)"/></g><g class="h"><path class="i" d="M466.29,656.78h-8.67a3.64,3.64,0,0,0-3.64,3.64h0v7.1a3.64,3.64,0,0,0,3.64,3.64h8.67Z"/></g><g class="h"><rect class="i" width="32.79" height="14.41" transform="translate(472.4 656.78)"/></g><g class="h"><path class="i" d="M544.36,656.77h-1.45v14.42h1.45a3.64,3.64,0,0,0,3.64-3.64h0v-7.11a3.64,3.64,0,0,0-3.62-3.66Z"/></g><g class="h"><rect class="i" width="31.35" height="14.41" transform="translate(508.98 656.77)"/></g><rect class="j" width="97.95" height="18.29" rx="5.48" transform="matrix(0.997, -0.08, 0.08, 0.997, 461.443, 640.589)"/><g class="k"><rect class="l" width="94.35" height="14.46" rx="3.59" transform="translate(461.114 644.101) rotate(-4.58)"/></g><g class="h"><path class="i" d="M475.75,641.42l-8.64.71a3.62,3.62,0,0,0-3.35,3.9h0l.57,7.08a3.64,3.64,0,0,0,3.89,3.37h0l8.64-.69Z"/></g><g class="h"><rect class="i" width="32.8" height="14.42" transform="matrix(0.997, -0.08, 0.08, 0.997, 481.91, 640.882)"/></g><g class="h"><path class="i" d="M553.57,635.17l-1.44.12,1.15,14.36,1.45-.11a3.65,3.65,0,0,0,3.35-3.91h0l-.56-7.08a3.63,3.63,0,0,0-3.91-3.35Z"/></g><g class="h"><rect class="i" width="31.36" height="14.42" transform="matrix(0.997, -0.08, 0.08, 0.997, 518.363, 637.947)"/></g><circle class="j" cx="46.72" cy="46.72" r="46.72" transform="translate(502.27 688.41)"/><circle class="i" cx="37.02" cy="37.02" r="37.02" transform="translate(510.87 698.16)"/><g class="m"><path class="n" d="M547.88,698.16c-.71,0-1.42,0-2.11.06a37,37,0,0,1,0,73.91c.69,0,1.4.06,2.11.06a37,37,0,1,0,.36-74Z"/></g><circle class="j" cx="24.35" cy="24.35" r="24.35" transform="translate(523.55 710.83)"/><g class="o"><g class="o"><path class="i" d="M551.55,729a4.781,4.781,0,0,1,1,1.46h2.79v2.2h-2.26V733a5.78,5.78,0,0,1-4,5.66l4.41,6.72h-4.62l-4-6.08h-5.24v-3.46h5c2.95,0,4.14-1.41,4.17-3.19H538.53v-2.2h9.6a4.22,4.22,0,0,0-3.72-1.46h-5.88v-2.21h16.8V729Z"/></g></g><path class="i" d="M252.76,741.05s-4.21-13.42-7.77-11.32S252.76,741.05,252.76,741.05Z"/><path class="i" d="M265.51,741.05s4.2-13.42,7.76-11.32S265.51,741.05,265.51,741.05Z"/><path class="i" d="M356.5,709.45s-9.82-10.07-12.05-6.58S356.5,709.45,356.5,709.45Z"/><path class="i" d="M490.13,632.07s-7.28-12-10.24-9.1S490.13,632.07,490.13,632.07Z"/><path class="i" d="M363.91,706.39s4.21-13.42,7.76-11.32S363.91,706.39,363.91,706.39Z"/><path class="i" d="M498.21,632.68s5.46-12.94,8.84-10.5S498.21,632.68,498.21,632.68Z"/><path class="i" d="M259.36,738.55a1.94,1.94,0,0,1-1.87-2h0a2,2,0,0,1,2-1.88h0a2,2,0,0,1,1.87,2h0a1.94,1.94,0,0,1-1.94,1.87h-.08Zm.57-7.77a1.93,1.93,0,0,1-1.57-2.26h0a1.93,1.93,0,0,1,2.26-1.58h0a2,2,0,0,1,1.58,2.26h0a2,2,0,0,1-1.91,1.61h0a2,2,0,0,1-.36-.03Zm1.64-7.62a2,2,0,0,1-1.25-2.46h0a2,2,0,0,1,2.47-1.25h0a2,2,0,0,1,1.24,2.47h0a1.93,1.93,0,0,1-1.85,1.33h0a1.882,1.882,0,0,1-.61-.09Zm2.7-7.32a2,2,0,0,1-.88-2.62h0a1.94,1.94,0,0,1,2.61-.87h0a1.94,1.94,0,0,1,.88,2.61h0a2,2,0,0,1-1.75,1.08h0a2,2,0,0,1-.86-.2ZM268,709a2,2,0,0,1-.51-2.71h0a1.94,1.94,0,0,1,2.71-.5h0a2,2,0,0,1,.51,2.71h0a2,2,0,0,1-1.61.85h0A1.89,1.89,0,0,1,268,709Zm4.62-6.27a2,2,0,0,1-.13-2.76h0a2,2,0,0,1,2.76-.13h0a2,2,0,0,1,.13,2.76h0a2,2,0,0,1-1.45.63h0a2,2,0,0,1-1.34-.53ZM350,697.85a2,2,0,0,1-.21-2.75h0a2,2,0,0,1,2.75-.21h0a2,2,0,0,1,.21,2.75h0a1.93,1.93,0,0,1-1.48.68h0a2,2,0,0,1-1.27-.47Zm-72-.73a2,2,0,0,1,.25-2.75h0a2,2,0,0,1,2.75.26h0a2,2,0,0,1-.25,2.74h0a1.94,1.94,0,0,1-1.25.45h0a2,2,0,0,1-1.5-.7Zm66-3.73a2,2,0,0,1-.6-2.69h0a2,2,0,0,1,2.69-.61h0a2,2,0,0,1,.6,2.7h0a2,2,0,0,1-1.65.9h0A2,2,0,0,1,344,693.39Zm-59.77-1a1.92,1.92,0,0,1,.63-2.68h0a2,2,0,0,1,2.68.63h0a2,2,0,0,1-.63,2.69h0a2,2,0,0,1-1,.29h0a1.92,1.92,0,0,1-1.7-.97Zm53.16-2.54a2,2,0,0,1-1-2.58h0a2,2,0,0,1,2.58-1h0a2,2,0,0,1,1,2.59h0a2,2,0,0,1-1.78,1.15h0a1.9,1.9,0,0,1-.82-.2ZM291,688.49a1.94,1.94,0,0,1,1-2.57h0a2,2,0,0,1,2.56,1h0a2,2,0,0,1-1,2.57h0a1.821,1.821,0,0,1-.78.16h0a1.92,1.92,0,0,1-1.78-1.16Zm39.35-1.31a2,2,0,0,1-1.32-2.42h0a2,2,0,0,1,2.42-1.32h0a1.94,1.94,0,0,1,1.32,2.42h0a1.94,1.94,0,0,1-1.87,1.4h0a1.789,1.789,0,0,1-.58-.08Zm-32.11-1.57a2,2,0,0,1,1.35-2.4h0a2,2,0,0,1,2.4,1.35h0a1.94,1.94,0,0,1-1.36,2.4h0a1.856,1.856,0,0,1-.52.07h0a2,2,0,0,1-1.9-1.42Zm24.77-.05a1.94,1.94,0,0,1-1.64-2.21h0a1.94,1.94,0,0,1,2.21-1.64h0a2,2,0,0,1,1.65,2.21h0a2,2,0,0,1-1.93,1.67h0a1.361,1.361,0,0,1-.3-.03Zm-17.19-1.78a2,2,0,0,1,1.67-2.2h0a2,2,0,0,1,2.19,1.68h0a2,2,0,0,1-1.68,2.19h-.25a1.93,1.93,0,0,1-1.96-1.67Zm9.69,1.2a1.94,1.94,0,0,1-1.93-2h0a1.93,1.93,0,0,1,2-1.94h0a2,2,0,0,1,1.94,2h0A2,2,0,0,1,315.5,685h0Z"/><path class="i" d="M494.35,630.69a2,2,0,0,1-1.59-2.25h0a2,2,0,0,1,2.26-1.59h0a2,2,0,0,1,1.58,2.26h0a1.94,1.94,0,0,1-1.92,1.61h0Zm1.75-7.59a1.94,1.94,0,0,1-1.14-2.51h0a1.94,1.94,0,0,1,2.51-1.14h0a2,2,0,0,1,1.14,2.51h0a1.92,1.92,0,0,1-1.82,1.26h0A2,2,0,0,1,496.1,623.1Zm3-7.2a1.94,1.94,0,0,1-.81-2.64h0a2,2,0,0,1,2.63-.81h0a2,2,0,0,1,.81,2.64h0a1.94,1.94,0,0,1-1.73,1h0a1.83,1.83,0,0,1-.9-.19Zm3.84-6.78a2,2,0,0,1-.52-2.71h0a2,2,0,0,1,2.71-.52h0a2,2,0,0,1,.52,2.71h0a1.93,1.93,0,0,1-1.61.86h0a2,2,0,0,1-1.1-.34Zm4.54-6.35a1.93,1.93,0,0,1-.24-2.74h0a2,2,0,0,1,2.75-.25h0a2,2,0,0,1,.25,2.75h0a2,2,0,0,1-1.5.7h0a1.92,1.92,0,0,1-1.26-.46Z"/><path class="i" d="M354.36,701.48a2,2,0,0,1,1.21-2.49h0a2,2,0,0,1,2.48,1.21h0a2,2,0,0,1-1.2,2.48h0a1.839,1.839,0,0,1-.65.1h0A1.94,1.94,0,0,1,354.36,701.48Zm-2.25-7.66h0a1.94,1.94,0,0,1,1.43-2.35h0a1.94,1.94,0,0,1,2.35,1.43h0a2,2,0,0,1-1.43,2.35h0a1.878,1.878,0,0,1-.46.06h0A2,2,0,0,1,352.11,693.82ZM350.63,686h0a1.94,1.94,0,0,1,1.66-2.2h0a1.94,1.94,0,0,1,2.2,1.66h0a2,2,0,0,1-1.67,2.2h0a1.182,1.182,0,0,1-.27,0h0a1.94,1.94,0,0,1-1.92-1.66Zm-.71-8a2,2,0,0,1,1.87-2h0a2,2,0,0,1,2,1.87h0a2,2,0,0,1-1.88,2h-.07a2,2,0,0,1-1.92-1.87Zm1.91-5.93A2,2,0,0,1,350,670h0a2,2,0,0,1,2.06-1.83h0a1.94,1.94,0,0,1,1.83,2.07h0a1.94,1.94,0,0,1-1.95,1.83h-.11Zm.66-7.77a2,2,0,0,1-1.61-2.23h0a2,2,0,0,1,2.23-1.62h0a2,2,0,0,1,1.62,2.23h0a2,2,0,0,1-1.93,1.65h0Zm1.43-7.66a2,2,0,0,1-1.39-2.39h0a2,2,0,0,1,2.39-1.38h0a1.93,1.93,0,0,1,1.38,2.37h0a2,2,0,0,1-1.88,1.46h0a2.138,2.138,0,0,1-.5-.05Zm2.18-7.5a1.93,1.93,0,0,1-1.15-2.5h0a1.93,1.93,0,0,1,2.5-1.14h0a1.94,1.94,0,0,1,1.15,2.5h0a2,2,0,0,1-1.83,1.27h0a1.742,1.742,0,0,1-.67-.12Zm2.88-7.23a2,2,0,0,1-.88-2.61h0a1.94,1.94,0,0,1,2.6-.9h0a2,2,0,0,1,.89,2.61h0a2,2,0,0,1-1.75,1.09h0a1.919,1.919,0,0,1-.84-.18Zm3.6-6.92a1.94,1.94,0,0,1-.64-2.68h0a1.94,1.94,0,0,1,2.68-.65h0a2,2,0,0,1,.64,2.69h0a2,2,0,0,1-1.67.92h0a1.93,1.93,0,0,1-1.01-.27Zm4.24-6.54a2,2,0,0,1-.37-2.73h0a2,2,0,0,1,2.74-.37h0a2,2,0,0,1,.37,2.73h0a2,2,0,0,1-1.56.77h0a2,2,0,0,1-1.18-.39Zm122.3-4.39a2,2,0,0,1,.2-2.75h0a2,2,0,0,1,2.75.19h0a2,2,0,0,1-.19,2.75h0a1.91,1.91,0,0,1-1.28.48h0a1.94,1.94,0,0,1-1.48-.66Zm-117.43-1.69a2,2,0,0,1-.1-2.76h0a1.94,1.94,0,0,1,2.75-.1h0a1.94,1.94,0,0,1,.1,2.75h0a1.92,1.92,0,0,1-1.42.61h0a1.92,1.92,0,0,1-1.33-.49Zm112.17-3.78h0a2,2,0,0,1-.08-2.76h0a2,2,0,0,1,2.76-.07h0a1.92,1.92,0,0,1,.09,2.74h0a1.93,1.93,0,0,1-1.41.62h0a1.94,1.94,0,0,1-1.36-.52Zm-106.73-1.8a2,2,0,0,1,.17-2.76h0a1.94,1.94,0,0,1,2.75.17h0a2,2,0,0,1-.18,2.75h0a1.92,1.92,0,0,1-1.29.48h0a1.93,1.93,0,0,1-1.45-.63Zm100.94-3.12a2,2,0,0,1-.36-2.74h0a2,2,0,0,1,2.74-.35h0a1.94,1.94,0,0,1,.35,2.73h0a1.93,1.93,0,0,1-1.54.76h0a1.94,1.94,0,0,1-1.19-.39Zm-95-1.89a1.94,1.94,0,0,1,.44-2.72h0a2,2,0,0,1,2.73.44h0a2,2,0,0,1-.45,2.72h0a1.919,1.919,0,0,1-1.14.37h0a1.93,1.93,0,0,1-1.55-.8Zm88.72-2.44a2,2,0,0,1-.62-2.69h0a2,2,0,0,1,2.69-.62h0a1.94,1.94,0,0,1,.62,2.69h0a2,2,0,0,1-1.65.91h0a2,2,0,0,1-1.01-.28Zm-82.29-2a2,2,0,0,1,.71-2.67h0a2,2,0,0,1,2.66.71h0a1.93,1.93,0,0,1-.7,2.66h0a1.86,1.86,0,0,1-1,.27h0a1.94,1.94,0,0,1-1.64-.92Zm75.65-1.74h0a1.94,1.94,0,0,1-.88-2.6h0a1.94,1.94,0,0,1,2.61-.89h0a2,2,0,0,1,.89,2.61h0a2,2,0,0,1-1.76,1.08h0a1.93,1.93,0,0,1-.83-.15Zm-68.81-2a2,2,0,0,1,1-2.58h0a2,2,0,0,1,2.58,1h0a1.93,1.93,0,0,1-1,2.57h0a2,2,0,0,1-.81.18h0a2,2,0,0,1-1.74-1.12Zm61.84-1h0a2,2,0,0,1-1.14-2.52h0a2,2,0,0,1,2.52-1.13h0a2,2,0,0,1,1.13,2.51h0a1.94,1.94,0,0,1-1.82,1.26h0a2.088,2.088,0,0,1-.66-.09Zm-54.66-2a1.94,1.94,0,0,1,1.22-2.48h0a1.93,1.93,0,0,1,2.46,1.22h0a2,2,0,0,1-1.21,2.48h0a1.89,1.89,0,0,1-.63.09h0a1.93,1.93,0,0,1-1.81-1.31Zm47.42-.3a1.94,1.94,0,0,1-1.37-2.39h0a1.94,1.94,0,0,1,2.39-1.38h0a2,2,0,0,1,1.37,2.39h0a1.94,1.94,0,0,1-1.88,1.44h0a2.291,2.291,0,0,1-.45-.06Zm-40-2a2,2,0,0,1,1.45-2.35h0a2,2,0,0,1,2.34,1.45h0a2,2,0,0,1-1.44,2.35h0a2.485,2.485,0,0,1-.45,0h0a1.94,1.94,0,0,1-1.84-1.49Zm32.55.43a1.94,1.94,0,0,1-1.6-2.23h0a1.94,1.94,0,0,1,2.24-1.61h0a2,2,0,0,1,1.61,2.24h0a2,2,0,0,1-1.93,1.63h0Zm-24.92-2a1.94,1.94,0,0,1,1.68-2.19h0a2,2,0,0,1,2.19,1.67h0a2,2,0,0,1-1.68,2.2h-.26a1.94,1.94,0,0,1-1.88-1.75ZM436,597.82a2,2,0,0,1-1.82-2.07h0a1.94,1.94,0,0,1,2.07-1.82h0a2,2,0,0,1,1.82,2.08h0a2,2,0,0,1-1.94,1.82H436Zm-9.62-2a2,2,0,0,1,1.88-2h0a2,2,0,0,1,2,1.9h0a1.94,1.94,0,0,1-1.88,2h-.07a2,2,0,0,1-1.94-1.9Z"/><path class="p" d="M520.86,589.28l-7.42-30.7,72.49-48.5Z"/><path class="q" d="M585.93,510.08l-72.49,48.5L491,547.08Z"/><g class="m"><path class="n" d="M520.86,589.28,525.71,563l60.23-52.94Z"/></g><path class="q" d="M525.71,563l38.76,14.54,21.46-67.48Z"/><path class="r" d="M82.74,378.67a80.13,80.13,0,1,0,80.14,80.13A80.128,80.128,0,0,0,82.74,378.67Z"/><path class="s" d="M78.17,373.55a78.17,78.17,0,1,1-55.28,22.9,78.17,78.17,0,0,1,55.28-22.9Z"/><circle class="b" cx="59.75" cy="59.75" r="59.75" transform="translate(18.42 391.96)"/><path class="c" d="M78.18,395.79h0a1.31,1.31,0,0,1,1.3,1.31v3.15a1.3,1.3,0,0,1-1.3,1.3h0a1.3,1.3,0,0,1-1.3-1.3V397.1a1.31,1.31,0,0,1,1.3-1.31Z"/><path class="c" d="M78.18,501.86h0a1.3,1.3,0,0,1,1.3,1.3v3.16a1.3,1.3,0,0,1-1.3,1.3h0a1.3,1.3,0,0,1-1.3-1.3v-3.16A1.3,1.3,0,0,1,78.18,501.86Z"/><path class="s" d="M106.11,403.28h0a1.29,1.29,0,0,1,.47,1.77L105,407.82a1.31,1.31,0,0,1-1.78.48h0a1.3,1.3,0,0,1-.47-1.77l1.58-2.79a1.31,1.31,0,0,1,1.78-.46Z"/><path class="s" d="M53.08,495.12h0a1.3,1.3,0,0,1,.47,1.78L52,499.63a1.3,1.3,0,0,1-1.77.48h0a1.31,1.31,0,0,1-.48-1.78l1.59-2.74a1.29,1.29,0,0,1,1.74-.47Z"/><path class="s" d="M126.6,423.75h0a1.32,1.32,0,0,1-.48,1.78l-2.74,1.58a1.31,1.31,0,0,1-1.77-.47h0a1.31,1.31,0,0,1,.48-1.77l2.74-1.59a1.29,1.29,0,0,1,1.77.47Z"/><path class="s" d="M34.74,476.78h0a1.29,1.29,0,0,1-.47,1.77l-2.74,1.58a1.29,1.29,0,0,1-1.77-.47h0a1.3,1.3,0,0,1,.48-1.77L33,476.31a1.29,1.29,0,0,1,1.77.47Z"/><rect class="c" width="5.76" height="2.59" rx="1.295" transform="translate(128.33 450.41)"/><rect class="c" width="5.76" height="2.59" rx="1.295" transform="translate(22.26 450.41)"/><path class="s" d="M126.6,479.66h0a1.31,1.31,0,0,1-1.77.47l-2.75-1.58a1.31,1.31,0,0,1-.48-1.77h0a1.29,1.29,0,0,1,1.77-.47l2.74,1.58a1.3,1.3,0,0,1,.49,1.77Z"/><path class="s" d="M34.74,426.63h0a1.31,1.31,0,0,1-1.77.47l-2.74-1.58a1.3,1.3,0,0,1-.48-1.77h0a1.28,1.28,0,0,1,1.76-.48h0l2.79,1.59a1.29,1.29,0,0,1,.43,1.77Z"/><path class="s" d="M106.11,500.13h0a1.31,1.31,0,0,1-1.78-.48l-1.58-2.74a1.3,1.3,0,0,1,.48-1.77h0a1.29,1.29,0,0,1,1.77.47l1.58,2.74a1.3,1.3,0,0,1-.47,1.78Z"/><path class="s" d="M53.08,408.27h0a1.31,1.31,0,0,1-1.78-.48l-1.58-2.74a1.29,1.29,0,0,1,.48-1.77h0a1.28,1.28,0,0,1,1.76.46h0l1.58,2.74a1.29,1.29,0,0,1-.47,1.77Z"/><path class="s" d="M80,451.71a1.84,1.84,0,0,1-3.68,0V408.59a1.84,1.84,0,0,1,3.68,0Z"/><path class="r" d="M79.52,450.45A1.85,1.85,0,0,1,76.84,453L55.55,430.12a1.84,1.84,0,1,1,2.66-2.53h0Z"/><path class="t" d="M479.87,290.19a63.61,63.61,0,1,1-45,18.64,63.607,63.607,0,0,1,45-18.64Z"/><path class="u" d="M501.39,331.94l-30.69,30.7-12.37-12.37a6.131,6.131,0,1,0-8.67,8.67l16.39,16.39.17.15a1.218,1.218,0,0,0,.15.17,6.13,6.13,0,0,0,8.67,0l35-35a6.14,6.14,0,0,0-8.68-8.68Z"/><path class="v" d="M351.11,862.3c-39.91-12.24-66.34-26.13-88.17-48.25-23.19-23.5-31.41-46.36-37.73-78.36-8.8-44.61-18.38-115.78-65.75-132.76-44.05-15.79-83.21,20-105.63,56.62C25,706.69,16.33,753.85,16.35,809.19c0,44.79,11.39,127,150.22,126.81l165-.19C422.7,935.71,408.44,879.9,351.11,862.3Z"/><path class="e" d="M338.83,859.31c-8.2-17.1-42.88-11.92-80.36-51.89-21.71-23.14-30.74-43.15-36.92-73.29-5.23-25.5-24.79-110.67-59.41-114-13.95-1.34-28.2.46-40.47,7.35-17,9.55-30.23,25.16-39.58,42.51S67,706.48,62.37,725.7c-6.44,26.67-10.95,45.55-7.64,72.82,5.63,46.3,34.19,87.12,78.57,97.89,44.73,10.87,85.13,7,138,6.48C291.56,902.68,355.75,894.64,338.83,859.31Z"/><path class="f" d="M108.1,636.72a130.912,130.912,0,0,0-22.69,26.77A190.922,190.922,0,0,0,67.83,698a224.723,224.723,0,0,0-11.41,39.31A214,214,0,0,0,52.37,778a169.779,169.779,0,0,0,4.33,39.11,122.1,122.1,0,0,0,13.81,34.78,95,95,0,0,0,24.13,27c12.76,9.63,28,15.48,43.38,19.47,19.41,5.05,39.53,7,59.53,7.46s40.08-.42,60-1.8c4.58-.32,9.16-.64,13.75-.91.31,0,.31-.5,0-.48-19.32,1.13-38.69,2.22-58,2.36-20.14.15-40.4-.71-60.26-4.3-17.23-3.11-34.81-8.13-49.92-17.2a91.94,91.94,0,0,1-27-24.88,113.081,113.081,0,0,1-16.19-33.17,156.751,156.751,0,0,1-6.46-38.26,205.807,205.807,0,0,1,2.11-40.45,227,227,0,0,1,9.56-39.4,201.817,201.817,0,0,1,16-35.76,145.743,145.743,0,0,1,21.37-28.9c1.91-2,3.89-3.86,5.93-5.68.21-.18-.09-.48-.3-.3Z"/><path class="w" d="M355.75,868.17l56.3,42.7,10.59,16.53,60.35-42a3.35,3.35,0,0,0,.85-4.58h0a3.22,3.22,0,0,0-3.42-1.35l-34.23,5.75L390.37,838.3"/><path class="x" d="M487.86,881c-1.93-1.55-4.54-3-6-2.7l-35.76,6.92c-11.08,16.83-34,25.63-34,25.63l10.56,23.69a1.49,1.49,0,0,0,2.1.4l67.43-46.47C493.49,887.55,487.92,881.07,487.86,881Z"/><path class="y" d="M453.06,891.77a41.129,41.129,0,0,1-.53-9.46h.73a40.148,40.148,0,0,0,.52,9.29Z"/><path class="y" d="M458,890a36.169,36.169,0,0,1-.56-8h.73a35.548,35.548,0,0,0,.56,7.83Z"/><path class="y" d="M461.85,888.9a49.726,49.726,0,0,1-.45-7.34h.73a51.722,51.722,0,0,0,.44,7.23Z"/><rect class="y" width="83.9" height="0.73" transform="translate(420.573 930.693) rotate(-34.87)"/><path class="y" d="M416,919.58l-.41-.61a41.889,41.889,0,0,1,9.32-4.35c6.84-2.12,12.24-1.23,15.61,2.57l-.54.48C432.28,909,416.16,919.47,416,919.58Z"/><path class="y" d="M475.09,893c-1.1-3.61-.95-12.89-.94-13.28h.73c0,.1-.16,9.55.91,13.06Z"/><path class="w" d="M274.41,848.49l24.11,59.69-.28,19.74,73.09-.46a3.26,3.26,0,0,0,3.21-3.31h0a3.28,3.28,0,0,0-2.09-3.07l-31.54-14.75-21.43-62.87"/><path class="x" d="M377.75,926.65c-.75-2.38-2.13-5.06-3.51-5.67l-33.45-14.64c-18.41,7.63-42.27,1.84-42.27,1.84l-4.23,25.67a1.53,1.53,0,0,0,1.52,1.53l81.38-.09C378.83,935.27,377.77,926.73,377.75,926.65Z"/><path class="y" d="M343.66,916l-.67-.29a40.661,40.661,0,0,1,4.75-8.15l.58.44a39.91,39.91,0,0,0-4.66,8Z"/><path class="y" d="M348.71,917.38l-.67-.31a36.234,36.234,0,0,1,3.9-6.92l.6.42a34.672,34.672,0,0,0-3.83,6.81Z"/><path class="y" d="M352.5,918.69l-.65-.33a52.128,52.128,0,0,1,3.66-6.35l.59.43a51.565,51.565,0,0,0-3.6,6.25Z"/><rect class="y" width="83.37" height="0.73" transform="translate(294.677 929.498) rotate(-0.37)"/><path class="y" d="M317.94,929.75c-1.63-11.59-20.73-12.1-20.92-12.1v-.73c.2,0,19.92.53,21.64,12.73Z"/><path class="y" d="M361.28,929.52l-.7-.2c1.07-3.63,6.28-11.23,6.5-11.55l.6.42C367.63,918.26,362.31,926,361.28,929.52Z"/><path class="z" d="M169.85,598.08s16,25.61,9.17,36.66c-3.53,5.74-16.8,9.63-23.55,6.27-5-2.49-16-22.47-14.41-26.77C147.13,597.81,169.85,598.08,169.85,598.08Z"/><path class="z" d="M139.83,634.09,138.34,654s12.43,31.55,34.82,3.09l-1-21.91Z"/><path class="aa" d="M133,628.16c-2.31-5.71-4.24-8.68-5.21-15.66-1-7.28,4.81-9.42,4.81-9.42s-1,.83,2.14-5.5c3-6,12.91-5.71,18.9-6.7,7.86-1.29,19.48-8.43,24.13-5.27,2,1.38,2,13.76-4.37,17.4-3.65,2.09-9.66.92-13.89,1.6-7.88,1.28-9.72,3-10.68,8.11-.53,2.85-5.72,2.34-2.78,8.18a9.25,9.25,0,0,1,.72,2.39l-3.13,2.29c-4,2.76,4.71,9.87,4.07,13.29-.34,1.79-3.87,2.56-7,1.1S135.5,634.37,133,628.16Z"/><path class="z" d="M145.64,625.9c-3.56-3.72-6-2.81-7.19-.43-1.54,3.17,2.8,8.94,4.63,9.81,3.72,1.76,6.53,1.24,6.5-1.69"/><path class="ab" d="M163.71,642.35c-6.25,0-9.5-1.8-9.68-1.91l.36-.63c.06,0,6.25,3.44,18,.77l.16.72A39.692,39.692,0,0,1,163.71,642.35Z"/><path class="ab" d="M169.4,625.34l-.17-.72c1.2-.27,4.34-1.31,4.41-2.77s-3.3-5.63-5.58-8.13l.54-.5c.6.66,5.86,6.51,5.77,8.66S169.89,625.22,169.4,625.34Z"/><path class="b" d="M176.25,625.77l-12.34,4s3.54,6.23,10.17,3.55C178.8,631.43,176.25,625.77,176.25,625.77Z"/><path class="ac" d="M172.09,610.76c.23.57.46,1.14.73,1.7a.39.39,0,0,0,.67-.39c-.24-.53-.51-1.06-.79-1.57a.32.32,0,0,0-.41-.14A.34.34,0,0,0,172.09,610.76Z"/><path class="ac" d="M168.53,608.24a.2.2,0,0,1-.11,0,.24.24,0,0,1-.11-.32,3.93,3.93,0,0,1,2.11-1.85,3.63,3.63,0,0,1,2.87.33.25.25,0,0,1-.22.44,3.19,3.19,0,0,0-2.5-.31,3.44,3.44,0,0,0-1.82,1.6A.25.25,0,0,1,168.53,608.24Z"/><path class="ac" d="M158.28,616.73c.18.55.38,1.11.6,1.64a.38.38,0,0,0,.18.23.39.39,0,0,0,.3,0,.38.38,0,0,0,.26-.47c-.21-.58-.47-1.14-.73-1.7a.334.334,0,0,0-.61.26Z"/><path class="ac" d="M153.2,615.19h-.12a.24.24,0,0,1-.08-.34c2.63-4.38,6-3.9,6.1-3.87a.243.243,0,0,1-.08.48c-.13,0-3.15-.44-5.61,3.64a.22.22,0,0,1-.21.09Z"/><path class="z" d="M230.85,697.12s19.12,37.52,24.67,38.24c6.69.87,59.45-39,59.45-39l21.35,26.32S287,783.92,253.71,784s-64.23-61.12-64.23-61.12"/><path class="x" d="M138.34,654s4.85,8.89,19.09,8.21c10.85-.51,15.73-5.12,15.73-5.12s32.5,8.59,38.89,52.2c5.95,40.63,13.44,110,13.44,110L102.1,827.87a730.771,730.771,0,0,1,1.44-98.7C106.9,689.48,138.34,654,138.34,654Z"/><path class="ad" d="M135.59,791.14,202,792l-.05,4.14-70.12-.92h0A3.94,3.94,0,0,1,135.59,791.14Z"/><path class="ad" d="M282.84,797.22,189.56,796l18.65-63.6A7.14,7.14,0,0,1,215,727l84.33,1.11a3.05,3.05,0,0,1,2.6,4Z"/><path class="ae" d="M287,797.28l-93.28-1.23,18.65-63.61a7.14,7.14,0,0,1,6.78-5.41l84.33,1.11a3,3,0,0,1,2.6,4Z"/><path class="ad" d="M259.94,759.3c-.59,3-3.86,5.35-7.31,5.3s-5.78-2.49-5.19-5.46,3.85-5.35,7.3-5.3S260.52,756.33,259.94,759.3Z"/><path class="x" d="M173.16,657c12.27-.86,28.07,2.26,36.77,8,23.08,15.25,32.79,48,32.79,48L211,721.29"/><path class="z" d="M127.41,728.26s-9.3,33.43-7.14,40.7c1.64,5.49,48.78,12.33,48.78,12.33l2.49,31.91s-83.3,5.64-95.36-9.7c-16.52-21,2.18-84.87,2.18-84.87"/><path class="z" d="M159.22,780.87c6.93.17,43.53,2,43.38,3.9s-10.62,3.1-10.16,4.06c.65,1.36,8.65,2.07,13.17,2,4,0,10.51.62,10.75,2.41.44,3.4-21.68,3.23-21.68,3.23s23.82-4.35,24.49-1.55c1,4-24.42,7.69-25.18,8.72,0,0,21.14-9.39,21.85-6.4s-18,11.86-24.07,12.37c4.93-1.38,19.11-11.36,19.64-8.59s-12.14,8.78-14.23,9.27A120.57,120.57,0,0,1,163.56,813"/><path class="ab" d="M214.13,795c-2.83.53-5.68.84-8.53,1.14-1.43.12-2.86.25-4.29.32s-2.87.12-4.31.08c2.86-.33,5.7-.59,8.55-.88S211.26,795.09,214.13,795Z"/><path class="ab" d="M212.14,799.13c-1.47.53-3,1-4.46,1.4s-3,.79-4.54,1.15-3.06.64-4.6.86a29.309,29.309,0,0,1-4.67.37c1.55-.18,3.08-.45,4.6-.74s3.05-.61,4.56-1C206.08,800.56,209.09,799.79,212.14,799.13Z"/><path class="ab" d="M208.74,803.34a81.6,81.6,0,0,1-7.88,2.74c-1.34.36-2.68.74-4,1a35.813,35.813,0,0,1-4.12.71c1.35-.34,2.69-.7,4-1.07s2.67-.75,4-1.15C203.4,804.86,206,804,208.74,803.34Z"/><path class="x" d="M138.34,654s-25,1.74-34.45,9c-25.41,19.55-31.2,57.75-31.2,57.75l55.79,14.76,10-31.41"/><path class="y" d="M126.59,735.73l-.72-.14a169.19,169.19,0,0,1,7.62-26.4l.68.27a169,169,0,0,0-7.58,26.27Z"/><path class="y" d="M213.48,720.38c-4-21.51-9.16-35-9.21-35.09L205,685c.05.13,5.21,13.64,9.25,35.22Z"/><rect class="y" width="0.73" height="55.69" transform="translate(74.552 712.2) rotate(-73.3)"/><rect class="y" width="28.59" height="0.73" transform="translate(212.231 712.571) rotate(-15.41)"/><path class="y" d="M156.5,666.91c-8.66,0-14.47-3-17.92-5.65a21.45,21.45,0,0,1-5.89-6.61l.66-.33c.06.13,6.83,13.09,25.84,11.76s20-9.12,20-9.2l.73.07c0,.35-1.07,8.5-20.64,9.86C158.3,666.88,157.38,666.91,156.5,666.91Z"/><path class="z" d="M300.87,707.41s36.79-29.21,38.64-28.62-3.22,6.12-1.61,6.32,13.26-12,15-10.93c2.3,1.48-9.69,13.14-9.69,13.14s13.94-12,15.57-10.1c1.15,1.33-12.52,14.69-12.52,14.69s13.82-10.32,15-8.92-11.05,13.27-11.05,13.27,9.59-8.61,11.14-7.17-18.83,28.07-36.53,46.11"/><path class="ab" d="M329.58,699l-.61-.4a82.665,82.665,0,0,0,6-12l.68.27A83.5,83.5,0,0,1,329.58,699Z"/><path class="ab" d="M334.05,702.21l-.53-.5c3.36-3.51,7.91-5,14.32-4.7v.73C341.62,697.45,337.25,698.87,334.05,702.21Z"/><path class="af" d="M156.05,876.32s-3.31,20.37,17,19c49.33-3.44,127.91-63.46,127.91-63.46l95.65,75.33,39.27-42.81s-64.76-55-83.8-69.86c-7.94-6.2-24.37-20.22-42.78-18.94S186.83,818.3,186.83,818.3"/><path class="ag" d="M401.51,901.82,304,824.3a6.73,6.73,0,0,0-7.78-.44c-2.55,1.58-6.11,4-10.62,7-25,16.67-77,51.36-113.22,53.88l-.05-.73c36-2.51,87.92-37.12,112.86-53.76,4.52-3,8.08-5.39,10.65-7a7.44,7.44,0,0,1,8.61.5L402,901.25Z"/><path class="ah" d="M106.38,827.58s-8.2,74.5,52.6,70.27c42.86-3,96.64-65.25,96.64-65.25l33.18,76.33,56.27-17.08S317.31,821,307.79,796.92c-8.1-20.48-22.7-36.56-37.25-38.48s-29.89,4.88-48,15.64c-14.64,8.67-60.18,49.6-60.18,49.6"/><path class="ai" d="M297.53,906.32l-37.71-87.27a3.42,3.42,0,0,0-2.4-2,3.37,3.37,0,0,0-3,.77c-2.41,2.12-5.74,5.27-10,9.26-21,19.84-60.14,56.78-82,58.3-10.44.73-19.06-2.2-25.64-8.7-16.46-16.26-14.73-49.9-14.71-50.23h.73c0,.33-1.73,33.64,14.5,49.67,6.42,6.35,14.85,9.2,25.07,8.49C184,883.14,223,846.32,244,826.54c4.23-4,7.57-7.15,10-9.28a4.06,4.06,0,0,1,3.61-.93,4.12,4.12,0,0,1,2.91,2.43L298.2,906Z"/><path class="ai" d="M123.06,842.2l-.09-.72c.17,0,17-2.32,18.25-16.39l.73.07c-.55,6.07-4,10.94-10,14.1a28.79,28.79,0,0,1-8.89,2.94Z"/><rect class="ai" width="59.21" height="0.73" transform="translate(284.033 897.996) rotate(-17.11)"/><rect class="ag" width="58.51" height="0.73" transform="translate(387.159 899.727) rotate(-47.69)"/><path class="z" d="M728.48,804.59l13.28,62.93-2.13,20.64-78.24-.42a3.57,3.57,0,0,1-3.56-3.59h0a3.59,3.59,0,0,1,2.31-3.33L695,864.77l-16.47-65.58"/><path class="aj" d="M654.29,886.87c.83-2.59,2.34-5.5,3.87-6.16l37-15.94c20.4,8.27,46.81,2,46.81,2l2,27.86a1.67,1.67,0,0,1-1.68,1.66l-87.41-.46C653.1,895.77,654.26,887,654.29,886.87Z"/><path class="ak" d="M692.05,875.28a43.109,43.109,0,0,0-5.18-8.69l.58-.45a44.1,44.1,0,0,1,5.26,8.84Z"/><path class="ak" d="M686.46,876.76a37.91,37.91,0,0,0-4.25-7.39l.59-.43a38.186,38.186,0,0,1,4.32,7.51Z"/><path class="ak" d="M682.26,878.19a53.653,53.653,0,0,0-4-6.79l.59-.43a56.115,56.115,0,0,1,4,6.88Z"/><rect class="ak" width="0.73" height="89.62" transform="matrix(0.005, -1, 1, 0.005, 653.881, 890.096)"/><path class="ak" d="M720.46,890.16l-.72-.11c1.88-13.22,22.76-13.52,23-13.52v.73C742.51,877.26,722.26,877.56,720.46,890.16Z"/><path class="ak" d="M672.56,890c-1.15-3.81-7-12.22-7.11-12.31l.6-.42c.24.35,6,8.59,7.21,12.52Z"/><path class="al" d="M700.44,576.07S650.37,688,653,727.69c2.46,36.92,30.46,130.44,30.46,130.44l60-11s-28.7-115.5-27.21-127.45,38.15-94.17,38.15-94.17,14.18-19.37,9.32-52.68"/><path class="am" d="M733.1,849.05c-1.14-4.76-28-116.79-26.51-128.67s34.79-89.46,36.21-92.75l.67.29c-.34.8-34.69,80.79-36.15,92.55s26.21,127.24,26.49,128.41Z"/><rect class="am" width="61.42" height="0.73" transform="matrix(0.98, -0.198, 0.198, 0.98, 680.477, 847.918)"/><path class="z" d="M815.26,775.19l28,58.57,6.82,19.6-71,32.81a3.58,3.58,0,0,1-4.75-1.75h0a3.56,3.56,0,0,1,.69-4l24.8-29.34-32-59.62"/><path class="aj" d="M772.25,888.39c-.35-2.7-.21-6,.9-7.23L799.91,851c22-1.16,43.21-18.08,43.21-18.08l13.65,24.37a1.68,1.68,0,0,1-.82,2.22L776.59,896.2C775,897,772.26,888.47,772.25,888.39Z"/><path class="ak" d="M801.53,861.87a43.1,43.1,0,0,0-8.37-5.67l.34-.65a44.118,44.118,0,0,1,8.51,5.77Z"/><path class="ak" d="M797.1,865.58a38.136,38.136,0,0,0-7-4.89l.36-.64a39.492,39.492,0,0,1,7.1,5Z"/><path class="ak" d="M793.91,868.66a55.9,55.9,0,0,0-6.5-4.45l.35-.65a56.138,56.138,0,0,1,6.59,4.52Z"/><rect class="ak" width="89.62" height="0.73" transform="translate(773.017 890.766) rotate(-24.8)"/><path class="ak" d="M832.87,863.51c-3.89-12.77,14.89-21.9,15.08-22l.31.66c-.18.09-18.4,8.94-14.69,21.12Z"/><path class="ak" d="M790.11,883.44c-2.66-3-11.57-8.08-11.66-8.13l.37-.64c.37.21,9.1,5.22,11.83,8.28Z"/><path class="al" d="M740,579.47S720.94,685.19,729.94,723.9c10.08,43.3,53.5,116.67,53.5,116.67l54.11-26.87s-46.69-89.2-46.62-108.44c.05-12,10.69-86.24,10.69-86.24s10.69-21.51.24-53.51"/><path class="am" d="M824.76,820.06c-.11-.22-11.8-22.09-23.32-46.71-15.5-33.09-23.34-55.11-23.33-65.46,0-11.91,7.35-67.92,10.69-86.3.5-2.71,1.07-5.53,1.63-8.27,3.27-16.07,6.65-32.7-1.34-45l.62-.39c8.15,12.52,4.73,29.3,1.43,45.52-.58,2.86-1.13,5.55-1.62,8.25-3.34,18.36-10.67,74.29-10.68,86.17,0,24.44,46.1,111,46.57,111.83Z"/><path class="am" d="M728,688l-.73-.07c.61-6.36,1.24-13.19,1.91-20.35,2.47-26.65,5.27-56.86,8.82-84.78l.73.09c-3.56,27.91-6.36,58.11-8.82,84.76C729.24,674.82,728.61,681.65,728,688Z"/><path class="am" d="M793.57,597.61C773.76,592.34,770,583.38,769.8,583l.68-.27c0,.09,3.87,9,23.28,14.18Z"/><path class="am" d="M735.49,612.56c-1.08-.2-6.5-1.28-7.34-2.67-1.79-3,1.06-24,1.19-24.91l.72.1c-.82,6-2.66,22.16-1.28,24.43.52.86,4.47,1.89,6.84,2.34Z"/><path class="am" d="M693,594h-.14v-.73c.12,0,11.91.2,18.6-7.25l.54.49C705.55,593.71,694.44,594,693,594Z"/><rect class="am" width="60.94" height="0.73" transform="matrix(0.9, -0.435, 0.435, 0.9, 777.707, 830.441)"/><path class="aj" d="M717.12,417.37s-22.76,6.54-26,50.12c-3.09,17.89,4.34,117.31,4.34,117.23,55.1,9.52,113.83-7.56,113.83-7.56s-10.29-62.29-14.2-85.69c-9.83-58.75-50.46-71.23-50.46-71.23Z"/><path class="z" d="M726.66,417.77a301.226,301.226,0,0,0-34.26-46.83c-27.37-30.45-68.69-56-68.69-56s-27.94,19.63-15.13,29.91c17,11.44,38.67,34.21,55.2,54.8,10.31,12.84,31.16,52.2,31.16,52.2"/><path class="z" d="M616.46,350c-9.8-7.32-41.68-23.88-41.33-26.36s11.64,3.19,11.54,1.1-16.87-12-15.87-14.38c1.37-3.24,18,7.83,18,7.83s-17.62-13-15.62-15.49c1.41-1.75,15.32,7.58,21.08,10.48-5.84-3.93-14.56-11.43-13-13.21s11.1,4.38,18.71,8.7c-4.5-3.14-12.38-9.29-11.06-11s25.79,10.66,48.89,26.6"/><path class="z" d="M768.41,490.39s-20.44,40.66-42.1,63.14c-28.42,29.47-73.78,50.21-73.78,50.21s-27.25-20.59-14.09-30.42c17.37-10.85,44.86-32.41,62.09-52.41,10.75-12.48,28-51.52,28-51.52"/><path class="z" d="M646.5,568.42c-10,7-42.48,22.41-42.22,24.9s11.74-2.79,11.57-.7S598.57,604,599.49,606.45c1.26,3.27,18.27-7.21,18.27-7.21s-18.06,12.41-16.15,14.94c1.35,1.79,15.58-7,21.43-9.74-6,3.73-14.94,10.92-13.5,12.75s11.24-4,19-8.05c-4.6,3-12.69,8.86-11.43,10.62s26.09-10.72,49-23.38"/><path class="aj" d="M727.61,458.88C721.93,478,706.9,509.7,706.9,509.7l40.8,21.5s21-25.68,29-56.53"/><path class="ak" d="M748,531.41l-.59-.42c.23-.32,22.85-32,26.76-49l.71.16C770.93,499.25,748.22,531.09,748,531.41Z"/><path class="ak" d="M707.22,509.86l-.65-.33c.15-.29,15.2-29.53,18.34-43.56l.71.16C722.46,480.26,707.37,509.57,707.22,509.86Z"/><path class="aj" d="M690.34,480.45c-.51-16-8.21-49.36-31.12-79.89l36.07-28.86S727,397.08,736,419.46"/><path class="z" d="M710,371.31s-9.21,25.52-1,33.82c4.26,4.31,16.83,5.06,22.19.79,4-3.17,9.85-22.8,7.6-26.24C730.16,366.55,710,371.31,710,371.31Z"/><path class="an" d="M714.83,394c-.18,0-4.46-.74-4.68-2.75s4.28-7.43,4.8-8.06l.37.31c-1.35,1.65-4.84,6.26-4.68,7.7s3.13,2.14,4.27,2.32Z"/><path class="b" d="M709.91,395.46l11.55,2.94s-2.91,5.81-9.13,3.76C707.88,400.7,709.91,395.46,709.91,395.46Z"/><path class="ao" d="M710.94,380.88c-.24.51-.47,1-.67,1.55a.37.37,0,0,0,0,.29.31.31,0,0,0,.18.16.37.37,0,0,0,.48-.16,15.345,15.345,0,0,0,.59-1.58.33.33,0,0,0-.2-.39.34.34,0,0,0-.42.13Z"/><path class="ao" d="M714.65,378.67a.25.25,0,0,1-.21-.12,2.81,2.81,0,0,0-4-.92.242.242,0,1,1-.24-.42,3.32,3.32,0,0,1,4.67,1.1.24.24,0,0,1-.08.33.28.28,0,0,1-.14.03Z"/><path class="ao" d="M723.92,385.56c-.2.49-.4,1-.56,1.5a.383.383,0,0,0,.74.2,15.7,15.7,0,0,0,.46-1.52.33.33,0,0,0-.23-.41.34.34,0,0,0-.41.23Z"/><path class="ao" d="M729.1,384.07a.28.28,0,0,1-.2-.1c-2.47-3.53-5.21-3-5.33-3a.24.24,0,0,1-.29-.18.25.25,0,0,1,.19-.29c.13,0,3.17-.66,5.83,3.15a.24.24,0,0,1-.06.34.23.23,0,0,1-.14.08Z"/><path class="z" d="M739.55,394.65l5,25.59s-19.31,14.48-30-.93l-.33-16.73Z"/><path class="ac" d="M748.76,390.24a25.408,25.408,0,0,1,.8-2.72c.77-2.16,2-4.07,2.81-6.19a11,11,0,0,0-3.3-12.36,18.694,18.694,0,0,1-1.9-1.53c-1.27-1.31-1.71-3.18-2.44-4.85a6.75,6.75,0,0,0-2.8-3.39c-3-1.61-7,.58-10.06-1a14.163,14.163,0,0,1-1.8-1.3c-4.33-3.27-9.24-2.51-14-.8-2.21.79-2.93,1.67-4.77,3.1-2,1.56-4.79,1.46-6.81,3s-2.65,4.55-2.68,7.21a6.59,6.59,0,0,0,.45,2.83,5.31,5.31,0,0,0,2.72,2.43c2.7,1.23,5.75.75,8.62.54s6.06-2.19,8.8-1.17,3.36,4.28,6.66,4.54c1.3.1,2.88-.14,3.65.91s.42,3.12,1.11,4.49a31.657,31.657,0,0,0,2.63,3.64c1.67,2.37,4,4,3.18,7.07-.59,2.14-3,5.59-2,7.86.64,1.49,3.94,1.47,6.43-.43s3.33-5.68,4-8.64C748.3,392.34,748.51,391.29,748.76,390.24Z"/><path class="z" d="M737,390.77c2.44-3.95,4.82-3.65,6.31-1.8,2,2.45-.74,8.36-2.21,9.48-3,2.28-5.57,2.38-6.11-.18"/><path class="an" d="M716.21,409.35h-1v-.74a35,35,0,0,0,16.64-4l.37.63A36.39,36.39,0,0,1,716.21,409.35Z"/><path class="ak" d="M690.26,474.57h-.73c0-.24.58-25-2.22-32.43l.69-.26C690.84,449.46,690.29,473.55,690.26,474.57Z"/><path class="ak" d="M728.35,431.87c-11.9,0-16.49-7.74-16.53-7.82l.63-.36c0,.07,4.44,7.45,15.9,7.45h.58c13.54-.29,19.3-9.36,19.36-9.45l.62.38a19.371,19.371,0,0,1-4.7,4.8,26.11,26.11,0,0,1-15.26,5Z"/></g></svg>