<svg xmlns="http://www.w3.org/2000/svg" width="72" height="72" viewBox="0 0 72 72"><defs><style>.a{opacity:0;}.b,.c{fill:#2ad181;stroke:#2ad181;}.b{stroke-miterlimit:10;opacity:0.1;}.c{stroke-width:1.5px;}.d{stroke:none;}.e{fill:none;}</style></defs><g class="a" transform="translate(14958 -8372)"><g class="b" transform="translate(-14958 8372)"><rect class="d" width="72" height="72"/><rect class="e" x="0.5" y="0.5" width="71" height="71"/></g><g class="b" transform="translate(-14946 8384)"><rect class="d" width="48" height="48"/><rect class="e" x="0.5" y="0.5" width="47" height="47"/></g></g><path class="c" d="M15812.945,2683.837a6.393,6.393,0,0,1,.316-2l-13.953-7.954a6.451,6.451,0,1,1,0-8.479l13.953-7.954a6.389,6.389,0,0,1-.316-2,6.459,6.459,0,1,1,1.594,4.24l-13.955,7.954a6.427,6.427,0,0,1,0,4l13.955,7.955a6.448,6.448,0,1,1-1.594,4.241Zm2.58,0a3.871,3.871,0,1,0,3.871-3.871A3.875,3.875,0,0,0,15815.525,2683.837Zm-24.945-14.193a3.87,3.87,0,1,0,3.871-3.871A3.876,3.876,0,0,0,15790.58,2669.643Zm24.945-14.193a3.871,3.871,0,1,0,3.871-3.871A3.874,3.874,0,0,0,15815.525,2655.45Z" transform="translate(-15770.706 -2633.816)"/></svg>