<svg xmlns="http://www.w3.org/2000/svg" width="72" height="72" viewBox="0 0 72 72"><defs><style>.a{opacity:0;}.b,.c{fill:#2ad181;}.b{opacity:0.1;}</style></defs><g class="a" transform="translate(14958 -8372)"><rect class="b" width="72" height="72" transform="translate(-14958 8372)"/><rect class="b" width="48" height="48" transform="translate(-14946 8384)"/></g><path class="c" d="M0,4V0H5.636a5,5,0,0,1,4.911,4.059L11.11,7H47.756A3,3,0,0,1,50.7,10.553L48.538,22.106A6,6,0,0,1,42.641,27h-27.7l.647,3.376A2,2,0,0,0,17.555,32H47.96v4H17.555a6,6,0,0,1-5.893-4.871L6.618,4.812A1,1,0,0,0,5.636,4ZM14.177,23H42.641a2,2,0,0,0,1.966-1.631L46.551,11H11.877Zm2.9,23a3.5,3.5,0,1,1,3.5-3.5A3.5,3.5,0,0,1,17.078,46Zm22.278-3.5a3.5,3.5,0,1,0,3.5-3.5A3.5,3.5,0,0,0,39.356,42.5Z" transform="translate(8 13)"/></svg>