<svg xmlns="http://www.w3.org/2000/svg" width="972.415" height="913.982" viewBox="0 0 972.415 913.982"><defs><style>.a{fill:#dcffeb;}.b{fill:#fff;}.c{fill:#97ffcb;}.d{fill:#fef0e6;}.e{fill:#caf9dd;}.f{fill:#8ceab8;}.ad,.ag,.g,.h,.i,.o,.p,.s{fill:none;}.g,.h{stroke:#97ffcb;stroke-width:4px;}.ad,.g,.h,.i,.o,.p,.s{stroke-linecap:round;}.ad,.ag,.g,.h,.i,.p{stroke-miterlimit:10;}.h{stroke-dasharray:0 7.99;}.ad,.i{stroke:#212237;}.j{fill:#212237;}.k{fill:#ffa792;}.l{fill:#ffbba4;}.m{fill:#dd857a;}.n{fill:#2e7efa;}.o{stroke:#414c67;}.o,.s{stroke-linejoin:round;stroke-width:0.48px;}.p{stroke:#18277a;}.ad,.ag,.p{stroke-width:2px;}.q{fill:#414c67;}.r{fill:#ffbe16;}.s{stroke:#ffbe16;}.t{fill:#fccb21;}.u{fill:#f9fbfc;opacity:0.5;}.v,.w{fill:#fc9f21;}.v{opacity:0.66;}.x{fill:#a5681e;opacity:0.08;}.y{fill:#ffc371;}.z{fill:#ffa658;}.aa{fill:#298bf5;}.ab{fill:#2071f5;}.ac{fill:#35105f;}.ae{fill:#18277a;}.af{fill:#fca604;}.ag{stroke:#5565aa;}</style></defs><g transform="translate(0.001 0)"><path class="a" d="M356.08,909.25c146.17,16.75,170.5-62.83,294-90.54,70.37-15.79,156.94,10.88,213.16-53.77,42.28-48.61,48.92-124.41,29.86-183.91-8.91-27.81-38.06-54.12-44.74-81.42-13.77-56.31,13.14-100.05,24.48-156.22,13.07-64.74,11.37-129.56-46.17-181.61C770.57,111,690.14,115.34,625.29,80.52,557.38,44.06,533.11-13.25,443.66,2.76,372.53,15.48,342.58,79.35,288.21,112c-139,83.48-262,82.34-233.15,277.34C67.14,470.94,111,545.86,116,625.62,125,767.44,162.13,887,356.08,909.25Z"/><rect class="b" width="16.41" height="182.31" transform="translate(319.38 669.82)"/><rect class="b" width="16.41" height="162.15" transform="translate(275.45 689.98)"/><rect class="b" width="16.41" height="115.38" transform="translate(231.52 736.75)"/><rect class="b" width="16.41" height="63.52" transform="translate(187.59 788.62)"/><rect class="b" width="16.41" height="205.62" transform="translate(361.89 646.52)"/><rect class="b" width="16.41" height="232.32" transform="translate(404.39 619.81)"/><rect class="b" width="16.41" height="225.68" transform="translate(446.89 626.45)"/><rect class="b" width="16.41" height="279.19" transform="translate(489.4 572.95)"/><rect class="b" width="16.41" height="307.6" transform="translate(531.9 544.54)"/><rect class="b" width="16.41" height="382.92" transform="translate(574.4 469.21)"/><path class="c" d="M630.58,284.31a372.447,372.447,0,0,0,13.29-35.75,135.474,135.474,0,0,0,4.42-18.49c.24-1.56.43-3.13.54-4.7a33.534,33.534,0,0,0,0-4.7,12.31,12.31,0,0,0-1-4.44,3.46,3.46,0,0,0-1.32-1.56,2.3,2.3,0,0,0-.92-.32,3.1,3.1,0,0,0-1,.06,5.869,5.869,0,0,0-2,.88,12.6,12.6,0,0,0-1.78,1.42,24.5,24.5,0,0,0-3,3.53,47.228,47.228,0,0,0-4.59,8.19,72.67,72.67,0,0,0-5.18,18.12,79,79,0,0,0,3.28,37.24v.32l-.23,49.34-.37,49.35-.48,49.34-.59,49.34q-.63,49.35-1.49,98.68l-.47,24.67-.23,12.33-.28,12.34c-.38,16.44-.7,32.89-1.16,49.33-.1-16.45-.06-32.9-.07-49.35V604.81l.08-24.67q.23-49.35.67-98.69l.5-49.34.6-49.34.72-49.34.86-49.34v.31a80.62,80.62,0,0,1-3-38.1,72.412,72.412,0,0,1,5.5-18.42,48,48,0,0,1,4.83-8.36,25.349,25.349,0,0,1,3.22-3.66,13.246,13.246,0,0,1,2-1.52,7.06,7.06,0,0,1,2.37-1,4.17,4.17,0,0,1,1.37-.06,3.49,3.49,0,0,1,1.32.47,4.55,4.55,0,0,1,1.7,2,13.26,13.26,0,0,1,1,4.82,35.458,35.458,0,0,1-.1,4.84c-.14,1.6-.35,3.19-.61,4.76a135.374,135.374,0,0,1-4.68,18.55c-1.93,6.07-4.12,12.05-6.46,18S633.16,278.49,630.58,284.31Z"/><path class="c" d="M630.26,293.61A316.087,316.087,0,0,1,651.89,269a127.408,127.408,0,0,1,12.25-11.05,42.223,42.223,0,0,1,7-4.55,12.479,12.479,0,0,1,4.28-1.32,5.77,5.77,0,0,1,1.3.06,3.66,3.66,0,0,1,1.36.53,3.37,3.37,0,0,1,1,1.11,3.872,3.872,0,0,1,.48,1.31,7.1,7.1,0,0,1,0,2.43,12.807,12.807,0,0,1-.5,2.18,25.24,25.24,0,0,1-1.66,4,44.268,44.268,0,0,1-4.57,7.07,66.782,66.782,0,0,1-11.86,11.72,62.43,62.43,0,0,1-30.58,12.8l-.56.07-.48-.33a96.6,96.6,0,0,1-26-27.38,83.537,83.537,0,0,1-8.25-17.11,53.051,53.051,0,0,1-2.32-9.29,26.506,26.506,0,0,1-.3-4.9,14.116,14.116,0,0,1,.32-2.54,6.8,6.8,0,0,1,1.11-2.6A3.939,3.939,0,0,1,595.3,230a3.5,3.5,0,0,1,1.69-.4,5.61,5.61,0,0,1,2.78.88,16.84,16.84,0,0,1,3.77,3.31,53.114,53.114,0,0,1,5.52,7.78,152.66,152.66,0,0,1,8.43,16.82,352.452,352.452,0,0,1,12.77,35.21c-4.34-11.69-8.86-23.33-14.16-34.58a150.328,150.328,0,0,0-8.78-16.38,52,52,0,0,0-5.43-7.36,15.119,15.119,0,0,0-3.28-2.79A3.48,3.48,0,0,0,597,232a1.21,1.21,0,0,0-1,.58,4.54,4.54,0,0,0-.65,1.7,11.751,11.751,0,0,0-.22,2.1,26.6,26.6,0,0,0,.35,4.42,50.247,50.247,0,0,0,2.31,8.8,81.248,81.248,0,0,0,8.13,16.4,94.851,94.851,0,0,0,25.27,26.48l-1-.26a56.83,56.83,0,0,0,15.39-4.07,61.1,61.1,0,0,0,7.15-3.57,67.239,67.239,0,0,0,6.69-4.42,64.072,64.072,0,0,0,11.52-11.1,45.563,45.563,0,0,0,4.43-6.6,22.321,22.321,0,0,0,1.57-3.55,11.068,11.068,0,0,0,.46-1.8,5.139,5.139,0,0,0,0-1.65,1.41,1.41,0,0,0-.53-1,2.1,2.1,0,0,0-1.28-.25,10.21,10.21,0,0,0-3.51,1,41.474,41.474,0,0,0-6.8,4.16A131.342,131.342,0,0,0,652.89,270C645,277.45,637.56,285.48,630.26,293.61Z"/><path class="c" d="M629.13,308.77q4.53-2.94,9.1-5.84t9.22-5.69c6.17-3.74,12.4-7.39,18.72-10.89s12.76-6.8,19.38-9.76a94.323,94.323,0,0,1,10.2-3.94,32.248,32.248,0,0,1,5.47-1.24,9.051,9.051,0,0,1,3.09.11,3.22,3.22,0,0,1,1.76,1.07,2.7,2.7,0,0,1,.5,1.09,3.329,3.329,0,0,1,0,1,5.453,5.453,0,0,1-.51,1.64,11.818,11.818,0,0,1-.76,1.31,20.144,20.144,0,0,1-1.78,2.26,42.681,42.681,0,0,1-4,3.85,80.836,80.836,0,0,1-8.85,6.51,129.472,129.472,0,0,1-19.32,10.18,125.565,125.565,0,0,1-20.77,6.82,104.4,104.4,0,0,1-21.72,2.81h-.36a195.7,195.7,0,0,1-20.15-5.69,160.265,160.265,0,0,1-19.37-8,104.183,104.183,0,0,1-17.85-11.13,52.4,52.4,0,0,1-7.7-7.35,22.892,22.892,0,0,1-3.05-4.55,11,11,0,0,1-1-2.76,5.29,5.29,0,0,1,.3-3.29,4,4,0,0,1,1.13-1.44,5.279,5.279,0,0,1,1.49-.8,8.71,8.71,0,0,1,3-.39,21.07,21.07,0,0,1,5.39,1,55.722,55.722,0,0,1,9.73,4.18A139.606,139.606,0,0,1,598,281.2c5.55,4.19,10.88,8.65,16.06,13.27q3.9,3.45,7.67,7t7.44,7.27q-3.84-3.51-7.76-6.92t-7.88-6.76c-5.33-4.42-10.78-8.68-16.42-12.66a136.667,136.667,0,0,0-17.56-10.84,55.005,55.005,0,0,0-9.42-3.84,19.068,19.068,0,0,0-4.81-.81,6.309,6.309,0,0,0-2.15.31,1.9,1.9,0,0,0-1.23,1,3,3,0,0,0-.08,1.8,9.179,9.179,0,0,0,.8,2.12,21.788,21.788,0,0,0,2.79,4,49.891,49.891,0,0,0,7.39,6.89,102.269,102.269,0,0,0,17.48,10.65,178.87,178.87,0,0,0,38.89,13.39h-.36a101.76,101.76,0,0,0,21.12-2.66,130.305,130.305,0,0,0,20.34-6.56,126.432,126.432,0,0,0,19-9.79,86.134,86.134,0,0,0,8.66-6.2,40.671,40.671,0,0,0,3.84-3.57,19.329,19.329,0,0,0,1.6-2,5.311,5.311,0,0,0,.93-1.94,1.062,1.062,0,0,0,0-.3c0-.07,0-.1-.05-.13a1,1,0,0,0-.54-.29,7,7,0,0,0-2.28-.08,29.428,29.428,0,0,0-5.09,1.07,101.747,101.747,0,0,0-10.05,3.66c-6.61,2.77-13.07,6-19.47,9.26s-12.73,6.75-19,10.3q-4.71,2.67-9.38,5.39T629.13,308.77Z"/><path class="c" d="M674.9,714.51c18.12-16.57,45.2,16.16,45.61,41.06s-23.32,62.11-40.4,61.21-26.78-32.53-25.34-46.73S664,724.48,674.9,714.51Z"/><path class="c" d="M696.27,807.67s-54.42-394.21,47.56-423.62S763.44,735.6,763.44,735.6,811,300.2,937,350.21,815.42,806.69,774.72,816.5,696.27,807.67,696.27,807.67Z"/><path class="b" d="M749.41,382.82l-.33,13.52-.38,13.52-.77,27q-.84,27-1.77,54.08c-.6,18-1.3,36-2,54.07l-2.12,54.06-2.29,54c-.82,18-1.58,36-2.46,54.05l-1.3,27-1.35,27-1.44,27-.73,13.51-.78,13.5.33-13.52.38-13.52.76-27,.86-27,.91-27c.6-18,1.31-36,2-54.07L739.06,599l2.29-54.05c.82-18,1.59-36,2.47-54s1.73-36,2.64-54l1.44-27,.73-13.51Z"/><path class="b" d="M692.94,464.59c4.48,6,8.82,12.15,13.17,18.27l6.47,9.21,6.42,9.24c2.15,3.08,4.24,6.19,6.37,9.28s4.25,6.19,6.33,9.3c4.19,6.23,8.41,12.43,12.54,18.69l-2.32-.19c4.34-4.62,8.66-9.26,13-13.85l6.56-6.9,6.59-6.85q3.3-3.44,6.62-6.83c2.22-2.27,4.42-4.55,6.66-6.8,4.46-4.52,8.93-9,13.47-13.46-4.1,4.84-8.28,9.63-12.46,14.39-2.09,2.4-4.21,4.75-6.31,7.13s-4.21,4.74-6.34,7.09l-6.36,7.08-6.41,7c-4.26,4.7-8.58,9.34-12.88,14l-1.27,1.37-1.06-1.56c-4.21-6.2-8.33-12.47-12.49-18.72-2.08-3.12-4.12-6.27-6.18-9.4s-4.12-6.27-6.15-9.43l-6.1-9.45-6-9.5C700.81,477.38,696.82,471,692.94,464.59Z"/><path class="b" d="M681.76,617.15c4.87,1,9.71,2.19,14.54,3.35s9.66,2.36,14.47,3.6L718,626l7.2,1.92c4.81,1.25,9.59,2.61,14.38,3.92l-1.43.35,3-2.91,3.06-2.88,6.13-5.77c2-1.93,4.11-3.82,6.17-5.73s4.1-3.82,6.19-5.69l6.23-5.66,6.27-5.61c4.22-3.71,8.42-7.43,12.74-11C784.14,591,780.22,595,776.3,599l-5.92,6-6,5.94c-2,2-4,3.93-6,5.89s-4,3.93-6,5.87l-6.07,5.82-3,2.91-3.06,2.89-.62.58-.81-.23c-4.78-1.37-9.56-2.7-14.32-4.12l-7.15-2.11-7.14-2.16c-4.76-1.43-9.49-2.93-14.23-4.43S686.46,618.79,681.76,617.15Z"/><path class="b" d="M685.64,700.16c4.26.69,8.5,1.46,12.73,2.26,2.12.39,4.23.82,6.35,1.23s4.22.83,6.33,1.27l6.32,1.3,6.32,1.36L730,709l6.29,1.43-1.46.48c3.38-4,6.82-8,10.25-12,1.71-2,3.45-4,5.19-6l5.21-5.94,5.27-5.89,5.32-5.85c3.57-3.87,7.15-7.74,10.84-11.52-3.14,4.25-6.38,8.4-9.64,12.55l-4.91,6.19-5,6.14-5,6.1c-1.67,2-3.35,4.06-5.05,6.07-3.39,4-6.77,8.07-10.22,12l-.6.69-.86-.21-6.29-1.49-6.27-1.54-6.27-1.56-6.25-1.61q-3.13-.8-6.25-1.65c-2.08-.56-4.16-1.1-6.23-1.68C693.91,702.59,689.77,701.42,685.64,700.16Z"/><path class="b" d="M937,346.29l-5.75,14.87L925.45,376l-11.62,29.68q-11.7,29.67-23.47,59.28c-7.82,19.76-15.75,39.48-23.63,59.21l-23.79,59.15L819,642.41q-12,29.5-24.11,59l-12.1,29.49-12.17,29.46-12.25,29.43-6.13,14.72-6.17,14.69,5.75-14.86,5.81-14.85,11.62-29.68L781,730.18l11.76-29.63c7.83-19.76,15.76-39.48,23.63-59.21l23.8-59.15,24-59.08q12-29.52,24.1-59,12.15-29.445,24.27-59l12.25-29.43L930.84,361Z"/><path class="b" d="M847.21,405.27q3.84,11.78,7.52,23.59l3.68,11.82c1.21,3.94,2.44,7.88,3.63,11.83,2.4,7.9,4.81,15.79,7.16,23.7l3.53,11.85,3.49,11.88-2.39-.69,12.17-11,12.22-10.93c8.13-7.3,16.34-14.52,24.52-21.77l12.33-10.8c4.1-3.61,8.25-7.18,12.37-10.77,8.27-7.15,16.55-14.28,24.93-21.3q-11.82,11.37-23.84,22.51c-4,3.72-8,7.46-12,11.16l-12.06,11.1c-8.09,7.36-16.14,14.75-24.27,22.06l-12.16,11-12.23,10.93L874,503l-.64-2.24L870,488.86,866.63,477c-2.26-7.93-4.45-15.89-6.65-23.84-1.11-4-2.18-8-3.27-11.94l-3.23-11.95C851.35,421.25,849.24,413.27,847.21,405.27Z"/><path class="b" d="M799,539.41c2.71,6.36,5.29,12.77,7.87,19.17l3.82,9.63,3.76,9.66c1.26,3.21,2.49,6.44,3.72,9.67l3.68,9.68,7.22,19.41-1.25-1c6.46.72,12.93,1.4,19.39,2.16s12.91,1.5,19.37,2.32,12.9,1.64,19.35,2.5,12.88,1.78,19.31,2.79c-6.5-.37-13-.86-19.47-1.35s-13-1-19.44-1.64-13-1.2-19.42-1.81-12.94-1.33-19.41-2l-.93-.1-.32-.88-7.11-19.45-3.48-9.76c-1.16-3.25-2.32-6.5-3.45-9.77l-3.41-9.78-3.34-9.8C803.26,552.55,801.05,546,799,539.41Z"/><path class="b" d="M857.16,711.83c-5.75.71-11.51,1.28-17.27,1.8q-4.32.4-8.64.74c-2.89.23-5.77.48-8.65.67l-8.65.6-8.66.52-4.33.25-4.33.22-8.66.42-1,.05-.37-.93-3.94-9.8-3.84-9.85c-1.24-3.29-2.51-6.58-3.71-9.89q-.93-2.48-1.81-5t-1.74-5q1.2,2.36,2.35,4.74c.77,1.59,1.53,3.17,2.28,4.77,1.53,3.18,3,6.38,4.47,9.58l4.35,9.63,4.24,9.68-1.4-.87,8.65-.53,4.33-.26,4.33-.22,8.66-.43,8.66-.34c2.89-.13,5.78-.2,8.67-.29s5.78-.15,8.67-.2C845.58,711.81,851.36,711.75,857.16,711.83Z"/><path class="a" d="M585.75,813s-43.25-18.27-28.32-58.32,38.09,5.12,52.79-.26,19.85-56.47,54.87-43.4,28.68,49.45,23.11,67.46S657,833.2,635.19,834,585.75,813,585.75,813Z"/><path class="a" d="M320.9,815.26s50-62.58-4.93-110.54-53,38.65-79.43,42.54-75.71-68.58-117.62-20.5-2.83,97.53,20.18,120,91.36,56.8,124.72,40.24S320.9,815.26,320.9,815.26Z"/><path class="c" d="M179.12,884.63S-6.21,866,.16,767.45s137.78,39.22,137.78,39.22-136.8-126-73.06-171.61,104,158.38,104,158.38S125.19,623.3,183.54,629.18s14.3,255.42,14.3,255.42Z"/><path class="b" d="M180.6,635.06l-.57,7.48c-.18,2.49-.42,5-.5,7.48l-.39,7.49c0,1.24-.14,2.49-.17,3.74l-.1,3.74-.2,7.49v15.01l.11,7.49c.27,20,1.29,39.93,2.67,59.86s3.15,39.84,5.15,59.72,4.12,39.76,6.37,59.63l.77,6.74-3.55-5.78q-15.91-25.95-31.29-52.22c-2.56-4.37-5.07-8.79-7.59-13.19s-5-8.82-7.5-13.24c-1.23-2.22-2.49-4.42-3.71-6.64l-3.67-6.67-3.64-6.69-3.59-6.71-3.57-6.72L122,756.3l-3.5-6.76-3.42-6.8-3.4-6.81-3.32-6.85c-1.1-2.29-2.22-4.56-3.3-6.86l-3.21-6.9-1.6-3.46-.8-1.72-.77-1.74-3.08-7c-2.09-4.62-4-9.32-6-14l-1.47-3.51-1.42-3.53-2.82-7.07-.69-1.77-.66-1.78-1.33-3.57-2.64-7.13,2.86,7,1.43,3.52.71,1.76.75,1.75,3,7,1.49,3.5,1.55,3.47c2.09,4.62,4.1,9.27,6.3,13.84l3.23,6.87.81,1.72.83,1.71,1.68,3.41,3.32,6.83c1.11,2.28,2.27,4.53,3.41,6.8l3.42,6.78,3.5,6.74,3.51,6.74,3.58,6.71,3.58,6.7,3.65,6.66,3.65,6.66,3.72,6.63,3.71,6.64c1.23,2.21,2.5,4.4,3.75,6.6,2.52,4.4,5,8.81,7.58,13.18s5.08,8.76,7.68,13.11q15.41,26.22,31.38,52.09l-2.79,1c-2.19-19.87-4.34-39.76-6.2-59.68S180.17,775,179,755s-1.87-40-1.79-60l.05-7.51.2-7.5.1-3.75v-1.88l.08-1.87.37-7.5.18-3.75c.06-1.24.18-2.49.26-3.74l.56-7.48c.16-2.5.47-5,.72-7.47Z"/><path class="b" d="M18.3,765a411.213,411.213,0,0,0,37.59,33.26l5,3.81c1.67,1.26,3.29,2.57,5,3.77L71,809.52c1.69,1.22,3.37,2.46,5.11,3.62l5.17,3.54,2.58,1.78c.86.6,1.75,1.15,2.62,1.72l5.26,3.42,2.63,1.7c.87.57,1.78,1.1,2.66,1.65l5.33,3.31,2.66,1.65c.89.56,1.8,1.07,2.7,1.61l5.4,3.17,2.71,1.59c.9.54,1.82,1,2.72,1.55l5.46,3.09c1.83,1,3.64,2.07,5.49,3.05l5.52,3c1.84,1,3.67,2,5.53,3,14.81,7.81,29.86,15.17,45,22.42Q162,865.19,139.43,854c-3.78-1.83-7.49-3.79-11.23-5.71-1.88-.95-3.71-2-5.56-3l-5.54-3c-1.86-1-3.67-2.06-5.48-3.11l-5.46-3.17c-.9-.53-1.82-1-2.72-1.59l-2.69-1.65-5.37-3.3c-.89-.56-1.8-1.1-2.67-1.67l-2.64-1.74L84.8,822.6c-.87-.59-1.77-1.14-2.63-1.75l-2.58-1.8-5.17-3.62c-1.73-1.19-3.4-2.47-5.09-3.73l-5-3.79c-1.7-1.24-3.33-2.58-5-3.89l-4.91-4A295.652,295.652,0,0,1,18.3,765Z"/><path class="b" d="M124.09,697c.23,4.61.26,9.21.21,13.81s-.18,9.19-.39,13.78-.48,9.18-.86,13.76-.81,9.17-1.47,13.74c-.24-4.62-.26-9.22-.21-13.81s.18-9.2.39-13.79.48-9.17.86-13.76S123.43,701.59,124.09,697Z"/><path class="b" d="M102.51,654.85c.24,4.61.26,9.21.21,13.81s-.18,9.19-.38,13.78-.48,9.18-.86,13.77-.81,9.16-1.47,13.73c-.24-4.61-.27-9.21-.22-13.81s.19-9.19.39-13.78.49-9.18.87-13.76S101.86,659.42,102.51,654.85Z"/><path class="b" d="M141.29,727.42c.37,4.66.53,9.31.62,14s.09,9.3,0,14-.21,9.29-.45,13.94-.54,9.29-1.06,13.93c-.37-4.66-.54-9.31-.63-14s-.09-9.3,0-14,.21-9.29.45-13.94S140.77,732.06,141.29,727.42Z"/><path class="b" d="M32.13,748.67c1,3,1.81,6,2.55,9s1.37,6.06,1.94,9.11,1.07,6.11,1.49,9.2.75,6.17.88,9.31c-1-3-1.81-6-2.55-9s-1.37-6.06-1.94-9.11S33.43,761.06,33,758,32.26,751.8,32.13,748.67Z"/><path class="b" d="M54.14,761.32c.56,3.1.91,6.21,1.2,9.32s.47,6.23.59,9.35.17,6.24.13,9.36-.15,6.25-.49,9.39c-.57-3.1-.91-6.21-1.2-9.32s-.47-6.23-.59-9.35-.17-6.24-.13-9.36S53.81,764.45,54.14,761.32Z"/><path class="b" d="M75.12,771.21c.6,3.4,1,6.8,1.31,10.21s.56,6.81.72,10.23.25,6.82.24,10.25-.08,6.84-.37,10.28c-.6-3.4-1-6.8-1.31-10.21s-.56-6.81-.72-10.22-.24-6.83-.23-10.26S74.83,774.65,75.12,771.21Z"/><path class="b" d="M99.73,784.64c.69,3.92,1.16,7.84,1.56,11.78s.71,7.87,1,11.81.41,7.89.48,11.84.09,7.9-.12,11.87c-.69-3.91-1.16-7.84-1.56-11.77s-.71-7.87-1-11.81-.41-7.89-.48-11.84S99.52,788.61,99.73,784.64Z"/><path class="b" d="M124.7,803.68c.53,3.23.84,6.46,1.09,9.69s.39,6.47.47,9.7.09,6.48,0,9.72-.24,6.49-.61,9.73c-.53-3.22-.84-6.45-1.09-9.69s-.39-6.46-.47-9.7-.09-6.48,0-9.72S124.33,806.93,124.7,803.68Z"/><path class="b" d="M199.65,671.93c-1.36,3.87-2.91,7.65-4.53,11.4s-3.31,7.45-5.07,11.13-3.59,7.33-5.51,10.93-3.88,7.18-6,10.67c1.36-3.88,2.91-7.65,4.53-11.4s3.32-7.46,5.08-11.13,3.59-7.33,5.51-10.93S197.49,675.42,199.65,671.93Z"/><path class="b" d="M204,720.34c-1.51,4.07-3.21,8-5,12s-3.61,7.85-5.52,11.72-3.88,7.71-5.94,11.5-4.18,7.57-6.49,11.24c1.51-4.07,3.21-8,5-12s3.61-7.85,5.52-11.72,3.88-7.71,5.94-11.5S201.71,724,204,720.34Z"/><path class="b" d="M200.1,770a76.283,76.283,0,0,1-3.31,7.23q-1.81,3.51-3.83,6.91t-4.24,6.68a76.257,76.257,0,0,1-4.76,6.36,75.085,75.085,0,0,1,3.3-7.23q1.81-3.52,3.84-6.91c1.35-2.27,2.75-4.49,4.24-6.68A74.12,74.12,0,0,1,200.1,770Z"/><path class="c" d="M79.05,445.46c-4.12-4.84-8.17-9.75-12.09-14.76s-7.72-10.13-11.29-15.41a135.816,135.816,0,0,1-9.75-16.45c-.7-1.44-1.35-2.9-1.94-4.4a35.709,35.709,0,0,1-1.47-4.6,13.47,13.47,0,0,1-.37-4.92,4.65,4.65,0,0,1,1.06-2.43,3.6,3.6,0,0,1,1.14-.83,4.13,4.13,0,0,1,1.32-.33,7,7,0,0,1,2.56.29,13.271,13.271,0,0,1,2.32.9,26.279,26.279,0,0,1,4.13,2.59,48.411,48.411,0,0,1,7,6.65,72.751,72.751,0,0,1,10.5,16.1,80.74,80.74,0,0,1,7.92,37.39v-.31L94.86,492l14.68,47.11,14.58,47.14,14.47,47.18q14.43,47.17,28.64,94.44l7.07,23.64,3.53,11.82,3.5,11.83c4.65,15.78,9.35,31.54,13.93,47.34-5.11-15.63-10.08-31.31-15.11-47l-3.76-11.75L172.66,752l-7.44-23.52q-14.82-47.07-29.42-94.2l-14.56-47.15L106.78,540,92.44,492.75,78.22,445.5v-.31a78.88,78.88,0,0,0-7.43-36.65,72,72,0,0,0-10.1-15.9,46.362,46.362,0,0,0-6.73-6.56,25.246,25.246,0,0,0-3.9-2.53,12.75,12.75,0,0,0-2.11-.85,6,6,0,0,0-2.15-.28,3.25,3.25,0,0,0-1,.23,2.39,2.39,0,0,0-.78.56,3.57,3.57,0,0,0-.83,1.87,12.52,12.52,0,0,0,.3,4.54,33.3,33.3,0,0,0,1.38,4.5c.55,1.47,1.18,2.92,1.85,4.36A137.006,137.006,0,0,0,56.17,415a372.428,372.428,0,0,0,22.88,30.46Z"/><path class="c" d="M82,454.29C72.69,448.56,63.3,443,53.59,438a132.7,132.7,0,0,0-14.87-6.59,43.869,43.869,0,0,0-7.7-2.06,10.45,10.45,0,0,0-3.66,0,2.07,2.07,0,0,0-1.15.61,1.39,1.39,0,0,0-.23,1.09,5.18,5.18,0,0,0,.5,1.57,12,12,0,0,0,.95,1.6,23.241,23.241,0,0,0,2.52,3,45.332,45.332,0,0,0,6.12,5.06,64.691,64.691,0,0,0,14.19,7.39A68.5,68.5,0,0,0,57.93,452a61.728,61.728,0,0,0,7.87,1.39,56.911,56.911,0,0,0,15.91-.46l-.92.54a94.74,94.74,0,0,0,16.72-32.56,81.212,81.212,0,0,0,3.16-18.07,50.191,50.191,0,0,0-.28-9.1,25.509,25.509,0,0,0-.92-4.34,11.819,11.819,0,0,0-.8-2,4.52,4.52,0,0,0-1.11-1.4,1.18,1.18,0,0,0-1.14-.27,3.29,3.29,0,0,0-1.4,1,15,15,0,0,0-2.36,3.61,51.771,51.771,0,0,0-3.12,8.6,152,152,0,0,0-3.77,18.19c-1.89,12.3-2.93,24.74-3.78,37.18a351.743,351.743,0,0,1,2.27-37.39,153,153,0,0,1,3.31-18.52,53.7,53.7,0,0,1,3.09-9,16.72,16.72,0,0,1,2.67-4.24,5.64,5.64,0,0,1,2.42-1.64,3.51,3.51,0,0,1,1.74-.09,3.87,3.87,0,0,1,1.52.7,6.75,6.75,0,0,1,1.81,2.18,14.16,14.16,0,0,1,1,2.35,26.21,26.21,0,0,1,1.1,4.78,52.939,52.939,0,0,1,.42,9.57,83,83,0,0,1-3.06,18.74,96.47,96.47,0,0,1-17.16,33.63l-.36.45-.56.1a62.44,62.44,0,0,1-32.95-3.6,67.109,67.109,0,0,1-14.7-7.88,44.911,44.911,0,0,1-6.39-5.48,26,26,0,0,1-2.72-3.33,14.7,14.7,0,0,1-1.1-2,7.54,7.54,0,0,1-.67-2.33,4.5,4.5,0,0,1,.09-1.4,3.34,3.34,0,0,1,.7-1.36,3.61,3.61,0,0,1,1.16-.9,5.351,5.351,0,0,1,1.22-.42,12.43,12.43,0,0,1,4.48.05,42.241,42.241,0,0,1,8.05,2.37,128.457,128.457,0,0,1,14.87,7.12A313.361,313.361,0,0,1,82,454.29Z"/><path class="c" d="M87.39,468.51q-5.25-1.33-10.51-2.6c-3.5-.85-7-1.7-10.52-2.51-7-1.62-14.07-3.14-21.14-4.49s-14.17-2.57-21.3-3.35a101.012,101.012,0,0,0-10.68-.66,29.3,29.3,0,0,0-5.18.41A7,7,0,0,0,5.9,456a1.07,1.07,0,0,0-.44.43.53.53,0,0,0,0,.14,1.421,1.421,0,0,0,.09.28A5.25,5.25,0,0,0,7,458.49a20.173,20.173,0,0,0,2.09,1.43,40.28,40.28,0,0,0,4.7,2.33,86.58,86.58,0,0,0,10.06,3.49,125.7,125.7,0,0,0,21,4,129.191,129.191,0,0,0,21.36.52,101.931,101.931,0,0,0,21-3.43l-.33.14a179.559,179.559,0,0,0,33.5-23.87,102.329,102.329,0,0,0,13.74-15.18,50,50,0,0,0,5.13-8.7,22.161,22.161,0,0,0,1.54-4.64,8.821,8.821,0,0,0,.16-2.26,3,3,0,0,0-.58-1.71,2,2,0,0,0-1.47-.63,6.209,6.209,0,0,0-2.15.32,18.739,18.739,0,0,0-4.39,2.14,55,55,0,0,0-7.94,6.35,138.714,138.714,0,0,0-13.76,15.37c-4.28,5.42-8.31,11.05-12.16,16.8q-2.88,4.32-5.65,8.72t-5.46,8.84q2.48-4.58,5.06-9.08t5.36-8.92c3.66-5.9,7.51-11.69,11.64-17.28A139.345,139.345,0,0,1,123,417.32a54.8,54.8,0,0,1,8.15-6.76,21,21,0,0,1,4.89-2.48,8.611,8.611,0,0,1,3-.46,4.83,4.83,0,0,1,1.66.34,4,4,0,0,1,1.49,1.05,5.41,5.41,0,0,1,1.22,3.08,11.17,11.17,0,0,1-.15,2.91,22.819,22.819,0,0,1-1.63,5.24,52.66,52.66,0,0,1-5.31,9.23,104,104,0,0,1-14,15.74,160.87,160.87,0,0,1-16.3,13.19,194.986,194.986,0,0,1-17.7,11.17l-.17.09h-.17a105.127,105.127,0,0,1-21.63,3.47,125.573,125.573,0,0,1-21.85-.65,130.427,130.427,0,0,1-21.42-4.29,82.005,82.005,0,0,1-10.32-3.72A44.5,44.5,0,0,1,7.85,462a20.461,20.461,0,0,1-2.35-1.7,10.828,10.828,0,0,1-1.1-1.05,5.511,5.511,0,0,1-1-1.42,3.54,3.54,0,0,1-.27-1,2.74,2.74,0,0,1,.17-1.19,3.29,3.29,0,0,1,1.38-1.52,9.091,9.091,0,0,1,2.94-1,31.241,31.241,0,0,1,5.59-.36,93.853,93.853,0,0,1,10.9.88c7.19,1,14.3,2.32,21.36,3.86s14.06,3.3,21,5.14Q71.79,464,77,465.49T87.39,468.51Z"/><ellipse class="d" cx="110.37" cy="16.96" rx="110.37" ry="16.96" transform="translate(466.84 871.91)"/><path class="c" d="M263.77,110.93,247.04,78.3,315.65,3.84Z"/><path class="e" d="M315.65,3.84,247.04,78.3,218.6,71.44Z"/><path class="f" d="M263.77,110.93,262.1,79.98,315.65,3.84Z"/><path class="e" d="M262.1,79.98l47.69,5.85,5.86-81.99Z"/><line class="g" transform="translate(264.13 116.72)"/><path class="h" d="M260.72,123.94c-9.51,21.64-32.56,85.61,17.21,105.31,60.24,23.84,82.41-50.41,57.73-62.75s-67.77,43.92-59,77.81c8.63,33.3,52.41,70.23,114.67,28.61"/><line class="g" transform="translate(394.64 270.66)"/><path class="c" d="M251,55.74a3.82,3.82,0,1,1-1.119-2.711A3.83,3.83,0,0,1,251,55.74Z"/><path class="c" d="M503.4,18.19a3.83,3.83,0,1,1-3.83-3.82,3.83,3.83,0,0,1,3.83,3.82Z"/><path class="c" d="M290.93,138.39a3.82,3.82,0,1,1-1.115-2.708A3.83,3.83,0,0,1,290.93,138.39Z"/><path class="c" d="M47.15,321.4a3.83,3.83,0,1,1-3.83-3.82A3.83,3.83,0,0,1,47.15,321.4Z"/><path class="c" d="M558.94,116.37a3.82,3.82,0,1,1-1.115-2.708,3.83,3.83,0,0,1,1.115,2.708Z"/><path class="c" d="M367.31,337.24a3.82,3.82,0,1,1-1.122-2.7A3.83,3.83,0,0,1,367.31,337.24Z"/><path class="c" d="M778.28,116.37a3.83,3.83,0,1,1-3.83-3.83,3.83,3.83,0,0,1,3.83,3.83Z"/><circle class="c" cx="3.83" cy="3.83" r="3.83" transform="translate(908.49 106.84)"/><path class="c" d="M735.43,22a3.82,3.82,0,1,1-1.119-2.711A3.83,3.83,0,0,1,735.43,22Z"/><path class="c" d="M928,351.62a3.83,3.83,0,1,1-3.83-3.83,3.83,3.83,0,0,1,3.83,3.83Z"/><path class="c" d="M657.45,408.31a3.82,3.82,0,1,1-1.119-2.711,3.83,3.83,0,0,1,1.119,2.711Z"/><line class="c" x1="11.58" y2="10.41" transform="translate(201.63 106.83)"/><line class="c" x1="15.15" y1="3.57" transform="translate(333.32 24.06)"/><line class="c" x1="12.97" y1="8.64" transform="translate(512.51 130.24)"/><line class="c" x1="10.86" y1="11.17" transform="translate(913.51 152.66)"/><line class="c" x1="15.21" y1="3.31" transform="translate(875.3 48.6)"/><line class="c" x1="8.34" y2="3.9" transform="translate(643.27 52.78)"/><line class="c" x1="8.81" y1="2.68" transform="translate(816.1 84.2)"/><line class="c" x1="8.06" y2="4.46" transform="translate(632.26 339.06)"/><line class="c" x1="7.75" y1="4.98" transform="translate(107.12 373.35)"/><line class="c" x1="8.76" y2="2.86" transform="translate(864.4 382)"/><line class="c" x1="9.17" y1="0.92" transform="translate(117.37 83.74)"/><path class="c" d="M251,416.8a3.82,3.82,0,1,1-1.122-2.7A3.83,3.83,0,0,1,251,416.8Z"/><path class="c" d="M503.4,379.26a3.83,3.83,0,1,1-3.83-3.83,3.83,3.83,0,0,1,3.83,3.83Z"/><path class="c" d="M290.93,499.45a3.83,3.83,0,1,1-3.82-3.82,3.83,3.83,0,0,1,3.82,3.82Z"/><path class="c" d="M47.15,682.47a3.83,3.83,0,1,1-3.83-3.83,3.83,3.83,0,0,1,3.83,3.83Z"/><path class="c" d="M558.94,477.43a3.83,3.83,0,1,1-3.82-3.82,3.83,3.83,0,0,1,3.82,3.82Z"/><path class="c" d="M367.31,698.31a3.82,3.82,0,1,1-1.119-2.711,3.83,3.83,0,0,1,1.119,2.711Z"/><path class="c" d="M778.28,477.43a3.83,3.83,0,1,1-3.83-3.82A3.83,3.83,0,0,1,778.28,477.43Z"/><circle class="c" cx="3.83" cy="3.83" r="3.83" transform="translate(908.49 467.9)"/><path class="c" d="M735.43,383.08a3.82,3.82,0,1,1-1.122-2.7A3.83,3.83,0,0,1,735.43,383.08Z"/><path class="c" d="M928,712.68a3.83,3.83,0,1,1-3.83-3.82,3.83,3.83,0,0,1,3.83,3.82Z"/><path class="c" d="M657.45,769.37a3.83,3.83,0,1,1-3.83-3.83,3.83,3.83,0,0,1,3.83,3.83Z"/><line class="c" x1="11.58" y2="10.42" transform="translate(201.63 467.89)"/><line class="c" x1="15.15" y1="3.58" transform="translate(333.32 385.12)"/><line class="c" x1="12.97" y1="8.63" transform="translate(512.51 491.31)"/><line class="c" x1="10.86" y1="11.17" transform="translate(913.51 513.73)"/><line class="c" x1="15.21" y1="3.32" transform="translate(875.3 409.66)"/><line class="c" x1="8.34" y2="3.9" transform="translate(643.27 413.85)"/><line class="c" x1="8.81" y1="2.68" transform="translate(816.1 445.27)"/><line class="c" x1="8.06" y2="4.46" transform="translate(632.26 700.13)"/><line class="c" x1="7.75" y1="4.99" transform="translate(107.12 734.41)"/><line class="c" x1="8.76" y2="2.86" transform="translate(864.4 743.07)"/><line class="c" x1="9.17" y1="0.91" transform="translate(117.37 444.81)"/><path class="i" d="M710.61,305.88s-11-3.95-19.51,7.53-23.18,1.42-24.88,22.5,29.29,26.76,30,11.15"/><path class="j" d="M715.48,304.22s-14.11-4.27-22.65,11.49S670.51,321,666.57,338s26.25,28.89,33.32,21,33.65-31.84,31.68-42.35S715.48,304.22,715.48,304.22Z"/><path class="j" d="M778.11,220.22s-16.82-5.19-23.83,14-31.28,8.4-28.88,27.55-18.7,14.48-14.15,35.16c5.52,18.07,31.2,29.12,43,17.75s56,4.5,58.56-34.75S801.48,221.52,778.11,220.22Z"/><path class="k" d="M745.34,441.46c3.52-37.93-15.05-43.33-13.58-84.27,2.81-53.06,26.16-49.8,46.69-49.51,20.34-2.84,34.26-9,43.64,43.34,6.53,40.44-6.84,47.55,1.36,84.75s21.59,79,21.59,79c-16.54,18.66-53.24,7.3-53.24,7.3s-40.53,1.19-59.25-15.27C732.55,506.8,741.81,479.38,745.34,441.46Z"/><path class="k" d="M796.91,306.24c80.45-49.9,67-88.87,47.21-165.26,5.1-2.61,7.79-3.68,13-6.18,42.56,94.39,34.26,137.82-44.51,205.3C798.49,334,797.09,319.79,796.91,306.24Z"/><path class="l" d="M850.51,112c-2.47.13-1.16,10.88-1.16,10.88s-2.59-13.91-4.48-14.14c-3-.37.23,15.4.23,15.4s-3.92-17.08-7-15.94,2.72,17.6,2.72,17.6-6.42-15.15-8.88-13.72,6.56,20.65,6.56,20.65-9.69-4.61-10.76-2.7c-1.8,3.23,18.39,13.89,18.39,13.89l12-3.55S853,111.87,850.51,112Z"/><path class="m" d="M844.05,512.13,788.94,492c-5.67,24.21-7,58.64.59,93.37,5.73,26.12,15.41,54.19,8.86,91.53-.81,4.6-1.74,9.21-2.76,13.82l-75.47-11.95L717,704.37l73.39,24.9c32.49,8.94,38.88-9.37,42.42-17.79,8.2-19.5,19.15-48,22-65.74C866.21,574.77,844.05,512.13,844.05,512.13Z"/><path class="k" d="M763,346.73c-87.19,36.86-80,77.44-72.2,156-5.45,1.79-8.27,2.43-13.76,4.1-27.41-99.83-12.5-141.49,75.77-195.97C765.77,319.07,765,333.32,763,346.73Z"/><path class="l" d="M680,530.34c2.47.26,2.83-10.57,2.83-10.57s.42,14.14,2.24,14.66c2.88.83,2.16-15.24,2.16-15.24s1.23,17.47,4.45,16.83,0-17.81,0-17.81,4,16,6.64,14.92-3.29-21.41-3.29-21.41,8.87,6.06,10.22,4.33c2.28-2.91-16-16.56-16-16.56l-12.41,1.65S677.56,530.09,680,530.34Z"/><path class="k" d="M770.31,693.59c1.12-37.89-13.77-73-23.19-98.05-12.53-33.28-16.13-67.55-14-92.32l57.44,12s29.09,76.94,28,148.81-56.1,182.4-56.1,182.4L743,833.78S768.32,760.76,770.31,693.59Z"/><path class="n" d="M740.53,421.54s-47.23,111.86,9.63,211c54.81-1.68,121.18-27.65,121.18-27.65l-50.56-196S789.59,434.45,740.53,421.54Z"/><path class="m" d="M757,276.37c1.53-5.44-2.16-11.31-7.81-11.4H749c-5.56,0-5.51,15.8,2.42,15.8C754.76,280.77,756.3,278.73,757,276.37Z"/><path class="m" d="M799,276.37c-1.53-5.44,2.16-11.31,7.81-11.4H807c5.56,0,5.51,15.8-2.42,15.8A5.366,5.366,0,0,1,799,276.37Z"/><path class="m" d="M794.07,305.49c-3.58-6.78-2.16-17.13-2.16-17.13L778,286.22l-14,2.14a41.252,41.252,0,0,1-.1,10.41C769,304,778.79,310.19,794.07,305.49Z"/><path class="k" d="M794.07,305.49c-15.28,4.7-25.05-1.54-30.14-6.72a18.049,18.049,0,0,1-3.48,8.9c-2.68,3.22,1.7,5.45,6.75,6.88a39.6,39.6,0,0,0,21.54,0c5-1.43,9.43-3.66,6.75-6.88a12.76,12.76,0,0,1-1.42-2.18Z"/><path class="l" d="M-11077.409,3491.877a30.034,30.034,0,0,1-3.5-2.454l-.022.012c-4.421-3.519-8.511-8.9-10.6-17.188l0,0a51.563,51.563,0,0,1-1.472-12.671c0-20.88,9.892-30.07,18.1-34.068a24.764,24.764,0,0,1,21.709,0c8.222,4.009,18.11,13.188,18.11,34.068a51.528,51.528,0,0,1-1.471,12.673c-2.088,8.288-6.188,13.669-10.6,17.158a30.615,30.615,0,0,1-3.521,2.472,26.457,26.457,0,0,1-13.369,3.623A26.469,26.469,0,0,1-11077.409,3491.877Zm30.262-2.472-.088-.048Z" transform="translate(11842.008 -3200.176)"/><path class="j" d="M765.22,268.06a2.21,2.21,0,1,0,.651-1.566,2.22,2.22,0,0,0-.651,1.566Z"/><path class="j" d="M786.69,268.06a2.22,2.22,0,1,0,2.21-2.21,2.22,2.22,0,0,0-2.21,2.21Z"/><path class="m" d="M778.17,278.18V265.85S769.47,278.18,778.17,278.18Z"/><path class="o" d="M764.42,261.11a6.07,6.07,0,0,1,5.23-2.61"/><path class="o" d="M791.52,261.11a6.07,6.07,0,0,0-5.23-2.61"/><path class="d" d="M774,280.77h8s-.26,5.45-4,5.45S774,280.77,774,280.77Z"/><path class="b" d="M756.15,309s-24.41-2.18-38.76,26.16c8,20.73,14.43,32.16,14.43,32.16a155.531,155.531,0,0,0,8.71,54.19c24.86,14.34,59.22,7.78,82.7-3.21,15.29-59.62-1.36-86.4-1.36-86.4s3.19-12.81-13.79-33a30.86,30.86,0,0,0-14.82,4.73s6.25,19.16-6.57,22.72C764.42,332.61,756.15,309,756.15,309Z"/><path class="j" d="M743,271.51s11,5.16,15.83-8.1,19.5-5.3,23.57-16.94a37.63,37.63,0,0,0,29.84,19.38s-3.33-45.63-34.08-45.63S750.16,257.52,743,271.51Z"/><path class="p" d="M732.76,363.56s23.79-11.79,12.33-50.15"/><path class="p" d="M799.41,303.69s10.28,7.55,21.12,26.63"/><path class="p" d="M752.81,310.86s-3.74,11.18,12.41,18.37a27.34,27.34,0,0,0,21.47,0s13.46.11,13.68-12.23S795,303.69,795,303.69"/><line class="p" x1="7.38" y1="21.02" transform="translate(786.69 329.23)"/><path class="q" d="M790.38,332.61a1.14,1.14,0,1,0,1.14-1.14A1.14,1.14,0,0,0,790.38,332.61Z"/><path class="q" d="M792.92,339.74a1.14,1.14,0,1,0,.337-.81,1.15,1.15,0,0,0-.337.81Z"/><circle class="q" cx="1.14" cy="1.14" r="1.14" transform="translate(795.16 344.78)"/><path class="p" d="M737.88,428.61s42,21.59,86.91-4.22"/><path class="p" d="M767.45,631.28S745.76,575,740.13,522.33s8.75-89.53,8.75-89.53"/><path class="p" d="M748,624.18s10-.57,13.09-1.19"/><path class="p" d="M767.45,621.8s46.41-5,101.91-24.62"/><path class="r" d="M764.23,848.32l10-21.38-25.94-16.66L733.13,839h0a7,7,0,0,0-1,2.52c-.71,5.59,8.09,10.69,13,19.3s13.31,21.55,23,26.7c8.45-9.39,3.8-13.7-.44-23.07A47.8,47.8,0,0,1,764.23,848.32Z"/><path class="r" d="M697.48,703.73,720.69,708l9.55-29.31-31.6-7.38h0A7,7,0,0,0,696,671c-5.58.73-8.29,10.53-15.38,17.47s-17.47,18.33-20,29c11.23,5.79,14.22.21,22.21-6.27C687.41,707.44,693.32,705.07,697.48,703.73Z"/><path class="s" d="M716,305.88A45.819,45.819,0,0,0,728.4,317"/><path class="p" d="M737.88,359.7s1.72,38.39,11.13,65.81"/><path class="o" d="M734.58,839.64s3.87,7.73,8.84,11.6,11.33,23.48,25.41,32.87"/><path class="o" d="M697.57,673.07s-5.25,4.42-9.67,13.26-17.68,13.54-24,29.83"/><path class="o" d="M846.44,149.92a53.309,53.309,0,0,1,15.29-4.52"/><path class="o" d="M847.78,155a115.728,115.728,0,0,1,14.9-7.38"/><path class="p" d="M822.83,333.76s15,28.16,1.06,81.93"/><path class="p" d="M731.82,367.35s-.17,27.47,8.12,52.47"/><path class="i" d="M759.64,227.24s-8.83,13.71-18.08,16.14c-11.33,3-20.62,5.41-18.65,19.18s-21.85,20.43-8.53,38.19"/><path class="i" d="M782,244.45s5.46,25.41,30.11,20.52"/><rect class="t" width="126.85" height="23.69" rx="5.77" transform="translate(326.9 866.9)"/><rect class="u" width="18.66" height="121.83" rx="3.77" transform="translate(451.24 869.41) rotate(90)"/><path class="v" d="M345.38,869.41H334.14a4.74,4.74,0,0,0-4.73,4.74v9.19a4.74,4.74,0,0,0,4.73,4.74h11.24Z"/><rect class="v" width="42.48" height="18.66" transform="translate(353.29 869.41)"/><path class="v" d="M446.5,869.41h-1.87v18.67h1.87a4.75,4.75,0,0,0,4.74-4.74v-9.19A4.75,4.75,0,0,0,446.5,869.41Z"/><rect class="v" width="40.62" height="18.66" transform="translate(400.68 869.41)"/><rect class="t" width="126.85" height="23.69" rx="5.77" transform="translate(339.46 843.39)"/><rect class="u" width="18.66" height="121.83" rx="3.77" transform="translate(463.8 845.9) rotate(90)"/><path class="v" d="M357.94,845.9H346.7a4.73,4.73,0,0,0-4.73,4.73v9.2a4.74,4.74,0,0,0,4.73,4.74h11.24Z"/><rect class="v" width="42.48" height="18.66" transform="translate(365.85 845.9)"/><path class="v" d="M459.06,845.9h-1.87v18.67h1.87a4.75,4.75,0,0,0,4.74-4.74v-9.2A4.74,4.74,0,0,0,459.06,845.9Z"/><rect class="v" width="40.62" height="18.66" transform="translate(413.24 845.9)"/><rect class="t" width="126.85" height="23.69" rx="5.77" transform="translate(345.74 819.87)"/><rect class="u" width="18.66" height="121.83" rx="3.77" transform="translate(470.07 822.39) rotate(90)"/><path class="v" d="M364.22,822.39H353a4.73,4.73,0,0,0-4.73,4.73v9.2a4.73,4.73,0,0,0,4.73,4.73h11.24Z"/><rect class="v" width="42.48" height="18.66" transform="translate(372.13 822.39)"/><path class="v" d="M465.34,822.39h-1.87v18.66h1.87a4.74,4.74,0,0,0,4.74-4.73v-9.2a4.74,4.74,0,0,0-4.74-4.73Z"/><rect class="v" width="40.62" height="18.66" transform="translate(419.51 822.39)"/><rect class="t" width="126.85" height="23.69" rx="5.77" transform="translate(330.67 796.36)"/><rect class="u" width="18.66" height="121.83" rx="3.77" transform="translate(455.01 798.87) rotate(90)"/><path class="v" d="M349.15,798.87H337.91a4.74,4.74,0,0,0-4.73,4.74v9.19a4.74,4.74,0,0,0,4.73,4.74h11.24Z"/><rect class="v" width="42.48" height="18.66" transform="translate(357.06 798.87)"/><path class="v" d="M450.27,798.87H448.4v18.67h1.87A4.75,4.75,0,0,0,455,812.8v-9.19a4.75,4.75,0,0,0-4.73-4.74Z"/><rect class="v" width="40.62" height="18.66" transform="translate(404.44 798.87)"/><rect class="t" width="126.85" height="23.69" rx="5.77" transform="translate(344.48 772.85)"/><rect class="u" width="18.66" height="121.83" rx="3.77" transform="translate(468.82 775.35) rotate(90)"/><path class="v" d="M363,775.36H351.73a4.74,4.74,0,0,0-4.74,4.73v9.2a4.74,4.74,0,0,0,4.74,4.73H363Z"/><rect class="v" width="42.48" height="18.66" transform="translate(370.87 775.36)"/><path class="v" d="M464.09,775.36h-1.88V794h1.88a4.73,4.73,0,0,0,4.73-4.73v-9.2a4.73,4.73,0,0,0-4.73-4.71Z"/><rect class="v" width="40.62" height="18.66" transform="translate(418.26 775.36)"/><rect class="t" width="126.85" height="23.69" rx="5.77" transform="translate(354.53 749.33)"/><rect class="u" width="18.66" height="121.83" rx="3.77" transform="translate(478.87 751.84) rotate(90)"/><path class="v" d="M373,751.85H361.77a4.73,4.73,0,0,0-4.73,4.73v9.2a4.73,4.73,0,0,0,4.73,4.73H373Z"/><rect class="v" width="42.48" height="18.66" transform="translate(380.92 751.85)"/><path class="v" d="M474.13,751.85h-1.87v18.66h1.87a4.74,4.74,0,0,0,4.74-4.73v-9.2a4.74,4.74,0,0,0-4.74-4.73Z"/><rect class="v" width="40.62" height="18.66" transform="translate(428.31 751.85)"/><rect class="t" width="126.85" height="23.69" rx="5.77" transform="translate(343.23 725.82)"/><rect class="u" width="18.66" height="121.83" rx="3.77" transform="translate(467.57 728.33) rotate(90)"/><path class="v" d="M361.7,728.33H350.47a4.74,4.74,0,0,0-4.73,4.74v9.19a4.74,4.74,0,0,0,4.73,4.74H361.7Z"/><rect class="v" width="42.48" height="18.66" transform="translate(369.61 728.33)"/><path class="v" d="M462.83,728.33H461V747h1.87a4.74,4.74,0,0,0,4.73-4.74v-9.19a4.74,4.74,0,0,0-4.77-4.74Z"/><rect class="v" width="40.62" height="18.66" transform="translate(417 728.33)"/><rect class="t" width="127.255" height="23.766" rx="5.788" transform="translate(356.505 709.663) rotate(-4.574)"/><rect class="u" width="18.66" height="121.83" rx="3.77" transform="matrix(0.08, 0.997, -0.997, 0.08, 479.509, 699.996)"/><path class="v" d="M374,708.44l-11.2.9a4.74,4.74,0,0,0-4.34,5.1l.73,9.17a4.75,4.75,0,0,0,5.1,4.34l11.2-.9Z"/><rect class="v" width="42.48" height="18.66" transform="matrix(0.997, -0.08, 0.08, 0.997, 381.883, 707.783)"/><path class="v" d="M474.77,700.36l-1.87.15,1.49,18.6,1.87-.15a4.74,4.74,0,0,0,4.34-5.1l-.73-9.16A4.74,4.74,0,0,0,474.77,700.36Z"/><rect class="v" width="40.62" height="18.66" transform="matrix(0.997, -0.08, 0.08, 0.997, 429.124, 703.995)"/><circle class="t" cx="60.52" cy="60.52" r="60.52" transform="translate(232.687 885.686) rotate(-76.48)"/><circle class="w" cx="47.95" cy="47.95" r="47.95" transform="translate(256.28 793.1)"/><path class="x" d="M304.23,793.1c-.92,0-1.83,0-2.74.08a47.95,47.95,0,0,1,0,95.74c.91.05,1.82.08,2.74.08a47.95,47.95,0,1,0,0-95.9Z"/><circle class="t" cx="31.54" cy="31.54" r="31.54" transform="translate(259.624 841.051) rotate(-45)"/><path class="w" d="M316.26,826.13l-2.47,3.64h-5.12a8.347,8.347,0,0,1,1.31,2,10.13,10.13,0,0,1,.74,2.61h5.54l-2.47,3.65h-3.07a9.819,9.819,0,0,1-1.17,3.31,8.84,8.84,0,0,1-2.31,2.61,10.851,10.851,0,0,1-3.38,1.71,14.663,14.663,0,0,1-4.4.62l15,15.93h-6.54l-14.46-15.54v-3.64h3.62a14.872,14.872,0,0,0,3.15-.32,9.8,9.8,0,0,0,2.59-1,6.589,6.589,0,0,0,1.88-1.57,5.34,5.34,0,0,0,1.05-2.15H292.2l2.46-3.65h11a5.72,5.72,0,0,0-2.42-3.37,8.919,8.919,0,0,0-5.06-1.26h-6l2.46-3.64Z"/><path class="y" d="M440.16,713.3l13.76,177.02,178.99-4.92V710.35Z"/><path class="z" d="M453.92,890.32l8.6-.24c-.56-28.93.25-101.26,20.91-126.49s111.91-34.87,149.48-37.86V710.35L440.16,713.3Z"/><path class="aa" d="M494.24,584.47l6.89,74.74,116.04-6.88V580.54Z"/><path class="ab" d="M501.13,659.21l1.71-.1c4.7-10.74,13.83-24.11,31.23-38.74,33.59-28.25,69-31.6,83.1-31.69v-8.14l-122.93,3.93Z"/><path class="ac" d="M548.93,545.8a67.35,67.35,0,0,0,15.64-24,63.357,63.357,0,0,0,2.17-6.81,43.708,43.708,0,0,0,1.32-6.94,13.9,13.9,0,0,0-.8-6.53,7.79,7.79,0,0,0-4.19-4.3,6.11,6.11,0,0,0-5.58.94,10.41,10.41,0,0,0-3.78,5,31.887,31.887,0,0,0-1.66,6.7c-.39,2.35-.7,4.72-1,7.1a131.464,131.464,0,0,0-.07,28.6h-3.57a46.769,46.769,0,0,0-5.5-27,47.479,47.479,0,0,0-8.33-11.23c-.87-.78-1.69-1.61-2.6-2.35s-1.82-1.51-2.74-2.12c-1.83-1.25-3.94-2.19-5.73-1.92a3.87,3.87,0,0,0-2.29,1.25,4.73,4.73,0,0,0-1,2.6,14.131,14.131,0,0,0,1.12,6.46c.22.53.45,1,.71,1.56l.85,1.57c.56,1,1.2,2.06,1.8,3.09q1.9,3,4.06,5.91A78.759,78.759,0,0,0,549,542.69a73.48,73.48,0,0,1-22.61-18.24c-1.57-1.89-3-3.86-4.41-5.89-.67-1-1.37-2-2-3.11l-1-1.58c-.31-.56-.6-1.14-.87-1.72a16,16,0,0,1-1.53-7.66,7.4,7.4,0,0,1,1.55-4.07,6.309,6.309,0,0,1,1.74-1.48,6.079,6.079,0,0,1,2.14-.79,8.65,8.65,0,0,1,4.29.4,15.9,15.9,0,0,1,3.58,1.76c1.11.7,2,1.5,3,2.26s1.89,1.65,2.83,2.47a50.19,50.19,0,0,1,9.13,11.86c.66,1.07,1.15,2.22,1.71,3.34s1,2.31,1.45,3.47.83,2.36,1.17,3.57a35.382,35.382,0,0,1,.91,3.65,49,49,0,0,1,.84,15l-1.78,17.63-1.79-17.64a131.709,131.709,0,0,1,.26-29.37c.32-2.43.68-4.85,1.12-7.26a34.782,34.782,0,0,1,2-7.34,16.049,16.049,0,0,1,2-3.49,11.89,11.89,0,0,1,3-2.79,10,10,0,0,1,3.93-1.52,8.15,8.15,0,0,1,4.31.49,9.46,9.46,0,0,1,3.44,2.44,11.57,11.57,0,0,1,2.13,3.48,15.71,15.71,0,0,1,.74,7.76,45.487,45.487,0,0,1-1.67,7.25,62,62,0,0,1-2.53,6.91A63.62,63.62,0,0,1,548.93,545.8Z"/><path class="aa" d="M483.43,542.19l4.91,47.2,134.73-4.92V538.25Z"/><path class="ac" d="M548.33,540.11c1.18,9.54,2,19.09,2.71,28.65.39,4.78.64,9.57,1,14.35l.75,14.36.57,14.36c.11,4.79.3,9.58.35,14.37.18,9.59.22,19.18-.09,28.79-1.18-9.54-2-19.1-2.71-28.66-.39-4.78-.64-9.56-1-14.35l-.75-14.35-.56-14.36c-.12-4.8-.3-9.58-.35-14.38C548.08,559.31,548,549.72,548.33,540.11Z"/><path class="y" d="M426.39,652.33l7.86,72.77,206.52-6.88V646.43Z"/><path class="ac" d="M512,650.46c2.71,19.77,5.06,39.57,7.29,59.39,1.15,9.9,2.17,19.82,3.26,29.73l3,29.75,2.86,29.78c.88,9.93,1.83,19.85,2.65,29.79,1.71,19.87,3.29,39.75,4.51,59.66-2.71-19.77-5.07-39.57-7.3-59.39-1.15-9.9-2.17-19.82-3.25-29.73l-3-29.75-2.85-29.77c-.89-9.93-1.84-19.86-2.66-29.79C514.76,690.26,513.17,670.38,512,650.46Z"/><path class="ac" d="M574.88,648.23c.42,20,.48,39.91.42,59.86,0,10-.13,19.95-.19,29.93l-.39,29.92-.59,29.92c-.26,10-.46,19.94-.79,29.91-.59,19.94-1.31,39.89-2.39,59.82-.42-20-.48-39.91-.42-59.86,0-10,.13-20,.19-29.93l.4-29.92.59-29.92c.26-10,.46-19.94.79-29.91C573.1,688.11,573.81,668.17,574.88,648.23Z"/><path class="j" d="M195.25,196.87s-18.82-2.76-25.89,12-25.7,33.43-13.24,52.23c5.74,7.94,17.62,9,25.81,6.47s30.68,7,43.73.46,18.44-17,9.38-37.68S214.22,196.06,195.25,196.87Z"/><path class="m" d="M174.75,255.39c1.55-5.54-2.2-11.51-7.94-11.6h-.17c-5.66,0-5.61,16.07,2.45,16.07C172.51,259.86,174.08,257.78,174.75,255.39Z"/><path class="m" d="M217.47,255.39c-1.55-5.54,2.2-11.51,7.95-11.6h.17c5.66,0,5.6,16.07-2.45,16.07C219.71,259.86,218.14,257.78,217.47,255.39Z"/><path class="m" d="M212.48,285c-3.63-6.89-2.19-17.41-2.19-17.41l-14.18-2.18-14.18,2.18a41.841,41.841,0,0,1-.09,10.59C187,283.43,197,289.77,212.48,285Z"/><path class="k" d="M212.48,285c-15.53,4.78-25.47-1.56-30.64-6.82a18.43,18.43,0,0,1-3.54,9c-2.73,3.28,1.72,5.55,6.86,7a40.14,40.14,0,0,0,21.9,0c5.14-1.45,9.59-3.72,6.87-7a12.849,12.849,0,0,1-1.45-2.18Z"/><path class="k" d="M-11077.139,3493.063a29.874,29.874,0,0,1-3.589-2.511c-4.479-3.569-8.649-9.04-10.779-17.478.111-.079.224-.155.338-.23-.113.074-.227.151-.338.23a52.577,52.577,0,0,1-1.492-12.882c0-21.239,10.062-30.568,18.41-34.649a25.234,25.234,0,0,1,22.08,0c8.36,4.081,18.41,13.41,18.41,34.649a52.122,52.122,0,0,1-1.489,12.882c-2.13,8.449-6.289,13.92-10.779,17.478a30.142,30.142,0,0,1-3.592,2.511,26.848,26.848,0,0,1-13.589,3.689A26.857,26.857,0,0,1-11077.139,3493.063Z" transform="translate(11259.658 -3222.073)"/><path class="ad" d="M203,259.86a9.86,9.86,0,0,1-6.91,2.5h0a9.89,9.89,0,0,1-6.91-2.5"/><path class="j" d="M183.15,246.94a2.25,2.25,0,1,0,2.25-2.25,2.25,2.25,0,0,0-2.25,2.25Z"/><path class="j" d="M205,246.94a2.25,2.25,0,1,0,2.25-2.25A2.25,2.25,0,0,0,205,246.94Z"/><path class="k" d="M196.32,257.23V244.69S187.47,257.23,196.32,257.23Z"/><path class="i" d="M182.33,239.86a6.18,6.18,0,0,1,5.32-2.65"/><path class="i" d="M209.89,239.86a6.18,6.18,0,0,0-5.32-2.65"/><path class="j" d="M162.68,244.69s21.68-1.91,33.5-25.87c13.1,24.15,33.37,25.87,33.37,25.87s.14-46.55-35-46.55S162.68,244.69,162.68,244.69Z"/><path class="k" d="M241.86,423c-3.58-38.56,1.82-44,.33-85.68-2.86-54-26.61-50.65-47.48-50.35-20.69-2.89-43.83-9.12-53.37,44.07-6.64,41.12-2,48.36-10.37,86.18s-4,80.34-4,80.34c16.82,19,54.14,7.42,54.14,7.42s42.09,16,61.14-.73C242.27,504.28,245.45,461.6,241.86,423Z"/><path class="k" d="M175.94,285.54c-81.81-50.75-68.15-90.38-48-168.06-5.19-2.65-7.92-3.74-13.17-6.29-43.27,96-39.34,153.64,40.77,222.25C169.84,327.24,175.75,299.31,175.94,285.54Z"/><path class="k" d="M121.43,88c2.51.13,1.18,11.07,1.18,11.07s2.64-14.15,4.56-14.38c3-.38-.24,15.65-.24,15.65s4-17.36,7.13-16.2S131.29,102,131.29,102s6.52-15.4,9-13.94-6.67,21-6.67,21,9.86-4.69,11-2.74c1.82,3.28-18.71,14.12-18.71,14.12l-12.2-3.61S118.92,87.88,121.43,88Z"/><path class="k" d="M213.3,288c96.26-.5,105.34-41.42,128.78-118.18,5.81.46,8.71,1,14.51,1.53C343.3,275.75,322,318,217.86,334.6,208.91,321.83,206.26,299.78,213.3,288Z"/><path class="k" d="M363,148.05c-2.21-1.2-6.79,8.82-6.79,8.82s5.14-13.44,3.63-14.64c-2.38-1.9-8,13.47-8,13.47s5.68-16.89,2.4-17.54-7,16.7-7,16.7,2.49-16.54-.41-16.61-5.28,21.39-5.28,21.39-6-9.15-7.9-8.06c-3.28,1.85,8.57,21.81,8.57,21.81l12.28,3.3S365.24,149.26,363,148.05Z"/><path class="k" d="M312.48,664l-80.66,12.49c.24-34.07,9.37-80.56,15.19-107.12,7.75-35.32-2.62-70.33-8.38-95l-56,20.51s-22.52,63.7-11,135.87c2.89,18.05,14,47,22.37,66.85,3.6,8.56,10.09,27.18,43.13,18.09l85.72-25.35Z"/><path class="k" d="M80.29,622.81C88.87,550.22,130,474.39,130,474.39l62,16.05c-1.17,25.26-.41,59.31-17.5,91.18-12.85,24-40.24,63-44.19,101.37l78.62,53.31,2.79,30s-53.11-19.82-59.22-21.81c-29.92-9.74-70.63-28.27-75.5-64.34C74.14,659.55,77.84,643.51,80.29,622.81Z"/><path class="ae" d="M126.1,458.11s62,24.86,117.46,5.23c29.26,56.28,3.09,74.6,10.94,121.71s-18,52.91-9,83.38C263.66,661,295.07,660,295.07,660c12.45,18.49,15.35,37.89,9,58.17,0,0-73.85,29.71-106.88,0s-28.92-88-28.92-88l-24.52,46.51,60.5,36.46s-.92,46-28.35,65.61C121,763,143.38,759.91,75.93,717S126.1,458.11,126.1,458.11Z"/><path class="af" d="M184.76,343.48c38-9.87,59.36-3.5,81.45-11.18-.36-1.72-.63-2.66-.63-2.66L282.94,320s4.06-23-14.29-45.33a525,525,0,0,1-56.1,10.3s-1.22,13.29-16.37,13.29-15-16.87-15-16.87-31-20.5-49.56-39.49c0,0-24.72,13.46-33.91,32.77C105.08,294,119.67,297,125.85,313L132,328.89s-1,4.4-2.4,11.87C138.65,345.2,156.85,350.73,184.76,343.48Z"/><path class="af" d="M183.15,406.62c37.55-9.75,61-5.69,83-10a82,82,0,0,1,.71-15.06c.64-4.91,1-9.46,1.29-13.72-4.36.94-11.65,1.59-12.57,1.69-10.8,1.16-20.7-1.31-31.38-1.44-16.76-.2-33.61,7.75-50.21,10a107.171,107.171,0,0,1-26.9.43,93.919,93.919,0,0,1-14.66-2.92c-.85-.24-4.77-1.3-8.36-2.48-1.43,9.26-2.87,19.52-4.16,30.38C130.24,408.63,151.14,414.94,183.15,406.62Z"/><path class="af" d="M190.26,480.26c36.54-16.77,79.52-6.33,95.25-19.6-2.8-10.56-5.55-18.86-8.06-25.79-4.42.8-10.16,1.38-11,1.48-13.79,1.72-27-1.76-40.74-1.48-14.58.3-28.15,6.35-42.25,9.31-17.52,3.68-35.5,4.87-53.13,1.19a107.588,107.588,0,0,1-12-3.22c-.63-.2-3.34-1-6.06-2-4,11.16-8.68,18.48-11.64,25.7C116.56,474.89,158.11,495,190.26,480.26Z"/><path class="n" d="M147,378.54a107.171,107.171,0,0,0,26.9-.43c16.6-2.25,33.45-10.2,50.21-10,10.68.13,20.58,2.6,31.38,1.44.92-.1,8.21-.75,12.57-1.69,1.09-18.26-.83-30.5-1.89-35.56-22.09,7.68-43.48,1.31-81.45,11.18-27.91,7.25-46.11,1.72-55.13-2.72-1.5,7.8-3.54,19-5.61,32.38,3.59,1.18,7.51,2.24,8.36,2.48A93.919,93.919,0,0,0,147,378.54Z"/><path class="n" d="M130.36,445.37c17.63,3.68,35.61,2.49,53.13-1.19,14.1-3,27.67-9,42.25-9.31,13.72-.28,26.95,3.2,40.74,1.48.81-.1,6.55-.68,11-1.48-6-16.51-10.63-25.27-11.35-38.23-22,4.29-45.4.23-83,10-32,8.32-52.91,2-63.29-3.1-.23,2-.47,4-.69,6a129.641,129.641,0,0,1-6.86,30.67c2.72.94,5.43,1.77,6.06,2a107.58,107.58,0,0,0,12.01,3.16Z"/><path class="n" d="M102.08,485c59.48,38.87,99.82,28.49,126.13,9.35,23.43-17,43.62-6.77,55.74-14.85a9.32,9.32,0,0,0,3.8-9.89c-.75-3.14-1.5-6.09-2.24-8.9-15.73,13.27-58.71,2.83-95.25,19.6-32.15,14.76-73.7-5.37-89.59-14.38a38.36,38.36,0,0,0-2.76,10,9.46,9.46,0,0,0,4.17,9.07Z"/><path class="af" d="M204.29,763.56a25.52,25.52,0,0,1,11,14.75c2.71,10.1,1.83,16.48,14.52,18.43,4.3-10.3,2.57-25.88.88-35.82s1.95-19.62-2.2-23.56-20-2.09-20-2.09Z"/><path class="n" d="M152.62,312.65S175.28,321,194,316.12s46.26-9,46.26-9-8.24-17.56-8.78-24.89l-16.17,2.44s.68,18.49-20.94,16.46c-17.61-2.7-15.23-21.13-15.23-21.13a77.92,77.92,0,0,0-7.62-5.31S163.6,303.83,152.62,312.65Z"/><path class="p" d="M101.16,276s12.89-20.31,30.48-30.14"/><path class="p" d="M135.62,326.56s23.62-10.15,35.17-48.43"/><path class="p" d="M232,285.16s6.87,34,29.71,42.84"/><path class="p" d="M266.89,278.13s10.88,12.45,13.08,40.51"/><path class="p" d="M178.86,281.06s-2.44,20.17,18.3,20.17c18.24,0,18.13-14.55,18.13-14.55"/><path class="p" d="M100,474.39s2.73,6.15,22.84,15.71,44.89,17.37,64.41,13.67S217.7,492.64,229,485.22s21.67-9.37,36.7-8.59,17.95-3.51,19.32-8"/><path class="ag" d="M168.31,623.1s-3.31-24.1-7.6-36.17c-4.71-13.36,1.58-40.62,1.58-40.62l6-33"/><path class="ag" d="M153.23,511.38S139.53,553.1,159,557"/><path class="ag" d="M129.64,502.52s-10.22,45.34-38.79,36.16"/><path class="ag" d="M210.36,507s-3.82,52.16,33.21,40.63"/><path class="ag" d="M239.45,491s4,33.28,4.12,48-.6,41.67,0,55.29-5.69,44-9.36,62.38-2.77,26.73,9.36,21.49,43.05-9.44,54.59-8.65"/><path class="ag" d="M162.4,603.42s-13.63,35.9-23.06,55-11.8,21-5.77,25.16,66.57,44.29,66.57,44.29"/><path class="ag" d="M184.37,702.55a54.44,54.44,0,0,0,17.39,19.13"/><path class="ag" d="M163.64,772.46s18.15-18.35,25.49-47.7"/><path class="ag" d="M283.22,672.08s11,16.51,7.86,48"/><path class="ag" d="M115.75,681s10,.79,25.95-5.5"/><path class="ag" d="M125.85,687.54a21.48,21.48,0,0,0,14.27-7.89"/><path class="ag" d="M241.81,668.41s.77,10.22-9.31,22.8"/><path class="ag" d="M245.5,672.08a38.87,38.87,0,0,1-1.93,15.46"/><path class="p" d="M263.56,394.8s-7.34,19.4-23.32,30.41"/><path class="p" d="M123.09,407.65s-1.14,15.46,12.53,31.71"/><path class="p" d="M122,423.11s.61,13.36,5.33,21.75"/><path class="p" d="M204.29,763.56l4.19-28.29h3.16l-3.67,28.29"/><path class="p" d="M207.32,765.79s5.69,4.45,7.3,10.43S218,795.91,228,796.42"/><path class="p" d="M230.56,794.68s3-12.28,1.46-23.82-2.79-16.42-1.54-23.38-.1-12-10.15-12.64h-6.18"/><path class="p" d="M226.9,739.16s-1.74,10.24,0,17.58a93.32,93.32,0,0,1,2.1,36.13"/><line class="p" y1="4.35" x2="3.86" transform="translate(211.64 764.76)"/><line class="p" y1="3.35" x2="3.53" transform="translate(214.15 769.11)"/><path class="af" d="M317.54,692.11a25.529,25.529,0,0,1,15.13,10.47c5.78,8.71,7,15,19.64,12.83.78-11.12-5.83-25.34-10.6-34.23s-4.42-19.21-9.61-21.62S312.48,664,312.48,664Z"/><path class="p" d="M317.54,692.11l-5.06-28.14,3-1.01,5.54,27.98"/><path class="p" d="M321.12,693.26s6.82,2.4,10.25,7.56,9.47,17.58,19.17,14.85"/><path class="p" d="M352.37,713.22s-1.06-12.6-6.22-23-7.89-14.67-8.93-21.67-3.91-11.29-13.65-8.74l-5.84,2"/><path class="p" d="M331.18,661.78s1.62,10.26,5.61,16.66A93.32,93.32,0,0,1,350.33,712"/><line class="p" y1="5.35" x2="2.27" transform="translate(326.28 689.67)"/><line class="p" y1="4.3" x2="2.28" transform="translate(329.72 693.1)"/><path class="i" d="M195.73,216.37s6.12,28.73,36.27,28.32"/><path class="i" d="M166.12,219.24s-25.27,20-13.5,39.58"/><path class="i" d="M234.9,233.52s15.25,22.65-5.35,35"/><circle class="t" cx="60.52" cy="60.52" r="60.52" transform="translate(571.114 872.897) rotate(-76.48)"/><circle class="w" cx="47.95" cy="47.95" r="47.95" transform="translate(594.73 780.32)"/><path class="x" d="M642.68,780.32c-.92,0-1.83,0-2.74.08a47.95,47.95,0,0,1,0,95.74c.91.05,1.82.08,2.74.08a47.95,47.95,0,0,0,0-95.9Z"/><circle class="t" cx="31.54" cy="31.54" r="31.54" transform="translate(598.079 828.273) rotate(-45)"/><path class="w" d="M654.71,813.35,652.24,817h-5.12a8.16,8.16,0,0,1,1.31,2,10.13,10.13,0,0,1,.74,2.61h5.54l-2.47,3.65h-3.07a9.9,9.9,0,0,1-1.17,3.31,8.839,8.839,0,0,1-2.31,2.61,10.849,10.849,0,0,1-3.38,1.71,14.671,14.671,0,0,1-4.4.61l15,15.94h-6.55L631.91,833.9v-3.65h3.62a14.251,14.251,0,0,0,3.15-.32,9.151,9.151,0,0,0,2.59-1,6.4,6.4,0,0,0,1.88-1.56,5.41,5.41,0,0,0,1-2.15h-13.5l2.46-3.65h11a5.76,5.76,0,0,0-2.42-3.37,8.92,8.92,0,0,0-5.06-1.26h-6l2.46-3.64Z"/></g></svg>