<svg xmlns="http://www.w3.org/2000/svg" width="78.117" height="91.735" viewBox="0 0 78.117 91.735"><defs><style>.a{fill:#b2b2b2;opacity:0.5;}.b{fill:#a8a8a8;}.c{fill:#fff;}</style></defs><g transform="translate(0 0.001)"><path class="a" d="M78.026,24.889l0-.071c-.04-.881-.066-1.814-.083-2.851a9.722,9.722,0,0,0-9.154-9.525C58.239,11.854,50.08,8.415,43.109,1.619l-.059-.057a5.871,5.871,0,0,0-7.979,0l-.059.057C28.039,8.415,19.88,11.854,9.333,12.443A9.722,9.722,0,0,0,.179,21.968C.163,23,.136,23.93.1,24.818l0,.166c-.205,10.755-.46,24.14,4.018,36.289A46.2,46.2,0,0,0,15.192,78.535c5.571,5.437,12.868,9.753,21.688,12.828a6.717,6.717,0,0,0,.889.242,6.565,6.565,0,0,0,2.581,0,6.737,6.737,0,0,0,.892-.243c8.809-3.081,16.1-7.4,21.665-12.835A46.26,46.26,0,0,0,73.99,61.26C78.485,49.075,78.23,35.664,78.026,24.889ZM68.939,59.4C64.217,72.2,54.576,81,39.466,86.281a1.351,1.351,0,0,1-.171.046,1.208,1.208,0,0,1-.473,0,1.339,1.339,0,0,1-.169-.046C23.527,81.007,13.88,72.217,9.161,59.412c-4.127-11.2-3.893-23.486-3.687-34.326v-.06c.042-.932.07-1.907.085-2.979a4.321,4.321,0,0,1,4.073-4.229,47.228,47.228,0,0,0,16.03-3.526A41.939,41.939,0,0,0,38.727,5.515a.5.5,0,0,1,.666,0,41.955,41.955,0,0,0,13.063,8.776,47.23,47.23,0,0,0,16.031,3.526,4.32,4.32,0,0,1,4.072,4.23c.016,1.078.044,2.053.086,2.979C72.851,35.878,73.079,48.175,68.939,59.4Zm0,0" transform="translate(0 0)"/><path class="b" d="M113.26,128.41a22.862,22.862,0,1,0,22.862,22.862A22.887,22.887,0,0,0,113.26,128.41Zm0,40.34Z" transform="translate(-74.202 -105.404)"/><path class="c" d="M171.768,212.78,161.149,223.4l-2.882-2.882a2.691,2.691,0,1,0-3.807,3.806l4.786,4.786a2.691,2.691,0,0,0,3.806,0l12.522-12.522a2.691,2.691,0,0,0-3.807-3.806Zm0,0" transform="translate(-126.139 -174.01)"/></g></svg>