<svg xmlns="http://www.w3.org/2000/svg" width="133.835" height="127.984" viewBox="0 0 133.835 127.984"><defs><style>.a{fill:#dff8ec;}.b{fill:#fff;}.c{fill:#0a6d34;}.d{fill:#005e18;}</style></defs><g transform="translate(0 -11.192)"><path class="a" d="M70.14,18.417a10.838,10.838,0,0,0-6.577,13.959l36.383,99.007a16.957,16.957,0,0,0,21.668,10.21,16.78,16.78,0,1,0-16.337-28.815L70.14,18.417ZM113.127,118.6a7.733,7.733,0,1,1-4.594,9.924A7.733,7.733,0,0,1,113.127,118.6Z" transform="translate(-46.455 -5.337)"/><path class="a" d="M139.033,119.612a16.861,16.861,0,0,0-20.766-9.714q-.75.244-1.459.551a16.708,16.708,0,0,0-2.031,1.046q-.322.195-.634.4-.623.416-1.2.881L77.806,18.417h0c-.207.073-.409.153-.608.237-.06.025-.118.052-.177.078q-.214.094-.423.2l-.179.09q-.227.117-.446.244l-.112.063q-.283.168-.553.351l-.017.012c-.171.117-.338.239-.5.365l-.1.075q-.214.169-.419.348l-.077.067a10.855,10.855,0,0,0-.924.928h0l36.732,98.944q.284-.228.578-.444a14.691,14.691,0,1,1,20.5,20.826A16.779,16.779,0,0,0,139.033,119.612Z" transform="translate(-54.121 -5.337)"/><path class="b" d="M150.736,136.964H32.634a3.056,3.056,0,0,1-3.056-3.057V74.877a3.056,3.056,0,0,1,3.056-3.057h118.1a3.056,3.056,0,0,1,3.056,3.057v59.031A3.056,3.056,0,0,1,150.736,136.964Z" transform="translate(-21.846 -44.78)"/><g transform="translate(15.245 48.398)"><path class="c" d="M263.585,162.545h-9.706c-.709,0-1.08.7-1.08,1.384,0,.816.454,1.408,1.08,1.408h3.364v13.749c0,.636.617,1.08,1.5,1.08.746,0,1.5-.371,1.5-1.08V165.337h3.34c.636,0,1.08-.588,1.08-1.431C264.665,163.25,264.327,162.545,263.585,162.545Z" transform="translate(-201.963 -160.188)"/><path class="c" d="M328.96,163.029a1.817,1.817,0,0,0-1.838-1.021,1.8,1.8,0,0,0-1.817,1.027l-4.652,15.15a.879.879,0,0,0-.037.293c0,.761.951,1.291,1.805,1.291a1.027,1.027,0,0,0,1.116-.7l.9-3.132h5.384l.906,3.138a1.033,1.033,0,0,0,1.092.7c.863,0,1.828-.552,1.828-1.291a.894.894,0,0,0-.058-.287Zm-3.829,10.393,1.991-6.827,1.991,6.827Z" transform="translate(-252.053 -159.792)"/><path class="c" d="M410.246,177.936l-3.97-6.793,3.856-6.748a1.539,1.539,0,0,0,.22-.735c0-.816-.951-1.384-1.8-1.384a1.292,1.292,0,0,0-1.165.838l-3.044,5.565-3-5.562a1.319,1.319,0,0,0-1.167-.841c-.865,0-1.828.569-1.828,1.384a1.541,1.541,0,0,0,.222.738l3.854,6.745-3.978,6.808a1.372,1.372,0,0,0-.168.608c0,.819,1.013,1.478,1.852,1.478a1.232,1.232,0,0,0,1.024-.7l3.187-5.807,3.226,5.8a1.184,1.184,0,0,0,1.006.706c.867,0,1.875-.646,1.875-1.478A1.435,1.435,0,0,0,410.246,177.936Z" transform="translate(-309.413 -159.99)"/><path class="c" d="M267.486,279.046h4.153l2.617-3.192h-16.55l-2.617,3.192h6.317a6.112,6.112,0,0,1,4.487,3.776h-8.187l-2.617,3.192h10.745a6.441,6.441,0,0,1-5.843,3.81l-4.421.041,8,8.169h4.749l-5.534-5.648a9.162,9.162,0,0,0,6.7-6.372h2.154l2.617-3.192h-4.734A7.9,7.9,0,0,0,267.486,279.046Z" transform="translate(-255.089 -275.854)"/></g><path class="b" d="M150.736,71.82H142.05v56.9a3.056,3.056,0,0,1-3.057,3.057H29.578v2.135a3.056,3.056,0,0,0,3.056,3.057h118.1a3.056,3.056,0,0,0,3.056-3.057V74.877A3.056,3.056,0,0,0,150.736,71.82Z" transform="translate(-21.846 -44.78)"/><path class="a" d="M69.689,18.417,34.551,112.778a16.78,16.78,0,1,0-16.337,28.815,16.957,16.957,0,0,0,21.668-10.21L76.265,32.376a10.838,10.838,0,0,0-6.577-13.959ZM31.3,128.52A7.733,7.733,0,1,1,26.7,118.6,7.732,7.732,0,0,1,31.3,128.52Z" transform="translate(-5.356 -5.337)"/><path class="a" d="M80.574,19.914a10.815,10.815,0,0,1,.961,9.44L45.152,128.361a16.771,16.771,0,0,1-24.462,8.868,16.7,16.7,0,0,0,7.45,5.469,16.957,16.957,0,0,0,21.668-10.21L86.191,33.482A10.838,10.838,0,0,0,80.574,19.914Z" transform="translate(-15.282 -6.442)"/><path class="d" d="M47.581,393.216A9.621,9.621,0,1,0,53,398.206,9.632,9.632,0,0,0,47.581,393.216Zm2.17,11.046a5.845,5.845,0,1,1-.183-4.469A5.852,5.852,0,0,1,49.75,404.262Z" transform="translate(-25.584 -281.729)"/><path class="c" d="M131.946,73.272a1.888,1.888,0,0,0,1.889-1.889V30.1a4.95,4.95,0,0,0-4.945-4.945H73.33A12.733,12.733,0,0,0,64.959,11.3a1.888,1.888,0,0,0-2.4,1.122l-4.74,12.73H30.195l-4.74-12.73a1.889,1.889,0,0,0-2.4-1.122,12.734,12.734,0,0,0-8.371,13.852h-3.9A4.951,4.951,0,0,0,5.843,30.1V89.128a4.95,4.95,0,0,0,4.945,4.945h21.37L28.274,104.5A18.669,18.669,0,1,0,12.2,138.028a18.363,18.363,0,0,0,6.379,1.148,18.6,18.6,0,0,0,7.8-1.731A18.946,18.946,0,0,0,36.3,126.7l7.71-20.98,7.71,20.98a18.946,18.946,0,0,0,9.912,10.746,18.6,18.6,0,0,0,7.8,1.731,18.657,18.657,0,0,0,17.231-25.6A18.67,18.67,0,0,0,59.742,104.5l-3.884-10.43h73.031a4.951,4.951,0,0,0,4.945-4.945v-5.72a1.889,1.889,0,1,0-3.777,0v5.72a1.169,1.169,0,0,1-1.168,1.168H49.676L72.227,28.928H128.89a1.169,1.169,0,0,1,1.168,1.168V71.384A1.888,1.888,0,0,0,131.946,73.272ZM19.186,19.49a8.881,8.881,0,0,1,3.443-3.834l3.536,9.5H18.523A8.876,8.876,0,0,1,19.186,19.49ZM10.788,90.3A1.169,1.169,0,0,1,9.62,89.128V30.1a1.169,1.169,0,0,1,1.168-1.168H41.121V33.96a1.889,1.889,0,1,0,3.777,0V28.928H56.416L44.9,59.86V45.832a1.889,1.889,0,1,0-3.777,0V70L33.565,90.3Zm41.04,3.777L57.052,108.1a1.888,1.888,0,0,0,2.953.813,14.892,14.892,0,1,1,14.5,25.571,14.647,14.647,0,0,1-11.291-.471,15.2,15.2,0,0,1-7.949-8.619l-9.243-25.152,2.268-6.17h3.54ZM69.137,26.388,32.754,125.4a15.194,15.194,0,0,1-7.949,8.618A14.842,14.842,0,0,1,4.859,114.976a14.89,14.89,0,0,1,23.154-6.063,1.888,1.888,0,0,0,2.953-.813l5.681-15.257h0L65.389,15.656a8.957,8.957,0,0,1,3.748,10.732Z" transform="translate(0 0)"/><path class="d" d="M238.078,411.868a9.622,9.622,0,1,0-9.042-6.306A9.573,9.573,0,0,0,238.078,411.868Zm-2.024-15.108a5.844,5.844,0,1,1-3.472,7.5A5.825,5.825,0,0,1,236.054,396.76Z" transform="translate(-168.732 -281.728)"/></g></svg>