<svg xmlns="http://www.w3.org/2000/svg" width="102" height="102.224" viewBox="0 0 102 102.224"><defs><style>.a{fill:#dff8ec;}.b{fill:#2ad181;}</style></defs><g transform="translate(-4007 7753)"><ellipse class="a" cx="32" cy="31.5" rx="32" ry="31.5" transform="translate(4026 -7734)"/><g transform="translate(4006.769 -7752.999)"><path class="b" d="M130.017,84.836a32.058,32.058,0,1,0,9.39,22.669,32.059,32.059,0,0,0-9.39-22.669Zm-2.144,43.193a29.027,29.027,0,1,1,8.5-20.524,29.025,29.025,0,0,1-8.5,20.524Zm0,0" transform="translate(-56.086 -56.378)"/><path class="b" d="M87.333,14.944c-.026-.025,0,.115-.03-.138h6.77a1.516,1.516,0,0,0,0-3.033h-10.1a51.251,51.251,0,0,0-68.858,3.171c-.076.076-.25.217-.25.293V8.106a1.516,1.516,0,0,0-3.033,0V18.59a51.377,51.377,0,0,0,3.283,68.7.451.451,0,0,0,.04.056H8.094a1.516,1.516,0,0,0,0,3.033H18.476a51.265,51.265,0,0,0,32.737,11.848A50.7,50.7,0,0,0,87.151,87.375v6.71a1.516,1.516,0,1,0,3.033,0v-10a51.255,51.255,0,0,0-2.851-69.145ZM20.175,87.8V78.162a1.516,1.516,0,0,0-3.033,0V85a48.213,48.213,0,0,1-2.681-64.891h9.556a1.516,1.516,0,0,0,0-3.033H17.234c.018,0,.035.026.052.009A47.974,47.974,0,0,1,81.844,14.15v9.879a1.516,1.516,0,1,0,3.033,0V16.895c.253.086.225.21.312.3a48.164,48.164,0,0,1,2.926,64.843H78.15a1.516,1.516,0,1,0,0,3.033h7.2a.248.248,0,0,0-.137.074A48.138,48.138,0,0,1,20.175,87.8Zm0,0" transform="translate(0)"/><path class="b" d="M179.4,145.615a1.516,1.516,0,0,0,0-3.033H161.466a1.516,1.516,0,1,0,0,3.033H166.6a6.2,6.2,0,0,1,5.991,4.8H161.466a1.516,1.516,0,1,0,0,3.033h11.123A6.26,6.26,0,0,1,166.6,158h-5.133a1.523,1.523,0,0,0-1.042,2.628l12.828,12.124a1.518,1.518,0,1,0,2.083-2.21l-10.055-9.509h1.32a9.185,9.185,0,0,0,9.085-7.582H179.4a1.516,1.516,0,0,0,0-3.033h-3.72a9.6,9.6,0,0,0-2.26-4.8Zm0,0" transform="translate(-119.35 -106.546)"/></g></g></svg>