<svg xmlns="http://www.w3.org/2000/svg" xmlns:xlink="http://www.w3.org/1999/xlink" width="936" height="419" viewBox="0 0 936 419"><defs><style>.a,.c,.e{fill:none;}.b{fill:#f5f6f7;}.c{stroke:#707070;stroke-dasharray:9 5;opacity:0.3;}.c,.e{stroke-width:2px;}.d{fill:#f98cab;}.e{stroke:#fff;stroke-linecap:round;stroke-linejoin:round;}.f{fill:rgba(255,255,255,0.6);}.g{fill:#c4385f;}.h{clip-path:url(#a);}.i,.j{fill:#fff;}.i{opacity:0.8;}.k{stroke:none;}</style><clipPath id="a"><path class="a" d="M1.051,19.56C1.542,9.816,12.261,0,22.41,0h0C32.558,0,43.277,9.816,43.768,19.56l1.267,25.134a7.4,7.4,0,0,1-8.92,7.424L22.41,49.558,8.7,52.119a7.4,7.4,0,0,1-8.92-7.424Z" transform="translate(0.225)"/></clipPath></defs><g transform="translate(-79 -2834)"><path class="b" d="M33,0H903a33,33,0,0,1,33,33V386a33,33,0,0,1-33,33H33A33,33,0,0,1,0,386V33A33,33,0,0,1,33,0Z" transform="translate(79 2834)"/><g class="c" transform="translate(141 2899)"><rect class="k" width="812" height="290" rx="21"/><rect class="a" x="1" y="1" width="810" height="288" rx="20"/></g><path d="M.66-18.96v-2.97H17.58v2.97H10.95V-.6H7.26V-18.96ZM26.585-.6a5.256,5.256,0,0,1-.42-1.5,5.473,5.473,0,0,1-4.17,1.8A5.583,5.583,0,0,1,18.11-1.665,4.362,4.362,0,0,1,16.595-5.04a4.5,4.5,0,0,1,1.89-3.9,9.083,9.083,0,0,1,5.34-1.35h2.22v-1.02a2.8,2.8,0,0,0-.69-1.995,2.708,2.708,0,0,0-2.07-.735,3.072,3.072,0,0,0-2.04.63,1.93,1.93,0,0,0-.75,1.53h-3.54a4.371,4.371,0,0,1,1.755-3.36,7.077,7.077,0,0,1,4.755-1.5,6.928,6.928,0,0,1,4.41,1.365,4.885,4.885,0,0,1,1.74,4.1v7.02a8.194,8.194,0,0,0,.6,3.42V-.6Zm-.54-4.47v-3h-2.16q-3.72.09-3.72,2.67a2.179,2.179,0,0,0,.645,1.605,2.54,2.54,0,0,0,1.875.645,3.678,3.678,0,0,0,2.115-.6A3.585,3.585,0,0,0,26.045-5.07ZM41.529-.3a5.428,5.428,0,0,1-4.17-1.71v7.5h-3.54V-16.44h3.27l.15,1.59a5.283,5.283,0,0,1,4.26-1.89,5.328,5.328,0,0,1,4.62,2.22,9.833,9.833,0,0,1,1.59,5.85v.3A9.855,9.855,0,0,1,46.1-2.61,5.239,5.239,0,0,1,41.529-.3Zm-1.02-13.53A3.29,3.29,0,0,0,37.359-12v6.99a3.345,3.345,0,0,0,3.18,1.86A2.9,2.9,0,0,0,43.3-4.695a7.586,7.586,0,0,0,.84-3.675v-.3a7.305,7.305,0,0,0-.855-3.645A2.944,2.944,0,0,0,40.509-13.83ZM66.438-.66A7.014,7.014,0,0,1,64.1-.3a4.352,4.352,0,0,1-2.94-1,4.373,4.373,0,0,1-1.17-3.465v-9.06h-2.61v-2.61h2.61v-3.87h3.54v3.87h2.82v2.61h-2.82v8.85q0,1.08.465,1.4a2.127,2.127,0,0,0,1.215.315,5.3,5.3,0,0,0,1.23-.15Zm1.835-8.01a8.622,8.622,0,0,1,1.95-5.76,6.686,6.686,0,0,1,5.4-2.31,6.723,6.723,0,0,1,5.385,2.25,8.589,8.589,0,0,1,2,5.64v.48a8.665,8.665,0,0,1-1.935,5.76A6.676,6.676,0,0,1,75.653-.3a6.72,6.72,0,0,1-5.43-2.31,8.622,8.622,0,0,1-1.95-5.76Zm3.54.3a7.082,7.082,0,0,0,.915,3.675A3.145,3.145,0,0,0,75.653-3.15a3.118,3.118,0,0,0,2.895-1.545,7.082,7.082,0,0,0,.915-3.675v-.3a7.1,7.1,0,0,0-.915-3.66,3.138,3.138,0,0,0-2.925-1.56,3.111,3.111,0,0,0-2.895,1.56,7.1,7.1,0,0,0-.915,3.66ZM103.862-.6a5.256,5.256,0,0,1-.42-1.5,5.473,5.473,0,0,1-4.17,1.8,5.583,5.583,0,0,1-3.885-1.365A4.362,4.362,0,0,1,93.872-5.04a4.5,4.5,0,0,1,1.89-3.9,9.083,9.083,0,0,1,5.34-1.35h2.22v-1.02a2.8,2.8,0,0,0-.69-1.995,2.708,2.708,0,0,0-2.07-.735,3.072,3.072,0,0,0-2.04.63,1.93,1.93,0,0,0-.75,1.53h-3.54a4.371,4.371,0,0,1,1.755-3.36,7.077,7.077,0,0,1,4.755-1.5,6.928,6.928,0,0,1,4.41,1.365,4.885,4.885,0,0,1,1.74,4.1v7.02a8.194,8.194,0,0,0,.6,3.42V-.6Zm-.54-4.47v-3h-2.16q-3.72.09-3.72,2.67a2.179,2.179,0,0,0,.645,1.605,2.54,2.54,0,0,0,1.875.645,3.678,3.678,0,0,0,2.115-.6A3.584,3.584,0,0,0,103.322-5.07ZM121.086-.6l-.15-1.65a5.214,5.214,0,0,1-4.26,1.95,5.356,5.356,0,0,1-4.56-2.295,9.467,9.467,0,0,1-1.68-5.745v-.33a9.46,9.46,0,0,1,1.68-5.835,5.432,5.432,0,0,1,4.59-2.235,5.129,5.129,0,0,1,4.05,1.74v-8.1h3.57V-.6Zm-7.11-7.74a7.345,7.345,0,0,0,.84,3.615,2.911,2.911,0,0,0,2.76,1.515,3.32,3.32,0,0,0,3.18-1.98v-6.75a3.314,3.314,0,0,0-3.15-1.89,2.937,2.937,0,0,0-2.79,1.515,7.411,7.411,0,0,0-.84,3.645ZM138.491-.6l-.15-1.65a5.214,5.214,0,0,1-4.26,1.95,5.356,5.356,0,0,1-4.56-2.295,9.467,9.467,0,0,1-1.68-5.745v-.33a9.46,9.46,0,0,1,1.68-5.835,5.432,5.432,0,0,1,4.59-2.235,5.129,5.129,0,0,1,4.05,1.74v-8.1h3.57V-.6Zm-7.11-7.74a7.345,7.345,0,0,0,.84,3.615,2.911,2.911,0,0,0,2.76,1.515,3.32,3.32,0,0,0,3.18-1.98v-6.75a3.314,3.314,0,0,0-3.15-1.89,2.937,2.937,0,0,0-2.79,1.515,7.411,7.411,0,0,0-.84,3.645ZM165.32-6.12a2.607,2.607,0,0,0-.84-2.025,11.8,11.8,0,0,0-3.885-1.71,15.454,15.454,0,0,1-4.935-2.415,4.848,4.848,0,0,1-1.89-4.05,5.2,5.2,0,0,1,2.085-4.245,8.512,8.512,0,0,1,5.475-1.665,7.865,7.865,0,0,1,5.64,1.935,6.133,6.133,0,0,1,2.04,4.6h-3.69a3.541,3.541,0,0,0-.99-2.595,4.131,4.131,0,0,0-3.06-1.005,4.148,4.148,0,0,0-2.88.855,2.758,2.758,0,0,0-.93,2.115,2.339,2.339,0,0,0,1.11,1.98,11.794,11.794,0,0,0,3.36,1.44,13.536,13.536,0,0,1,5.355,2.625A5.323,5.323,0,0,1,169.01-6.15a5.1,5.1,0,0,1-2.055,4.275A8.876,8.876,0,0,1,161.42-.3a10.676,10.676,0,0,1-3.945-.75,7.661,7.661,0,0,1-3.15-2.25,5.674,5.674,0,0,1-1.245-3.75h3.72a3.247,3.247,0,0,0,1.335,2.925,5.816,5.816,0,0,0,3.285.885,4.557,4.557,0,0,0,2.925-.795A2.56,2.56,0,0,0,165.32-6.12ZM185.485-3.3a7.488,7.488,0,0,1-2.235,2.055,7.141,7.141,0,0,1-3.885.945,7.143,7.143,0,0,1-5.535-2.2A7.789,7.789,0,0,1,171.8-7.98v-.6a8.35,8.35,0,0,1,2.07-5.955,6.719,6.719,0,0,1,5.1-2.205,6.015,6.015,0,0,1,5.115,2.19,9.062,9.062,0,0,1,1.665,5.64v1.5H175.4a5.066,5.066,0,0,0,1.23,3.045A3.77,3.77,0,0,0,179.6-3.15a4.781,4.781,0,0,0,3.96-1.98Zm-6.51-10.59a3.008,3.008,0,0,0-2.37,1.02,5.237,5.237,0,0,0-1.14,2.85h6.75v-.27a4.962,4.962,0,0,0-.765-2.49A2.7,2.7,0,0,0,178.975-13.89Zm13.775-9.21V-.6h-3.57V-23.1Zm12.395,9.27h-3.21V-.6h-3.57V-13.83h-2.43v-2.61h2.43v-1.53a5.27,5.27,0,0,1,1.485-4.035,5.7,5.7,0,0,1,4.065-1.395,7.832,7.832,0,0,1,2.01.27l-.09,2.76a7.09,7.09,0,0,0-1.38-.12,2.217,2.217,0,0,0-2.52,2.46v1.59h3.21Zm3.035-6.75a1.832,1.832,0,0,1,.54-1.35,2.007,2.007,0,0,1,1.485-.54,2.007,2.007,0,0,1,1.485.54,1.832,1.832,0,0,1,.54,1.35,1.832,1.832,0,0,1-.54,1.35,2.007,2.007,0,0,1-1.485.54,2.007,2.007,0,0,1-1.485-.54A1.832,1.832,0,0,1,208.178-20.58Zm3.78,4.14V-.6h-3.57V-16.44ZM229.393-3.3a7.488,7.488,0,0,1-2.235,2.055,7.141,7.141,0,0,1-3.885.945,7.143,7.143,0,0,1-5.535-2.2,7.789,7.789,0,0,1-2.025-5.475v-.6a8.35,8.35,0,0,1,2.07-5.955,6.719,6.719,0,0,1,5.1-2.205A6.015,6.015,0,0,1,228-14.55a9.062,9.062,0,0,1,1.665,5.64v1.5h-10.35a5.066,5.066,0,0,0,1.23,3.045,3.77,3.77,0,0,0,2.97,1.215,4.781,4.781,0,0,0,3.96-1.98Zm-6.51-10.59a3.008,3.008,0,0,0-2.37,1.02,5.237,5.237,0,0,0-1.14,2.85h6.75v-.27a4.962,4.962,0,0,0-.765-2.49A2.7,2.7,0,0,0,222.883-13.89Zm35.259-8.04L250.462-.6h-3.57l-7.65-21.33h4.05l5.37,16.68,5.4-16.68Zm2.525,1.35a1.832,1.832,0,0,1,.54-1.35,2.007,2.007,0,0,1,1.485-.54,2.007,2.007,0,0,1,1.485.54,1.832,1.832,0,0,1,.54,1.35,1.832,1.832,0,0,1-.54,1.35,2.007,2.007,0,0,1-1.485.54,2.007,2.007,0,0,1-1.485-.54A1.832,1.832,0,0,1,260.666-20.58Zm3.78,4.14V-.6h-3.57V-16.44ZM278.791-.6l-.15-1.65a5.214,5.214,0,0,1-4.26,1.95,5.356,5.356,0,0,1-4.56-2.295,9.467,9.467,0,0,1-1.68-5.745v-.33a9.46,9.46,0,0,1,1.68-5.835,5.432,5.432,0,0,1,4.59-2.235,5.129,5.129,0,0,1,4.05,1.74v-8.1h3.57V-.6Zm-7.11-7.74a7.345,7.345,0,0,0,.84,3.615,2.911,2.911,0,0,0,2.76,1.515,3.32,3.32,0,0,0,3.18-1.98v-6.75a3.314,3.314,0,0,0-3.15-1.89,2.937,2.937,0,0,0-2.79,1.515,7.411,7.411,0,0,0-.84,3.645Zm27.6,5.04a7.488,7.488,0,0,1-2.235,2.055,7.14,7.14,0,0,1-3.885.945,7.143,7.143,0,0,1-5.535-2.2,7.789,7.789,0,0,1-2.025-5.475v-.6a8.35,8.35,0,0,1,2.07-5.955,6.719,6.719,0,0,1,5.1-2.205,6.015,6.015,0,0,1,5.115,2.19,9.062,9.062,0,0,1,1.665,5.64v1.5h-10.35a5.067,5.067,0,0,0,1.23,3.045,3.77,3.77,0,0,0,2.97,1.215,4.781,4.781,0,0,0,3.96-1.98Zm-6.51-10.59a3.008,3.008,0,0,0-2.37,1.02,5.237,5.237,0,0,0-1.14,2.85h6.75v-.27a4.962,4.962,0,0,0-.765-2.49A2.7,2.7,0,0,0,292.775-13.89Zm9.335,5.22a8.622,8.622,0,0,1,1.95-5.76,6.686,6.686,0,0,1,5.4-2.31,6.723,6.723,0,0,1,5.385,2.25,8.589,8.589,0,0,1,1.995,5.64v.48A8.665,8.665,0,0,1,314.9-2.61,6.676,6.676,0,0,1,309.49-.3a6.72,6.72,0,0,1-5.43-2.31,8.622,8.622,0,0,1-1.95-5.76Zm3.54.3a7.082,7.082,0,0,0,.915,3.675A3.145,3.145,0,0,0,309.49-3.15a3.118,3.118,0,0,0,2.9-1.545A7.082,7.082,0,0,0,313.3-8.37v-.3a7.1,7.1,0,0,0-.915-3.66,3.138,3.138,0,0,0-2.925-1.56,3.111,3.111,0,0,0-2.895,1.56,7.1,7.1,0,0,0-.915,3.66Z" transform="translate(388.34 3124)"/><g transform="translate(15354.34 -4467)"><rect class="d" width="78" height="114" rx="14" transform="translate(-14846 7432)"/><path class="e" d="M-14833,7455.75v-5.95h6"/><path class="e" d="M-14833,7455.75v-5.95h6" transform="translate(-7328.75 22282.775) rotate(90)"/><path class="e" d="M-14833,7455.75v-5.95h6" transform="translate(-22282.775 -7301.225) rotate(-90)"/><path class="e" d="M-14833,7455.75v-5.95h6" transform="translate(-29612.5 14981.55) rotate(180)"/><g transform="translate(-142 20)"><path class="f" d="M1.051,19.56C1.542,9.816,12.261,0,22.41,0h0C32.558,0,43.277,9.816,43.768,19.56l1.267,25.134a7.4,7.4,0,0,1-8.92,7.424L22.41,49.558,8.7,52.119a7.4,7.4,0,0,1-8.92-7.424Z" transform="translate(-14687 7438.996)"/><path class="g" d="M52,47.172H0v-7A15,15,0,0,1,13.71,25.227a15.4,15.4,0,0,0,25.488.105A15,15,0,0,1,52,40.172v7Z" transform="translate(-14691 7449.828)"/><g transform="translate(-14687.021 7438.987)"><path class="a" d="M1.051,19.56C1.542,9.816,12.261,0,22.41,0h0C32.558,0,43.277,9.816,43.768,19.56l1.267,25.134a7.4,7.4,0,0,1-8.92,7.424L22.41,49.558,8.7,52.119a7.4,7.4,0,0,1-8.92-7.424Z" transform="translate(0.225 0)"/><g class="h" transform="translate(0 0)"><ellipse class="f" cx="15.621" cy="16.016" rx="15.621" ry="16.016" transform="translate(6.891 10.841)"/><path class="i" d="M73.731,31.523,17.093,0,0,28.541,56.638,60.064Z" transform="translate(-1.857 -28.003)"/><path class="j" d="M0,31.523,56.638,0,73.731,28.541,47.7,43.027,17.093,60.064Z" transform="translate(-26.851 -24.399)"/></g></g></g></g></g></svg>