<svg xmlns="http://www.w3.org/2000/svg" xmlns:xlink="http://www.w3.org/1999/xlink" width="936" height="419" viewBox="0 0 936 419"><defs><style>.a{fill:#f5f6f7;}.b,.i{fill:none;}.b{stroke:#707070;stroke-width:2px;stroke-dasharray:9 5;}.b,.g{opacity:0.3;}.c,.f{stroke:#1d7fea;}.c{fill:url(#a);}.d{fill:#afd4ff;}.e{fill:url(#b);}.f{fill:#278eff;}.h,.j{stroke:none;}.j{fill:#1d7fea;}</style><linearGradient id="a" x1="0.5" y1="0.086" x2="0.5" y2="0.909" gradientUnits="objectBoundingBox"><stop offset="0" stop-color="#f4f9ff"/><stop offset="1" stop-color="#c8e1fe"/></linearGradient><linearGradient id="b" x1="0.526" y1="-0.072" x2="0.5" y2="2.442" gradientUnits="objectBoundingBox"><stop offset="0" stop-color="#208aff"/><stop offset="1" stop-color="#104580"/></linearGradient></defs><g transform="translate(-86 -786)"><rect class="a" width="936" height="419" rx="33" transform="translate(86 786)"/><g class="b" transform="translate(148 851)"><rect class="h" width="812" height="290" rx="21"/><rect class="i" x="1" y="1" width="810" height="288" rx="20"/></g><g transform="translate(-0.22 -1)"><g transform="translate(515.324 894)"><g class="c" transform="translate(-0.324)"><rect class="h" width="78" height="114" rx="16"/><rect class="i" x="0.5" y="0.5" width="77" height="113" rx="15.5"/></g><path class="d" d="M16,44.56a16,16,0,0,1-16-16V11.436L4.839,4.628a11,11,0,0,1,17.932,0L51.154,44.56Z" transform="translate(0.7 68.549)"/><g class="e" transform="translate(6.289 53.409)"><path class="h" d="M 55.89540100097656 60.09160232543945 L 9.520200729370117 60.09160232543945 C 6.333798885345459 60.09160232543945 3.293337345123291 59.14039611816406 0.6955264210700989 57.33590316772461 L 37.95463943481445 4.917481899261475 C 38.97045135498047 3.488211870193481 40.26608276367188 2.373661994934082 41.80554962158203 1.604771971702576 C 43.25173950195312 0.8824619054794312 44.87951278686523 0.5006819367408752 46.51290130615234 0.5006819367408752 C 48.14628982543945 0.5006819367408752 49.7740592956543 0.8824619054794312 51.22024917602539 1.604771971702576 C 52.75971984863281 2.373661994934082 54.05535125732422 3.488211870193481 55.07115173339844 4.91746187210083 L 71.39559936523438 27.88418006896973 L 71.39559936523438 44.59140014648438 C 71.39559936523438 48.73186111450195 69.78336334228516 52.62436294555664 66.85585784912109 55.55186080932617 C 63.92835998535156 58.47936248779297 60.03586196899414 60.09160232543945 55.89540100097656 60.09160232543945 Z"/><path class="j" d="M 55.89540100097656 59.59160232543945 C 59.90230941772461 59.59160232543945 63.66925048828125 58.0313606262207 66.50231170654297 55.19831085205078 C 69.33535766601562 52.36525344848633 70.89559936523438 48.59831237792969 70.89559936523438 44.59140014648438 L 70.89559936523438 28.04377937316895 L 54.66358947753906 5.207111835479736 C 53.69581985473633 3.845441818237305 52.46215057373047 2.783931970596313 50.99684143066406 2.052081823348999 C 49.61967086791992 1.364251971244812 48.06914901733398 1.00068187713623 46.51290130615234 1.00068187713623 C 44.95664978027344 1.00068187713623 43.40613174438477 1.364251971244812 42.02896118164062 2.052081823348999 C 40.56365203857422 2.783931970596313 39.32998275756836 3.845441818237305 38.3621711730957 5.207161903381348 L 1.400778532028198 57.20672988891602 C 3.819666147232056 58.77007293701172 6.606765270233154 59.59160232543945 9.520200729370117 59.59160232543945 L 55.89540100097656 59.59160232543945 M 55.89540100097656 60.59160232543945 L 9.520200729370117 60.59160232543945 C 5.953691005706787 60.59160232543945 2.660070896148682 59.42480087280273 -0.0002990905777551234 57.45180130004883 L 37.54710006713867 4.627801895141602 C 39.739501953125 1.543051958084106 43.12620162963867 0.0006769348401576281 46.51290130615234 0.0006769348401576281 C 49.89960098266602 0.0006769348401576281 53.28630065917969 1.543051958084106 55.47870254516602 4.627801895141602 L 71.89559936523438 27.7245922088623 L 71.89559936523438 44.59140014648438 C 71.89559936523438 53.42850112915039 64.73249816894531 60.59160232543945 55.89540100097656 60.59160232543945 Z"/></g><g class="f" transform="translate(13.676 28)"><ellipse class="h" cx="11" cy="10.5" rx="11" ry="10.5"/><ellipse class="i" cx="11" cy="10.5" rx="10.5" ry="10"/></g></g><path class="g" d="M73.324,21.2a2.384,2.384,0,0,0-.78-1.872,9.549,9.549,0,0,0-3.312-1.44,11.993,11.993,0,0,1-4.008-1.9,3.748,3.748,0,0,1-1.476-3.12,4.169,4.169,0,0,1,1.584-3.324,6.348,6.348,0,0,1,4.224-1.332A5.953,5.953,0,0,1,74,9.8a4.972,4.972,0,0,1,1.56,3.576H73.3a3.252,3.252,0,0,0-.924-2.364,3.777,3.777,0,0,0-2.82-.948,3.889,3.889,0,0,0-2.676.792A2.571,2.571,0,0,0,66,12.848a2.144,2.144,0,0,0,.924,1.764,9.414,9.414,0,0,0,2.988,1.308,10.762,10.762,0,0,1,4.332,2.04A4.126,4.126,0,0,1,75.6,21.176a3.987,3.987,0,0,1-1.632,3.336,6.927,6.927,0,0,1-4.32,1.248,8.226,8.226,0,0,1-3.048-.588,5.893,5.893,0,0,1-2.436-1.74,4.346,4.346,0,0,1-.948-2.856h2.232a2.764,2.764,0,0,0,1.284,2.544,5.441,5.441,0,0,0,2.916.792,4.383,4.383,0,0,0,2.724-.732A2.37,2.37,0,0,0,73.324,21.2Zm12.7,4.32L86,24.272a4.58,4.58,0,0,1-3.72,1.488,4.156,4.156,0,0,1-3-1.1,4.888,4.888,0,0,1-1.152-3.648v-8.16h2.16v8.184a2.869,2.869,0,0,0,.72,2.3,2.51,2.51,0,0,0,1.608.576,3.3,3.3,0,0,0,3.312-1.848V12.848h2.184V25.52Zm11.16.24A4.679,4.679,0,0,1,93.556,24.3v6.1H91.372V12.848h1.992l.12,1.392a4.46,4.46,0,0,1,3.672-1.632,4.239,4.239,0,0,1,3.672,1.776,7.866,7.866,0,0,1,1.272,4.68v.264a7.828,7.828,0,0,1-1.284,4.6A4.177,4.177,0,0,1,97.18,25.76Zm-.672-11.328a3.184,3.184,0,0,0-2.952,1.752v6.072a3.243,3.243,0,0,0,2.976,1.728A2.762,2.762,0,0,0,99.1,22.592a6.337,6.337,0,0,0,.816-3.264v-.264a6.272,6.272,0,0,0-.816-3.252A2.789,2.789,0,0,0,96.508,14.432Zm14.16,11.328a4.679,4.679,0,0,1-3.624-1.464v6.1H104.86V12.848h1.992l.12,1.392a4.46,4.46,0,0,1,3.672-1.632,4.239,4.239,0,0,1,3.672,1.776,7.866,7.866,0,0,1,1.272,4.68v.264a7.828,7.828,0,0,1-1.284,4.6A4.177,4.177,0,0,1,110.668,25.76ZM110,14.432a3.184,3.184,0,0,0-2.952,1.752v6.072a3.243,3.243,0,0,0,2.976,1.728,2.762,2.762,0,0,0,2.568-1.392,6.337,6.337,0,0,0,.816-3.264v-.264a6.272,6.272,0,0,0-.816-3.252A2.789,2.789,0,0,0,110,14.432Zm7.8,4.608a6.9,6.9,0,0,1,1.548-4.584,5.749,5.749,0,0,1,8.412-.036,6.954,6.954,0,0,1,1.584,4.524v.384a6.863,6.863,0,0,1-1.56,4.584,5.738,5.738,0,0,1-8.436,0,6.9,6.9,0,0,1-1.548-4.584Zm2.16.288a5.878,5.878,0,0,0,.9,3.264,3.32,3.32,0,0,0,5.388.024,5.747,5.747,0,0,0,.912-3.264V19.04a5.894,5.894,0,0,0-.9-3.252,3.3,3.3,0,0,0-5.4,0,5.894,5.894,0,0,0-.9,3.252Zm17.16-4.632a2.87,2.87,0,0,0-2.9,1.824v9h-2.16V12.848h2.112l.048,1.44a3.314,3.314,0,0,1,3-1.68,2.2,2.2,0,0,1,.96.168v2.016A5.394,5.394,0,0,0,137.116,14.7ZM146.74,25.52a5.233,5.233,0,0,1-1.656.24,3.046,3.046,0,0,1-2.076-.744,3.381,3.381,0,0,1-.852-2.64V14.5h-2.328V12.848h2.328v-3.1h2.16v3.1h2.376V14.5h-2.376v7.872q0,.984.432,1.248a1.849,1.849,0,0,0,.984.264,4.459,4.459,0,0,0,1.008-.144Zm9.864-3.36a1.8,1.8,0,0,0-.5-1.248,4.728,4.728,0,0,0-2.352-.936,9.686,9.686,0,0,1-3.372-1.26,2.707,2.707,0,0,1-1.26-2.412,3.328,3.328,0,0,1,1.284-2.592,5.926,5.926,0,0,1,6.972.06,3.659,3.659,0,0,1,1.272,2.8h-2.16a2.087,2.087,0,0,0-.7-1.488,3.287,3.287,0,0,0-3.9-.108,1.789,1.789,0,0,0-.588,1.284,1.333,1.333,0,0,0,.552,1.116,6.863,6.863,0,0,0,2.3.828,9.366,9.366,0,0,1,3.492,1.38,2.834,2.834,0,0,1,1.14,2.412,3.289,3.289,0,0,1-1.344,2.724,5.632,5.632,0,0,1-3.552,1.044,5.347,5.347,0,0,1-3.864-1.3,3.906,3.906,0,0,1-1.344-2.856h2.184a2.053,2.053,0,0,0,1.044,1.86,4.179,4.179,0,0,0,1.98.516,3.348,3.348,0,0,0,2.016-.516A1.567,1.567,0,0,0,156.6,22.16Zm4.92,2.688a1.344,1.344,0,0,1,.348-.936,1.484,1.484,0,0,1,1.992,0,1.344,1.344,0,0,1,.348.936,1.344,1.344,0,1,1-2.688,0Zm0-10.344a1.344,1.344,0,0,1,.348-.936,1.515,1.515,0,0,1,2.016,0,1.344,1.344,0,0,1,.348.936,1.312,1.312,0,0,1-.348.912,1.515,1.515,0,0,1-2.016,0A1.312,1.312,0,0,1,161.524,14.5Zm19.344-6.048h2.256V20.528a4.909,4.909,0,0,1-1.524,3.888,5.644,5.644,0,0,1-3.876,1.344,5.945,5.945,0,0,1-3.864-1.224,4.531,4.531,0,0,1-1.512-3.744H174.6a2.953,2.953,0,0,0,.876,2.376,3.346,3.346,0,0,0,2.244.744,3.137,3.137,0,0,0,2.244-.852,3.326,3.326,0,0,0,.9-2.532Zm8.352,10.368v6.7h-2.256V8.456h6.288a6.191,6.191,0,0,1,4.44,1.464,4.945,4.945,0,0,1,1.536,3.744,4.8,4.8,0,0,1-1.536,3.816,6.546,6.546,0,0,1-4.44,1.344Zm0-8.52V17h4.032a3.739,3.739,0,0,0,2.856-.936,3.366,3.366,0,0,0,.864-2.376,3.562,3.562,0,0,0-.864-2.352,3.533,3.533,0,0,0-2.856-1.032Zm25.488,6.72v6.24a6.535,6.535,0,0,1-1.824,1.608,7.832,7.832,0,0,1-4.224.888,6.688,6.688,0,0,1-5.1-2.136,8.4,8.4,0,0,1-2-5.976v-1.32a9.1,9.1,0,0,1,1.776-5.964,6.227,6.227,0,0,1,5.088-2.148,6.108,6.108,0,0,1,4.44,1.476,6.386,6.386,0,0,1,1.848,3.756h-2.256a4.574,4.574,0,0,0-1.164-2.388,3.736,3.736,0,0,0-2.868-1,3.878,3.878,0,0,0-3.468,1.668,8.117,8.117,0,0,0-1.14,4.5v1.416a7.122,7.122,0,0,0,1.344,4.608,4.324,4.324,0,0,0,3.528,1.656,5.887,5.887,0,0,0,2.628-.432,4.152,4.152,0,0,0,1.14-.816V18.848h-3.936V17.024Zm5.376,6.408V25.16a5.482,5.482,0,0,1-.54,2.268,5.334,5.334,0,0,1-1.524,1.98l-1.224-.864a5.692,5.692,0,0,0,1.176-3.192v-1.92Zm16.2-14.976h2.256V20.528a4.909,4.909,0,0,1-1.524,3.888,5.644,5.644,0,0,1-3.876,1.344,5.945,5.945,0,0,1-3.864-1.224,4.531,4.531,0,0,1-1.512-3.744h2.256a2.953,2.953,0,0,0,.876,2.376,3.346,3.346,0,0,0,2.244.744,3.137,3.137,0,0,0,2.244-.852,3.326,3.326,0,0,0,.9-2.532Zm8.352,10.368v6.7H242.38V8.456h6.288a6.191,6.191,0,0,1,4.44,1.464,4.945,4.945,0,0,1,1.536,3.744,4.8,4.8,0,0,1-1.536,3.816,6.546,6.546,0,0,1-4.44,1.344Zm0-8.52V17h4.032a3.739,3.739,0,0,0,2.856-.936,3.366,3.366,0,0,0,.864-2.376,3.562,3.562,0,0,0-.864-2.352,3.533,3.533,0,0,0-2.856-1.032ZM257.524,25.52V8.456h10.7V10.3H259.78v5.5h7.368v1.824H259.78v6.048h8.568V25.52Zm26.232-8.5v6.24a6.535,6.535,0,0,1-1.824,1.608,7.832,7.832,0,0,1-4.224.888,6.688,6.688,0,0,1-5.1-2.136,8.4,8.4,0,0,1-2-5.976v-1.32a9.1,9.1,0,0,1,1.776-5.964,6.227,6.227,0,0,1,5.088-2.148,6.108,6.108,0,0,1,4.44,1.476,6.386,6.386,0,0,1,1.848,3.756H281.5a4.574,4.574,0,0,0-1.164-2.388,3.736,3.736,0,0,0-2.868-1A3.878,3.878,0,0,0,274,11.732a8.117,8.117,0,0,0-1.14,4.5v1.416a7.122,7.122,0,0,0,1.344,4.608,4.324,4.324,0,0,0,3.528,1.656,5.887,5.887,0,0,0,2.628-.432,4.152,4.152,0,0,0,1.14-.816V18.848h-3.936V17.024Zm14.352,7.2V26h-11.16V24.44l5.784-6.432a15.577,15.577,0,0,0,1.92-2.58,4.029,4.029,0,0,0,.5-1.908,3.126,3.126,0,0,0-.78-2.136,2.768,2.768,0,0,0-2.2-.888,3.219,3.219,0,0,0-2.556.972,3.631,3.631,0,0,0-.852,2.484h-2.16a5.3,5.3,0,0,1,1.416-3.708,6.305,6.305,0,0,1,7.92-.288,4.276,4.276,0,0,1,1.368,3.3,5.758,5.758,0,0,1-.924,3.024,19.306,19.306,0,0,1-2.268,2.976l-4.584,4.968Zm13.008-5.52q0,4.2-1.44,5.868a4.928,4.928,0,0,1-3.936,1.668,5,5,0,0,1-3.876-1.62q-1.476-1.62-1.524-5.628v-2.88q0-4.176,1.464-5.8a5.578,5.578,0,0,1,7.812-.048q1.452,1.572,1.5,5.58Zm-2.16-2.952a7.477,7.477,0,0,0-.828-4.08,2.746,2.746,0,0,0-2.412-1.2,2.7,2.7,0,0,0-2.34,1.164,7.161,7.161,0,0,0-.852,3.948v3.48a7.73,7.73,0,0,0,.84,4.128,2.686,2.686,0,0,0,2.376,1.272,2.656,2.656,0,0,0,2.388-1.248,7.884,7.884,0,0,0,.828-4.056ZM324.6,18.7q0,4.2-1.44,5.868a4.928,4.928,0,0,1-3.936,1.668,5,5,0,0,1-3.876-1.62q-1.476-1.62-1.524-5.628v-2.88q0-4.176,1.464-5.8a5.578,5.578,0,0,1,7.812-.048q1.452,1.572,1.5,5.58Zm-2.16-2.952a7.477,7.477,0,0,0-.828-4.08,2.746,2.746,0,0,0-2.412-1.2,2.7,2.7,0,0,0-2.34,1.164,7.161,7.161,0,0,0-.852,3.948v3.48a7.73,7.73,0,0,0,.84,4.128,2.686,2.686,0,0,0,2.376,1.272,2.656,2.656,0,0,0,2.388-1.248,7.884,7.884,0,0,0,.828-4.056ZM338.092,18.7q0,4.2-1.44,5.868a4.928,4.928,0,0,1-3.936,1.668,5,5,0,0,1-3.876-1.62q-1.476-1.62-1.524-5.628v-2.88q0-4.176,1.464-5.8a5.578,5.578,0,0,1,7.812-.048q1.452,1.572,1.5,5.58Zm-2.16-2.952a7.477,7.477,0,0,0-.828-4.08,2.746,2.746,0,0,0-2.412-1.2,2.7,2.7,0,0,0-2.34,1.164,7.161,7.161,0,0,0-.852,3.948v3.48a7.73,7.73,0,0,0,.84,4.128,2.686,2.686,0,0,0,2.376,1.272,2.656,2.656,0,0,0,2.388-1.248,7.884,7.884,0,0,0,.828-4.056Zm7.152,7.68V25.16a5.482,5.482,0,0,1-.54,2.268,5.334,5.334,0,0,1-1.524,1.98l-1.224-.864a5.692,5.692,0,0,0,1.176-3.192v-1.92Zm11.3-4.608v6.7h-2.256V8.456h6.288a6.191,6.191,0,0,1,4.44,1.464,4.945,4.945,0,0,1,1.536,3.744,4.8,4.8,0,0,1-1.536,3.816,6.546,6.546,0,0,1-4.44,1.344Zm0-8.52V17h4.032a3.739,3.739,0,0,0,2.856-.936,3.366,3.366,0,0,0,.864-2.376,3.562,3.562,0,0,0-.864-2.352A3.533,3.533,0,0,0,358.42,10.3ZM380.38,8.456V25.52h-2.256l-8.592-13.152V25.52h-2.256V8.456h2.256l8.616,13.2V8.456Zm16.608,8.568v6.24a6.535,6.535,0,0,1-1.824,1.608,7.832,7.832,0,0,1-4.224.888,6.688,6.688,0,0,1-5.1-2.136,8.4,8.4,0,0,1-2-5.976v-1.32a9.1,9.1,0,0,1,1.776-5.964A6.227,6.227,0,0,1,390.7,8.216a6.108,6.108,0,0,1,4.44,1.476,6.386,6.386,0,0,1,1.848,3.756h-2.256a4.574,4.574,0,0,0-1.164-2.388,3.736,3.736,0,0,0-2.868-1,3.878,3.878,0,0,0-3.468,1.668,8.117,8.117,0,0,0-1.14,4.5v1.416a7.122,7.122,0,0,0,1.344,4.608,4.324,4.324,0,0,0,3.528,1.656,5.887,5.887,0,0,0,2.628-.432,4.152,4.152,0,0,0,1.14-.816V18.848H390.8V17.024Z" transform="translate(324.001 1069)"/><path d="M.66-18.96v-2.97H17.58v2.97H10.95V-.6H7.26V-18.96ZM26.585-.6a5.256,5.256,0,0,1-.42-1.5,5.473,5.473,0,0,1-4.17,1.8A5.583,5.583,0,0,1,18.11-1.665,4.362,4.362,0,0,1,16.595-5.04a4.5,4.5,0,0,1,1.89-3.9,9.083,9.083,0,0,1,5.34-1.35h2.22v-1.02a2.8,2.8,0,0,0-.69-1.995,2.708,2.708,0,0,0-2.07-.735,3.072,3.072,0,0,0-2.04.63,1.93,1.93,0,0,0-.75,1.53h-3.54a4.371,4.371,0,0,1,1.755-3.36,7.077,7.077,0,0,1,4.755-1.5,6.928,6.928,0,0,1,4.41,1.365,4.885,4.885,0,0,1,1.74,4.1v7.02a8.194,8.194,0,0,0,.6,3.42V-.6Zm-.54-4.47v-3h-2.16q-3.72.09-3.72,2.67a2.179,2.179,0,0,0,.645,1.605,2.54,2.54,0,0,0,1.875.645,3.678,3.678,0,0,0,2.115-.6A3.585,3.585,0,0,0,26.045-5.07ZM41.529-.3a5.428,5.428,0,0,1-4.17-1.71v7.5h-3.54V-16.44h3.27l.15,1.59a5.283,5.283,0,0,1,4.26-1.89,5.328,5.328,0,0,1,4.62,2.22,9.833,9.833,0,0,1,1.59,5.85v.3A9.855,9.855,0,0,1,46.1-2.61,5.239,5.239,0,0,1,41.529-.3Zm-1.02-13.53A3.29,3.29,0,0,0,37.359-12v6.99a3.345,3.345,0,0,0,3.18,1.86A2.9,2.9,0,0,0,43.3-4.695a7.586,7.586,0,0,0,.84-3.675v-.3a7.305,7.305,0,0,0-.855-3.645A2.944,2.944,0,0,0,40.509-13.83ZM66.438-.66A7.014,7.014,0,0,1,64.1-.3a4.352,4.352,0,0,1-2.94-1,4.373,4.373,0,0,1-1.17-3.465v-9.06h-2.61v-2.61h2.61v-3.87h3.54v3.87h2.82v2.61h-2.82v8.85q0,1.08.465,1.4a2.127,2.127,0,0,0,1.215.315,5.3,5.3,0,0,0,1.23-.15Zm1.835-8.01a8.622,8.622,0,0,1,1.95-5.76,6.686,6.686,0,0,1,5.4-2.31,6.723,6.723,0,0,1,5.385,2.25,8.589,8.589,0,0,1,2,5.64v.48a8.665,8.665,0,0,1-1.935,5.76A6.676,6.676,0,0,1,75.653-.3a6.72,6.72,0,0,1-5.43-2.31,8.622,8.622,0,0,1-1.95-5.76Zm3.54.3a7.082,7.082,0,0,0,.915,3.675A3.145,3.145,0,0,0,75.653-3.15a3.118,3.118,0,0,0,2.895-1.545,7.082,7.082,0,0,0,.915-3.675v-.3a7.1,7.1,0,0,0-.915-3.66,3.138,3.138,0,0,0-2.925-1.56,3.111,3.111,0,0,0-2.895,1.56,7.1,7.1,0,0,0-.915,3.66ZM103.862-.6a5.256,5.256,0,0,1-.42-1.5,5.473,5.473,0,0,1-4.17,1.8,5.583,5.583,0,0,1-3.885-1.365A4.362,4.362,0,0,1,93.872-5.04a4.5,4.5,0,0,1,1.89-3.9,9.083,9.083,0,0,1,5.34-1.35h2.22v-1.02a2.8,2.8,0,0,0-.69-1.995,2.708,2.708,0,0,0-2.07-.735,3.072,3.072,0,0,0-2.04.63,1.93,1.93,0,0,0-.75,1.53h-3.54a4.371,4.371,0,0,1,1.755-3.36,7.077,7.077,0,0,1,4.755-1.5,6.928,6.928,0,0,1,4.41,1.365,4.885,4.885,0,0,1,1.74,4.1v7.02a8.194,8.194,0,0,0,.6,3.42V-.6Zm-.54-4.47v-3h-2.16q-3.72.09-3.72,2.67a2.179,2.179,0,0,0,.645,1.605,2.54,2.54,0,0,0,1.875.645,3.678,3.678,0,0,0,2.115-.6A3.584,3.584,0,0,0,103.322-5.07ZM121.086-.6l-.15-1.65a5.214,5.214,0,0,1-4.26,1.95,5.356,5.356,0,0,1-4.56-2.295,9.467,9.467,0,0,1-1.68-5.745v-.33a9.46,9.46,0,0,1,1.68-5.835,5.432,5.432,0,0,1,4.59-2.235,5.129,5.129,0,0,1,4.05,1.74v-8.1h3.57V-.6Zm-7.11-7.74a7.345,7.345,0,0,0,.84,3.615,2.911,2.911,0,0,0,2.76,1.515,3.32,3.32,0,0,0,3.18-1.98v-6.75a3.314,3.314,0,0,0-3.15-1.89,2.937,2.937,0,0,0-2.79,1.515,7.411,7.411,0,0,0-.84,3.645ZM138.491-.6l-.15-1.65a5.214,5.214,0,0,1-4.26,1.95,5.356,5.356,0,0,1-4.56-2.295,9.467,9.467,0,0,1-1.68-5.745v-.33a9.46,9.46,0,0,1,1.68-5.835,5.432,5.432,0,0,1,4.59-2.235,5.129,5.129,0,0,1,4.05,1.74v-8.1h3.57V-.6Zm-7.11-7.74a7.345,7.345,0,0,0,.84,3.615,2.911,2.911,0,0,0,2.76,1.515,3.32,3.32,0,0,0,3.18-1.98v-6.75a3.314,3.314,0,0,0-3.15-1.89,2.937,2.937,0,0,0-2.79,1.515,7.411,7.411,0,0,0-.84,3.645ZM165.32-6.12a2.607,2.607,0,0,0-.84-2.025,11.8,11.8,0,0,0-3.885-1.71,15.454,15.454,0,0,1-4.935-2.415,4.848,4.848,0,0,1-1.89-4.05,5.2,5.2,0,0,1,2.085-4.245,8.512,8.512,0,0,1,5.475-1.665,7.865,7.865,0,0,1,5.64,1.935,6.133,6.133,0,0,1,2.04,4.6h-3.69a3.541,3.541,0,0,0-.99-2.595,4.131,4.131,0,0,0-3.06-1.005,4.148,4.148,0,0,0-2.88.855,2.758,2.758,0,0,0-.93,2.115,2.339,2.339,0,0,0,1.11,1.98,11.794,11.794,0,0,0,3.36,1.44,13.536,13.536,0,0,1,5.355,2.625A5.323,5.323,0,0,1,169.01-6.15a5.1,5.1,0,0,1-2.055,4.275A8.876,8.876,0,0,1,161.42-.3a10.676,10.676,0,0,1-3.945-.75,7.661,7.661,0,0,1-3.15-2.25,5.674,5.674,0,0,1-1.245-3.75h3.72a3.247,3.247,0,0,0,1.335,2.925,5.816,5.816,0,0,0,3.285.885,4.557,4.557,0,0,0,2.925-.795A2.56,2.56,0,0,0,165.32-6.12ZM185.485-3.3a7.488,7.488,0,0,1-2.235,2.055,7.141,7.141,0,0,1-3.885.945,7.143,7.143,0,0,1-5.535-2.2A7.789,7.789,0,0,1,171.8-7.98v-.6a8.35,8.35,0,0,1,2.07-5.955,6.719,6.719,0,0,1,5.1-2.205,6.015,6.015,0,0,1,5.115,2.19,9.062,9.062,0,0,1,1.665,5.64v1.5H175.4a5.066,5.066,0,0,0,1.23,3.045A3.77,3.77,0,0,0,179.6-3.15a4.781,4.781,0,0,0,3.96-1.98Zm-6.51-10.59a3.008,3.008,0,0,0-2.37,1.02,5.237,5.237,0,0,0-1.14,2.85h6.75v-.27a4.962,4.962,0,0,0-.765-2.49A2.7,2.7,0,0,0,178.975-13.89Zm13.775-9.21V-.6h-3.57V-23.1Zm12.395,9.27h-3.21V-.6h-3.57V-13.83h-2.43v-2.61h2.43v-1.53a5.27,5.27,0,0,1,1.485-4.035,5.7,5.7,0,0,1,4.065-1.395,7.832,7.832,0,0,1,2.01.27l-.09,2.76a7.09,7.09,0,0,0-1.38-.12,2.217,2.217,0,0,0-2.52,2.46v1.59h3.21Zm3.035-6.75a1.832,1.832,0,0,1,.54-1.35,2.007,2.007,0,0,1,1.485-.54,2.007,2.007,0,0,1,1.485.54,1.832,1.832,0,0,1,.54,1.35,1.832,1.832,0,0,1-.54,1.35,2.007,2.007,0,0,1-1.485.54,2.007,2.007,0,0,1-1.485-.54A1.832,1.832,0,0,1,208.178-20.58Zm3.78,4.14V-.6h-3.57V-16.44ZM229.393-3.3a7.488,7.488,0,0,1-2.235,2.055,7.141,7.141,0,0,1-3.885.945,7.143,7.143,0,0,1-5.535-2.2,7.789,7.789,0,0,1-2.025-5.475v-.6a8.35,8.35,0,0,1,2.07-5.955,6.719,6.719,0,0,1,5.1-2.205A6.015,6.015,0,0,1,228-14.55a9.062,9.062,0,0,1,1.665,5.64v1.5h-10.35a5.066,5.066,0,0,0,1.23,3.045,3.77,3.77,0,0,0,2.97,1.215,4.781,4.781,0,0,0,3.96-1.98Zm-6.51-10.59a3.008,3.008,0,0,0-2.37,1.02,5.237,5.237,0,0,0-1.14,2.85h6.75v-.27a4.962,4.962,0,0,0-.765-2.49A2.7,2.7,0,0,0,222.883-13.89Z" transform="translate(438.561 1050)"/></g></g></svg>