<svg xmlns="http://www.w3.org/2000/svg" width="72" height="72" viewBox="0 0 72 72"><defs><style>.a{opacity:0.25;}.b{opacity:0;}.c{opacity:0.1;}.d{fill-rule:evenodd;}</style></defs><g class="a"><g class="b" transform="translate(14958 -8372)"><rect class="c" width="72" height="72" transform="translate(-14958 8372)"/><rect class="c" width="48" height="48" transform="translate(-14946 8384)"/></g><path class="d" d="M32,13C32,5.82,26.627,0,20,0S8,5.82,8,13V27c0,7.18,5.373,13,12,13s12-5.82,12-13ZM20,4a8,8,0,0,0-8,8V28a8,8,0,0,0,16,0V12A8,8,0,0,0,20,4ZM0,28V25H4v3a16,16,0,0,0,32,0V25h4v3A20,20,0,0,1,22,47.9V55H18V47.9A20,20,0,0,1,0,28Z" transform="translate(16 9)"/></g></svg>