<svg xmlns="http://www.w3.org/2000/svg" width="102" height="98.31" viewBox="0 0 102 98.31"><defs><style>.a{fill:#dff8ec;}.b{fill:#2ad181;}</style></defs><g transform="translate(-4007 7470)"><path class="a" d="M21634-9399a48.68,48.68,0,0,1-19.072-3.852,48.818,48.818,0,0,1-15.572-10.5,48.765,48.765,0,0,1-10.5-15.576A48.7,48.7,0,0,1,21585-9448a48.694,48.694,0,0,1,3.852-19.072,48.778,48.778,0,0,1,10.5-15.574,48.828,48.828,0,0,1,15.572-10.5A48.7,48.7,0,0,1,21634-9497a48.706,48.706,0,0,1,19.074,3.851,48.861,48.861,0,0,1,15.576,10.5,48.826,48.826,0,0,1,10.5,15.574A48.694,48.694,0,0,1,21683-9448a48.7,48.7,0,0,1-3.852,19.073,48.845,48.845,0,0,1-10.5,15.576,48.856,48.856,0,0,1-15.576,10.5A48.7,48.7,0,0,1,21634-9399Zm0-87a37.752,37.752,0,0,0-14.789,2.986,37.877,37.877,0,0,0-12.078,8.146,37.88,37.88,0,0,0-8.145,12.078A37.75,37.75,0,0,0,21596-9448a37.752,37.752,0,0,0,2.986,14.792,37.88,37.88,0,0,0,8.145,12.078,37.848,37.848,0,0,0,12.078,8.143A37.752,37.752,0,0,0,21634-9410a37.778,37.778,0,0,0,14.793-2.986,37.848,37.848,0,0,0,12.078-8.143,37.88,37.88,0,0,0,8.145-12.078A37.8,37.8,0,0,0,21672-9448a37.793,37.793,0,0,0-2.984-14.79,37.912,37.912,0,0,0-8.145-12.078,37.877,37.877,0,0,0-12.078-8.146A37.771,37.771,0,0,0,21634-9486Z" transform="translate(-17578 2027)"/><g transform="translate(4007 -7479.262)"><g transform="translate(0 9.262)"><g transform="translate(0)"><path class="b" d="M97.652,50.445a49.187,49.187,0,1,0-22.7,49.788,1.7,1.7,0,0,0-1.79-2.9A45.712,45.712,0,1,1,94.288,51a1.7,1.7,0,1,0,3.364-.554Z" transform="translate(0 -9.262)"/></g></g><g transform="translate(9.26 18.52)"><g transform="translate(0 0)"><path class="b" d="M139.15,106.05a1.705,1.705,0,0,0-1.24-1.169l-3.139-.743a49.168,49.168,0,0,0,.735-9.817,1.7,1.7,0,1,0-3.408.088,45.833,45.833,0,0,1-.979,10.657,1.7,1.7,0,0,0,1.275,2.011l1.858.44L125.309,117l-3.74-12.485,1.824.432a1.7,1.7,0,0,0,2.063-1.316,39.891,39.891,0,1,0-77.391,3.146,40.163,40.163,0,0,0,10.019,16.987,1.7,1.7,0,0,0,2.42-2.4,36.485,36.485,0,1,1,61.925-20.147l-2.947-.7a1.7,1.7,0,0,0-2.026,2.148l5.434,18.141a1.7,1.7,0,0,0,2.873.68l12.993-13.776A1.705,1.705,0,0,0,139.15,106.05Z" transform="translate(-46.482 -55.734)"/></g></g><g transform="translate(24.976 87.598)"><path class="b" d="M171.05,404.9a1.7,1.7,0,0,0-2.345-.555,36.525,36.525,0,0,1-40.629-1.541,1.7,1.7,0,1,0-2.007,2.755,39.651,39.651,0,0,0,14.285,6.555,40.182,40.182,0,0,0,9.268,1.089,39.638,39.638,0,0,0,20.873-5.958A1.7,1.7,0,0,0,171.05,404.9Z" transform="translate(-125.368 -402.479)"/></g><g transform="translate(42.871 44.047)"><path class="b" d="M238.583,196.6H227.1a6.088,6.088,0,0,0-4.127-4.127v-6.894a1.7,1.7,0,0,0-3.409,0v6.894a6.074,6.074,0,1,0,7.536,7.536h11.486a1.7,1.7,0,1,0,0-3.409Zm-15.433,3.589a2.665,2.665,0,1,1,.781-1.885A2.648,2.648,0,0,1,223.15,200.187Z" transform="translate(-215.194 -183.872)"/></g><g transform="translate(47.238 80.992)"><path class="b" d="M238.819,369.317a1.7,1.7,0,0,0-1.7,1.7v6.1a1.7,1.7,0,1,0,3.409,0v-6.1A1.7,1.7,0,0,0,238.819,369.317Z" transform="translate(-237.115 -369.317)"/></g><g transform="translate(47.238 26.284)"><path class="b" d="M238.819,94.7a1.7,1.7,0,0,0-1.7,1.7v6.1a1.7,1.7,0,0,0,3.409,0v-6.1A1.7,1.7,0,0,0,238.819,94.7Z" transform="translate(-237.115 -94.704)"/></g><g transform="translate(61.701 81.739)"><path class="b" d="M313.634,375.2l-.738-1.279a1.7,1.7,0,0,0-2.952,1.7l.738,1.279a1.7,1.7,0,0,0,2.952-1.7Z" transform="translate(-309.715 -373.068)"/></g><g transform="translate(32.036 30.357)"><path class="b" d="M164.724,117.281,163.986,116a1.7,1.7,0,0,0-2.952,1.7l.738,1.279a1.7,1.7,0,1,0,2.952-1.7Z" transform="translate(-160.805 -115.15)"/></g><g transform="translate(72.289 71.151)"><path class="b" d="M366.7,320.887l-1.279-.738a1.7,1.7,0,1,0-1.7,2.952l1.279.738a1.7,1.7,0,1,0,1.7-2.952Z" transform="translate(-362.863 -319.92)"/></g><g transform="translate(20.907 41.485)"><path class="b" d="M108.779,171.978l-1.279-.738a1.7,1.7,0,0,0-1.7,2.952l1.279.738a1.7,1.7,0,0,0,1.7-2.952Z" transform="translate(-104.943 -171.011)"/></g><g transform="translate(71.542 56.687)"><path class="b" d="M366.915,247.319h-6.1a1.7,1.7,0,1,0,0,3.409h6.1a1.7,1.7,0,1,0,0-3.409Z" transform="translate(-359.111 -247.319)"/></g><g transform="translate(16.834 56.687)"><path class="b" d="M92.3,247.319H86.2a1.7,1.7,0,1,0,0,3.409h6.1a1.7,1.7,0,1,0,0-3.409Z" transform="translate(-84.499 -247.319)"/></g><g transform="translate(72.289 41.485)"><path class="b" d="M367.322,171.863a1.7,1.7,0,0,0-2.328-.624l-1.279.738a1.7,1.7,0,1,0,1.7,2.952l1.279-.738A1.7,1.7,0,0,0,367.322,171.863Z" transform="translate(-362.863 -171.011)"/></g><g transform="translate(20.907 71.151)"><path class="b" d="M109.4,320.773a1.7,1.7,0,0,0-2.328-.624l-1.279.738a1.7,1.7,0,1,0,1.7,2.952l1.279-.738A1.7,1.7,0,0,0,109.4,320.773Z" transform="translate(-104.943 -319.92)"/></g><g transform="translate(61.701 30.357)"><path class="b" d="M313.011,115.379a1.7,1.7,0,0,0-2.328.624l-.738,1.279a1.7,1.7,0,1,0,2.952,1.7l.738-1.279A1.7,1.7,0,0,0,313.011,115.379Z" transform="translate(-309.716 -115.15)"/></g><g transform="translate(32.035 81.739)"><path class="b" d="M164.1,373.3a1.7,1.7,0,0,0-2.328.624l-.738,1.279a1.7,1.7,0,1,0,2.952,1.7l.738-1.279A1.7,1.7,0,0,0,164.1,373.3Z" transform="translate(-160.805 -373.069)"/></g></g></g></svg>