<svg xmlns="http://www.w3.org/2000/svg" width="133.957" height="127.674" viewBox="0 0 133.957 127.674"><defs><style>.a{fill:#fff;}.b{fill:#dff8ec;}.c{fill:#0a6d34;}</style></defs><g transform="translate(-12.146 -10)"><path class="a" d="M139,2.5H21.361a6.735,6.735,0,0,0-6.715,6.715v42.9a6.735,6.735,0,0,0,6.715,6.715H43V30.663h74.35V58.826H139a6.735,6.735,0,0,0,6.715-6.715V9.215A6.734,6.734,0,0,0,139,2.5Z" transform="translate(-1.055 8.945)"/><path class="b" d="M67.4,215.077a3.7,3.7,0,0,1-3.7-3.7V221.7a3.7,3.7,0,0,0,3.7,3.7h66.953a3.7,3.7,0,0,0,3.7-3.7V211.378C138.047,213.421,75.832,215.077,67.4,215.077Z" transform="translate(-21.748 -89.175)"/><path class="a" d="M132.006,24.151H46.619A10.323,10.323,0,0,0,36.3,34.474v1.173a4.15,4.15,0,0,0,4.15,4.15h97.732a4.15,4.15,0,0,0,4.15-4.15V34.474A10.323,10.323,0,0,0,132.006,24.151Z" transform="translate(-10.188 -0.189)"/><path class="a" d="M52.137,48.185H40.446a4.15,4.15,0,0,1-4.15-4.15V59.681a4.15,4.15,0,0,0,4.15,4.15H52.137Z" transform="translate(-10.188 -8.577)"/><path class="a" d="M203.994,48.186H192.3V63.832h11.691a4.15,4.15,0,0,0,4.15-4.15V44.036A4.15,4.15,0,0,1,203.994,48.186Z" transform="translate(-76.004 -8.578)"/><path class="b" d="M56.547,51.214h-9.8v7.893a1.675,1.675,0,0,0,1.674,1.674h8.123V51.214Z" transform="translate(-14.599 -11.606)"/><path class="b" d="M192.3,51.214v9.567h8.123a1.674,1.674,0,0,0,1.674-1.674V51.214Z" transform="translate(-76.004 -11.606)"/><g transform="translate(41.949 38.156)"><rect class="b" width="74" height="87" transform="translate(0.197 0.843)"/></g><path class="c" d="M158.287,206.165H90.562a3.821,3.821,0,0,0-3.52,2.31,14.071,14.071,0,0,1-7.284,7.358,3.825,3.825,0,0,0-2.274,3.5v33.544a3.825,3.825,0,0,0,2.274,3.5,14.072,14.072,0,0,1,7.284,7.358,3.821,3.821,0,0,0,3.52,2.31h67.724ZM155.1,261.937H90.746A18.173,18.173,0,0,0,81.6,252.7V219.519a18.17,18.17,0,0,0,9.145-9.237H155.1Z" transform="translate(-157.205 196.301) rotate(-90)"/><path class="a" d="M159.4,213.452H95.574a1.735,1.735,0,0,0-1.6,1.029,15.791,15.791,0,0,1-8.182,8.161,1.709,1.709,0,0,0-1.025,1.569v32.471a1.709,1.709,0,0,0,1.025,1.569,15.79,15.79,0,0,1,8.182,8.161,1.734,1.734,0,0,0,1.6,1.029H159.4Z" transform="translate(-161.542 200.421) rotate(-90)"/><path class="c" d="M133.293,147.9H66.341a5.15,5.15,0,0,1-5.144-5.144V60.159a1.445,1.445,0,0,1,1.445-1.445h74.35a1.445,1.445,0,0,1,1.445,1.445v82.595A5.15,5.15,0,0,1,133.293,147.9ZM64.088,61.6v81.15a2.256,2.256,0,0,0,2.254,2.254h66.952a2.256,2.256,0,0,0,2.254-2.254V61.6Z" transform="translate(-20.693 -20.551)"/><path class="c" d="M137.942,59.217H116.3a1.445,1.445,0,0,1-1.445-1.445V31.053H43.394V57.771a1.445,1.445,0,0,1-1.445,1.445H20.306a8.17,8.17,0,0,1-8.16-8.16V8.16A8.17,8.17,0,0,1,20.306,0H137.943a8.17,8.17,0,0,1,8.16,8.16v42.9a8.171,8.171,0,0,1-8.161,8.161Zm-20.2-2.891h20.2a5.276,5.276,0,0,0,5.27-5.27V8.16a5.276,5.276,0,0,0-5.27-5.27H20.306a5.276,5.276,0,0,0-5.27,5.27v42.9a5.276,5.276,0,0,0,5.27,5.27H40.5V29.608a1.445,1.445,0,0,1,1.445-1.445H116.3a1.445,1.445,0,0,1,1.445,1.445Z" transform="translate(0 10)"/><path class="c" d="M133.293,225.794H66.341A5.15,5.15,0,0,1,61.2,220.65V210.323a1.445,1.445,0,1,1,2.891,0,2.256,2.256,0,0,0,2.254,2.254h66.952a2.256,2.256,0,0,0,2.254-2.254,1.445,1.445,0,0,1,2.891,0V220.65A5.149,5.149,0,0,1,133.293,225.794ZM64.088,214.947v5.7a2.256,2.256,0,0,0,2.254,2.254h66.952a2.256,2.256,0,0,0,2.254-2.254v-5.7a5.109,5.109,0,0,1-2.254.52H66.341A5.1,5.1,0,0,1,64.088,214.947Z" transform="translate(-20.693 -88.12)"/><path class="c" d="M137.124,40.187H39.392a5.6,5.6,0,0,1-5.6-5.6V33.418A11.782,11.782,0,0,1,45.564,21.65H130.95a11.782,11.782,0,0,1,11.768,11.768v1.173A5.6,5.6,0,0,1,137.124,40.187ZM45.564,24.541a8.888,8.888,0,0,0-8.878,8.878v1.173A2.708,2.708,0,0,0,39.392,37.3h97.732a2.708,2.708,0,0,0,2.705-2.705V33.419a8.888,8.888,0,0,0-8.878-8.878Z" transform="translate(-9.134 0.866)"/><path class="c" d="M51.083,64.223H39.392a5.6,5.6,0,0,1-5.6-5.6V42.981a1.445,1.445,0,0,1,2.891,0,2.708,2.708,0,0,0,2.705,2.705H51.083a1.445,1.445,0,0,1,1.445,1.445V62.777A1.445,1.445,0,0,1,51.083,64.223Zm-14.4-16.345V58.627a2.708,2.708,0,0,0,2.705,2.705H49.637V48.576H39.392A5.559,5.559,0,0,1,36.687,47.878Z" transform="translate(-9.134 -7.523)"/><path class="c" d="M202.939,64.222H191.247a1.445,1.445,0,0,1-1.445-1.445V47.131a1.445,1.445,0,0,1,1.445-1.445h11.691a2.708,2.708,0,0,0,2.705-2.705,1.445,1.445,0,1,1,2.891,0V58.626A5.6,5.6,0,0,1,202.939,64.222Zm-10.246-2.891h10.246a2.708,2.708,0,0,0,2.705-2.705V47.878a5.559,5.559,0,0,1-2.705.7H192.693Z" transform="translate(-74.949 -7.523)"/><path class="c" d="M55.493,61.172H47.37a3.123,3.123,0,0,1-3.12-3.12V50.159A1.445,1.445,0,0,1,45.7,48.714h9.8a1.445,1.445,0,0,1,1.445,1.445v9.567A1.445,1.445,0,0,1,55.493,61.172ZM47.141,51.6v6.447a.229.229,0,0,0,.229.229h6.678V51.6Z" transform="translate(-13.544 -10.551)"/><path class="c" d="M199.371,61.172h-8.124a1.445,1.445,0,0,1-1.445-1.445V50.159a1.445,1.445,0,0,1,1.445-1.445h9.8a1.445,1.445,0,0,1,1.445,1.445v7.893A3.123,3.123,0,0,1,199.371,61.172Zm-6.678-2.891h6.678a.229.229,0,0,0,.229-.229V51.6h-6.907v6.677Z" transform="translate(-74.949 -10.551)"/><ellipse class="b" cx="18.512" cy="18.512" rx="18.512" ry="18.512" transform="translate(60.468 54.873)"/><path class="c" d="M102.356,104.737a20.386,20.386,0,1,1,20.386-20.386A20.409,20.409,0,0,1,102.356,104.737Zm0-38.557a18.171,18.171,0,1,0,18.171,18.171A18.192,18.192,0,0,0,102.356,66.18Z" transform="translate(-23.231 -10.76)"/><path class="c" d="M9.71,2.5h3.253L15.012,0H2.05L0,2.5H4.947A4.787,4.787,0,0,1,8.461,5.457H2.05L0,7.957H8.415a5.045,5.045,0,0,1-4.576,2.984l-3.462.032,6.268,6.4h3.72L6.031,12.948a7.176,7.176,0,0,0,5.244-4.991h1.687l2.05-2.5H11.3A6.189,6.189,0,0,0,9.71,2.5Z" transform="translate(70.331 81.076) rotate(-90)"/></g></svg>